<svg  viewBox="0 0 200 136" fill="none" xmlns="http://www.w3.org/2000/svg">
<g id="arduino-logo" clip-path="url(#clip0)">
<g id="Group">
<path id="Vector" d="M10.9688 101.874L0.714844 135.345H8.78359L10.6344 129.108H20.6367L22.4375 135.345H31.2117L20.9586 101.874H10.9688ZM12.6609 122.376L15.707 111.965L18.7188 122.376H12.6609Z" fill="#00979C"/>
<path id="Vector_2" d="M50.493 120.075C50.3719 119.945 50.2484 119.822 50.1226 119.708C50.375 119.612 50.6211 119.511 50.8617 119.4C51.8383 118.951 52.6937 118.351 53.4047 117.619C54.1234 116.879 54.6883 115.989 55.0828 114.971C55.4734 113.965 55.6719 112.81 55.6719 111.539C55.6719 109.787 55.3555 108.271 54.7336 107.033C54.1047 105.78 53.1945 104.749 52.0297 103.967C50.8992 103.209 49.5242 102.662 47.9422 102.34C46.4219 102.032 44.7094 101.874 42.8539 101.874H32.3867V135.345H40.4141V122.267H40.6523C41.5305 122.267 42.2625 122.46 42.8898 122.858C43.5125 123.253 43.9898 123.835 44.3516 124.641L49.2031 135.345H58.543L52.6484 123.405C51.9344 121.955 51.2289 120.867 50.493 120.075ZM47.0016 113.654C46.7695 114.096 46.4476 114.458 46.0172 114.762C45.5633 115.08 45 115.325 44.3406 115.489C43.6445 115.663 42.85 115.751 41.9781 115.751H40.4141V108.704H42.1781C44.0156 108.704 45.3812 108.993 46.2367 109.562C46.982 110.058 47.3445 110.894 47.3445 112.119C47.3445 112.712 47.232 113.214 47.0016 113.654Z" fill="#00979C"/>
<path id="Vector_3" d="M82.0602 105.849C80.7086 104.49 79.0039 103.473 76.9937 102.827C75.0344 102.195 72.7281 101.874 70.1398 101.874H59.5234V135.345H68.7648C71.7469 135.345 74.3555 134.939 76.5172 134.138C78.7125 133.326 80.5461 132.148 81.9656 130.637C83.3828 129.129 84.4391 127.287 85.1031 125.163C85.7547 123.083 86.0844 120.744 86.0844 118.211C86.0844 115.449 85.7539 113.026 85.1008 111.01C84.4336 108.944 83.4109 107.208 82.0602 105.849ZM75.4969 126.19C74.1031 127.739 72.0812 128.491 69.3156 128.491H67.55V108.728H69.7398C71.2875 108.728 72.5867 108.947 73.6 109.379C74.5828 109.797 75.343 110.387 75.9242 111.183C76.518 111.998 76.9484 113.022 77.2031 114.222C77.4711 115.493 77.6078 116.965 77.6078 118.597C77.6078 122.08 76.8977 124.635 75.4969 126.19Z" fill="#00979C"/>
<path id="Vector_4" d="M105.424 123.167C105.424 124.321 105.318 125.304 105.106 126.09C104.909 126.824 104.62 127.423 104.243 127.871C103.882 128.301 103.441 128.605 102.895 128.8C102.3 129.012 101.54 129.119 100.634 129.119C99.675 129.119 98.8844 128.997 98.2836 128.754C97.7063 128.519 97.2422 128.184 96.8641 127.73C96.4844 127.273 96.2125 126.7 96.0555 126.023C95.8805 125.276 95.7922 124.397 95.7922 123.408V101.874H87.7656V123.771C87.7656 125.58 87.9898 127.241 88.4305 128.707C88.8891 130.229 89.6453 131.546 90.6789 132.617C91.7125 133.687 93.0656 134.515 94.7008 135.076C96.2899 135.623 98.2102 135.901 100.408 135.901C102.373 135.901 104.176 135.623 105.765 135.076C107.39 134.519 108.791 133.674 109.929 132.565C111.068 131.454 111.952 130.055 112.555 128.408C113.149 126.791 113.451 124.897 113.451 122.779V101.874H105.424V123.167Z" fill="#00979C"/>
<path id="Vector_5" d="M117.555 108.608H124.758V128.564H117.555V135.345H140.088V128.564H132.885V108.608H140.088V101.874H117.555V108.608Z" fill="#00979C"/>
<path id="Vector_6" d="M162.426 120.946L153.452 101.874H144.367V135.345H151.843V115.911L160.864 135.345H169.903V101.874H162.426V120.946Z" fill="#00979C"/>
<path id="Vector_7" d="M195.887 105.834C193.543 102.854 190.03 101.343 185.446 101.343C183.485 101.343 181.615 101.69 179.887 102.376C178.134 103.07 176.586 104.151 175.284 105.592C173.993 107.02 172.968 108.857 172.239 111.05C171.518 113.215 171.152 115.811 171.152 118.767C171.152 124.228 172.314 128.476 174.605 131.397C176.948 134.386 180.462 135.901 185.045 135.901C187.007 135.901 188.879 135.553 190.607 134.868C192.36 134.172 193.908 133.09 195.209 131.652C196.498 130.225 197.523 128.389 198.254 126.194C198.973 124.03 199.339 121.434 199.339 118.476C199.339 113 198.177 108.746 195.887 105.834ZM190.604 123.226C190.374 124.461 190.016 125.502 189.538 126.322C189.085 127.102 188.524 127.674 187.825 128.069C187.128 128.462 186.26 128.661 185.246 128.661C183.24 128.661 181.841 127.914 180.971 126.379C180.015 124.692 179.53 122.034 179.53 118.476C179.53 116.806 179.65 115.305 179.889 114.019C180.119 112.786 180.48 111.746 180.964 110.926C181.425 110.143 181.987 109.569 182.684 109.173C183.37 108.782 184.232 108.583 185.246 108.583C187.268 108.583 188.67 109.329 189.532 110.862C190.481 112.549 190.962 115.209 190.962 118.767C190.962 120.442 190.842 121.942 190.604 123.226Z" fill="#00979C"/>
<path id="Vector_8" d="M187.742 4.48437H189.166V8.2289H190.177V4.48437H191.613V3.55469H187.742V4.48437Z" fill="#00979C"/>
<path id="Vector_9" d="M195.132 3.55469L194.158 6.74062L193.15 3.55469H191.832V8.2289H192.782V5.24297L193.724 8.2289H194.591L195.485 5.32031V8.2289H196.43V3.55469H195.132Z" fill="#00979C"/>
<path id="Vector_10" d="M148.651 94.0055C135.926 94.0055 125.046 89.7149 115.471 80.9391C109.556 75.5195 104.68 68.8797 100.193 61.9758C95.707 68.8797 90.8297 75.5195 84.9156 80.9391C74.6273 90.368 62.832 94.6195 48.8617 93.9344C22.2203 93.8188 0.582031 72.7938 0.582031 46.9672C0.582031 21.0695 22.3391 0 49.082 0C63.7164 0 76.0375 4.84297 86.7461 14.8047C91.8898 19.5898 96.232 25.1406 100.193 30.9484C104.154 25.1406 108.497 19.5898 113.64 14.8047C124.348 4.84297 136.67 0 151.304 0C178.048 0 199.804 21.0695 199.804 46.9672C199.804 72.7938 178.166 93.8188 151.524 93.9344C150.556 93.982 149.598 94.0055 148.651 94.0055ZM109.936 46.3406C115.244 54.9524 120.395 62.968 126.67 68.718C133.753 75.2094 141.219 77.8797 150.87 77.3695L151.304 77.3578C168.906 77.3578 183.227 63.725 183.227 46.9672C183.227 30.2102 168.906 16.5766 151.304 16.5766C140.913 16.5766 132.532 19.8703 124.93 26.9414C119.253 32.2234 114.566 38.9906 109.936 46.3406ZM49.082 16.5766C31.4797 16.5766 17.1586 30.2102 17.1586 46.9672C17.1586 63.725 31.4797 77.3578 49.082 77.3578L49.5172 77.3695C59.1687 77.8797 66.6328 75.2094 73.7156 68.718C79.9906 62.968 85.143 54.9524 90.45 46.3406C85.8203 38.9906 81.1328 32.2234 75.4562 26.9414C67.8539 19.8703 59.4734 16.5766 49.082 16.5766Z" fill="#00979C"/>
<path id="Vector_11" d="M153.497 40.9427V31.9536H144.141V40.9427H135.152V50.2536H144.141V59.3091H153.497V50.2536H162.486V40.9427H153.497Z" fill="#00979C"/>
<path id="Vector_12" d="M35.6211 40.8306H65.1656V50.4337H35.6211V40.8306Z" fill="#00979C"/>
</g>
</g>
<defs>
<clipPath id="clip0">
<rect width="200" height="135.938" fill="white"/>
</clipPath>
</defs>
</svg>
