<svg viewBox="0 0 491 338" fill="none" xmlns="http://www.w3.org/2000/svg">
<g id="arduino-ide">
<rect id="Rectangle 26" width="491" height="338" fill="#F8F8F8"/>
<rect id="Rectangle 27" width="491" height="54" fill="#00979C"/>
<g id="Rectangle 28">
<rect x="17" y="6" width="42" height="42" fill="#F8F8F8"/>
<rect x="17" y="6" width="42" height="42" fill="#F8F8F8"/>
<rect x="17" y="6" width="42" height="42" fill="#F8F8F8"/>
</g>
<g id="Rectangle 29">
<rect x="71" y="6" width="42" height="42" fill="#F8F8F8"/>
<rect x="71" y="6" width="42" height="42" fill="#F8F8F8"/>
<rect x="71" y="6" width="42" height="42" fill="#F8F8F8"/>
</g>
<path id="Vector 31" d="M26 27L34 34L49.5 20" stroke="#00979C" stroke-width="4"/>
<path id="Vector 32" d="M79 27H104M104 27L94.5 20M104 27L94.5 33.5" stroke="#00979C" stroke-width="4"/>
<g id="void setup(){ } void loop(){ }">
<path d="M120.476 98.064L112.052 117H109.424L101.036 98.064H103.7L110.792 114.192L117.956 98.064H120.476ZM136.688 117.18C134.864 117.18 133.22 116.772 131.756 115.956C130.292 115.116 129.14 113.964 128.3 112.5C127.46 111.036 127.04 109.38 127.04 107.532C127.04 105.684 127.46 104.028 128.3 102.564C129.14 101.1 130.292 99.96 131.756 99.144C133.22 98.328 134.864 97.92 136.688 97.92C138.512 97.92 140.156 98.328 141.62 99.144C143.084 99.96 144.224 101.1 145.04 102.564C145.88 104.028 146.3 105.684 146.3 107.532C146.3 109.38 145.88 111.036 145.04 112.5C144.224 113.964 143.084 115.116 141.62 115.956C140.156 116.772 138.512 117.18 136.688 117.18ZM136.688 114.912C138.032 114.912 139.232 114.612 140.288 114.012C141.368 113.388 142.208 112.512 142.808 111.384C143.408 110.256 143.708 108.972 143.708 107.532C143.708 106.092 143.408 104.808 142.808 103.68C142.208 102.552 141.368 101.688 140.288 101.088C139.232 100.464 138.032 100.152 136.688 100.152C135.344 100.152 134.132 100.464 133.052 101.088C131.996 101.688 131.156 102.552 130.532 103.68C129.932 104.808 129.632 106.092 129.632 107.532C129.632 108.972 129.932 110.256 130.532 111.384C131.156 112.512 131.996 113.388 133.052 114.012C134.132 114.612 135.344 114.912 136.688 114.912ZM156.919 98.064H159.475V117H156.919V98.064ZM158.215 93.924C157.687 93.924 157.243 93.744 156.883 93.384C156.523 93.024 156.343 92.592 156.343 92.088C156.343 91.608 156.523 91.188 156.883 90.828C157.243 90.468 157.687 90.288 158.215 90.288C158.743 90.288 159.187 90.468 159.547 90.828C159.907 91.164 160.087 91.572 160.087 92.052C160.087 92.58 159.907 93.024 159.547 93.384C159.187 93.744 158.743 93.924 158.215 93.924ZM189.267 90.288V117H186.819V113.256C186.051 114.528 185.031 115.5 183.759 116.172C182.511 116.844 181.095 117.18 179.511 117.18C177.735 117.18 176.127 116.772 174.687 115.956C173.247 115.14 172.119 114 171.303 112.536C170.487 111.072 170.079 109.404 170.079 107.532C170.079 105.66 170.487 103.992 171.303 102.528C172.119 101.064 173.247 99.936 174.687 99.144C176.127 98.328 177.735 97.92 179.511 97.92C181.047 97.92 182.427 98.244 183.651 98.892C184.899 99.516 185.919 100.44 186.711 101.664V90.288H189.267ZM179.727 114.912C181.047 114.912 182.235 114.612 183.291 114.012C184.371 113.388 185.211 112.512 185.811 111.384C186.435 110.256 186.747 108.972 186.747 107.532C186.747 106.092 186.435 104.808 185.811 103.68C185.211 102.552 184.371 101.688 183.291 101.088C182.235 100.464 181.047 100.152 179.727 100.152C178.383 100.152 177.171 100.464 176.091 101.088C175.035 101.688 174.195 102.552 173.571 103.68C172.971 104.808 172.671 106.092 172.671 107.532C172.671 108.972 172.971 110.256 173.571 111.384C174.195 112.512 175.035 113.388 176.091 114.012C177.171 114.612 178.383 114.912 179.727 114.912ZM120.476 218.064L112.052 237H109.424L101.036 218.064H103.7L110.792 234.192L117.956 218.064H120.476ZM136.688 237.18C134.864 237.18 133.22 236.772 131.756 235.956C130.292 235.116 129.14 233.964 128.3 232.5C127.46 231.036 127.04 229.38 127.04 227.532C127.04 225.684 127.46 224.028 128.3 222.564C129.14 221.1 130.292 219.96 131.756 219.144C133.22 218.328 134.864 217.92 136.688 217.92C138.512 217.92 140.156 218.328 141.62 219.144C143.084 219.96 144.224 221.1 145.04 222.564C145.88 224.028 146.3 225.684 146.3 227.532C146.3 229.38 145.88 231.036 145.04 232.5C144.224 233.964 143.084 235.116 141.62 235.956C140.156 236.772 138.512 237.18 136.688 237.18ZM136.688 234.912C138.032 234.912 139.232 234.612 140.288 234.012C141.368 233.388 142.208 232.512 142.808 231.384C143.408 230.256 143.708 228.972 143.708 227.532C143.708 226.092 143.408 224.808 142.808 223.68C142.208 222.552 141.368 221.688 140.288 221.088C139.232 220.464 138.032 220.152 136.688 220.152C135.344 220.152 134.132 220.464 133.052 221.088C131.996 221.688 131.156 222.552 130.532 223.68C129.932 224.808 129.632 226.092 129.632 227.532C129.632 228.972 129.932 230.256 130.532 231.384C131.156 232.512 131.996 233.388 133.052 234.012C134.132 234.612 135.344 234.912 136.688 234.912ZM156.919 218.064H159.475V237H156.919V218.064ZM158.215 213.924C157.687 213.924 157.243 213.744 156.883 213.384C156.523 213.024 156.343 212.592 156.343 212.088C156.343 211.608 156.523 211.188 156.883 210.828C157.243 210.468 157.687 210.288 158.215 210.288C158.743 210.288 159.187 210.468 159.547 210.828C159.907 211.164 160.087 211.572 160.087 212.052C160.087 212.58 159.907 213.024 159.547 213.384C159.187 213.744 158.743 213.924 158.215 213.924ZM189.267 210.288V237H186.819V233.256C186.051 234.528 185.031 235.5 183.759 236.172C182.511 236.844 181.095 237.18 179.511 237.18C177.735 237.18 176.127 236.772 174.687 235.956C173.247 235.14 172.119 234 171.303 232.536C170.487 231.072 170.079 229.404 170.079 227.532C170.079 225.66 170.487 223.992 171.303 222.528C172.119 221.064 173.247 219.936 174.687 219.144C176.127 218.328 177.735 217.92 179.511 217.92C181.047 217.92 182.427 218.244 183.651 218.892C184.899 219.516 185.919 220.44 186.711 221.664V210.288H189.267ZM179.727 234.912C181.047 234.912 182.235 234.612 183.291 234.012C184.371 233.388 185.211 232.512 185.811 231.384C186.435 230.256 186.747 228.972 186.747 227.532C186.747 226.092 186.435 224.808 185.811 223.68C185.211 222.552 184.371 221.688 183.291 221.088C182.235 220.464 181.047 220.152 179.727 220.152C178.383 220.152 177.171 220.464 176.091 221.088C175.035 221.688 174.195 222.552 173.571 223.68C172.971 224.808 172.671 226.092 172.671 227.532C172.671 228.972 172.971 230.256 173.571 231.384C174.195 232.512 175.035 233.388 176.091 234.012C177.171 234.612 178.383 234.912 179.727 234.912Z" fill="#00979C"/>
<path d="M350.549 123.984C349.205 121.776 348.173 119.244 347.453 116.388C346.733 113.508 346.373 110.424 346.373 107.136C346.373 103.848 346.733 100.764 347.453 97.884C348.173 94.98 349.205 92.448 350.549 90.288H352.997C351.581 92.712 350.537 95.316 349.865 98.1C349.217 100.884 348.893 103.896 348.893 107.136C348.893 110.376 349.217 113.388 349.865 116.172C350.537 118.956 351.581 121.56 352.997 123.984H350.549ZM361.317 123.984C362.733 121.56 363.777 118.968 364.449 116.208C365.121 113.424 365.457 110.4 365.457 107.136C365.457 103.872 365.121 100.86 364.449 98.1C363.777 95.316 362.733 92.712 361.317 90.288H363.765C365.109 92.448 366.141 94.98 366.861 97.884C367.605 100.764 367.977 103.848 367.977 107.136C367.977 110.424 367.617 113.508 366.897 116.388C366.177 119.268 365.133 121.8 363.765 123.984H361.317ZM384.684 104.184C384.684 105.072 384.552 105.732 384.288 106.164C384.024 106.596 383.592 106.92 382.992 107.136C383.592 107.352 384.024 107.676 384.288 108.108C384.552 108.54 384.684 109.2 384.684 110.088V118.98C384.684 120.9 385.596 121.86 387.42 121.86H388.392V123.984H387.06C383.772 123.984 382.128 122.388 382.128 119.196V110.052C382.128 108.828 381.588 108.216 380.508 108.216H379.284V106.056H380.508C381.588 106.056 382.128 105.444 382.128 104.22V95.076C382.128 91.884 383.772 90.288 387.06 90.288H388.392V92.412H387.42C385.596 92.412 384.684 93.372 384.684 95.292V104.184ZM110.864 166.056V168.216H109.64C108.56 168.216 108.02 168.828 108.02 170.052V179.196C108.02 182.388 106.388 183.984 103.124 183.984H101.756V181.86H102.728C104.552 181.86 105.464 180.9 105.464 178.98V170.088C105.464 169.2 105.596 168.54 105.86 168.108C106.124 167.676 106.556 167.352 107.156 167.136C106.556 166.92 106.124 166.596 105.86 166.164C105.596 165.732 105.464 165.072 105.464 164.184V155.292C105.464 153.372 104.552 152.412 102.728 152.412H101.756V150.288H103.124C106.388 150.288 108.02 151.884 108.02 155.076V164.22C108.02 165.444 108.56 166.056 109.64 166.056H110.864ZM321.77 243.984C320.426 241.776 319.394 239.244 318.674 236.388C317.954 233.508 317.594 230.424 317.594 227.136C317.594 223.848 317.954 220.764 318.674 217.884C319.394 214.98 320.426 212.448 321.77 210.288H324.218C322.802 212.712 321.758 215.316 321.086 218.1C320.438 220.884 320.114 223.896 320.114 227.136C320.114 230.376 320.438 233.388 321.086 236.172C321.758 238.956 322.802 241.56 324.218 243.984H321.77ZM332.538 243.984C333.954 241.56 334.998 238.968 335.67 236.208C336.342 233.424 336.678 230.4 336.678 227.136C336.678 223.872 336.342 220.86 335.67 218.1C334.998 215.316 333.954 212.712 332.538 210.288H334.986C336.33 212.448 337.362 214.98 338.082 217.884C338.826 220.764 339.198 223.848 339.198 227.136C339.198 230.424 338.838 233.508 338.118 236.388C337.398 239.268 336.354 241.8 334.986 243.984H332.538ZM355.905 224.184C355.905 225.072 355.773 225.732 355.509 226.164C355.245 226.596 354.813 226.92 354.213 227.136C354.813 227.352 355.245 227.676 355.509 228.108C355.773 228.54 355.905 229.2 355.905 230.088V238.98C355.905 240.9 356.817 241.86 358.641 241.86H359.613V243.984H358.281C354.993 243.984 353.349 242.388 353.349 239.196V230.052C353.349 228.828 352.809 228.216 351.729 228.216H350.505V226.056H351.729C352.809 226.056 353.349 225.444 353.349 224.22V215.076C353.349 211.884 354.993 210.288 358.281 210.288H359.613V212.412H358.641C356.817 212.412 355.905 213.372 355.905 215.292V224.184ZM110.864 286.056V288.216H109.64C108.56 288.216 108.02 288.828 108.02 290.052V299.196C108.02 302.388 106.388 303.984 103.124 303.984H101.756V301.86H102.728C104.552 301.86 105.464 300.9 105.464 298.98V290.088C105.464 289.2 105.596 288.54 105.86 288.108C106.124 287.676 106.556 287.352 107.156 287.136C106.556 286.92 106.124 286.596 105.86 286.164C105.596 285.732 105.464 285.072 105.464 284.184V275.292C105.464 273.372 104.552 272.412 102.728 272.412H101.756V270.288H103.124C106.388 270.288 108.02 271.884 108.02 275.076V284.22C108.02 285.444 108.56 286.056 109.64 286.056H110.864Z" fill="black"/>
<path d="M221.683 117.18C220.147 117.18 218.671 116.964 217.255 116.532C215.863 116.076 214.771 115.512 213.979 114.84L215.131 112.824C215.923 113.448 216.919 113.964 218.119 114.372C219.319 114.756 220.567 114.948 221.863 114.948C223.591 114.948 224.863 114.684 225.679 114.156C226.519 113.604 226.939 112.836 226.939 111.852C226.939 111.156 226.711 110.616 226.255 110.232C225.799 109.824 225.223 109.524 224.527 109.332C223.831 109.116 222.907 108.912 221.755 108.72C220.219 108.432 218.983 108.144 218.047 107.856C217.111 107.544 216.307 107.028 215.635 106.308C214.987 105.588 214.663 104.592 214.663 103.32C214.663 101.736 215.323 100.44 216.643 99.432C217.963 98.424 219.799 97.92 222.151 97.92C223.375 97.92 224.599 98.088 225.823 98.424C227.047 98.736 228.055 99.156 228.847 99.684L227.731 101.736C226.171 100.656 224.311 100.116 222.151 100.116C220.519 100.116 219.283 100.404 218.443 100.98C217.627 101.556 217.219 102.312 217.219 103.248C217.219 103.968 217.447 104.544 217.903 104.976C218.383 105.408 218.971 105.732 219.667 105.948C220.363 106.14 221.323 106.344 222.547 106.56C224.059 106.848 225.271 107.136 226.183 107.424C227.095 107.712 227.875 108.204 228.523 108.9C229.171 109.596 229.495 110.556 229.495 111.78C229.495 113.436 228.799 114.756 227.407 115.74C226.039 116.7 224.131 117.18 221.683 117.18ZM256.108 108.324H240.268C240.412 110.292 241.168 111.888 242.536 113.112C243.904 114.312 245.632 114.912 247.72 114.912C248.896 114.912 249.976 114.708 250.96 114.3C251.944 113.868 252.796 113.244 253.516 112.428L254.956 114.084C254.116 115.092 253.06 115.86 251.788 116.388C250.54 116.916 249.16 117.18 247.648 117.18C245.704 117.18 243.976 116.772 242.464 115.956C240.976 115.116 239.812 113.964 238.972 112.5C238.132 111.036 237.712 109.38 237.712 107.532C237.712 105.684 238.108 104.028 238.9 102.564C239.716 101.1 240.82 99.96 242.212 99.144C243.628 98.328 245.212 97.92 246.964 97.92C248.716 97.92 250.288 98.328 251.68 99.144C253.072 99.96 254.164 101.1 254.956 102.564C255.748 104.004 256.144 105.66 256.144 107.532L256.108 108.324ZM246.964 100.116C245.14 100.116 243.604 100.704 242.356 101.88C241.132 103.032 240.436 104.544 240.268 106.416H253.696C253.528 104.544 252.82 103.032 251.572 101.88C250.348 100.704 248.812 100.116 246.964 100.116ZM276.719 115.848C276.239 116.28 275.639 116.616 274.919 116.856C274.223 117.072 273.491 117.18 272.723 117.18C270.947 117.18 269.579 116.7 268.619 115.74C267.659 114.78 267.179 113.424 267.179 111.672V100.224H263.795V98.064H267.179V93.924H269.735V98.064H275.495V100.224H269.735V111.528C269.735 112.656 270.011 113.52 270.563 114.12C271.139 114.696 271.955 114.984 273.011 114.984C273.539 114.984 274.043 114.9 274.523 114.732C275.027 114.564 275.459 114.324 275.819 114.012L276.719 115.848ZM303.836 98.064V117H301.388V113.544C300.716 114.696 299.792 115.596 298.616 116.244C297.44 116.868 296.096 117.18 294.584 117.18C292.112 117.18 290.156 116.496 288.716 115.128C287.3 113.736 286.592 111.708 286.592 109.044V98.064H289.148V108.792C289.148 110.784 289.64 112.296 290.624 113.328C291.608 114.36 293.012 114.876 294.836 114.876C296.828 114.876 298.4 114.276 299.552 113.076C300.704 111.852 301.28 110.16 301.28 108V98.064H303.836ZM326.15 97.92C327.926 97.92 329.534 98.328 330.974 99.144C332.414 99.936 333.542 101.064 334.358 102.528C335.174 103.992 335.582 105.66 335.582 107.532C335.582 109.428 335.174 111.108 334.358 112.572C333.542 114.036 332.414 115.176 330.974 115.992C329.558 116.784 327.95 117.18 326.15 117.18C324.614 117.18 323.222 116.868 321.974 116.244C320.75 115.596 319.742 114.66 318.95 113.436V123.984H316.394V98.064H318.842V101.808C319.61 100.56 320.618 99.6 321.866 98.928C323.138 98.256 324.566 97.92 326.15 97.92ZM325.97 114.912C327.29 114.912 328.49 114.612 329.57 114.012C330.65 113.388 331.49 112.512 332.09 111.384C332.714 110.256 333.026 108.972 333.026 107.532C333.026 106.092 332.714 104.82 332.09 103.716C331.49 102.588 330.65 101.712 329.57 101.088C328.49 100.464 327.29 100.152 325.97 100.152C324.626 100.152 323.414 100.464 322.334 101.088C321.278 101.712 320.438 102.588 319.814 103.716C319.214 104.82 318.914 106.092 318.914 107.532C318.914 108.972 319.214 110.256 319.814 111.384C320.438 112.512 321.278 113.388 322.334 114.012C323.414 114.612 324.626 114.912 325.97 114.912ZM216.607 210.288H219.163V237H216.607V210.288ZM239.415 237.18C237.591 237.18 235.947 236.772 234.483 235.956C233.019 235.116 231.867 233.964 231.027 232.5C230.187 231.036 229.767 229.38 229.767 227.532C229.767 225.684 230.187 224.028 231.027 222.564C231.867 221.1 233.019 219.96 234.483 219.144C235.947 218.328 237.591 217.92 239.415 217.92C241.239 217.92 242.883 218.328 244.347 219.144C245.811 219.96 246.951 221.1 247.767 222.564C248.607 224.028 249.027 225.684 249.027 227.532C249.027 229.38 248.607 231.036 247.767 232.5C246.951 233.964 245.811 235.116 244.347 235.956C242.883 236.772 241.239 237.18 239.415 237.18ZM239.415 234.912C240.759 234.912 241.959 234.612 243.015 234.012C244.095 233.388 244.935 232.512 245.535 231.384C246.135 230.256 246.435 228.972 246.435 227.532C246.435 226.092 246.135 224.808 245.535 223.68C244.935 222.552 244.095 221.688 243.015 221.088C241.959 220.464 240.759 220.152 239.415 220.152C238.071 220.152 236.859 220.464 235.779 221.088C234.723 221.688 233.883 222.552 233.259 223.68C232.659 224.808 232.359 226.092 232.359 227.532C232.359 228.972 232.659 230.256 233.259 231.384C233.883 232.512 234.723 233.388 235.779 234.012C236.859 234.612 238.071 234.912 239.415 234.912ZM267.385 237.18C265.561 237.18 263.917 236.772 262.453 235.956C260.989 235.116 259.837 233.964 258.997 232.5C258.157 231.036 257.737 229.38 257.737 227.532C257.737 225.684 258.157 224.028 258.997 222.564C259.837 221.1 260.989 219.96 262.453 219.144C263.917 218.328 265.561 217.92 267.385 217.92C269.209 217.92 270.853 218.328 272.317 219.144C273.781 219.96 274.921 221.1 275.737 222.564C276.577 224.028 276.997 225.684 276.997 227.532C276.997 229.38 276.577 231.036 275.737 232.5C274.921 233.964 273.781 235.116 272.317 235.956C270.853 236.772 269.209 237.18 267.385 237.18ZM267.385 234.912C268.729 234.912 269.929 234.612 270.985 234.012C272.065 233.388 272.905 232.512 273.505 231.384C274.105 230.256 274.405 228.972 274.405 227.532C274.405 226.092 274.105 224.808 273.505 223.68C272.905 222.552 272.065 221.688 270.985 221.088C269.929 220.464 268.729 220.152 267.385 220.152C266.041 220.152 264.829 220.464 263.749 221.088C262.693 221.688 261.853 222.552 261.229 223.68C260.629 224.808 260.329 226.092 260.329 227.532C260.329 228.972 260.629 230.256 261.229 231.384C261.853 232.512 262.693 233.388 263.749 234.012C264.829 234.612 266.041 234.912 267.385 234.912ZM297.372 217.92C299.148 217.92 300.756 218.328 302.196 219.144C303.636 219.936 304.764 221.064 305.58 222.528C306.396 223.992 306.804 225.66 306.804 227.532C306.804 229.428 306.396 231.108 305.58 232.572C304.764 234.036 303.636 235.176 302.196 235.992C300.78 236.784 299.172 237.18 297.372 237.18C295.836 237.18 294.444 236.868 293.196 236.244C291.972 235.596 290.964 234.66 290.172 233.436V243.984H287.616V218.064H290.064V221.808C290.832 220.56 291.84 219.6 293.088 218.928C294.36 218.256 295.788 217.92 297.372 217.92ZM297.192 234.912C298.512 234.912 299.712 234.612 300.792 234.012C301.872 233.388 302.712 232.512 303.312 231.384C303.936 230.256 304.248 228.972 304.248 227.532C304.248 226.092 303.936 224.82 303.312 223.716C302.712 222.588 301.872 221.712 300.792 221.088C299.712 220.464 298.512 220.152 297.192 220.152C295.848 220.152 294.636 220.464 293.556 221.088C292.5 221.712 291.66 222.588 291.036 223.716C290.436 224.82 290.136 226.092 290.136 227.532C290.136 228.972 290.436 230.256 291.036 231.384C291.66 232.512 292.5 233.388 293.556 234.012C294.636 234.612 295.848 234.912 297.192 234.912Z" fill="#BBEC6C"/>
</g>
</g>
</svg>
