<svg viewBox="0 0 512 512" fill="none" xmlns="http://www.w3.org/2000/svg">
<g id="robotic-arm (1) 1" clip-path="url(#clip0)">
<path id="Vector" d="M245.332 256C236.5 256 229.332 248.832 229.332 240V218.667C229.332 209.835 236.5 202.667 245.332 202.667C254.164 202.667 261.332 209.835 261.332 218.667V240C261.332 248.832 254.164 256 245.332 256Z" fill="#CFD8DC"/>
<path id="Vector_2" d="M272.001 160H218.668C209.836 160 202.668 167.168 202.668 176V218.667C202.668 227.499 209.836 234.667 218.668 234.667H272.001C280.833 234.667 288.001 227.499 288.001 218.667V176C288.001 167.168 280.833 160 272.001 160Z" fill="#607D8B"/>
<path id="Vector_3" d="M495.999 16H293.332C284.5 16 277.332 23.168 277.332 32V96H197.332C188.5 96 181.332 103.168 181.332 112V176C181.332 184.832 188.5 192 197.332 192H293.332C302.164 192 309.332 184.832 309.332 176V128H495.999C504.831 128 511.999 120.832 511.999 112V32C511.999 23.168 504.831 16 495.999 16Z" fill="#90A4AE"/>
<path id="Vector_4" d="M245.335 0C204.161 0 170.668 33.4933 170.668 74.6667C170.668 115.84 204.161 149.333 245.335 149.333C286.508 149.333 320.001 115.84 320.001 74.6667C320.001 33.4933 286.508 0 245.335 0Z" fill="#607D8B"/>
<g id="Group">
<path id="Vector_5" d="M496 149.333C487.168 149.333 480 142.165 480 133.333V16C480 7.168 487.168 0 496 0C504.832 0 512 7.168 512 16V133.333C512 142.165 504.832 149.333 496 149.333Z" fill="#CFD8DC"/>
<path id="Vector_6" d="M261.336 74.6667C261.336 83.4987 254.168 90.6667 245.336 90.6667C236.504 90.6667 229.336 83.4987 229.336 74.6667C229.336 65.8347 236.504 58.6667 245.336 58.6667C254.168 58.6667 261.336 65.8347 261.336 74.6667Z" fill="#CFD8DC"/>
<path id="Vector_7" d="M385.665 366.912L358.017 316.629C344.727 292.395 318.273 277.333 289.025 277.333H153.836C127.703 277.333 104.983 293.781 98.6041 317.312L84.2041 369.963C82.8815 374.763 83.8841 379.904 86.9135 383.872C89.9428 387.84 94.6361 390.165 99.6068 390.165L371.607 390.613H371.628C377.281 390.613 382.508 387.627 385.388 382.763C388.289 377.92 388.396 371.883 385.665 366.912V366.912ZM186.668 368.448L118.444 366.08L129.495 325.696C132.119 316.075 142.124 309.333 153.836 309.333H186.668V368.448ZM218.668 368V309.333H289.025C306.327 309.333 322.412 318.251 329.985 332.011V332.032L351.831 371.797L218.668 368Z" fill="#CFD8DC"/>
</g>
<path id="Vector_8" d="M472.171 393.514L375.552 363.392L370.773 362.667H99.4773L95.8507 363.093L43.904 375.21C18.048 381.184 0 403.2 0 428.736V476.458C0 496.042 16.5333 512 36.864 512H78.6133C87.4453 512 94.6133 504.832 94.6133 496C94.6133 483.243 106.155 472.875 120.363 472.875C134.571 472.875 146.112 483.243 146.112 496C146.112 504.832 153.28 512 162.112 512H349.952C358.784 512 365.952 504.832 365.952 496C365.952 483.243 377.493 472.875 391.701 472.875C405.909 472.875 417.429 483.243 417.429 496C417.429 504.832 424.597 512 433.429 512H475.179C495.467 512 512 496.042 512 476.458V445.952C512 422.208 496.043 401.152 472.171 393.514V393.514Z" fill="#607D8B"/>
<path id="Vector_9" d="M261.332 234.667H229.332V240C229.332 248.832 236.5 256 245.332 256C254.164 256 261.332 248.832 261.332 240V234.667Z" fill="#B4BCC0"/>
<path id="Vector_10" d="M288.001 192H202.668V218.667C202.668 227.499 209.836 234.667 218.668 234.667H229.335H261.335H272.001C280.833 234.667 288.001 227.499 288.001 218.667V192Z" fill="#546D79"/>
<path id="Vector_11" d="M479.999 74.6667H319.999C319.999 115.84 286.505 149.333 245.332 149.333C218.196 149.333 194.409 134.784 181.332 113.088V176C181.332 184.832 188.5 192 197.332 192H202.665H287.999H293.332C302.164 192 309.332 184.832 309.332 176V128H479.999V74.6667Z" fill="#7D8F97"/>
<path id="Vector_12" d="M320.001 74.6667H261.335C261.335 83.4987 254.167 90.6667 245.335 90.6667C236.503 90.6667 229.335 83.4987 229.335 74.6667H170.668C170.668 88.7041 174.572 101.867 181.335 113.088C194.412 134.784 218.199 149.333 245.335 149.333C286.508 149.333 320.001 115.84 320.001 74.6667Z" fill="#546D79"/>
<path id="Vector_13" d="M512 74.6667H480V128V133.333C480 142.165 487.168 149.333 496 149.333C504.832 149.333 512 142.165 512 133.333V74.6667Z" fill="#B4BCC0"/>
<path id="Vector_14" d="M261.332 74.6667H229.332C229.332 83.4987 236.5 90.6667 245.332 90.6667C254.164 90.6667 261.332 83.4987 261.332 74.6667Z" fill="#B4BCC0"/>
<path id="Vector_15" d="M235.647 277.333H153.834C127.701 277.333 104.981 293.781 98.602 317.312L85.418 365.526L95.85 363.094L99.4766 362.667H119.381L129.493 325.717C132.117 316.075 142.122 309.333 153.834 309.333H186.666V362.667H218.666V309.333H235.647V277.333Z" fill="#B4BCC0"/>
<path id="Vector_16" d="M235.648 362.667H218.667H186.667H119.381H99.4773L95.8507 363.093L85.4187 365.525L43.8827 375.21C18.048 381.184 0 403.2 0 428.736V476.458C0 496.042 16.5333 512 36.864 512H78.6133C87.4453 512 94.6133 504.832 94.6133 496C94.6133 483.243 106.155 472.875 120.363 472.875C134.571 472.875 146.112 483.243 146.112 496C146.112 504.832 153.28 512 162.112 512H235.669V362.667H235.648Z" fill="#546D79"/>
</g>
<defs>
<clipPath id="clip0">
<rect width="512" height="512" fill="white"/>
</clipPath>
</defs>
</svg>
