<svg viewBox="0 0 261 235" fill="none" xmlns="http://www.w3.org/2000/svg">
<g id="diode 1">
<path id="Vector" d="M210.016 235C207.76 235 205.938 233.359 205.938 231.328V121.187C205.938 119.156 207.76 117.515 210.016 117.515C212.271 117.515 214.094 119.156 214.094 121.187V231.328C214.094 233.359 212.271 235 210.016 235Z" fill="#CCD1D9"/>
<path id="Vector_2" d="M169.25 235C166.995 235 165.172 233.359 165.172 231.328V121.187C165.172 119.156 166.995 117.515 169.25 117.515C171.505 117.515 173.328 119.156 173.328 121.187V231.328C173.328 233.359 171.505 235 169.25 235Z" fill="#CCD1D9"/>
<path id="Vector_3" d="M169.242 110.156H181.477H210.023H230.414H232.453C235.838 110.156 238.57 112.616 238.57 115.664C238.57 118.712 235.838 121.172 232.453 121.172H210.023H169.242H146.812C143.428 121.172 140.695 118.712 140.695 115.664C140.695 112.616 143.428 110.156 146.812 110.156H148.852H169.242Z" fill="#ED5565"/>
<path id="Vector_4" d="M181.477 88.125V110.156H169.242V80.7812L181.477 88.125Z" fill="#CE2C3F"/>
<path id="Vector_5" d="M210.023 62.4219V91.7969L185.555 77.1094V62.4219H210.023Z" fill="#CE2C3F"/>
<path id="Vector_6" d="M210.023 91.7969V62.4219H185.555V77.1094L210.023 91.7969ZM210.023 110.156H181.477V88.125L169.242 80.7812V110.156H148.852V40.3906V40.3539C148.892 20.0484 167.122 3.67188 189.633 3.67188C212.144 3.67188 230.373 20.0484 230.414 40.3539V40.3906V110.156H210.023Z" fill="#DA4453"/>
<path id="Vector_7" d="M91.7578 80.7812V110.156H79.5234V88.125L91.7578 80.7812Z" fill="#AAB2BD"/>
<path id="Vector_8" d="M75.4453 62.4219V77.1094L50.9766 91.7969V62.4219H75.4453Z" fill="#AAB2BD"/>
<path id="Vector_9" d="M114.188 110.156C117.572 110.156 120.305 112.616 120.305 115.664C120.305 118.712 117.572 121.172 114.188 121.172H91.7578H50.9766H28.5469C25.162 121.172 22.4297 118.712 22.4297 115.664C22.4297 112.616 25.162 110.156 28.5469 110.156H30.5859H50.9766H79.5234H91.7578H112.148H114.188Z" fill="#E6E9ED"/>
<path id="Vector_10" d="M50.9766 91.7969L75.4453 77.1094V62.4219H50.9766V91.7969ZM91.7578 80.7812L79.5234 88.125V110.156H50.9766H30.5859V40.3906V40.3539C30.6267 20.0484 48.8559 3.67188 71.3672 3.67188C93.8784 3.67188 112.108 20.0484 112.148 40.3539V40.3906V110.156H91.7578V80.7812Z" fill="#CCD1D9"/>
<path id="Vector_11" d="M112.148 44.0625C109.893 44.0625 108.07 42.4212 108.07 40.3906C108.07 22.1671 91.6069 7.34375 71.3672 7.34375C51.1275 7.34375 34.6641 22.1671 34.6641 40.3906C34.6641 42.4212 32.8411 44.0625 30.5859 44.0625C28.3307 44.0625 26.5078 42.4212 26.5078 40.3906C26.5078 18.1207 46.6293 0 71.3672 0C96.0969 0 116.227 18.1207 116.227 40.3906C116.227 42.4212 114.404 44.0625 112.148 44.0625Z" fill="#CCD1D9"/>
<path id="Vector_12" d="M30.5937 113.846C28.3385 113.846 26.5156 112.205 26.5156 110.175V40.3833C26.5156 38.3528 28.3385 36.7114 30.5937 36.7114C32.8489 36.7114 34.6719 38.3528 34.6719 40.3833V110.175C34.6719 112.205 32.8489 113.846 30.5937 113.846Z" fill="#CCD1D9"/>
<path id="Vector_13" d="M112.141 113.846C109.885 113.846 108.062 112.205 108.062 110.175V40.3833C108.062 38.3528 109.885 36.7114 112.141 36.7114C114.396 36.7114 116.219 38.3528 116.219 40.3833V110.175C116.219 112.205 114.396 113.846 112.141 113.846Z" fill="#CCD1D9"/>
<path id="Vector_14" d="M50.9844 113.846C48.7292 113.846 46.9062 112.205 46.9062 110.175V58.75C46.9062 56.7195 48.7292 55.0781 50.9844 55.0781C53.2396 55.0781 55.0625 56.7195 55.0625 58.75V110.175C55.0625 112.205 53.2396 113.846 50.9844 113.846Z" fill="#AAB2BD"/>
<path id="Vector_15" d="M75.445 66.0938H50.9844C48.7292 66.0938 46.9062 64.4524 46.9062 62.4219C46.9062 60.3913 48.7292 58.75 50.9844 58.75H75.445C77.7002 58.75 79.5231 60.3913 79.5231 62.4219C79.5231 64.4524 77.7002 66.0938 75.445 66.0938Z" fill="#AAB2BD"/>
<path id="Vector_16" d="M75.4453 80.7812C73.1901 80.7812 71.3672 79.1399 71.3672 77.1094V62.4219C71.3672 60.3913 73.1901 58.75 75.4453 58.75C77.7005 58.75 79.5234 60.3913 79.5234 62.4219V77.1094C79.5234 79.1399 77.7005 80.7812 75.4453 80.7812Z" fill="#AAB2BD"/>
<path id="Vector_17" d="M50.9938 95.4689C49.6725 95.4689 48.3797 94.8961 47.5927 93.8349C46.3407 92.1495 46.8504 89.8693 48.7223 88.742L73.1829 74.0545C75.0466 72.9273 77.5873 73.3826 78.8392 75.0716C80.0912 76.757 79.5815 79.0373 77.7096 80.1645L53.249 94.852C52.5557 95.267 51.7646 95.4689 50.9938 95.4689Z" fill="#AAB2BD"/>
<path id="Vector_18" d="M91.75 113.846C89.4948 113.846 87.6719 112.205 87.6719 110.175V58.75C87.6719 56.7195 89.4948 55.0781 91.75 55.0781C94.0052 55.0781 95.8281 56.7195 95.8281 58.75V110.175C95.8281 112.205 94.0052 113.846 91.75 113.846Z" fill="#AAB2BD"/>
<path id="Vector_19" d="M79.5234 113.846C77.2682 113.846 75.4453 112.205 75.4453 110.175V88.125C75.4453 86.0945 77.2682 84.4531 79.5234 84.4531C81.7786 84.4531 83.6016 86.0945 83.6016 88.125V110.175C83.6016 112.205 81.7786 113.846 79.5234 113.846Z" fill="#AAB2BD"/>
<path id="Vector_20" d="M79.5229 91.7968C78.2098 91.7968 76.9088 91.224 76.1299 90.1628C74.8779 88.4737 75.3796 86.1972 77.2596 85.0699L89.4858 77.7298C91.3658 76.6026 93.8983 77.0579 95.1422 78.7469C96.3941 80.436 95.8925 82.7126 94.0125 83.8398L81.7863 91.1799C81.0849 91.5948 80.3019 91.7968 79.5229 91.7968Z" fill="#AAB2BD"/>
<path id="Vector_21" d="M50.9844 235C48.7292 235 46.9062 233.359 46.9062 231.328V121.187C46.9062 119.156 48.7292 117.515 50.9844 117.515C53.2396 117.515 55.0625 119.156 55.0625 121.187V231.328C55.0625 233.359 53.2396 235 50.9844 235Z" fill="#CCD1D9"/>
<path id="Vector_22" d="M91.75 235C89.4948 235 87.6719 233.359 87.6719 231.328V121.187C87.6719 119.156 89.4948 117.515 91.75 117.515C94.0052 117.515 95.8281 119.156 95.8281 121.187V231.328C95.8281 233.359 94.0052 235 91.75 235Z" fill="#CCD1D9"/>
<path id="Vector_23" d="M230.414 44.0625C228.159 44.0625 226.336 42.4212 226.336 40.3906C226.336 22.1671 209.873 7.34375 189.633 7.34375C169.393 7.34375 152.93 22.1671 152.93 40.3906C152.93 42.4212 151.107 44.0625 148.852 44.0625C146.596 44.0625 144.773 42.4212 144.773 40.3906C144.773 18.1207 164.903 0 189.633 0C214.371 0 234.492 18.1207 234.492 40.3906C234.492 42.4212 232.669 44.0625 230.414 44.0625Z" fill="#DA4453"/>
<path id="Vector_24" d="M230.406 113.846C228.151 113.846 226.328 112.205 226.328 110.175V40.3833C226.328 38.3528 228.151 36.7114 230.406 36.7114C232.661 36.7114 234.484 38.3528 234.484 40.3833V110.175C234.484 112.205 232.661 113.846 230.406 113.846Z" fill="#DA4453"/>
<path id="Vector_25" d="M148.859 113.846C146.604 113.846 144.781 112.205 144.781 110.175V40.3833C144.781 38.3528 146.604 36.7114 148.859 36.7114C151.115 36.7114 152.938 38.3528 152.938 40.3833V110.175C152.938 112.205 151.115 113.846 148.859 113.846Z" fill="#DA4453"/>
<path id="Vector_26" d="M232.445 124.862C230.19 124.862 228.367 123.221 228.367 121.19C228.367 119.16 230.19 117.519 232.445 117.519C233.567 117.519 234.484 116.692 234.484 115.683C234.484 114.673 233.567 113.847 232.445 113.847C230.19 113.847 228.367 112.205 228.367 110.175C228.367 108.144 230.19 106.503 232.445 106.503C238.069 106.503 242.641 110.619 242.641 115.683C242.641 120.746 238.069 124.862 232.445 124.862Z" fill="#ED5565"/>
<path id="Vector_27" d="M146.82 124.862C141.197 124.862 136.625 120.746 136.625 115.683C136.625 110.619 141.197 106.503 146.82 106.503C149.076 106.503 150.898 108.144 150.898 110.175C150.898 112.205 149.076 113.847 146.82 113.847C145.699 113.847 144.781 114.673 144.781 115.683C144.781 116.692 145.699 117.519 146.82 117.519C149.076 117.519 150.898 119.16 150.898 121.19C150.898 123.221 149.076 124.862 146.82 124.862Z" fill="#ED5565"/>
<path id="Vector_28" d="M232.445 124.858H146.82C144.565 124.858 142.742 123.217 142.742 121.187C142.742 119.156 144.565 117.515 146.82 117.515H232.445C234.7 117.515 236.523 119.156 236.523 121.187C236.523 123.217 234.7 124.858 232.445 124.858Z" fill="#ED5565"/>
<g id="Group">
<path id="Vector_29" d="M210.016 113.846C207.76 113.846 205.938 112.205 205.938 110.175V58.75C205.938 56.7195 207.76 55.0781 210.016 55.0781C212.271 55.0781 214.094 56.7195 214.094 58.75V110.175C214.094 112.205 212.271 113.846 210.016 113.846Z" fill="#CE2C3F"/>
<path id="Vector_30" d="M210.015 66.0938H185.555C183.299 66.0938 181.477 64.4524 181.477 62.4219C181.477 60.3913 183.299 58.75 185.555 58.75H210.015C212.27 58.75 214.093 60.3913 214.093 62.4219C214.093 64.4524 212.27 66.0938 210.015 66.0938Z" fill="#CE2C3F"/>
<path id="Vector_31" d="M185.555 80.7812C183.299 80.7812 181.477 79.1399 181.477 77.1094V62.4219C181.477 60.3913 183.299 58.75 185.555 58.75C187.81 58.75 189.633 60.3913 189.633 62.4219V77.1094C189.633 79.1399 187.81 80.7812 185.555 80.7812Z" fill="#CE2C3F"/>
<path id="Vector_32" d="M210.004 95.4689C209.234 95.4689 208.443 95.267 207.749 94.852L183.289 80.1645C181.417 79.0373 180.907 76.757 182.159 75.0716C183.411 73.3826 185.944 72.9273 187.815 74.0545L212.276 88.742C214.148 89.8693 214.658 92.1495 213.406 93.8349C212.619 94.8961 211.326 95.4689 210.004 95.4689Z" fill="#CE2C3F"/>
<path id="Vector_33" d="M169.25 113.846C166.995 113.846 165.172 112.205 165.172 110.175V58.75C165.172 56.7195 166.995 55.0781 169.25 55.0781C171.505 55.0781 173.328 56.7195 173.328 58.75V110.175C173.328 112.205 171.505 113.846 169.25 113.846Z" fill="#CE2C3F"/>
<path id="Vector_34" d="M181.477 113.846C179.221 113.846 177.398 112.205 177.398 110.175V88.125C177.398 86.0945 179.221 84.4531 181.477 84.4531C183.732 84.4531 185.555 86.0945 185.555 88.125V110.175C185.555 112.205 183.732 113.846 181.477 113.846Z" fill="#CE2C3F"/>
<path id="Vector_35" d="M181.476 91.7968C180.697 91.7968 179.914 91.5948 179.212 91.1799L166.986 83.8398C165.106 82.7126 164.605 80.436 165.856 78.7469C167.1 77.0579 169.633 76.6026 171.513 77.7298L183.739 85.0699C185.619 86.1972 186.121 88.4737 184.869 90.1628C184.09 91.224 182.789 91.7968 181.476 91.7968Z" fill="#CE2C3F"/>
</g>
<path id="Vector_36" d="M28.5547 124.862C22.931 124.862 18.3594 120.746 18.3594 115.683C18.3594 110.619 22.931 106.503 28.5547 106.503C30.8099 106.503 32.6328 108.144 32.6328 110.175C32.6328 112.205 30.8099 113.847 28.5547 113.847C27.4332 113.847 26.5156 114.673 26.5156 115.683C26.5156 116.692 27.4332 117.519 28.5547 117.519C30.8099 117.519 32.6328 119.16 32.6328 121.19C32.6328 123.221 30.8099 124.862 28.5547 124.862Z" fill="#E6E9ED"/>
<path id="Vector_37" d="M114.18 124.862C111.924 124.862 110.102 123.221 110.102 121.19C110.102 119.16 111.924 117.519 114.18 117.519C115.301 117.519 116.219 116.692 116.219 115.683C116.219 114.673 115.301 113.847 114.18 113.847C111.924 113.847 110.102 112.205 110.102 110.175C110.102 108.144 111.924 106.503 114.18 106.503C119.803 106.503 124.375 110.619 124.375 115.683C124.375 120.746 119.803 124.862 114.18 124.862Z" fill="#E6E9ED"/>
<path id="Vector_38" d="M114.179 113.847H28.5547C26.2995 113.847 24.4766 112.205 24.4766 110.175C24.4766 108.144 26.2995 106.503 28.5547 106.503H114.179C116.434 106.503 118.257 108.144 118.257 110.175C118.257 112.205 116.434 113.847 114.179 113.847Z" fill="#E6E9ED"/>
<path id="Vector_39" d="M114.179 124.858H28.5547C26.2995 124.858 24.4766 123.217 24.4766 121.187C24.4766 119.156 26.2995 117.515 28.5547 117.515H114.179C116.434 117.515 118.257 119.156 118.257 121.187C118.257 123.217 116.434 124.858 114.179 124.858Z" fill="#E6E9ED"/>
<path id="Vector_40" d="M232.445 113.847H146.82C144.565 113.847 142.742 112.205 142.742 110.175C142.742 108.144 144.565 106.503 146.82 106.503H232.445C234.7 106.503 236.523 108.144 236.523 110.175C236.523 112.205 234.7 113.847 232.445 113.847Z" fill="#ED5565"/>
</g>
</svg>
