<svg width="377" height="552" viewBox="0 0 377 552" fill="none" xmlns="http://www.w3.org/2000/svg">
<g id="fill">
<path id="Vector 20" d="M201.688 278.773C211.171 278.773 258.542 270.863 295.188 264.419M295.188 264.419C304.913 262.709 313.882 261.102 321.188 259.773L295.188 264.419ZM295.188 264.419C304.788 291.335 288.188 324.537 278.688 337.773L206.188 321.773L376.188 362.773" stroke="black" stroke-width="4"/>
<path id="Vector 19" d="M8.18741 342.774C0.686162 330.274 1.68586 313.941 2.68586 303.774L176.685 243.774C178.852 242.441 182.791 246.699 195.685 266.274C210.834 289.273 211.688 318.773 195.685 337.274L150.185 398.774V499.274L57.1848 497.274V396.274C54.1844 388.274 15.6886 355.274 8.18741 342.774Z" fill="#D1CFC3" stroke="black" stroke-width="4"/>
<path id="Vector 18" d="M14.6872 334.274C-10.9128 304.674 8.35389 277.94 21.1872 268.274C72.354 261.44 176.587 253.774 184.188 277.774C193.688 307.774 183.688 320.273 177.188 327.273C173.406 331.346 145.688 347.372 128.188 351.773C100.354 358.773 40.2872 363.874 14.6872 334.274Z" fill="#878784" stroke="black" stroke-width="4"/>
<g id="Vector 16">
<path d="M72.6864 215.273C110.286 204.473 126.686 180.107 130.186 169.273C126.687 167.107 121.387 160.473 128.188 151.273C134.988 142.073 167.688 82.7732 183.188 54.2732C185.354 49.9399 193.288 44.3732 207.688 56.7732C225.688 72.2732 261.188 90.7734 262.688 95.2734C264.188 99.7734 270.688 97.2734 251.188 126.273C235.587 149.473 215.688 185.607 207.688 200.773C207.021 201.439 204.788 202.37 201.188 200.773L200.769 200.588C199.37 201.304 194.775 204.844 183.188 215.273C163.188 233.273 192.188 267.773 177.688 302.273C166.087 329.873 122.188 342.44 101.688 345.273C85.6871 346.107 49.6864 344.573 33.6864 331.773C17.6864 318.973 18.3531 285.773 20.6864 270.773C22.3531 256.773 35.0864 226.073 72.6864 215.273Z" fill="#F08015"/>
<path d="M130.186 169.273C126.686 180.107 110.286 204.473 72.6864 215.273C35.0864 226.073 22.3531 256.773 20.6864 270.773C18.3531 285.773 17.6864 318.973 33.6864 331.773C49.6864 344.573 85.6871 346.107 101.688 345.273C122.188 342.44 166.087 329.873 177.688 302.273C192.188 267.773 163.188 233.273 183.188 215.273C199.188 200.873 201.854 199.607 201.188 200.773M130.186 169.273L154.688 180.143L201.188 200.773M130.186 169.273C126.687 167.107 121.387 160.473 128.188 151.273C134.988 142.073 167.688 82.7732 183.188 54.2732C185.354 49.9399 193.288 44.3732 207.688 56.7732C225.688 72.2732 261.188 90.7734 262.688 95.2734C264.188 99.7734 270.688 97.2734 251.188 126.273C235.587 149.473 215.688 185.607 207.688 200.773C207.021 201.439 204.787 202.37 201.188 200.773" stroke="black" stroke-width="4"/>
</g>
<path id="Vector 17" d="M258.188 18.7734L101.688 295.273M101.688 295.273L94.1875 35.2734M101.688 295.273L108.188 547.273M94.1875 35.2734L89.6875 48.2734M94.1875 35.2734L99.6875 48.2734M94.1875 35.2734L108.188 547.273M108.188 547.273L101.688 535.773M108.188 547.273L114.688 535.773" stroke="black" stroke-width="4"/>
<path id="Vector 22" d="M217.188 183.773V204.773" stroke="black" stroke-width="4"/>
<path id="Vector 23" d="M217.188 208.773V229.773" stroke="black" stroke-width="4"/>
<path id="Vector 24" d="M217.188 232.773V253.773" stroke="black" stroke-width="4"/>
<path id="Vector 25" d="M217.188 257.773V277.773" stroke="black" stroke-width="4"/>
<path id="Vector 26" d="M95.6875 80.7734H111.688" stroke="black" stroke-width="4"/>
<path id="Vector 27" d="M116.188 80.7734H132.188" stroke="black" stroke-width="4"/>
<path id="Vector 28" d="M137.188 80.7734H153.188" stroke="black" stroke-width="4"/>
<path id="Vector 29" d="M158.188 80.7734H168.188" stroke="black" stroke-width="4"/>
<path id="Vector 30" d="M238.548 24.7172C225.715 13.0506 213.387 -9.22703 256.187 8.77297C309.687 31.273 280.688 46.2732 259.188 36.2734M238.548 24.7172V17.2734M238.548 24.7172H229.188M259.188 36.2734L268.188 33.7734M259.188 36.2734L261.688 43.7734" stroke="black" stroke-width="4"/>
</g>
</svg>
