<svg width="150" height="150" viewBox="0 0 150 150" fill="none" xmlns="http://www.w3.org/2000/svg">
<g id="glass" clip-path="url(#clip0)">
<g id="Group">
<path id="Vector" d="M66.2035 69.3496L80.7046 83.8507L60.6447 103.911C58.9285 105.627 56.1461 105.627 54.4299 103.911L46.1436 95.6242C44.4274 93.908 44.4274 91.1257 46.1436 89.4095L66.2035 69.3496Z" fill="#0A789B"/>
<path id="Vector_2" d="M54.4302 103.911L50.2598 99.7401L73.4272 76.5728L80.7051 83.8507L60.6452 103.911C58.9287 105.627 56.1464 105.627 54.4302 103.911Z" fill="#08475E"/>
<path id="Vector_3" d="M4.71205 122.555C-1.62955 128.896 -1.57008 139.252 4.89017 145.518C11.2373 151.675 21.4198 151.422 27.6723 145.17L52.3587 120.483C54.0749 118.767 54.0749 115.985 52.3587 114.268L35.7858 97.6954C34.0696 95.9792 31.2872 95.9792 29.571 97.6954L4.71205 122.555Z" fill="#C38778"/>
<path id="Vector_4" d="M27.6718 145.17C21.4192 151.422 11.2368 151.675 4.88965 145.518C4.82021 145.451 4.75547 145.38 4.6875 145.312L44.0443 105.955L52.3579 114.269C54.0741 115.985 54.0741 118.767 52.3579 120.483L27.6718 145.17Z" fill="#B46E5A"/>
<path id="Vector_5" d="M52.3587 120.483L60.645 112.197C64.6429 108.199 64.6429 101.694 60.645 97.6959L52.3587 89.4095C48.3608 85.4117 41.8555 85.4117 37.8576 89.4095L29.5713 97.6959L52.3587 120.483Z" fill="#FFF47D"/>
<path id="Vector_6" d="M52.3586 120.483L40.9375 109.062L56.4745 93.5254L60.6449 97.6958C64.6428 101.694 64.6428 108.199 60.6449 112.197L52.3586 120.483Z" fill="#FFDA44"/>
<path id="Vector_7" d="M101.66 96.6797C128.358 96.6797 150 75.0372 150 48.3398C150 21.6425 128.358 0 101.66 0C74.9628 0 53.3203 21.6425 53.3203 48.3398C53.3203 75.0372 74.9628 96.6797 101.66 96.6797Z" fill="#DE78F0"/>
<path id="Vector_8" d="M101.66 96.6796C88.3321 96.6796 76.2472 91.2582 67.4941 82.5052L135.825 14.1743C144.578 22.9273 149.999 35.0123 149.999 48.3397C149.999 74.9943 128.314 96.6796 101.66 96.6796Z" fill="#B674F2"/>
<path id="Vector_9" d="M101.66 87.8906C123.503 87.8906 141.211 70.1831 141.211 48.3398C141.211 26.4965 123.503 8.78906 101.66 8.78906C79.8169 8.78906 62.1094 26.4965 62.1094 48.3398C62.1094 70.1831 79.8169 87.8906 101.66 87.8906Z" fill="#F9F9F9"/>
<path id="Vector_10" d="M101.66 87.8906C90.7554 87.8906 80.8677 83.4551 73.7061 76.2935L129.613 20.3862C136.775 27.5479 141.21 37.4355 141.21 48.3398C141.21 70.1481 123.468 87.8906 101.66 87.8906Z" fill="#E2DFF4"/>
<g id="int">
<path id="Vector_11" d="M101.66 61.5234C99.2332 61.5234 97.2656 59.5559 97.2656 57.1289V45.4102C97.2656 42.9832 99.2332 41.0156 101.66 41.0156C105.699 41.0156 108.984 37.73 108.984 33.6914C108.984 29.6528 105.699 26.3672 101.66 26.3672C97.6216 26.3672 94.3359 29.6528 94.3359 33.6914C94.3359 36.1184 92.3684 38.0859 89.9414 38.0859C87.5145 38.0859 85.5469 36.1184 85.5469 33.6914C85.5469 24.8065 92.7753 17.5781 101.66 17.5781C110.545 17.5781 117.773 24.8065 117.773 33.6914C117.773 41.0537 112.811 47.2781 106.055 49.1956V57.1289C106.055 59.5559 104.087 61.5234 101.66 61.5234Z" fill="#0A789B"/>
<path id="Vector_12" d="M101.66 79.1016C104.087 79.1016 106.055 77.1341 106.055 74.707C106.055 72.28 104.087 70.3125 101.66 70.3125C99.2331 70.3125 97.2656 72.28 97.2656 74.707C97.2656 77.1341 99.2331 79.1016 101.66 79.1016Z" fill="#0A789B"/>
<path id="Vector_13" d="M106.055 74.7067C106.055 72.2977 104.116 70.3415 101.714 70.3125C101.685 70.3122 101.66 70.3365 101.66 70.3658V79.0474C101.66 79.0767 101.685 79.101 101.714 79.1007C104.116 79.072 106.055 77.1158 106.055 74.7067Z" fill="#08475E"/>
<path id="Vector_14" d="M101.66 17.5781V26.3672C105.699 26.3672 108.984 29.6528 108.984 33.6914C108.984 37.73 105.699 41.0156 101.66 41.0156V61.5234C104.087 61.5234 106.055 59.5559 106.055 57.1289V49.1956C112.811 47.2781 117.773 41.0537 117.773 33.6914C117.773 24.8065 110.545 17.5781 101.66 17.5781Z" fill="#08475E"/>
</g>
</g>
</g>
<defs>
<clipPath id="clip0">
<rect width="150" height="150" fill="white"/>
</clipPath>
</defs>
</svg>
