<svg width="150" height="150" viewBox="0 0 150 150" fill="none" xmlns="http://www.w3.org/2000/svg">
<g id="python 1" clip-path="url(#clip0)">
<path id="Vector" d="M150 75C150 82.6102 148.867 89.9572 146.758 96.8786C146.758 96.8815 146.758 96.8815 146.755 96.8848C144.322 104.871 140.596 112.292 135.814 118.901V118.904C128.997 128.329 120.04 136.108 109.659 141.526C106.601 143.124 103.421 144.517 100.136 145.684C97.4725 146.633 94.7388 147.432 91.9441 148.078H91.9412C86.4949 149.336 80.8286 150 75 150C62.8315 150 51.3428 147.104 41.1826 141.961C31.6837 137.155 23.3449 130.387 16.7051 122.189C10.6685 114.744 6.03369 106.12 3.19277 96.7163C1.11738 89.8438 0 82.5521 0 75C0 33.5786 33.5786 0 75 0C116.421 0 150 33.5786 150 75Z" fill="#264D6F"/>
<path id="Vector_2" d="M109.02 32.7488V69.747C109.02 78.4561 101.961 85.5154 93.2517 85.5154H55.3506C44.3944 85.5154 35.514 94.3991 35.514 105.355V123.527H23.122C20.8781 123.527 18.723 123.083 16.7057 122.189C10.669 114.744 6.03428 106.121 3.19336 96.7165C2.96982 94.3962 2.85352 91.9194 2.85352 89.2868C2.85352 66.3002 11.93 55.047 23.122 55.047H75.2086V49.7082H40.5434V32.7491C40.5434 24.1379 55.8738 17.1553 74.7832 17.1553C93.6926 17.1553 109.02 24.1376 109.02 32.7488Z" fill="#3876AC"/>
<path id="Vector_3" d="M55.4666 40.4669C58.9463 40.4669 61.7672 37.646 61.7672 34.1663C61.7672 30.6866 58.9463 27.8657 55.4666 27.8657C51.9869 27.8657 49.166 30.6866 49.166 34.1663C49.166 37.646 51.9869 40.4669 55.4666 40.4669Z" fill="#F2F2F2"/>
<path id="Vector_4" d="M147.348 87.3123C147.348 90.7652 147.143 93.9551 146.757 96.8786C146.757 96.8815 146.757 96.8815 146.754 96.8848C144.32 104.871 140.595 112.292 135.813 118.901V118.904C133.168 120.67 130.208 121.549 127.083 121.549H74.9961V126.891H109.658V141.526C106.6 143.124 103.42 144.517 100.135 145.684C97.4715 146.633 94.7378 147.432 91.9432 148.078H91.9402C86.4939 149.336 80.8276 150 74.999 150C62.8306 150 51.3418 147.104 41.1816 141.961V106.852C41.1816 98.1431 48.2439 91.0808 56.953 91.0808H94.8541C105.81 91.0808 114.691 82.2 114.691 71.2441V53.0728H127.082C138.274 53.0725 147.348 64.0928 147.348 87.3123Z" fill="#F7CD00"/>
<path id="Vector_5" d="M101.039 142.433C101.039 143.624 100.709 144.738 100.136 145.684C97.4728 146.633 94.7392 147.432 91.9445 148.078H91.9416C89.8662 147.049 88.4395 144.906 88.4395 142.433C88.4395 138.952 91.259 136.133 94.7395 136.133C98.2196 136.133 101.039 138.952 101.039 142.433Z" fill="#F2F2F2"/>
</g>
<defs>
<clipPath id="clip0">
<rect width="150" height="150" fill="white"/>
</clipPath>
</defs>
</svg>
