<svg width="100" height="100" viewBox="0 0 100 100" fill="none" xmlns="http://www.w3.org/2000/svg">
<path d="M81.0812 86.4865H18.9191C17.4855 86.4865 16.1106 85.917 15.0969 84.9033C14.0832 83.8896 13.5137 82.5147 13.5137 81.0811V18.9189C13.5137 17.4853 14.0832 16.1105 15.0969 15.0967C16.1106 14.083 17.4855 13.5135 18.9191 13.5135H81.0812C82.5148 13.5135 83.8897 14.083 84.9034 15.0967C85.9172 16.1105 86.4866 17.4853 86.4866 18.9189V81.0811C86.4866 82.5147 85.9172 83.8896 84.9034 84.9033C83.8897 85.917 82.5148 86.4865 81.0812 86.4865ZM18.9191 16.2162C18.2023 16.2162 17.5148 16.501 17.008 17.0078C16.5011 17.5147 16.2164 18.2021 16.2164 18.9189V81.0811C16.2164 81.7979 16.5011 82.4854 17.008 82.9922C17.5148 83.4991 18.2023 83.7838 18.9191 83.7838H81.0812C81.798 83.7838 82.4855 83.4991 82.9923 82.9922C83.4992 82.4854 83.7839 81.7979 83.7839 81.0811V18.9189C83.7839 18.2021 83.4992 17.5147 82.9923 17.0078C82.4855 16.501 81.798 16.2162 81.0812 16.2162H18.9191Z" fill="black"/>
<path d="M22.9724 63.5973C22.614 63.5973 22.2703 63.4549 22.0169 63.2015C21.7635 62.9481 21.6211 62.6044 21.6211 62.246V59.7135C21.6211 59.3551 21.7635 59.0114 22.0169 58.758C22.2703 58.5045 22.614 58.3622 22.9724 58.3622C23.3308 58.3622 23.6746 58.5045 23.928 58.758C24.1814 59.0114 24.3238 59.3551 24.3238 59.7135V62.246C24.3238 62.6044 24.1814 62.9481 23.928 63.2015C23.6746 63.4549 23.3308 63.5973 22.9724 63.5973Z" fill="black"/>
<path d="M75.6751 78.3784H24.3238C23.607 78.3784 22.9196 78.0936 22.4127 77.5868C21.9058 77.0799 21.6211 76.3925 21.6211 75.6757V69.0027C21.6211 68.6443 21.7635 68.3006 22.0169 68.0472C22.2703 67.7937 22.614 67.6514 22.9724 67.6514C23.3308 67.6514 23.6746 67.7937 23.928 68.0472C24.1814 68.3006 24.3238 68.6443 24.3238 69.0027V75.6757H75.6751V24.3243H24.3238V52.9568C24.3238 53.3152 24.1814 53.6589 23.928 53.9123C23.6746 54.1657 23.3308 54.3081 22.9724 54.3081C22.614 54.3081 22.2703 54.1657 22.0169 53.9123C21.7635 53.6589 21.6211 53.3152 21.6211 52.9568V24.3243C21.6211 23.6075 21.9058 22.9201 22.4127 22.4132C22.9196 21.9064 23.607 21.6216 24.3238 21.6216H75.6751C76.3919 21.6216 77.0794 21.9064 77.5863 22.4132C78.0931 22.9201 78.3779 23.6075 78.3779 24.3243V75.6757C78.3779 76.3925 78.0931 77.0799 77.5863 77.5868C77.0794 78.0936 76.3919 78.3784 75.6751 78.3784Z" fill="black"/>
<path d="M74.324 16.2162C73.9656 16.2162 73.6219 16.0738 73.3685 15.8204C73.115 15.567 72.9727 15.2233 72.9727 14.8649V4.05405C72.9727 3.69565 73.115 3.35193 73.3685 3.0985C73.6219 2.84507 73.9656 2.7027 74.324 2.7027C74.6824 2.7027 75.0261 2.84507 75.2796 3.0985C75.533 3.35193 75.6754 3.69565 75.6754 4.05405V14.8649C75.6754 15.2233 75.533 15.567 75.2796 15.8204C75.0261 16.0738 74.6824 16.2162 74.324 16.2162Z" fill="black"/>
<path d="M64.5935 16.2162C64.2351 16.2162 63.8914 16.0738 63.638 15.8204C63.3846 15.567 63.2422 15.2233 63.2422 14.8649V4.05405C63.2422 3.69565 63.3846 3.35193 63.638 3.0985C63.8914 2.84507 64.2351 2.7027 64.5935 2.7027C64.9519 2.7027 65.2957 2.84507 65.5491 3.0985C65.8025 3.35193 65.9449 3.69565 65.9449 4.05405V14.8649C65.9449 15.2233 65.8025 15.567 65.5491 15.8204C65.2957 16.0738 64.9519 16.2162 64.5935 16.2162Z" fill="black"/>
<path d="M54.865 16.2162C54.5066 16.2162 54.1629 16.0738 53.9095 15.8204C53.6561 15.567 53.5137 15.2233 53.5137 14.8649V4.05405C53.5137 3.69565 53.6561 3.35193 53.9095 3.0985C54.1629 2.84507 54.5066 2.7027 54.865 2.7027C55.2234 2.7027 55.5672 2.84507 55.8206 3.0985C56.074 3.35193 56.2164 3.69565 56.2164 4.05405V14.8649C56.2164 15.2233 56.074 15.567 55.8206 15.8204C55.5672 16.0738 55.2234 16.2162 54.865 16.2162Z" fill="black"/>
<path d="M45.1345 16.2162C44.7761 16.2162 44.4324 16.0738 44.179 15.8204C43.9256 15.567 43.7832 15.2233 43.7832 14.8649V4.05405C43.7832 3.69565 43.9256 3.35193 44.179 3.0985C44.4324 2.84507 44.7761 2.7027 45.1345 2.7027C45.4929 2.7027 45.8367 2.84507 46.0901 3.0985C46.3435 3.35193 46.4859 3.69565 46.4859 4.05405V14.8649C46.4859 15.2233 46.3435 15.567 46.0901 15.8204C45.8367 16.0738 45.4929 16.2162 45.1345 16.2162Z" fill="black"/>
<path d="M35.406 16.2162C35.0476 16.2162 34.7039 16.0738 34.4505 15.8204C34.1971 15.567 34.0547 15.2233 34.0547 14.8649V4.05405C34.0547 3.69565 34.1971 3.35193 34.4505 3.0985C34.7039 2.84507 35.0476 2.7027 35.406 2.7027C35.7644 2.7027 36.1082 2.84507 36.3616 3.0985C36.615 3.35193 36.7574 3.69565 36.7574 4.05405V14.8649C36.7574 15.2233 36.615 15.567 36.3616 15.8204C36.1082 16.0738 35.7644 16.2162 35.406 16.2162Z" fill="black"/>
<path d="M25.6756 16.2162C25.3172 16.2162 24.9734 16.0738 24.72 15.8204C24.4666 15.567 24.3242 15.2233 24.3242 14.8649V4.05405C24.3242 3.69565 24.4666 3.35193 24.72 3.0985C24.9734 2.84507 25.3172 2.7027 25.6756 2.7027C26.034 2.7027 26.3777 2.84507 26.6311 3.0985C26.8845 3.35193 27.0269 3.69565 27.0269 4.05405V14.8649C27.0269 15.2233 26.8845 15.567 26.6311 15.8204C26.3777 16.0738 26.034 16.2162 25.6756 16.2162Z" fill="black"/>
<path d="M74.324 97.2972C73.9656 97.2972 73.6219 97.1549 73.3685 96.9014C73.115 96.648 72.9727 96.3043 72.9727 95.9459V85.1351C72.9727 84.7767 73.115 84.433 73.3685 84.1796C73.6219 83.9261 73.9656 83.7838 74.324 83.7838C74.6824 83.7838 75.0261 83.9261 75.2796 84.1796C75.533 84.433 75.6754 84.7767 75.6754 85.1351V95.9459C75.6754 96.3043 75.533 96.648 75.2796 96.9014C75.0261 97.1549 74.6824 97.2972 74.324 97.2972Z" fill="black"/>
<path d="M64.5935 97.2972C64.2351 97.2972 63.8914 97.1549 63.638 96.9014C63.3846 96.648 63.2422 96.3043 63.2422 95.9459V85.1351C63.2422 84.7767 63.3846 84.433 63.638 84.1796C63.8914 83.9261 64.2351 83.7838 64.5935 83.7838C64.9519 83.7838 65.2957 83.9261 65.5491 84.1796C65.8025 84.433 65.9449 84.7767 65.9449 85.1351V95.9459C65.9449 96.3043 65.8025 96.648 65.5491 96.9014C65.2957 97.1549 64.9519 97.2972 64.5935 97.2972Z" fill="black"/>
<path d="M54.865 97.2972C54.5066 97.2972 54.1629 97.1549 53.9095 96.9014C53.6561 96.648 53.5137 96.3043 53.5137 95.9459V85.1351C53.5137 84.7767 53.6561 84.433 53.9095 84.1796C54.1629 83.9261 54.5066 83.7838 54.865 83.7838C55.2234 83.7838 55.5672 83.9261 55.8206 84.1796C56.074 84.433 56.2164 84.7767 56.2164 85.1351V95.9459C56.2164 96.3043 56.074 96.648 55.8206 96.9014C55.5672 97.1549 55.2234 97.2972 54.865 97.2972Z" fill="black"/>
<path d="M45.1345 97.2972C44.7761 97.2972 44.4324 97.1549 44.179 96.9014C43.9256 96.648 43.7832 96.3043 43.7832 95.9459V85.1351C43.7832 84.7767 43.9256 84.433 44.179 84.1796C44.4324 83.9261 44.7761 83.7838 45.1345 83.7838C45.4929 83.7838 45.8367 83.9261 46.0901 84.1796C46.3435 84.433 46.4859 84.7767 46.4859 85.1351V95.9459C46.4859 96.3043 46.3435 96.648 46.0901 96.9014C45.8367 97.1549 45.4929 97.2972 45.1345 97.2972Z" fill="black"/>
<path d="M35.406 97.2972C35.0476 97.2972 34.7039 97.1549 34.4505 96.9014C34.1971 96.648 34.0547 96.3043 34.0547 95.9459V85.1351C34.0547 84.7767 34.1971 84.433 34.4505 84.1796C34.7039 83.9261 35.0476 83.7838 35.406 83.7838C35.7644 83.7838 36.1082 83.9261 36.3616 84.1796C36.615 84.433 36.7574 84.7767 36.7574 85.1351V95.9459C36.7574 96.3043 36.615 96.648 36.3616 96.9014C36.1082 97.1549 35.7644 97.2972 35.406 97.2972Z" fill="black"/>
<path d="M25.6756 97.2972C25.3172 97.2972 24.9734 97.1549 24.72 96.9014C24.4666 96.648 24.3242 96.3043 24.3242 95.9459V85.1351C24.3242 84.7767 24.4666 84.433 24.72 84.1796C24.9734 83.9261 25.3172 83.7838 25.6756 83.7838C26.034 83.7838 26.3777 83.9261 26.6311 84.1796C26.8845 84.433 27.0269 84.7767 27.0269 85.1351V95.9459C27.0269 96.3043 26.8845 96.648 26.6311 96.9014C26.3777 97.1549 26.034 97.2972 25.6756 97.2972Z" fill="black"/>
<path d="M95.9473 75.6757H85.1365C84.7781 75.6757 84.4344 75.5334 84.181 75.2799C83.9275 75.0265 83.7852 74.6828 83.7852 74.3244C83.7852 73.966 83.9275 73.6223 84.181 73.3688C84.4344 73.1154 84.7781 72.973 85.1365 72.973H95.9473C96.3057 72.973 96.6494 73.1154 96.9028 73.3688C97.1563 73.6223 97.2986 73.966 97.2986 74.3244C97.2986 74.6828 97.1563 75.0265 96.9028 75.2799C96.6494 75.5334 96.3057 75.6757 95.9473 75.6757Z" fill="black"/>
<path d="M95.9473 65.9459H85.1365C84.7781 65.9459 84.4344 65.8035 84.181 65.5501C83.9275 65.2967 83.7852 64.9529 83.7852 64.5945C83.7852 64.2361 83.9275 63.8924 84.181 63.639C84.4344 63.3856 84.7781 63.2432 85.1365 63.2432H95.9473C96.3057 63.2432 96.6494 63.3856 96.9028 63.639C97.1563 63.8924 97.2986 64.2361 97.2986 64.5945C97.2986 64.9529 97.1563 65.2967 96.9028 65.5501C96.6494 65.8035 96.3057 65.9459 95.9473 65.9459Z" fill="black"/>
<path d="M95.9473 56.2163H85.1365C84.7781 56.2163 84.4344 56.0739 84.181 55.8205C83.9275 55.567 83.7852 55.2233 83.7852 54.8649C83.7852 54.5065 83.9275 54.1628 84.181 53.9094C84.4344 53.6559 84.7781 53.5135 85.1365 53.5135H95.9473C96.3057 53.5135 96.6494 53.6559 96.9028 53.9094C97.1563 54.1628 97.2986 54.5065 97.2986 54.8649C97.2986 55.2233 97.1563 55.567 96.9028 55.8205C96.6494 56.0739 96.3057 56.2163 95.9473 56.2163Z" fill="black"/>
<path d="M95.9473 46.4865H85.1365C84.7781 46.4865 84.4344 46.3441 84.181 46.0907C83.9275 45.8373 83.7852 45.4936 83.7852 45.1352C83.7852 44.7768 83.9275 44.433 84.181 44.1796C84.4344 43.9262 84.7781 43.7838 85.1365 43.7838H95.9473C96.3057 43.7838 96.6494 43.9262 96.9028 44.1796C97.1563 44.433 97.2986 44.7768 97.2986 45.1352C97.2986 45.4936 97.1563 45.8373 96.9028 46.0907C96.6494 46.3441 96.3057 46.4865 95.9473 46.4865Z" fill="black"/>
<path d="M95.9473 36.7568H85.1365C84.7781 36.7568 84.4344 36.6144 84.181 36.361C83.9275 36.1075 83.7852 35.7638 83.7852 35.4054C83.7852 35.047 83.9275 34.7033 84.181 34.4499C84.4344 34.1964 84.7781 34.0541 85.1365 34.0541H95.9473C96.3057 34.0541 96.6494 34.1964 96.9028 34.4499C97.1563 34.7033 97.2986 35.047 97.2986 35.4054C97.2986 35.7638 97.1563 36.1075 96.9028 36.361C96.6494 36.6144 96.3057 36.7568 95.9473 36.7568Z" fill="black"/>
<path d="M95.9473 27.027H85.1365C84.7781 27.027 84.4344 26.8847 84.181 26.6312C83.9275 26.3778 83.7852 26.0341 83.7852 25.6757C83.7852 25.3173 83.9275 24.9736 84.181 24.7201C84.4344 24.4667 84.7781 24.3243 85.1365 24.3243H95.9473C96.3057 24.3243 96.6494 24.4667 96.9028 24.7201C97.1563 24.9736 97.2986 25.3173 97.2986 25.6757C97.2986 26.0341 97.1563 26.3778 96.9028 26.6312C96.6494 26.8847 96.3057 27.027 95.9473 27.027Z" fill="black"/>
<path d="M14.8653 75.6757H4.05448C3.69608 75.6757 3.35235 75.5334 3.09893 75.2799C2.8455 75.0265 2.70313 74.6828 2.70312 74.3244C2.70313 73.966 2.8455 73.6223 3.09893 73.3688C3.35235 73.1154 3.69608 72.973 4.05448 72.973H14.8653C15.2237 72.973 15.5674 73.1154 15.8208 73.3688C16.0743 73.6223 16.2166 73.966 16.2166 74.3244C16.2166 74.6828 16.0743 75.0265 15.8208 75.2799C15.5674 75.5334 15.2237 75.6757 14.8653 75.6757Z" fill="black"/>
<path d="M14.8653 65.9459H4.05448C3.69608 65.9459 3.35235 65.8035 3.09893 65.5501C2.8455 65.2967 2.70313 64.9529 2.70312 64.5945C2.70313 64.2361 2.8455 63.8924 3.09893 63.639C3.35235 63.3856 3.69608 63.2432 4.05448 63.2432H14.8653C15.2237 63.2432 15.5674 63.3856 15.8208 63.639C16.0743 63.8924 16.2166 64.2361 16.2166 64.5945C16.2166 64.9529 16.0743 65.2967 15.8208 65.5501C15.5674 65.8035 15.2237 65.9459 14.8653 65.9459Z" fill="black"/>
<path d="M14.8653 56.2163H4.05448C3.69608 56.2163 3.35235 56.0739 3.09893 55.8205C2.8455 55.567 2.70313 55.2233 2.70312 54.8649C2.70313 54.5065 2.8455 54.1628 3.09893 53.9094C3.35235 53.6559 3.69608 53.5135 4.05448 53.5135H14.8653C15.2237 53.5135 15.5674 53.6559 15.8208 53.9094C16.0743 54.1628 16.2166 54.5065 16.2166 54.8649C16.2166 55.2233 16.0743 55.567 15.8208 55.8205C15.5674 56.0739 15.2237 56.2163 14.8653 56.2163Z" fill="black"/>
<path d="M14.8653 46.4865H4.05448C3.69608 46.4865 3.35235 46.3441 3.09893 46.0907C2.8455 45.8373 2.70313 45.4936 2.70312 45.1352C2.70313 44.7768 2.8455 44.433 3.09893 44.1796C3.35235 43.9262 3.69608 43.7838 4.05448 43.7838H14.8653C15.2237 43.7838 15.5674 43.9262 15.8208 44.1796C16.0743 44.433 16.2166 44.7768 16.2166 45.1352C16.2166 45.4936 16.0743 45.8373 15.8208 46.0907C15.5674 46.3441 15.2237 46.4865 14.8653 46.4865Z" fill="black"/>
<path d="M14.8653 36.7568H4.05448C3.69608 36.7568 3.35235 36.6144 3.09893 36.361C2.8455 36.1075 2.70313 35.7638 2.70312 35.4054C2.70313 35.047 2.8455 34.7033 3.09893 34.4499C3.35235 34.1964 3.69608 34.0541 4.05448 34.0541H14.8653C15.2237 34.0541 15.5674 34.1964 15.8208 34.4499C16.0743 34.7033 16.2166 35.047 16.2166 35.4054C16.2166 35.7638 16.0743 36.1075 15.8208 36.361C15.5674 36.6144 15.2237 36.7568 14.8653 36.7568Z" fill="black"/>
<path d="M14.8653 27.027H4.05448C3.69608 27.027 3.35235 26.8847 3.09893 26.6312C2.8455 26.3778 2.70313 26.0341 2.70312 25.6757C2.70313 25.3173 2.8455 24.9736 3.09893 24.7201C3.35235 24.4667 3.69608 24.3243 4.05448 24.3243H14.8653C15.2237 24.3243 15.5674 24.4667 15.8208 24.7201C16.0743 24.9736 16.2166 25.3173 16.2166 25.6757C16.2166 26.0341 16.0743 26.3778 15.8208 26.6312C15.5674 26.8847 15.2237 27.027 14.8653 27.027Z" fill="black"/>
<path d="M40.54 35.1351H22.9724C22.614 35.1351 22.2703 34.9928 22.0169 34.7393C21.7635 34.4859 21.6211 34.1422 21.6211 33.7838C21.6211 33.4254 21.7635 33.0817 22.0169 32.8282C22.2703 32.5748 22.614 32.4324 22.9724 32.4324H40.54C40.8984 32.4324 41.2421 32.5748 41.4956 32.8282C41.749 33.0817 41.8914 33.4254 41.8914 33.7838C41.8914 34.1422 41.749 34.4859 41.4956 34.7393C41.2421 34.9928 40.8984 35.1351 40.54 35.1351Z" fill="black"/>
<path d="M44.2989 38.8932C43.2884 38.8932 42.3005 38.5936 41.4603 38.0321C40.62 37.4707 39.9651 36.6727 39.5784 35.7391C39.1917 34.8055 39.0905 33.7781 39.2876 32.787C39.4848 31.7958 39.9714 30.8854 40.686 30.1708C41.4006 29.4563 42.311 28.9696 43.3021 28.7725C44.2932 28.5753 45.3206 28.6765 46.2542 29.0633C47.1879 29.45 47.9858 30.1049 48.5473 30.9451C49.1087 31.7854 49.4084 32.7732 49.4084 33.7838C49.407 35.1385 48.8682 36.4372 47.9103 37.3951C46.9524 38.353 45.6536 38.8918 44.2989 38.8932ZM44.2989 31.377C43.8229 31.377 43.3576 31.5182 42.9618 31.7826C42.566 32.0471 42.2575 32.423 42.0754 32.8628C41.8932 33.3025 41.8455 33.7865 41.9384 34.2533C42.0313 34.7202 42.2605 35.149 42.5971 35.4856C42.9337 35.8222 43.3625 36.0514 43.8294 36.1443C44.2962 36.2372 44.7802 36.1895 45.2199 36.0073C45.6597 35.8252 46.0356 35.5167 46.3001 35.1209C46.5645 34.7251 46.7057 34.2598 46.7057 33.7838C46.705 33.1457 46.4512 32.5339 46 32.0827C45.5488 31.6315 44.937 31.3777 44.2989 31.377Z" fill="black"/>
<path d="M77.028 63.5136H64.2713C63.9129 63.5136 63.5691 63.3712 63.3157 63.1178C63.0623 62.8643 62.9199 62.5206 62.9199 62.1622C62.9199 61.8038 63.0623 61.4601 63.3157 61.2067C63.5691 60.9532 63.9129 60.8109 64.2713 60.8109H77.028C77.3864 60.8109 77.7301 60.9532 77.9836 61.2067C78.237 61.4601 78.3794 61.8038 78.3794 62.1622C78.3794 62.5206 78.237 62.8643 77.9836 63.1178C77.7301 63.3712 77.3864 63.5136 77.028 63.5136Z" fill="black"/>
<path d="M60.5137 67.2716C59.5032 67.2716 58.5153 66.972 57.6751 66.4105C56.8348 65.8491 56.18 65.0511 55.7932 64.1175C55.4065 63.1838 55.3053 62.1565 55.5025 61.1654C55.6996 60.1742 56.1863 59.2638 56.9008 58.5492C57.6154 57.8347 58.5258 57.348 59.5169 57.1509C60.5081 56.9537 61.5354 57.0549 62.469 57.4417C63.4027 57.8284 64.2007 58.4833 64.7621 59.3235C65.3235 60.1638 65.6232 61.1516 65.6232 62.1622C65.6218 63.5168 65.083 64.8156 64.1251 65.7735C63.1672 66.7314 61.8684 67.2702 60.5137 67.2716ZM60.5137 59.7554C60.0377 59.7554 59.5724 59.8966 59.1766 60.161C58.7808 60.4255 58.4724 60.8014 58.2902 61.2411C58.108 61.6809 58.0604 62.1648 58.1532 62.6317C58.2461 63.0986 58.4753 63.5274 58.8119 63.864C59.1485 64.2006 59.5774 64.4298 60.0442 64.5227C60.5111 64.6155 60.995 64.5679 61.4348 64.3857C61.8745 64.2036 62.2504 63.8951 62.5149 63.4993C62.7793 63.1035 62.9205 62.6382 62.9205 62.1622C62.9198 61.5241 62.666 60.9123 62.2148 60.4611C61.7636 60.0099 61.1518 59.7561 60.5137 59.7554Z" fill="black"/>
<path d="M37.5431 51.0662C36.5325 51.0662 35.5446 50.7666 34.7044 50.2051C33.8641 49.6437 33.2093 48.8457 32.8225 47.9121C32.4358 46.9784 32.3346 45.9511 32.5318 44.96C32.7289 43.9688 33.2156 43.0584 33.9301 42.3438C34.6447 41.6293 35.5551 41.1426 36.5463 40.9455C37.5374 40.7483 38.5647 40.8495 39.4984 41.2362C40.432 41.623 41.23 42.2779 41.7914 43.1181C42.3529 43.9584 42.6525 44.9462 42.6525 45.9568C42.6511 47.3114 42.1123 48.6102 41.1544 49.5681C40.1965 50.526 38.8977 51.0648 37.5431 51.0662ZM37.5431 43.55C37.067 43.55 36.6017 43.6912 36.2059 43.9556C35.8101 44.2201 35.5017 44.596 35.3195 45.0357C35.1373 45.4755 35.0897 45.9594 35.1825 46.4263C35.2754 46.8932 35.5046 47.322 35.8412 47.6586C36.1778 47.9952 36.6067 48.2244 37.0735 48.3173C37.5404 48.4102 38.0243 48.3625 38.4641 48.1803C38.9039 47.9982 39.2797 47.6897 39.5442 47.2939C39.8087 46.8981 39.9498 46.4328 39.9498 45.9568C39.9495 45.3186 39.6958 44.7066 39.2445 44.2553C38.7932 43.8041 38.1813 43.5504 37.5431 43.55Z" fill="black"/>
<path d="M33.7833 47.2972H22.9724C22.614 47.2972 22.2703 47.1549 22.0169 46.9015C21.7635 46.648 21.6211 46.3043 21.6211 45.9459C21.6211 45.5875 21.7635 45.2438 22.0169 44.9904C22.2703 44.7369 22.614 44.5946 22.9724 44.5946H33.7833C34.1417 44.5946 34.4854 44.7369 34.7388 44.9904C34.9922 45.2438 35.1346 45.5875 35.1346 45.9459C35.1346 46.3043 34.9922 46.648 34.7388 46.9015C34.4854 47.1549 34.1417 47.2972 33.7833 47.2972Z" fill="black"/>
<path d="M34.4602 68.327C33.5248 68.327 32.6103 68.0496 31.8325 67.5299C31.0547 67.0101 30.4485 66.2715 30.0905 65.4072C29.7325 64.543 29.6389 63.592 29.8214 62.6745C30.0038 61.757 30.4543 60.9143 31.1158 60.2528C31.7772 59.5913 32.62 59.1409 33.5375 58.9584C34.455 58.7759 35.406 58.8695 36.2702 59.2275C37.1344 59.5855 37.8731 60.1917 38.3928 60.9695C38.9125 61.7473 39.1899 62.6618 39.1899 63.5972C39.1899 64.8516 38.6916 66.0547 37.8046 66.9416C36.9176 67.8286 35.7146 68.327 34.4602 68.327ZM34.4602 61.5702C34.0593 61.5702 33.6674 61.6891 33.3341 61.9118C33.0007 62.1345 32.7409 62.4511 32.5875 62.8215C32.4341 63.1919 32.3939 63.5995 32.4721 63.9927C32.5503 64.3859 32.7434 64.7471 33.0269 65.0306C33.3104 65.314 33.6715 65.5071 34.0648 65.5853C34.458 65.6635 34.8655 65.6234 35.2359 65.47C35.6063 65.3165 35.9229 65.0567 36.1456 64.7234C36.3684 64.39 36.4872 63.9981 36.4872 63.5972C36.4872 63.0596 36.2737 62.544 35.8935 62.1639C35.5134 61.7838 34.9978 61.5702 34.4602 61.5702Z" fill="black"/>
<path d="M40.2443 78.3783C39.8859 78.3783 39.5421 78.2359 39.2887 77.9825C39.0353 77.7291 38.8929 77.3853 38.8929 77.0269V69.208L36.2172 66.5364C36.0882 66.4118 35.9852 66.2627 35.9144 66.0978C35.8436 65.9329 35.8063 65.7556 35.8047 65.5762C35.8032 65.3967 35.8374 65.2188 35.9053 65.0527C35.9733 64.8866 36.0736 64.7358 36.2005 64.6089C36.3274 64.482 36.4783 64.3817 36.6443 64.3137C36.8104 64.2458 36.9883 64.2116 37.1678 64.2131C37.3472 64.2147 37.5245 64.252 37.6894 64.3228C37.8543 64.3936 38.0034 64.4966 38.128 64.6256L41.1956 67.6932C41.4491 67.9466 41.5915 68.2902 41.5916 68.6486V77.0269C41.5916 77.3846 41.4497 77.7278 41.1972 77.9811C40.9446 78.2344 40.602 78.3772 40.2443 78.3783Z" fill="black"/>
<path d="M60.8938 41.6594C59.9583 41.6594 59.0439 41.382 58.2661 40.8623C57.4883 40.3426 56.8821 39.6039 56.5241 38.7397C56.1661 37.8754 56.0724 36.9244 56.2549 36.007C56.4374 35.0895 56.8879 34.2467 57.5494 33.5853C58.2108 32.9238 59.0536 32.4733 59.9711 32.2908C60.8885 32.1084 61.8395 32.202 62.7038 32.56C63.568 32.918 64.3067 33.5242 64.8264 34.302C65.3461 35.0798 65.6235 35.9942 65.6235 36.9297C65.6217 38.1835 65.1228 39.3855 64.2362 40.2721C63.3496 41.1588 62.1476 41.6576 60.8938 41.6594ZM60.8938 34.9027C60.4929 34.9027 60.101 35.0216 59.7676 35.2443C59.4343 35.467 59.1745 35.7836 59.0211 36.154C58.8676 36.5244 58.8275 36.9319 58.9057 37.3252C58.9839 37.7184 59.177 38.0795 59.4605 38.363C59.744 38.6465 60.1051 38.8396 60.4983 38.9178C60.8915 38.996 61.2991 38.9558 61.6695 38.8024C62.0399 38.649 62.3565 38.3892 62.5792 38.0559C62.8019 37.7225 62.9208 37.3306 62.9208 36.9297C62.9208 36.3921 62.7073 35.8765 62.3271 35.4964C61.947 35.1162 61.4314 34.9027 60.8938 34.9027Z" fill="black"/>
<path d="M62.8784 35.5635C62.6112 35.5635 62.35 35.4842 62.1278 35.3357C61.9056 35.1872 61.7325 34.9762 61.6302 34.7293C61.5279 34.4824 61.5012 34.2107 61.5533 33.9486C61.6054 33.6865 61.7341 33.4458 61.923 33.2568L64.9906 30.1892C65.2439 29.9358 65.5876 29.7933 65.946 29.7933H77.027C77.3854 29.7933 77.7292 29.9356 77.9826 30.1891C78.236 30.4425 78.3784 30.7862 78.3784 31.1446C78.3784 31.503 78.236 31.8467 77.9826 32.1002C77.7292 32.3536 77.3854 32.496 77.027 32.496H66.5054L63.8338 35.1676C63.7087 35.2935 63.5598 35.3933 63.3958 35.4613C63.2318 35.5293 63.0559 35.564 62.8784 35.5635Z" fill="black"/>
<path d="M61.1907 54.6122C60.2552 54.6122 59.3408 54.3348 58.563 53.8151C57.7852 53.2954 57.1789 52.5567 56.821 51.6924C56.463 50.8282 56.3693 49.8772 56.5518 48.9597C56.7343 48.0422 57.1848 47.1995 57.8462 46.538C58.5077 45.8766 59.3505 45.4261 60.2679 45.2436C61.1854 45.0611 62.1364 45.1548 63.0007 45.5127C63.8649 45.8707 64.6036 46.4769 65.1233 47.2547C65.643 48.0325 65.9204 48.947 65.9204 49.8824C65.9204 51.1368 65.4221 52.3399 64.5351 53.2269C63.6481 54.1139 62.4451 54.6122 61.1907 54.6122ZM61.1907 47.8554C60.7898 47.8554 60.3979 47.9743 60.0645 48.197C59.7312 48.4198 59.4714 48.7363 59.3179 49.1067C59.1645 49.4771 59.1244 49.8847 59.2026 50.2779C59.2808 50.6711 59.4739 51.0323 59.7573 51.3158C60.0408 51.5993 60.402 51.7923 60.7952 51.8705C61.1884 51.9487 61.596 51.9086 61.9664 51.7552C62.3368 51.6018 62.6533 51.3419 62.8761 51.0086C63.0988 50.6753 63.2177 50.2834 63.2177 49.8824C63.2177 49.3448 63.0041 48.8293 62.624 48.4491C62.2439 48.069 61.7283 47.8554 61.1907 47.8554Z" fill="black"/>
<path d="M63.1753 48.5135C62.9081 48.5135 62.6468 48.4342 62.4247 48.2857C62.2025 48.1372 62.0293 47.9262 61.9271 47.6793C61.8248 47.4324 61.7981 47.1607 61.8502 46.8986C61.9023 46.6365 62.0309 46.3957 62.2199 46.2068L65.2874 43.1392C65.5408 42.8857 65.8845 42.7433 66.2429 42.7432H77.0266C77.385 42.7432 77.7288 42.8856 77.9822 43.139C78.2356 43.3925 78.378 43.7362 78.378 44.0946C78.378 44.453 78.2356 44.7967 77.9822 45.0501C77.7288 45.3036 77.385 45.4459 77.0266 45.4459H66.8023L64.1307 48.1176C63.8773 48.371 63.5337 48.5134 63.1753 48.5135Z" fill="black"/>
<path d="M47.0391 60.5149C46.0286 60.5149 45.0407 60.2152 44.2005 59.6538C43.3602 59.0923 42.7053 58.2943 42.3186 57.3607C41.9319 56.4271 41.8307 55.3997 42.0279 54.4086C42.225 53.4175 42.7116 52.5071 43.4262 51.7925C44.1408 51.0779 45.0512 50.5913 46.0423 50.3941C47.0335 50.197 48.0608 50.2982 48.9944 50.6849C49.9281 51.0716 50.7261 51.7265 51.2875 52.5667C51.8489 53.407 52.1486 54.3949 52.1486 55.4054C52.1472 56.7601 51.6084 58.0589 50.6505 59.0168C49.6926 59.9747 48.3938 60.5134 47.0391 60.5149ZM47.0391 52.9987C46.5631 52.9987 46.0978 53.1398 45.702 53.4043C45.3062 53.6687 44.9978 54.0446 44.8156 54.4844C44.6334 54.9242 44.5858 55.4081 44.6786 55.8749C44.7715 56.3418 45.0007 56.7707 45.3373 57.1072C45.6739 57.4438 46.1027 57.6731 46.5696 57.7659C47.0365 57.8588 47.5204 57.8111 47.9602 57.629C48.3999 57.4468 48.7758 57.1383 49.0403 56.7425C49.3047 56.3467 49.4459 55.8814 49.4459 55.4054C49.4452 54.7673 49.1914 54.1556 48.7402 53.7044C48.289 53.2532 47.6772 52.9994 47.0391 52.9987Z" fill="black"/>
<path d="M51.3498 78.3783C50.9914 78.3783 50.6477 78.236 50.3942 77.9825C50.1408 77.7291 49.9984 77.3854 49.9984 77.027V70.2621L46.0795 66.3432C45.8261 66.0898 45.6837 65.7462 45.6836 65.3878V59.1621C45.6836 58.8037 45.826 58.46 46.0794 58.2066C46.3328 57.9532 46.6765 57.8108 47.0349 57.8108C47.3933 57.8108 47.7371 57.9532 47.9905 58.2066C48.2439 58.46 48.3863 58.8037 48.3863 59.1621V64.8378L52.3052 68.7567C52.5563 69.0078 52.6986 69.3476 52.7011 69.7027V77.027C52.7011 77.3854 52.5588 77.7291 52.3053 77.9825C52.0519 78.236 51.7082 78.3783 51.3498 78.3783Z" fill="black"/>
</svg>
