<svg width="50" height="50" viewBox="0 0 50 50" fill="none" xmlns="http://www.w3.org/2000/svg">
<path d="M43.1446 2.41935H10.0801V0.806452C10.0801 0.361089 9.71902 0 9.27366 0H6.8543C6.40894 0 6.04785 0.361089 6.04785 0.806452V49.1936C6.04785 49.6389 6.40894 50 6.8543 50H9.27366C9.71902 50 10.0801 49.6389 10.0801 49.1936V29.8387H43.1446C43.59 29.8387 43.9511 29.4776 43.9511 29.0323V3.22581C43.9511 2.78044 43.59 2.41935 43.1446 2.41935ZM8.46721 48.3871H7.66075V1.6129H8.46721V48.3871ZM42.3382 12.0968H34.2737V20.1613H42.3382V28.2258H34.2737V20.1613H26.2091V28.2258H18.1446V20.1613H10.0801V12.0968H18.1446V4.03226H26.2091V12.0968H34.2737V4.03226H42.3382V12.0968Z" fill="white"/>
<path d="M26.209 12.0968H18.1445V20.1613H26.209V12.0968Z" fill="white"/>
</svg>
