<svg width="740" height="438" viewBox="0 0 740 438" fill="none" xmlns="http://www.w3.org/2000/svg">
<g id="img-blocks 1">
<path id="Vector" d="M181.016 275.393H120.327C116.854 275.393 114.039 278.063 114.039 281.357V297.092C114.039 300.386 116.854 303.056 120.327 303.056H181.016C184.489 303.056 187.304 300.386 187.304 297.092V281.357C187.304 278.063 184.489 275.393 181.016 275.393Z" fill="#6DA5C2"/>
<path id="Vector_2" d="M254.283 275.393H193.593C190.12 275.393 187.305 278.063 187.305 281.357V297.092C187.305 300.386 190.12 303.056 193.593 303.056H254.283C257.755 303.056 260.571 300.386 260.571 297.092V281.357C260.571 278.063 257.755 275.393 254.283 275.393Z" fill="#6DA5C2"/>
<path id="Vector_3" opacity="0.1" d="M254.283 275.393H193.593C190.12 275.393 187.305 278.063 187.305 281.357V297.092C187.305 300.386 190.12 303.056 193.593 303.056H254.283C257.755 303.056 260.571 300.386 260.571 297.092V281.357C260.571 278.063 257.755 275.393 254.283 275.393Z" fill="black"/>
<path id="Vector_4" d="M327.549 275.393H266.859C263.386 275.393 260.571 278.063 260.571 281.357V297.092C260.571 300.386 263.386 303.056 266.859 303.056H327.549C331.021 303.056 333.837 300.386 333.837 297.092V281.357C333.837 278.063 331.021 275.393 327.549 275.393Z" fill="#6DA5C2"/>
<path id="Vector_5" d="M400.814 275.393H340.124C336.652 275.393 333.836 278.063 333.836 281.357V297.092C333.836 300.386 336.652 303.056 340.124 303.056H400.814C404.287 303.056 407.102 300.386 407.102 297.092V281.357C407.102 278.063 404.287 275.393 400.814 275.393Z" fill="#6DA5C2"/>
<path id="Vector_6" opacity="0.1" d="M400.814 275.393H340.124C336.652 275.393 333.836 278.063 333.836 281.357V297.092C333.836 300.386 336.652 303.056 340.124 303.056H400.814C404.287 303.056 407.102 300.386 407.102 297.092V281.357C407.102 278.063 404.287 275.393 400.814 275.393Z" fill="black"/>
<path id="Vector_7" d="M474.08 275.393H413.391C409.918 275.393 407.103 278.063 407.103 281.357V297.092C407.103 300.386 409.918 303.056 413.391 303.056H474.08C477.553 303.056 480.368 300.386 480.368 297.092V281.357C480.368 278.063 477.553 275.393 474.08 275.393Z" fill="#6DA5C2"/>
<path id="Vector_8" d="M547.346 275.393H486.656C483.183 275.393 480.368 278.063 480.368 281.357V297.092C480.368 300.386 483.183 303.056 486.656 303.056H547.346C550.819 303.056 553.634 300.386 553.634 297.092V281.357C553.634 278.063 550.819 275.393 547.346 275.393Z" fill="#6DA5C2"/>
<path id="Vector_9" opacity="0.1" d="M547.346 275.393H486.656C483.183 275.393 480.368 278.063 480.368 281.357V297.092C480.368 300.386 483.183 303.056 486.656 303.056H547.346C550.819 303.056 553.634 300.386 553.634 297.092V281.357C553.634 278.063 550.819 275.393 547.346 275.393Z" fill="black"/>
<path id="Vector_10" d="M486.656 275.393H547.346C550.819 275.393 553.634 272.723 553.634 269.428V253.694C553.634 250.4 550.819 247.729 547.346 247.729H486.656C483.184 247.729 480.368 250.4 480.368 253.694V269.428C480.368 272.723 483.184 275.393 486.656 275.393Z" fill="#6DA5C2"/>
<path id="Vector_11" d="M413.39 275.393H474.08C477.553 275.393 480.368 272.723 480.368 269.428V253.694C480.368 250.4 477.553 247.729 474.08 247.729H413.39C409.918 247.729 407.102 250.4 407.102 253.694V269.428C407.102 272.723 409.918 275.393 413.39 275.393Z" fill="#6DA5C2"/>
<path id="Vector_12" opacity="0.1" d="M413.39 275.393H474.08C477.553 275.393 480.368 272.723 480.368 269.428V253.694C480.368 250.4 477.553 247.729 474.08 247.729H413.39C409.918 247.729 407.102 250.4 407.102 253.694V269.428C407.102 272.723 409.918 275.393 413.39 275.393Z" fill="black"/>
<path id="Vector_13" d="M340.125 275.393H400.814C404.287 275.393 407.103 272.723 407.103 269.428V253.694C407.103 250.4 404.287 247.729 400.814 247.729H340.125C336.652 247.729 333.837 250.4 333.837 253.694V269.428C333.837 272.723 336.652 275.393 340.125 275.393Z" fill="#6DA5C2"/>
<path id="Vector_14" d="M266.859 275.393H327.548C331.021 275.393 333.836 272.723 333.836 269.428V253.694C333.836 250.4 331.021 247.729 327.548 247.729H266.859C263.386 247.729 260.571 250.4 260.571 253.694V269.428C260.571 272.723 263.386 275.393 266.859 275.393Z" fill="#6DA5C2"/>
<path id="Vector_15" opacity="0.1" d="M266.859 275.393H327.548C331.021 275.393 333.836 272.723 333.836 269.428V253.694C333.836 250.4 331.021 247.729 327.548 247.729H266.859C263.386 247.729 260.571 250.4 260.571 253.694V269.428C260.571 272.723 263.386 275.393 266.859 275.393Z" fill="black"/>
<path id="Vector_16" d="M193.593 275.393H254.283C257.756 275.393 260.571 272.723 260.571 269.428V253.694C260.571 250.4 257.756 247.729 254.283 247.729H193.593C190.12 247.729 187.305 250.4 187.305 253.694V269.428C187.305 272.723 190.12 275.393 193.593 275.393Z" fill="#6DA5C2"/>
<path id="Vector_17" d="M120.327 275.393H181.017C184.489 275.393 187.305 272.723 187.305 269.428V253.694C187.305 250.4 184.489 247.729 181.017 247.729H120.327C116.854 247.729 114.039 250.4 114.039 253.694V269.428C114.039 272.723 116.854 275.393 120.327 275.393Z" fill="#6DA5C2"/>
<path id="Vector_18" opacity="0.1" d="M120.327 275.393H181.017C184.489 275.393 187.305 272.723 187.305 269.428V253.694C187.305 250.4 184.489 247.729 181.017 247.729H120.327C116.854 247.729 114.039 250.4 114.039 253.694V269.428C114.039 272.723 116.854 275.393 120.327 275.393Z" fill="black"/>
<path id="Vector_19" d="M181.016 220.066H120.327C116.854 220.066 114.039 222.736 114.039 226.031V241.765C114.039 245.059 116.854 247.729 120.327 247.729H181.016C184.489 247.729 187.304 245.059 187.304 241.765V226.031C187.304 222.736 184.489 220.066 181.016 220.066Z" fill="#6DA5C2"/>
<path id="Vector_20" d="M254.283 220.066H193.593C190.12 220.066 187.305 222.736 187.305 226.031V241.765C187.305 245.059 190.12 247.729 193.593 247.729H254.283C257.755 247.729 260.571 245.059 260.571 241.765V226.031C260.571 222.736 257.755 220.066 254.283 220.066Z" fill="#6DA5C2"/>
<path id="Vector_21" opacity="0.1" d="M254.283 220.066H193.593C190.12 220.066 187.305 222.736 187.305 226.031V241.765C187.305 245.059 190.12 247.729 193.593 247.729H254.283C257.755 247.729 260.571 245.059 260.571 241.765V226.031C260.571 222.736 257.755 220.066 254.283 220.066Z" fill="black"/>
<path id="Vector_22" d="M327.549 220.066H266.859C263.386 220.066 260.571 222.736 260.571 226.031V241.765C260.571 245.059 263.386 247.729 266.859 247.729H327.549C331.021 247.729 333.837 245.059 333.837 241.765V226.031C333.837 222.736 331.021 220.066 327.549 220.066Z" fill="#6DA5C2"/>
<path id="Vector_23" d="M400.814 220.066H340.124C336.652 220.066 333.836 222.736 333.836 226.031V241.765C333.836 245.059 336.652 247.729 340.124 247.729H400.814C404.287 247.729 407.102 245.059 407.102 241.765V226.031C407.102 222.736 404.287 220.066 400.814 220.066Z" fill="#6DA5C2"/>
<path id="Vector_24" opacity="0.1" d="M400.814 220.066H340.124C336.652 220.066 333.836 222.736 333.836 226.031V241.765C333.836 245.059 336.652 247.729 340.124 247.729H400.814C404.287 247.729 407.102 245.059 407.102 241.765V226.031C407.102 222.736 404.287 220.066 400.814 220.066Z" fill="black"/>
<path id="Vector_25" d="M474.08 220.066H413.391C409.918 220.066 407.103 222.736 407.103 226.031V241.765C407.103 245.059 409.918 247.729 413.391 247.729H474.08C477.553 247.729 480.368 245.059 480.368 241.765V226.031C480.368 222.736 477.553 220.066 474.08 220.066Z" fill="#6DA5C2"/>
<path id="Vector_26" d="M547.346 220.066H486.656C483.183 220.066 480.368 222.736 480.368 226.031V241.765C480.368 245.059 483.183 247.729 486.656 247.729H547.346C550.819 247.729 553.634 245.059 553.634 241.765V226.031C553.634 222.736 550.819 220.066 547.346 220.066Z" fill="#6DA5C2"/>
<path id="Vector_27" opacity="0.1" d="M547.346 220.066H486.656C483.183 220.066 480.368 222.736 480.368 226.031V241.765C480.368 245.059 483.183 247.729 486.656 247.729H547.346C550.819 247.729 553.634 245.059 553.634 241.765V226.031C553.634 222.736 550.819 220.066 547.346 220.066Z" fill="black"/>
<path id="Vector_28" d="M486.656 220.066H547.346C550.819 220.066 553.634 217.396 553.634 214.102V198.367C553.634 195.073 550.819 192.403 547.346 192.403H486.656C483.184 192.403 480.368 195.073 480.368 198.367V214.102C480.368 217.396 483.184 220.066 486.656 220.066Z" fill="#6DA5C2"/>
<path id="Vector_29" d="M413.39 220.066H474.08C477.553 220.066 480.368 217.396 480.368 214.102V198.367C480.368 195.073 477.553 192.403 474.08 192.403H413.39C409.918 192.403 407.102 195.073 407.102 198.367V214.102C407.102 217.396 409.918 220.066 413.39 220.066Z" fill="#6DA5C2"/>
<path id="Vector_30" opacity="0.1" d="M413.39 220.066H474.08C477.553 220.066 480.368 217.396 480.368 214.102V198.367C480.368 195.073 477.553 192.403 474.08 192.403H413.39C409.918 192.403 407.102 195.073 407.102 198.367V214.102C407.102 217.396 409.918 220.066 413.39 220.066Z" fill="black"/>
<path id="Vector_31" d="M340.125 220.066H400.814C404.287 220.066 407.103 217.396 407.103 214.102V198.367C407.103 195.073 404.287 192.403 400.814 192.403H340.125C336.652 192.403 333.837 195.073 333.837 198.367V214.102C333.837 217.396 336.652 220.066 340.125 220.066Z" fill="#6DA5C2"/>
<path id="Vector_32" d="M266.859 220.066H327.548C331.021 220.066 333.836 217.396 333.836 214.102V198.367C333.836 195.073 331.021 192.403 327.548 192.403H266.859C263.386 192.403 260.571 195.073 260.571 198.367V214.102C260.571 217.396 263.386 220.066 266.859 220.066Z" fill="#6DA5C2"/>
<path id="Vector_33" opacity="0.1" d="M266.859 220.066H327.548C331.021 220.066 333.836 217.396 333.836 214.102V198.367C333.836 195.073 331.021 192.403 327.548 192.403H266.859C263.386 192.403 260.571 195.073 260.571 198.367V214.102C260.571 217.396 263.386 220.066 266.859 220.066Z" fill="black"/>
<path id="Vector_34" d="M193.593 220.066H254.283C257.756 220.066 260.571 217.396 260.571 214.102V198.367C260.571 195.073 257.756 192.403 254.283 192.403H193.593C190.12 192.403 187.305 195.073 187.305 198.367V214.102C187.305 217.396 190.12 220.066 193.593 220.066Z" fill="#6DA5C2"/>
<path id="Vector_35" d="M120.327 220.066H181.017C184.489 220.066 187.305 217.396 187.305 214.102V198.367C187.305 195.073 184.489 192.403 181.017 192.403H120.327C116.854 192.403 114.039 195.073 114.039 198.367V214.102C114.039 217.396 116.854 220.066 120.327 220.066Z" fill="#6DA5C2"/>
<path id="Vector_36" opacity="0.1" d="M120.327 220.066H181.017C184.489 220.066 187.305 217.396 187.305 214.102V198.367C187.305 195.073 184.489 192.403 181.017 192.403H120.327C116.854 192.403 114.039 195.073 114.039 198.367V214.102C114.039 217.396 116.854 220.066 120.327 220.066Z" fill="black"/>
<path id="Vector_37" d="M181.016 166.089H120.327C116.854 166.089 114.039 168.759 114.039 172.053V187.788C114.039 191.082 116.854 193.752 120.327 193.752H181.016C184.489 193.752 187.304 191.082 187.304 187.788V172.053C187.304 168.759 184.489 166.089 181.016 166.089Z" fill="#6DA5C2"/>
<path id="Vector_38" d="M254.283 166.089H193.593C190.12 166.089 187.305 168.759 187.305 172.053V187.788C187.305 191.082 190.12 193.752 193.593 193.752H254.283C257.755 193.752 260.571 191.082 260.571 187.788V172.053C260.571 168.759 257.755 166.089 254.283 166.089Z" fill="#6DA5C2"/>
<path id="Vector_39" opacity="0.1" d="M254.283 166.089H193.593C190.12 166.089 187.305 168.759 187.305 172.053V187.788C187.305 191.082 190.12 193.752 193.593 193.752H254.283C257.755 193.752 260.571 191.082 260.571 187.788V172.053C260.571 168.759 257.755 166.089 254.283 166.089Z" fill="black"/>
<path id="Vector_40" d="M327.549 166.089H266.859C263.386 166.089 260.571 168.759 260.571 172.053V187.788C260.571 191.082 263.386 193.752 266.859 193.752H327.549C331.021 193.752 333.837 191.082 333.837 187.788V172.053C333.837 168.759 331.021 166.089 327.549 166.089Z" fill="#6DA5C2"/>
<path id="Vector_41" d="M400.814 166.089H340.124C336.652 166.089 333.836 168.759 333.836 172.053V187.788C333.836 191.082 336.652 193.752 340.124 193.752H400.814C404.287 193.752 407.102 191.082 407.102 187.788V172.053C407.102 168.759 404.287 166.089 400.814 166.089Z" fill="#6DA5C2"/>
<path id="Vector_42" opacity="0.1" d="M400.814 166.089H340.124C336.652 166.089 333.836 168.759 333.836 172.053V187.788C333.836 191.082 336.652 193.752 340.124 193.752H400.814C404.287 193.752 407.102 191.082 407.102 187.788V172.053C407.102 168.759 404.287 166.089 400.814 166.089Z" fill="black"/>
<path id="Vector_43" d="M474.08 166.089H413.391C409.918 166.089 407.103 168.759 407.103 172.053V187.788C407.103 191.082 409.918 193.752 413.391 193.752H474.08C477.553 193.752 480.368 191.082 480.368 187.788V172.053C480.368 168.759 477.553 166.089 474.08 166.089Z" fill="#6DA5C2"/>
<path id="Vector_44" d="M547.346 166.089H486.656C483.183 166.089 480.368 168.759 480.368 172.053V187.788C480.368 191.082 483.183 193.752 486.656 193.752H547.346C550.819 193.752 553.634 191.082 553.634 187.788V172.053C553.634 168.759 550.819 166.089 547.346 166.089Z" fill="#6DA5C2"/>
<path id="Vector_45" opacity="0.1" d="M547.346 166.089H486.656C483.183 166.089 480.368 168.759 480.368 172.053V187.788C480.368 191.082 483.183 193.752 486.656 193.752H547.346C550.819 193.752 553.634 191.082 553.634 187.788V172.053C553.634 168.759 550.819 166.089 547.346 166.089Z" fill="black"/>
<path id="Vector_46" d="M486.656 166.089H547.346C550.819 166.089 553.634 163.418 553.634 160.124V144.39C553.634 141.096 550.819 138.425 547.346 138.425H486.656C483.184 138.425 480.368 141.096 480.368 144.39V160.124C480.368 163.418 483.184 166.089 486.656 166.089Z" fill="#6DA5C2"/>
<path id="Vector_47" d="M413.39 166.089H474.08C477.553 166.089 480.368 163.418 480.368 160.124V144.39C480.368 141.096 477.553 138.425 474.08 138.425H413.39C409.918 138.425 407.102 141.096 407.102 144.39V160.124C407.102 163.418 409.918 166.089 413.39 166.089Z" fill="#6DA5C2"/>
<path id="Vector_48" opacity="0.1" d="M413.39 166.089H474.08C477.553 166.089 480.368 163.418 480.368 160.124V144.39C480.368 141.096 477.553 138.425 474.08 138.425H413.39C409.918 138.425 407.102 141.096 407.102 144.39V160.124C407.102 163.418 409.918 166.089 413.39 166.089Z" fill="black"/>
<path id="Vector_49" d="M340.125 166.089H400.814C404.287 166.089 407.103 163.418 407.103 160.124V144.39C407.103 141.096 404.287 138.425 400.814 138.425H340.125C336.652 138.425 333.837 141.096 333.837 144.39V160.124C333.837 163.418 336.652 166.089 340.125 166.089Z" fill="#6DA5C2"/>
<path id="Vector_50" d="M266.859 166.089H327.548C331.021 166.089 333.836 163.418 333.836 160.124V144.39C333.836 141.096 331.021 138.425 327.548 138.425H266.859C263.386 138.425 260.571 141.096 260.571 144.39V160.124C260.571 163.418 263.386 166.089 266.859 166.089Z" fill="#6DA5C2"/>
<path id="Vector_51" opacity="0.1" d="M266.859 166.089H327.548C331.021 166.089 333.836 163.418 333.836 160.124V144.39C333.836 141.096 331.021 138.425 327.548 138.425H266.859C263.386 138.425 260.571 141.096 260.571 144.39V160.124C260.571 163.418 263.386 166.089 266.859 166.089Z" fill="black"/>
<path id="Vector_52" d="M193.593 166.089H254.283C257.756 166.089 260.571 163.418 260.571 160.124V144.39C260.571 141.096 257.756 138.425 254.283 138.425H193.593C190.12 138.425 187.305 141.096 187.305 144.39V160.124C187.305 163.418 190.12 166.089 193.593 166.089Z" fill="#6DA5C2"/>
<path id="Vector_53" d="M120.327 166.089H181.017C184.489 166.089 187.305 163.418 187.305 160.124V144.39C187.305 141.096 184.489 138.425 181.017 138.425H120.327C116.854 138.425 114.039 141.096 114.039 144.39V160.124C114.039 163.418 116.854 166.089 120.327 166.089Z" fill="#6DA5C2"/>
<path id="Vector_54" opacity="0.1" d="M120.327 166.089H181.017C184.489 166.089 187.305 163.418 187.305 160.124V144.39C187.305 141.096 184.489 138.425 181.017 138.425H120.327C116.854 138.425 114.039 141.096 114.039 144.39V160.124C114.039 163.418 116.854 166.089 120.327 166.089Z" fill="black"/>
<path id="Vector_55" d="M181.016 110.762H120.327C116.854 110.762 114.039 113.432 114.039 116.726V132.461C114.039 135.755 116.854 138.425 120.327 138.425H181.016C184.489 138.425 187.304 135.755 187.304 132.461V116.726C187.304 113.432 184.489 110.762 181.016 110.762Z" fill="#6DA5C2"/>
<path id="Vector_56" d="M254.283 110.762H193.593C190.12 110.762 187.305 113.432 187.305 116.726V132.461C187.305 135.755 190.12 138.425 193.593 138.425H254.283C257.755 138.425 260.571 135.755 260.571 132.461V116.726C260.571 113.432 257.755 110.762 254.283 110.762Z" fill="#6DA5C2"/>
<path id="Vector_57" opacity="0.1" d="M254.283 110.762H193.593C190.12 110.762 187.305 113.432 187.305 116.726V132.461C187.305 135.755 190.12 138.425 193.593 138.425H254.283C257.755 138.425 260.571 135.755 260.571 132.461V116.726C260.571 113.432 257.755 110.762 254.283 110.762Z" fill="black"/>
<path id="Vector_58" d="M327.549 110.762H266.859C263.386 110.762 260.571 113.432 260.571 116.726V132.461C260.571 135.755 263.386 138.425 266.859 138.425H327.549C331.021 138.425 333.837 135.755 333.837 132.461V116.726C333.837 113.432 331.021 110.762 327.549 110.762Z" fill="#6DA5C2"/>
<path id="Vector_59" d="M400.814 110.762H340.124C336.652 110.762 333.836 113.432 333.836 116.726V132.461C333.836 135.755 336.652 138.425 340.124 138.425H400.814C404.287 138.425 407.102 135.755 407.102 132.461V116.726C407.102 113.432 404.287 110.762 400.814 110.762Z" fill="#6DA5C2"/>
<path id="Vector_60" opacity="0.1" d="M400.814 110.762H340.124C336.652 110.762 333.836 113.432 333.836 116.726V132.461C333.836 135.755 336.652 138.425 340.124 138.425H400.814C404.287 138.425 407.102 135.755 407.102 132.461V116.726C407.102 113.432 404.287 110.762 400.814 110.762Z" fill="black"/>
<path id="Vector_61" d="M474.08 110.762H413.391C409.918 110.762 407.103 113.432 407.103 116.726V132.461C407.103 135.755 409.918 138.425 413.391 138.425H474.08C477.553 138.425 480.368 135.755 480.368 132.461V116.726C480.368 113.432 477.553 110.762 474.08 110.762Z" fill="#6DA5C2"/>
<path id="Vector_62" d="M547.346 110.762H486.656C483.183 110.762 480.368 113.432 480.368 116.726V132.461C480.368 135.755 483.183 138.425 486.656 138.425H547.346C550.819 138.425 553.634 135.755 553.634 132.461V116.726C553.634 113.432 550.819 110.762 547.346 110.762Z" fill="#6DA5C2"/>
<path id="Vector_63" opacity="0.1" d="M547.346 110.762H486.656C483.183 110.762 480.368 113.432 480.368 116.726V132.461C480.368 135.755 483.183 138.425 486.656 138.425H547.346C550.819 138.425 553.634 135.755 553.634 132.461V116.726C553.634 113.432 550.819 110.762 547.346 110.762Z" fill="black"/>
<path id="move-block" d="M483.811 47.3383H544.501C547.974 47.3383 550.789 44.6679 550.789 41.3737V25.6393C550.789 22.3452 547.974 19.6748 544.501 19.6748H483.811C480.338 19.6748 477.523 22.3452 477.523 25.6393V41.3737C477.523 44.6679 480.338 47.3383 483.811 47.3383Z" fill="#6295AF"/>
<path id="Vector_64" d="M340.125 110.762H400.814C404.287 110.762 407.103 108.091 407.103 104.797V89.0628C407.103 85.7687 404.287 83.0983 400.814 83.0983H340.125C336.652 83.0983 333.837 85.7687 333.837 89.0628V104.797C333.837 108.091 336.652 110.762 340.125 110.762Z" fill="#6DA5C2"/>
<path id="Vector_65" d="M266.859 110.762H327.548C331.021 110.762 333.836 108.091 333.836 104.797V89.0628C333.836 85.7687 331.021 83.0983 327.548 83.0983H266.859C263.386 83.0983 260.571 85.7687 260.571 89.0628V104.797C260.571 108.091 263.386 110.762 266.859 110.762Z" fill="#6DA5C2"/>
<path id="Vector_66" opacity="0.1" d="M266.859 110.762H327.548C331.021 110.762 333.836 108.091 333.836 104.797V89.0628C333.836 85.7687 331.021 83.0983 327.548 83.0983H266.859C263.386 83.0983 260.571 85.7687 260.571 89.0628V104.797C260.571 108.091 263.386 110.762 266.859 110.762Z" fill="black"/>
<path id="Vector_67" d="M193.593 110.762H254.283C257.756 110.762 260.571 108.091 260.571 104.797V89.0628C260.571 85.7687 257.756 83.0983 254.283 83.0983H193.593C190.12 83.0983 187.305 85.7687 187.305 89.0628V104.797C187.305 108.091 190.12 110.762 193.593 110.762Z" fill="#6DA5C2"/>
<path id="Vector_68" d="M120.327 110.762H181.017C184.489 110.762 187.305 108.091 187.305 104.797V89.0628C187.305 85.7687 184.489 83.0983 181.017 83.0983H120.327C116.854 83.0983 114.039 85.7687 114.039 89.0628V104.797C114.039 108.091 116.854 110.762 120.327 110.762Z" fill="#6DA5C2"/>
<path id="Vector_69" opacity="0.1" d="M120.327 110.762H181.017C184.489 110.762 187.305 108.091 187.305 104.797V89.0628C187.305 85.7687 184.489 83.0983 181.017 83.0983H120.327C116.854 83.0983 114.039 85.7687 114.039 89.0628V104.797C114.039 108.091 116.854 110.762 120.327 110.762Z" fill="black"/>
<path id="Vector_70" d="M354.948 438C550.981 438 709.897 403.714 709.897 361.419C709.897 319.125 550.981 284.839 354.948 284.839C158.916 284.839 0 319.125 0 361.419C0 403.714 158.916 438 354.948 438Z" fill="#F5F5F5"/>
<path id="Vector_71" d="M81.055 327.049C81.055 327.049 87.4569 306.531 79.86 291.424C76.64 285.109 75.669 277.972 77.093 271.088C77.7958 267.825 78.8125 264.629 80.1303 261.541" stroke="#535461" stroke-width="2" stroke-miterlimit="10"/>
<path id="Vector_72" d="M75.4214 252C75.4214 254.517 80.2228 261.811 80.2228 261.811C80.2228 261.811 85.0242 254.517 85.0242 252C85.0242 250.793 84.5183 249.634 83.6179 248.78C82.7175 247.926 81.4962 247.446 80.2228 247.446C78.9494 247.446 77.7281 247.926 76.8277 248.78C75.9273 249.634 75.4214 250.793 75.4214 252Z" fill="#6DA5C2"/>
<path id="Vector_73" d="M67.483 265.933C68.9057 268.045 77.1356 271.689 77.1356 271.689C77.1356 271.689 76.9863 263.093 75.5423 260.981C74.8466 259.974 73.7591 259.27 72.5176 259.022C71.276 258.774 69.9813 259.001 68.9164 259.656C67.8515 260.31 67.103 261.338 66.8344 262.514C66.5658 263.69 66.799 264.92 67.483 265.933Z" fill="#6DA5C2"/>
<path id="Vector_74" d="M67.8314 289.737C70.2 290.871 79.2125 290.088 79.2125 290.088C79.2125 290.088 74.5106 282.741 72.1419 281.607C71.009 281.093 69.7089 281.02 68.5202 281.405C67.3316 281.789 66.349 282.6 65.7833 283.664C65.2176 284.727 65.1137 285.959 65.4939 287.094C65.8741 288.23 66.7081 289.178 67.8171 289.737H67.8314Z" fill="#6DA5C2"/>
<path id="Vector_75" d="M72.3695 307.692C74.5034 309.189 83.5372 309.864 83.5372 309.864C83.5372 309.864 80.2082 301.869 78.0814 300.371C77.0546 299.731 75.8082 299.488 74.5987 299.693C73.3892 299.899 72.3087 300.536 71.5795 301.474C70.8503 302.412 70.528 303.579 70.679 304.736C70.8299 305.893 71.4425 306.951 72.3908 307.692H72.3695Z" fill="#6DA5C2"/>
<path id="Vector_76" d="M87.2149 272.174C85.3157 273.929 76.4526 275.744 76.4526 275.744C76.4526 275.744 78.6222 267.397 80.5214 265.623C80.9735 265.206 81.5077 264.878 82.0936 264.657C82.6795 264.436 83.3056 264.326 83.936 264.335C84.5665 264.343 85.189 264.469 85.7681 264.706C86.3472 264.943 86.8714 265.285 87.3109 265.714C87.7504 266.143 88.0966 266.65 88.3296 267.205C88.5626 267.761 88.678 268.355 88.6691 268.953C88.6602 269.551 88.5272 270.142 88.2776 270.691C88.0281 271.24 87.667 271.737 87.2149 272.154V272.174Z" fill="#6DA5C2"/>
<path id="Vector_77" d="M92.2439 293.219C89.8752 294.352 80.8628 293.57 80.8628 293.57C80.8628 293.57 85.5646 286.222 87.9333 285.089C89.0621 284.606 90.344 284.555 91.5113 284.947C92.6786 285.339 93.6409 286.144 94.1973 287.194C94.7537 288.243 94.8611 289.456 94.4971 290.579C94.1331 291.701 93.3258 292.647 92.2439 293.219Z" fill="#6DA5C2"/>
<path id="Vector_78" d="M94.1643 314.351C92.0303 315.849 82.9966 316.524 82.9966 316.524C82.9966 316.524 86.3256 308.528 88.4524 307.03C89.4791 306.39 90.7255 306.148 91.935 306.353C93.1445 306.558 94.2251 307.195 94.9543 308.133C95.6834 309.072 96.0057 310.239 95.8548 311.396C95.7039 312.552 95.0912 313.61 94.143 314.351H94.1643Z" fill="#6DA5C2"/>
<path id="Vector_79" d="M424.644 210.768C424.644 210.768 448.039 232.96 434.83 265.886C421.621 298.812 457.471 353.6 457.471 353.6C457.471 353.6 457.087 353.546 456.376 353.424C408.326 345.348 384.454 293.219 411.171 254.504C421.101 240.105 429.26 223.224 424.644 210.768Z" fill="#6DA5C2"/>
<path id="Vector_80" opacity="0.2" d="M424.644 210.768C424.644 210.768 448.039 232.96 434.83 265.886C421.621 298.812 457.471 353.6 457.471 353.6C457.471 353.6 457.087 353.546 456.376 353.424C408.326 345.348 384.454 293.219 411.171 254.504C421.101 240.105 429.26 223.224 424.644 210.768Z" fill="black"/>
<path id="Vector_81" d="M424.644 210.768C424.644 210.768 437.853 237.966 424.644 260.158C411.435 282.349 422.382 344.619 457.492 353.566" stroke="#535461" stroke-miterlimit="10"/>
<path id="Vector_82" d="M382.981 300.513C382.981 300.513 409.677 296.464 412.11 319.175C414.543 341.886 463.439 345.01 463.439 345.01L462.521 345.591C422.147 370.731 383.565 361.602 389.369 328.223C391.531 315.815 391.339 303.34 382.981 300.513Z" fill="#6DA5C2"/>
<path id="Vector_83" opacity="0.2" d="M382.981 300.513C382.981 300.513 409.677 296.464 412.11 319.175C414.543 341.886 463.439 345.01 463.439 345.01L462.521 345.591C422.147 370.731 383.565 361.602 389.369 328.223C391.531 315.815 391.339 303.34 382.981 300.513Z" fill="#F5F5F5"/>
<path id="Vector_84" d="M382.981 300.513C382.981 300.513 403.702 304.824 402.002 322.697C400.302 340.571 432.774 361.993 463.439 345.01" stroke="#535461" stroke-miterlimit="10"/>
<path id="Vector_85" d="M586.078 352.749C586.078 352.749 546.457 345.233 535.887 335.207C525.317 325.18 477.772 307.645 472.487 320.174C467.202 332.704 401.17 375.305 446.111 382.822C491.052 390.338 551.771 392.841 564.98 387.835C578.189 382.828 586.078 352.749 586.078 352.749Z" fill="#A8A8A8"/>
<path id="Vector_86" opacity="0.2" d="M446.112 378.166C491.017 385.682 551.771 388.186 564.98 383.179C575.038 379.36 582.052 361.028 584.79 352.493L586.113 352.756C586.113 352.756 578.189 382.822 564.98 387.842C551.771 392.861 491.003 390.345 446.112 382.828C433.151 380.656 429.445 375.562 430.84 369.111C431.885 373.315 436.43 376.547 446.112 378.166Z" fill="black"/>
<path id="Vector_87" d="M606.4 56.3389C606.4 56.3389 616.358 70.508 614.224 77.2552C612.09 84.0024 637.698 79.9541 637.698 79.9541C637.698 79.9541 638.409 53.6401 643.389 47.5676C648.368 41.4951 606.4 56.3389 606.4 56.3389Z" fill="#F7C4A7"/>
<path id="Vector_88" d="M519.619 319.479C519.619 319.479 500.413 330.949 492.589 327.576C484.764 324.202 481.919 329.6 484.053 331.624C486.187 333.648 532.423 351.191 543.093 348.492C553.762 345.793 548.335 323.689 548.335 323.689L519.619 319.479Z" fill="#535461"/>
<path id="Vector_89" d="M621.338 368.733C621.338 368.733 616.714 387.288 600.709 386.951C600.709 386.951 576.524 384.927 585.772 393.023C595.019 401.12 649.079 402.469 649.079 402.469C649.079 402.469 649.079 374.806 639.121 368.733C629.162 362.661 621.338 368.733 621.338 368.733Z" fill="#535461"/>
<path id="Vector_90" d="M592.174 237.838L594.308 285.068C594.308 285.068 594.308 307.334 602.132 317.455C609.957 327.576 619.204 378.179 619.204 378.179H646.234C646.234 378.179 638.41 310.033 632.008 301.936C632.008 301.936 629.162 241.886 639.121 228.392L592.174 237.838Z" fill="#575988"/>
<path id="Vector_91" opacity="0.1" d="M592.174 237.838L594.308 285.068C594.308 285.068 594.308 307.334 602.132 317.455C609.957 327.576 619.204 378.179 619.204 378.179H646.234C646.234 378.179 638.41 310.033 632.008 301.936C632.008 301.936 629.162 241.886 639.121 228.392L592.174 237.838Z" fill="black"/>
<path id="Vector_92" d="M648.368 195.331C648.368 195.331 664.728 232.44 634.853 243.236C604.977 254.031 550.917 252.682 550.917 252.682L548.072 330.949C548.072 330.949 514.64 334.998 513.928 324.877V239.188C513.928 239.188 514.64 229.741 536.69 221.645C558.741 213.548 588.617 209.5 588.617 209.5L590.039 191.957L648.368 195.331Z" fill="#575988"/>
<path id="Vector_93" opacity="0.1" d="M622.156 73.0788C627.838 72.4821 633.587 73.2525 638.872 75.3188C643.232 77.0596 647.408 79.7922 648.375 83.9957C649.499 88.9751 648.254 100.142 646.824 109.595C644.534 124.408 644.242 139.438 645.957 154.322C646.668 160.522 647.699 165.927 649.086 168.335C653.354 175.757 657.622 210.843 657.622 210.843C657.622 210.843 610.675 193.975 587.202 204.096C587.202 204.096 584.001 134.937 583.645 112.334C583.368 94.8317 606.763 74.887 614.587 74.2123C619.168 73.821 617.596 73.5308 622.156 73.0788Z" fill="black"/>
<path id="Vector_94" d="M622.156 71.7293C627.838 71.1326 633.587 71.903 638.872 73.9693C643.232 75.7101 647.408 78.4427 648.375 82.6462C649.499 87.6256 648.254 98.7922 646.824 108.245C644.534 123.059 644.242 138.089 645.957 152.972C646.51 157.73 647.558 162.424 649.086 166.986C652.287 176.095 657.622 209.493 657.622 209.493C657.622 209.493 610.675 192.625 587.202 202.746C587.202 202.746 584.001 133.587 583.645 110.984C583.368 93.4822 606.763 73.5375 614.587 72.8628C619.168 72.4715 617.596 72.1813 622.156 71.7293Z" fill="#E14B5A"/>
<g id="arm-boy">
<path id="Vector_95" d="M537.459 67.4021C537.459 67.4021 516.83 51.2088 517.542 45.1364C517.542 45.1364 501.893 16.7982 496.202 30.9673C490.512 45.1364 506.872 59.9802 506.872 59.9802L526.789 84.9448L537.459 67.4021Z" fill="#F7C4A7"/>
<path id="Vector_96" d="M631.709 109.572L574.092 106.873C574.092 106.873 529.279 94.0535 516.475 79.8844C516.475 79.8844 517.186 54.9198 531.413 53.5704L565.065 76.9763C570.947 81.0684 577.991 83.3866 585.281 83.6291L635.266 85.2821C635.266 85.2821 645.935 97.4271 631.709 109.572Z" fill="#E14B5A"/>
</g>
<path id="Vector_97" opacity="0.1" d="M637.342 59.3753C638.189 52.9789 641.247 50.8536 643.389 48.2424C648.368 42.1699 606.4 57.0137 606.4 57.0137C608.569 60.1747 610.472 63.4934 612.09 66.9389C615.436 68.4011 619.076 69.1585 622.76 69.1587C628.92 69.1587 632.918 62.8366 637.342 59.3753Z" fill="black"/>
<path id="Vector_98" d="M622.76 68.4839C636.903 68.4839 648.368 57.6089 648.368 44.194C648.368 30.7791 636.903 19.9042 622.76 19.9042C608.618 19.9042 597.153 30.7791 597.153 44.194C597.153 57.6089 608.618 68.4839 622.76 68.4839Z" fill="#F7C4A7"/>
<path id="Vector_99" opacity="0.1" d="M606.592 27.1709C603.868 24.3438 602.552 20.5789 601.314 16.9287L598.469 8.5689C602.324 10.728 606.436 5.87003 610.86 5.19531C614.025 4.71626 617.02 6.47054 619.936 7.73226C632.598 13.2245 649.1 10.4986 659.287 19.4926C660.679 20.6362 661.758 22.0833 662.431 23.7096C662.9 25.2421 663.093 26.8391 663 28.4326C663.083 32.6913 662.636 36.9443 661.669 41.1038C659.251 50.4082 652.778 58.2214 646.469 65.7108C645.274 67.1345 643.929 68.6458 642.051 69.0439C638.388 69.8198 635.557 66.0684 634.141 62.7758C632.266 58.4127 630.883 53.8735 630.016 49.2342C629.646 47.2707 629.354 45.2466 628.323 43.5126C626.118 39.8084 620.683 36.2998 617.383 33.4255C614.082 30.5512 609.622 30.3083 606.592 27.1709Z" fill="black"/>
<path id="Vector_100" d="M606.592 26.4962C603.868 23.6691 602.552 19.9042 601.314 16.254L598.469 7.89422C602.324 10.0533 606.436 5.19535 610.86 4.52063C614.025 4.04158 617.02 5.79585 619.936 7.05758C632.598 12.5498 649.1 9.82392 659.287 18.8179C660.679 19.9616 661.758 21.4086 662.431 23.0349C662.9 24.5674 663.093 26.1644 663 27.7579C663.083 32.0166 662.636 36.2697 661.669 40.4291C659.251 49.7335 652.778 57.5467 646.469 65.0361C645.274 66.4598 643.929 67.9711 642.051 68.3692C638.388 69.1451 635.557 65.3937 634.141 62.1011C632.266 57.738 630.883 53.1988 630.016 48.5595C629.646 46.5961 629.354 44.5719 628.323 42.8379C626.118 39.1337 620.683 35.6251 617.383 32.7508C614.082 29.8765 609.622 29.6336 606.592 26.4962Z" fill="#632652"/>
<path id="Vector_101" d="M629.518 51.2785C630.696 51.2785 631.652 49.315 631.652 46.8929C631.652 44.4707 630.696 42.5072 629.518 42.5072C628.339 42.5072 627.384 44.4707 627.384 46.8929C627.384 49.315 628.339 51.2785 629.518 51.2785Z" fill="#F7C4A7"/>
<path id="Vector_102" opacity="0.1" d="M642.322 163.957C642.322 163.957 640.899 168.005 633.786 167.33C626.673 166.655 606.044 165.306 606.044 167.33" fill="black"/>
<path id="Vector_103" opacity="0.5" d="M585.772 392.349C584.491 391.229 583.851 390.324 583.702 389.535C583.517 390.412 584.086 391.559 585.772 393.023C595.019 401.12 649.079 402.469 649.079 402.469C649.079 402.469 649.079 402.233 649.079 401.795C648.731 401.788 594.99 400.418 585.772 392.349Z" fill="white"/>
<path id="Vector_104" opacity="0.5" d="M543.093 347.142C532.423 349.841 486.187 332.299 484.053 330.274C483.769 330.001 483.565 329.661 483.463 329.289C483.339 329.694 483.329 330.121 483.432 330.531C483.536 330.94 483.75 331.317 484.053 331.624C486.187 333.648 532.423 351.191 543.093 348.492C548.584 347.102 549.807 340.577 549.708 334.566C549.601 340.166 548.171 345.847 543.093 347.142Z" fill="white"/>
<path id="Vector_105" d="M357.147 339.882C357.43 339.882 357.701 339.776 357.901 339.586C358.101 339.396 358.214 339.139 358.214 338.87C358.214 338.602 358.101 338.345 357.901 338.155C357.701 337.965 357.43 337.858 357.147 337.858C356.864 337.858 356.592 337.965 356.392 338.155C356.192 338.345 356.08 338.602 356.08 338.87C356.08 339.139 356.192 339.396 356.392 339.586C356.592 339.776 356.864 339.882 357.147 339.882Z" fill="#67647E"/>
<path id="Vector_106" d="M65.0786 321.982C65.0786 321.982 91.6251 321.206 99.6203 315.802C107.616 310.397 140.45 303.947 142.435 312.61C144.419 321.274 182.333 355.711 152.336 355.968C122.34 356.224 82.7051 351.542 74.717 346.927C66.7289 342.312 65.0786 321.982 65.0786 321.982Z" fill="#A8A8A8"/>
<path id="Vector_107" opacity="0.2" d="M152.898 352.925C122.93 353.154 83.267 348.499 75.2789 343.884C69.1972 340.368 66.7431 327.765 65.9678 321.948H65.0786C65.0786 321.948 66.7573 342.257 74.7454 346.866C82.7336 351.474 122.397 356.17 152.336 355.968C160.986 355.9 163.973 352.985 163.81 348.661C162.636 351.245 159.336 352.878 152.898 352.925Z" fill="black"/>
<path id="block-1" d="M673.022 386.721H733.712C737.185 386.721 740 384.051 740 380.757V365.023C740 361.728 737.185 359.058 733.712 359.058H673.022C669.549 359.058 666.734 361.728 666.734 365.023V380.757C666.734 384.051 669.549 386.721 673.022 386.721Z" fill="#6295AF"/>
<path id="block-2" d="M733.712 332.744H673.022C669.55 332.744 666.734 335.414 666.734 338.709V354.443C666.734 357.737 669.55 360.407 673.022 360.407H733.712C737.185 360.407 740 357.737 740 354.443V338.709C740 335.414 737.185 332.744 733.712 332.744Z" fill="#6DA5C2"/>
<path id="block-3" d="M673.022 332.744H733.712C737.185 332.744 740 330.074 740 326.78V311.045C740 307.751 737.185 305.081 733.712 305.081H673.022C669.549 305.081 666.734 307.751 666.734 311.045V326.78C666.734 330.074 669.549 332.744 673.022 332.744Z" fill="#6295AF"/>
<path id="block-4" d="M733.712 277.417H673.022C669.55 277.417 666.734 280.088 666.734 283.382V299.116C666.734 302.41 669.55 305.081 673.022 305.081H733.712C737.185 305.081 740 302.41 740 299.116V283.382C740 280.088 737.185 277.417 733.712 277.417Z" fill="#6DA5C2"/>
</g>
</svg>
