<svg  viewBox="0 0 261 240" fill="none" xmlns="http://www.w3.org/2000/svg">
<g id="diodo 1" clip-path="url(#clip0)">
<g id="led-blue">
<path id="Vector" d="M79.5229 93.7499C78.2098 93.7499 76.9088 93.1649 76.1299 92.0811C74.8779 90.3561 75.3796 88.0311 77.2596 86.8799L89.4858 79.3836C91.3658 78.2324 93.8983 78.6974 95.1422 80.4224C96.3941 82.1474 95.8925 84.4724 94.0125 85.6236L81.7863 93.1199C81.0849 93.5436 80.3019 93.7499 79.5229 93.7499Z" fill="#0853BB"/>
<path id="Vector_2" d="M50.9766 93.75L75.4453 78.75V63.75H50.9766V93.75ZM91.7578 82.5L79.5234 90V112.5H50.9766H30.5859V41.25V41.2125C30.6267 20.475 48.8559 3.75 71.3672 3.75C93.8784 3.75 112.108 20.475 112.148 41.2125V41.25V112.5H91.7578V82.5Z" fill="#0853BB"/>
<path id="Vector_3" d="M75.4453 63.75V78.75L50.9766 93.75V63.75H75.4453Z" fill="#0853BB"/>
<path id="Vector_4" d="M91.7578 82.5V112.5H79.5234V90L91.7578 82.5Z" fill="#0853BB"/>
<path id="Vector_5" d="M75.4453 82.5C73.1901 82.5 71.3672 80.8237 71.3672 78.75V63.75C71.3672 61.6763 73.1901 60 75.4453 60C77.7005 60 79.5234 61.6763 79.5234 63.75V78.75C79.5234 80.8237 77.7005 82.5 75.4453 82.5Z" fill="#0853BB"/>
<path id="Vector_6" d="M75.445 67.5H50.9844C48.7292 67.5 46.9062 65.8237 46.9062 63.75C46.9062 61.6763 48.7292 60 50.9844 60H75.445C77.7002 60 79.5231 61.6763 79.5231 63.75C79.5231 65.8237 77.7002 67.5 75.445 67.5Z" fill="#0853BB"/>
<path id="Vector_7" d="M50.9844 116.269C48.7292 116.269 46.9062 114.592 46.9062 112.519V60C46.9062 57.9263 48.7292 56.25 50.9844 56.25C53.2396 56.25 55.0625 57.9263 55.0625 60V112.519C55.0625 114.592 53.2396 116.269 50.9844 116.269Z" fill="#0853BB"/>
<path id="Vector_8" d="M50.9938 97.4997C49.6725 97.4997 48.3797 96.9147 47.5927 95.831C46.3407 94.1097 46.8504 91.781 48.7223 90.6297L73.1829 75.6297C75.0466 74.4785 77.5873 74.9435 78.8392 76.6685C80.0912 78.3897 79.5815 80.7185 77.7096 81.8697L53.249 96.8697C52.5557 97.2935 51.7646 97.4997 50.9938 97.4997V97.4997Z" fill="#0853BB"/>
<path id="Vector_9" d="M91.75 116.269C89.4948 116.269 87.6719 114.592 87.6719 112.519V60C87.6719 57.9263 89.4948 56.25 91.75 56.25C94.0052 56.25 95.8281 57.9263 95.8281 60V112.519C95.8281 114.592 94.0052 116.269 91.75 116.269Z" fill="#0853BB"/>
<path id="Vector_10" d="M79.5234 116.269C77.2682 116.269 75.4453 114.592 75.4453 112.519V90C75.4453 87.9262 77.2682 86.25 79.5234 86.25C81.7786 86.25 83.6016 87.9262 83.6016 90V112.519C83.6016 114.592 81.7786 116.269 79.5234 116.269Z" fill="#0853BB"/>
<path id="Vector_11" d="M114.179 116.269H28.5547C26.2995 116.269 24.4766 114.592 24.4766 112.519C24.4766 110.445 26.2995 108.769 28.5547 108.769H114.179C116.434 108.769 118.257 110.445 118.257 112.519C118.257 114.592 116.434 116.269 114.179 116.269Z" fill="#0853BB"/>
</g>
<g id="led-red">
<path id="Vector_12" d="M196.046 93.585C194.733 93.585 193.432 93.0027 192.653 91.924C191.401 90.2069 191.903 87.8926 193.783 86.7467L206.009 79.285C207.889 78.1391 210.422 78.6019 211.666 80.319C212.918 82.036 212.416 84.3503 210.536 85.4962L198.31 92.9579C197.608 93.3797 196.825 93.585 196.046 93.585Z" fill="#D90505"/>
<path id="Vector_13" d="M167.5 93.5851L191.969 78.6542V63.7234H167.5V93.5851ZM208.281 82.3869L196.047 89.8524V112.249H167.5H147.109V41.3271V41.2898C147.15 20.6479 165.379 4 187.891 4C210.402 4 228.631 20.6479 228.672 41.2898V41.3271V112.249H208.281V82.3869Z" fill="#D90505"/>
<path id="Vector_14" d="M191.969 63.7236V78.6545L167.5 93.5853V63.7236H191.969Z" fill="#D90505"/>
<path id="Vector_15" d="M208.281 82.3872V112.249H196.047V89.8526L208.281 82.3872Z" fill="#D90505"/>
<path id="Vector_16" d="M191.969 82.387C189.714 82.387 187.891 80.7185 187.891 78.6543V63.7234C187.891 61.6592 189.714 59.9907 191.969 59.9907C194.224 59.9907 196.047 61.6592 196.047 63.7234V78.6543C196.047 80.7185 194.224 82.387 191.969 82.387Z" fill="#D90505"/>
<path id="Vector_17" d="M191.968 67.4561H167.508C165.253 67.4561 163.43 65.7876 163.43 63.7234C163.43 61.6592 165.253 59.9907 167.508 59.9907H191.968C194.224 59.9907 196.047 61.6592 196.047 63.7234C196.047 65.7876 194.224 67.4561 191.968 67.4561Z" fill="#D90505"/>
<path id="Vector_18" d="M167.508 116C165.253 116 163.43 114.331 163.43 112.267V59.9905C163.43 57.9263 165.253 56.2578 167.508 56.2578C169.763 56.2578 171.586 57.9263 171.586 59.9905V112.267C171.586 114.331 169.763 116 167.508 116Z" fill="#D90505"/>
<path id="Vector_19" d="M167.517 97.3174C166.196 97.3174 164.903 96.7351 164.116 95.6563C162.864 93.943 163.374 91.625 165.246 90.479L189.706 75.5482C191.57 74.4022 194.111 74.8651 195.363 76.5821C196.615 78.2955 196.105 80.6135 194.233 81.7594L169.772 96.6903C169.079 97.1121 168.288 97.3174 167.517 97.3174V97.3174Z" fill="#D90505"/>
<path id="Vector_20" d="M208.273 116C206.018 116 204.195 114.331 204.195 112.267V59.9905C204.195 57.9263 206.018 56.2578 208.273 56.2578C210.529 56.2578 212.352 57.9263 212.352 59.9905V112.267C212.352 114.331 210.529 116 208.273 116Z" fill="#D90505"/>
<path id="Vector_21" d="M196.047 116C193.792 116 191.969 114.331 191.969 112.267V89.8523C191.969 87.7882 193.792 86.1196 196.047 86.1196C198.302 86.1196 200.125 87.7882 200.125 89.8523V112.267C200.125 114.331 198.302 116 196.047 116Z" fill="#D90505"/>
<path id="Vector_22" d="M230.702 116H145.078C142.823 116 141 114.332 141 112.267C141 110.203 142.823 108.535 145.078 108.535H230.702C232.958 108.535 234.781 110.203 234.781 112.267C234.781 114.332 232.958 116 230.702 116Z" fill="#D90505"/>
</g>
<g id="corpo-led-red">
<path id="Vector_23" d="M147.234 112.269C144.979 112.269 143.156 110.593 143.156 108.519V37.2427C143.156 35.1689 144.979 33.4927 147.234 33.4927C149.49 33.4927 151.312 35.1689 151.312 37.2427V108.519C151.312 110.593 149.49 112.269 147.234 112.269V112.269Z" fill="#CCD1D9"/>
<path id="Vector_24" d="M230.82 123.515H145.195C142.94 123.515 141.117 121.838 141.117 119.765C141.117 117.691 142.94 116.015 145.195 116.015H230.82C233.075 116.015 234.898 117.691 234.898 119.765C234.898 121.838 233.075 123.515 230.82 123.515Z" fill="#CCD1D9"/>
<path id="Vector_25" d="M230.828 108.5C234.213 108.5 236.945 111.013 236.945 114.125C236.945 117.237 234.213 119.75 230.828 119.75H208.398H167.617H145.188C141.803 119.75 139.07 117.237 139.07 114.125C139.07 111.013 141.803 108.5 145.188 108.5H147.227H167.617H196.164H208.398H228.789H230.828Z" fill="#CCD1D9"/>
<path id="Vector_26" d="M228.781 112.269C226.526 112.269 224.703 110.593 224.703 108.519V37.2427C224.703 35.1689 226.526 33.4927 228.781 33.4927C231.036 33.4927 232.859 35.1689 232.859 37.2427V108.519C232.859 110.593 231.036 112.269 228.781 112.269Z" fill="#CCD1D9"/>
<path id="Vector_27" d="M145.195 123.519C139.572 123.519 135 119.315 135 114.144C135 108.972 139.572 104.769 145.195 104.769C147.451 104.769 149.273 106.445 149.273 108.519C149.273 110.592 147.451 112.269 145.195 112.269C144.074 112.269 143.156 113.112 143.156 114.144C143.156 115.175 144.074 116.019 145.195 116.019C147.451 116.019 149.273 117.695 149.273 119.769C149.273 121.842 147.451 123.519 145.195 123.519V123.519Z" fill="#E6E9ED"/>
<path id="Vector_28" d="M230.82 123.519C228.565 123.519 226.742 121.842 226.742 119.769C226.742 117.695 228.565 116.019 230.82 116.019C231.942 116.019 232.859 115.175 232.859 114.144C232.859 113.112 231.942 112.269 230.82 112.269C228.565 112.269 226.742 110.592 226.742 108.519C226.742 106.445 228.565 104.769 230.82 104.769C236.444 104.769 241.016 108.972 241.016 114.144C241.016 119.315 236.444 123.519 230.82 123.519Z" fill="#E6E9ED"/>
<path id="Vector_29" d="M228.789 41C226.534 41 224.711 39.3237 224.711 37.25C224.711 18.6388 208.248 3.5 188.008 3.5C167.768 3.5 151.305 18.6388 151.305 37.25C151.305 39.3237 149.482 41 147.227 41C144.971 41 143.148 39.3237 143.148 37.25C143.148 14.5062 163.27 -4 188.008 -4C212.738 -4 232.867 14.5062 232.867 37.25C232.867 39.3237 231.044 41 228.789 41Z" fill="#CCD1D9"/>
</g>
<g id="corpo-led-blue">
<path id="Vector_30" d="M30.2344 112.269C27.9792 112.269 26.1562 110.593 26.1562 108.519V37.2427C26.1562 35.1689 27.9792 33.4927 30.2344 33.4927C32.4896 33.4927 34.3125 35.1689 34.3125 37.2427V108.519C34.3125 110.593 32.4896 112.269 30.2344 112.269V112.269Z" fill="#CCD1D9"/>
<path id="Vector_31" d="M113.82 123.515H28.1953C25.9401 123.515 24.1172 121.838 24.1172 119.765C24.1172 117.691 25.9401 116.015 28.1953 116.015H113.82C116.075 116.015 117.898 117.691 117.898 119.765C117.898 121.838 116.075 123.515 113.82 123.515Z" fill="#CCD1D9"/>
<path id="Vector_32" d="M113.828 108.5C117.213 108.5 119.945 111.013 119.945 114.125C119.945 117.237 117.213 119.75 113.828 119.75H91.3984H50.6172H28.1875C24.8027 119.75 22.0703 117.237 22.0703 114.125C22.0703 111.013 24.8027 108.5 28.1875 108.5H30.2266H50.6172H79.1641H91.3984H111.789H113.828Z" fill="#CCD1D9"/>
<path id="Vector_33" d="M111.781 112.269C109.526 112.269 107.703 110.593 107.703 108.519V37.2427C107.703 35.1689 109.526 33.4927 111.781 33.4927C114.036 33.4927 115.859 35.1689 115.859 37.2427V108.519C115.859 110.593 114.036 112.269 111.781 112.269Z" fill="#CCD1D9"/>
<path id="Vector_34" d="M28.1953 123.519C22.5716 123.519 18 119.315 18 114.144C18 108.972 22.5716 104.769 28.1953 104.769C30.4505 104.769 32.2734 106.445 32.2734 108.519C32.2734 110.592 30.4505 112.269 28.1953 112.269C27.0738 112.269 26.1562 113.112 26.1562 114.144C26.1562 115.175 27.0738 116.019 28.1953 116.019C30.4505 116.019 32.2734 117.695 32.2734 119.769C32.2734 121.842 30.4505 123.519 28.1953 123.519V123.519Z" fill="#E6E9ED"/>
<path id="Vector_35" d="M113.82 123.519C111.565 123.519 109.742 121.842 109.742 119.769C109.742 117.695 111.565 116.019 113.82 116.019C114.942 116.019 115.859 115.175 115.859 114.144C115.859 113.112 114.942 112.269 113.82 112.269C111.565 112.269 109.742 110.592 109.742 108.519C109.742 106.445 111.565 104.769 113.82 104.769C119.444 104.769 124.016 108.972 124.016 114.144C124.016 119.315 119.444 123.519 113.82 123.519Z" fill="#E6E9ED"/>
<path id="Vector_36" d="M111.789 41C109.534 41 107.711 39.3237 107.711 37.25C107.711 18.6388 91.2475 3.5 71.0078 3.5C50.7681 3.5 34.3047 18.6388 34.3047 37.25C34.3047 39.3237 32.4818 41 30.2266 41C27.9714 41 26.1484 39.3237 26.1484 37.25C26.1484 14.5062 46.2699 -4 71.0078 -4C95.7376 -4 115.867 14.5062 115.867 37.25C115.867 39.3237 114.044 41 111.789 41Z" fill="#CCD1D9"/>
</g>
<g id="leg-led-blue">
<path id="Vector_37" d="M91.8438 239.985C89.5885 239.985 87.7656 238.309 87.7656 236.235V123.75C87.7656 121.676 89.5885 120 91.8438 120C94.099 120 95.9219 121.676 95.9219 123.75V236.235C95.9219 238.309 94.099 239.985 91.8438 239.985Z" fill="#CCD1D9"/>
<path id="Vector_38" d="M51.0781 239.985C48.8229 239.985 47 238.309 47 236.235V123.75C47 121.676 48.8229 120 51.0781 120C53.3333 120 55.1562 121.676 55.1562 123.75V236.235C55.1562 238.309 53.3333 239.985 51.0781 239.985Z" fill="#CCD1D9"/>
</g>
<g id="leg-led-red">
<path id="Vector_39" d="M208.844 239.985C206.589 239.985 204.766 238.309 204.766 236.235V123.75C204.766 121.676 206.589 120 208.844 120C211.099 120 212.922 121.676 212.922 123.75V236.235C212.922 238.309 211.099 239.985 208.844 239.985Z" fill="#CCD1D9"/>
<path id="Vector_40" d="M168.078 239.985C165.823 239.985 164 238.309 164 236.235V123.75C164 121.676 165.823 120 168.078 120C170.333 120 172.156 121.676 172.156 123.75V236.235C172.156 238.309 170.333 239.985 168.078 239.985Z" fill="#CCD1D9"/>
</g>
</g>
<defs>
<clipPath id="clip0">
<rect width="261" height="240" fill="white"/>
</clipPath>
</defs>
</svg>
