<svg viewBox="0 0 512 512" fill="none" xmlns="http://www.w3.org/2000/svg">
<g id="robot (1) 1" clip-path="url(#clip0)">
<g id="Group">
<path id="Vector" d="M282.482 194.207H229.516V264.828H282.482V194.207Z" fill="#A5A5A4"/>
<path id="Vector_2" d="M423.722 326.621V503.173C423.708 508.042 419.764 511.986 414.894 512.001H97.1014C92.2324 511.987 88.2884 508.043 88.2734 503.173V326.621C88.3044 290.199 113.069 258.451 148.389 249.556C154.707 247.95 161.203 247.149 167.721 247.173H344.273C350.792 247.149 357.288 247.95 363.605 249.556C398.926 258.45 423.692 290.198 423.722 326.621Z" fill="#D1D4D1"/>
<path id="Vector_3" d="M388.414 17.655V194.207H123.586V17.655C123.614 7.916 131.502 0.028 141.241 0H370.758C380.498 0.028 388.386 7.916 388.414 17.655Z" fill="#8697CB"/>
<path id="Vector_4" d="M388.414 176.552V194.207C388.385 203.946 380.498 211.834 370.759 211.862H141.241C131.502 211.833 123.614 203.946 123.586 194.207V176.552H388.414Z" fill="#5E5F62"/>
<path id="Vector_5" d="M308.964 79.4481V97.1031C308.964 101.978 305.012 105.931 300.136 105.931H282.481C277.606 105.931 273.653 109.883 273.653 114.759V132.414C273.653 137.289 269.701 141.242 264.825 141.242H247.17C242.295 141.242 238.342 137.29 238.342 132.414V114.759C238.342 109.884 234.39 105.931 229.514 105.931H211.859C206.984 105.931 203.031 101.979 203.031 97.1031V79.4481C203.031 74.5731 206.983 70.6201 211.859 70.6201H229.514C234.389 70.6201 238.342 66.6681 238.342 61.7921V44.1381C238.342 39.2631 242.294 35.3101 247.17 35.3101H264.825C269.7 35.3101 273.653 39.2621 273.653 44.1381V61.7931C273.653 66.6681 277.605 70.6211 282.481 70.6211H300.136C305.011 70.6211 308.964 74.5731 308.964 79.4481Z" fill="#CC4B4C"/>
<g id="Group_2">
<path id="Vector_6" d="M255.997 247.172L212.3 298.107C204.834 281.672 198.78 264.633 194.203 247.172H255.997V247.172Z" fill="#BDC3C7"/>
<path id="Vector_7" d="M317.789 247.172C313.288 264.645 307.262 281.688 299.781 298.107L255.996 247.172H317.789Z" fill="#BDC3C7"/>
</g>
<g id="Group_3">
<path id="Vector_8" d="M264.827 379.586V512H247.172V379.586C247.139 378.74 247.289 377.897 247.613 377.114C250.614 384.176 253.527 390.886 255.999 397.241C258.559 390.885 261.384 384.176 264.385 377.114C264.709 377.897 264.86 378.74 264.827 379.586Z" fill="#A5A5A4"/>
<path id="Vector_9" d="M158.897 467.862V512H141.242V467.862C141.242 462.987 145.194 459.034 150.07 459.034C154.944 459.034 158.897 462.987 158.897 467.862Z" fill="#A5A5A4"/>
<path id="Vector_10" d="M370.76 467.862V512H353.105V467.862C353.105 462.987 357.057 459.034 361.933 459.034C366.809 459.034 370.76 462.987 370.76 467.862Z" fill="#A5A5A4"/>
</g>
<g id="Group_4">
<path id="Vector_11" d="M185.376 412.071V414.896C185.362 419.765 181.418 423.709 176.548 423.724H167.72C162.947 423.719 159.04 419.924 158.897 415.153C158.754 410.382 162.426 406.359 167.19 406.069C165.571 396.511 160.077 388.046 152.007 382.676L150.065 381.352L148.123 382.676C140.053 388.047 134.559 396.511 132.94 406.069C137.704 406.36 141.377 410.382 141.233 415.153C141.09 419.924 137.183 423.719 132.41 423.724H123.582C118.713 423.71 114.769 419.766 114.754 414.896V412.071C114.75 394.346 123.592 377.789 138.324 367.933L141.237 365.991V273.655C141.236 265.099 143.72 256.727 148.387 249.556C154.705 247.95 161.201 247.149 167.719 247.173L185.374 247.172C170.766 247.215 158.934 259.047 158.891 273.655V365.992L161.804 367.934C176.538 377.79 185.38 394.347 185.376 412.071Z" fill="#7F8C8D"/>
<path id="Vector_12" d="M370.756 273.655V370.758C370.756 375.633 366.804 379.586 361.928 379.586C357.052 379.586 353.1 375.634 353.1 370.758V273.655C353.057 259.047 341.226 247.215 326.617 247.172L344.272 247.173C350.791 247.149 357.287 247.95 363.604 249.556C368.273 256.727 370.757 265.099 370.756 273.655Z" fill="#7F8C8D"/>
</g>
<path id="Vector_13" d="M361.928 423.724C376.554 423.724 388.411 411.867 388.411 397.241C388.411 382.615 376.554 370.758 361.928 370.758C347.302 370.758 335.445 382.615 335.445 397.241C335.445 411.867 347.302 423.724 361.928 423.724Z" fill="#95A5A5"/>
<g id="Group_5">
<path id="Vector_14" d="M326.621 353.103L264.828 391.768L256 397.241C258.56 390.885 261.385 384.176 264.386 377.114C275.332 351.955 288.927 323.53 299.785 298.107C307.267 281.688 313.293 264.644 317.793 247.172L326.621 353.103Z" fill="#A5A5A4"/>
<path id="Vector_15" d="M256 397.241L247.172 391.768L185.379 353.103L194.207 247.172C198.784 264.633 204.838 281.673 212.304 298.107C223.162 323.529 236.668 351.955 247.614 377.114C250.615 384.177 253.528 390.885 256 397.241Z" fill="#A5A5A4"/>
</g>
</g>
</g>
<defs>
<clipPath id="clip0">
<rect width="512" height="512" fill="white"/>
</clipPath>
</defs>
</svg>
