<svg viewBox="0 0 512 512" fill="none" xmlns="http://www.w3.org/2000/svg">
<g id="robot 2" clip-path="url(#clip0)">
<g id="Group">
<g id="Group_2">
<g id="Group_3">
<path id="Vector" d="M104.632 406.531C122.135 406.531 136.323 392.342 136.323 374.84C136.323 357.337 122.135 343.149 104.632 343.149C87.13 343.149 72.9414 357.337 72.9414 374.84C72.9414 392.342 87.13 406.531 104.632 406.531Z" fill="#8C8787"/>
<path id="Vector_2" d="M104.632 406.531C122.135 406.531 136.323 392.342 136.323 374.84C136.323 357.337 122.135 343.149 104.632 343.149C87.13 343.149 72.9414 357.337 72.9414 374.84C72.9414 392.342 87.13 406.531 104.632 406.531Z" fill="#8C8787"/>
<path id="Vector_3" d="M202.121 406.531C219.623 406.531 233.812 392.342 233.812 374.84C233.812 357.337 219.623 343.149 202.121 343.149C184.618 343.149 170.43 357.337 170.43 374.84C170.43 392.342 184.618 406.531 202.121 406.531Z" fill="#8C8787"/>
</g>
<path id="Vector_4" d="M223.811 314.218L197.149 268.039H109.814L83.152 314.218C75.728 327.077 85.008 343.15 99.856 343.15H207.107C221.955 343.15 231.235 327.077 223.811 314.218V314.218Z" fill="#EBE1DC"/>
<path id="Vector_5" d="M104.633 343.15C99.2058 343.15 94.0988 344.517 89.6328 346.921C99.5688 352.27 106.324 362.766 106.324 374.841C106.324 386.916 99.5688 397.412 89.6328 402.761C94.0988 405.165 99.2058 406.532 104.633 406.532C122.135 406.532 136.324 392.344 136.324 374.841C136.323 357.338 122.135 343.15 104.633 343.15V343.15Z" fill="#7D7878"/>
<path id="Vector_6" d="M202.121 343.15C196.694 343.15 191.587 344.517 187.121 346.921C197.057 352.27 203.811 362.766 203.811 374.841C203.811 386.916 197.056 397.412 187.121 402.761C191.587 405.165 196.694 406.532 202.121 406.532C219.623 406.532 233.811 392.344 233.811 374.841C233.811 357.338 219.623 343.15 202.121 343.15V343.15Z" fill="#7D7878"/>
<path id="Vector_7" d="M223.81 314.218L197.148 268.039H167.148L193.81 314.218C201.234 327.077 191.954 343.15 177.106 343.15H207.106C221.954 343.15 231.234 327.077 223.81 314.218V314.218Z" fill="#DCD2CD"/>
<path id="Vector_8" d="M299.351 406.838C316.854 406.838 331.042 392.65 331.042 375.147C331.042 357.645 316.854 343.456 299.351 343.456C281.849 343.456 267.66 357.645 267.66 375.147C267.66 392.65 281.849 406.838 299.351 406.838Z" fill="#8C8787"/>
<path id="Vector_9" d="M299.351 406.838C316.854 406.838 331.042 392.65 331.042 375.147C331.042 357.645 316.854 343.456 299.351 343.456C281.849 343.456 267.66 357.645 267.66 375.147C267.66 392.65 281.849 406.838 299.351 406.838Z" fill="#8C8787"/>
<path id="Vector_10" d="M396.839 406.838C414.342 406.838 428.53 392.65 428.53 375.147C428.53 357.645 414.342 343.456 396.839 343.456C379.337 343.456 365.148 357.645 365.148 375.147C365.148 392.65 379.337 406.838 396.839 406.838Z" fill="#8C8787"/>
<path id="Vector_11" d="M418.531 314.525L391.869 268.346H304.533L277.871 314.525C270.447 327.383 279.727 343.457 294.575 343.457H401.826C416.675 343.457 425.955 327.383 418.531 314.525V314.525Z" fill="#EBE1DC"/>
<path id="Vector_12" d="M299.352 343.457C293.925 343.457 288.818 344.823 284.352 347.228C294.288 352.577 301.043 363.073 301.043 375.148C301.043 387.223 294.288 397.719 284.352 403.068C288.818 405.472 293.925 406.839 299.352 406.839C316.854 406.839 331.043 392.65 331.043 375.148C331.043 357.646 316.854 343.457 299.352 343.457V343.457Z" fill="#7D7878"/>
<path id="Vector_13" d="M396.84 343.457C391.413 343.457 386.306 344.823 381.84 347.228C391.776 352.577 398.53 363.073 398.53 375.148C398.53 387.223 391.775 397.719 381.84 403.068C386.306 405.472 391.413 406.839 396.84 406.839C414.342 406.839 428.53 392.65 428.53 375.148C428.53 357.646 414.342 343.457 396.84 343.457V343.457Z" fill="#7D7878"/>
<path id="Vector_14" d="M418.529 314.525L391.867 268.346H361.867L388.529 314.525C395.953 327.384 386.673 343.457 371.825 343.457H401.825C416.673 343.457 425.953 327.383 418.529 314.525Z" fill="#DCD2CD"/>
<path id="Vector_15" d="M0 407.531H512V511.5H0V407.531Z" fill="#EBE1DC"/>
<path id="Vector_16" d="M295.589 54.346H219.535C207.732 54.346 198.164 44.778 198.164 32.975V29.371C198.164 17.568 207.732 8 219.535 8H295.589C299.851 8 303.306 11.455 303.306 15.717V46.628C303.306 50.891 299.851 54.346 295.589 54.346V54.346Z" fill="#EBE1DC"/>
<path id="Vector_17" d="M227.449 54.3462H263.463V155.079H227.449V54.3462Z" fill="#8C8787"/>
<path id="Vector_18" d="M381.699 268.039H119.773C107.992 268.039 98.4414 258.488 98.4414 246.707V176.412C98.4414 164.63 107.992 155.08 119.773 155.08H381.699C393.48 155.08 403.031 164.631 403.031 176.412V246.707C403.031 258.488 393.481 268.039 381.699 268.039Z" fill="#B4AAAA"/>
<path id="Vector_19" d="M381.699 155.079H351.699C363.481 155.079 373.031 164.63 373.031 176.411V246.706C373.031 258.487 363.48 268.038 351.699 268.038H381.699C393.481 268.038 403.031 258.487 403.031 246.706V176.411C403.031 164.63 393.481 155.079 381.699 155.079Z" fill="#8C8787"/>
<path id="Vector_20" d="M0 405.846H512V438.267H0V405.846Z" fill="#DCD2CD"/>
</g>
<g id="Group_4">
<path id="Vector_21" d="M504.5 400.031H427.095C432.675 393.258 436.031 384.588 436.031 375.148C436.031 362.28 429.796 350.842 420.189 343.693C422.051 341.927 423.689 339.879 425.026 337.563C429.868 329.176 429.868 319.162 425.003 310.736L400.364 268.658C406.579 263.365 410.532 255.492 410.532 246.707V176.412C410.532 160.514 397.598 147.579 381.7 147.579H270.964V61.846H295.59C303.981 61.846 310.807 55.02 310.807 46.629V15.717C310.807 7.32602 303.98 0.500023 295.59 0.500023H270.6C266.458 0.500023 263.1 3.85802 263.1 8.00002C263.1 12.142 266.458 15.5 270.6 15.5H295.59C295.71 15.5 295.807 15.598 295.807 15.717V46.628C295.807 46.748 295.709 46.845 295.59 46.845H219.536C211.888 46.845 205.665 40.623 205.665 32.974V29.37C205.665 21.722 211.887 15.499 219.536 15.499H240.6C244.742 15.499 248.1 12.141 248.1 7.99902C248.1 3.85702 244.742 0.499023 240.6 0.499023H219.536C203.617 0.499023 190.665 13.45 190.665 29.37V32.974C190.665 48.893 203.616 61.845 219.536 61.845H219.95V147.578H183.863C179.721 147.578 176.363 150.936 176.363 155.078C176.363 159.22 179.721 162.578 183.863 162.578H381.699C389.326 162.578 395.531 168.783 395.531 176.411V246.706C395.531 252.322 392.162 257.157 387.344 259.322C387.222 259.373 387.101 259.427 386.981 259.486C385.352 260.162 383.569 260.539 381.699 260.539H119.773C112.146 260.539 105.941 254.334 105.941 246.706V176.411C105.941 168.784 112.146 162.578 119.773 162.578H153.863C158.005 162.578 161.363 159.22 161.363 155.078C161.363 150.936 158.005 147.578 153.863 147.578H119.773C103.875 147.578 90.941 160.512 90.941 176.411V246.706C90.941 255.391 94.806 263.185 100.9 268.475L76.656 310.467C71.814 318.854 71.814 328.868 76.656 337.255C77.972 339.534 79.578 341.553 81.403 343.3C71.73 350.443 65.442 361.919 65.442 374.84C65.442 384.425 68.906 393.213 74.641 400.03H7.5C3.358 400.03 0 403.388 0 407.53C0 411.672 3.358 415.03 7.5 415.03H504.5C508.642 415.03 512 411.672 512 407.53C512 403.388 508.642 400.031 504.5 400.031V400.031ZM234.95 61.846H255.964V147.579H234.95V61.846ZM202.119 350.65C215.458 350.65 226.309 361.502 226.309 374.84C226.309 388.179 215.457 399.03 202.119 399.03C188.78 399.03 177.929 388.178 177.929 374.84C177.929 361.501 188.781 350.65 202.119 350.65ZM225.468 343.385C227.33 341.619 228.968 339.572 230.305 337.256C235.147 328.869 235.147 318.855 230.305 310.467L210.139 275.538H291.72L271.377 310.774C266.535 319.161 266.535 329.175 271.377 337.562C272.693 339.841 274.299 341.86 276.124 343.607C266.451 350.75 260.163 362.227 260.163 375.147C260.163 384.587 263.519 393.258 269.099 400.03H232.11C237.845 393.213 241.309 384.425 241.309 374.84C241.31 361.972 235.075 350.535 225.468 343.385V343.385ZM323.544 375.147C323.544 388.486 312.692 399.337 299.353 399.337C286.014 399.337 275.163 388.485 275.163 375.147C275.163 361.808 286.015 350.956 299.353 350.956C312.692 350.956 323.544 361.809 323.544 375.147ZM330.152 350.956H366.041C360.793 357.624 357.65 366.023 357.65 375.147C357.65 384.587 361.006 393.258 366.586 400.03H329.608C335.188 393.257 338.544 384.587 338.544 375.147C338.544 366.023 335.401 357.624 330.152 350.956V350.956ZM396.84 399.338C383.501 399.338 372.65 388.486 372.65 375.148C372.65 361.809 383.502 350.957 396.84 350.957C410.179 350.957 421.03 361.809 421.03 375.148C421.031 388.486 410.179 399.338 396.84 399.338ZM294.576 335.956C290.315 335.956 286.498 333.753 284.368 330.062C282.237 326.372 282.237 321.965 284.368 318.274L289.815 308.84H406.513L412.037 318.274C414.168 321.964 414.168 326.371 412.037 330.062C409.906 333.752 406.09 335.956 401.828 335.956H294.576ZM386.747 275.088L397.729 293.842H298.475L308.549 276.392C308.71 276.114 308.843 275.828 308.965 275.539H381.7C383.422 275.539 385.106 275.379 386.747 275.088ZM119.773 275.539H192.818L203.208 293.534H103.753L114.433 275.035C116.165 275.361 117.948 275.539 119.773 275.539ZM99.855 335.65C95.593 335.65 91.777 333.447 89.646 329.756C87.515 326.066 87.515 321.659 89.646 317.968L95.093 308.534H211.868L217.315 317.968C219.446 321.659 219.446 326.066 217.315 329.757C215.184 333.447 211.368 335.651 207.107 335.651H99.855V335.65ZM104.633 350.65C117.972 350.65 128.823 361.502 128.823 374.84C128.823 388.179 117.971 399.03 104.633 399.03C91.294 399.03 80.443 388.178 80.443 374.84C80.442 361.501 91.294 350.65 104.633 350.65V350.65ZM135.432 350.65H171.32C166.072 357.317 162.929 365.716 162.929 374.84C162.929 384.425 166.393 393.213 172.128 400.03H134.623C140.358 393.213 143.822 384.425 143.822 374.84C143.823 365.716 140.68 357.317 135.432 350.65V350.65Z" fill="black"/>
<path id="Vector_22" d="M136.65 461.038H37.5859C33.4439 461.038 30.0859 464.396 30.0859 468.538C30.0859 472.68 33.4439 476.038 37.5859 476.038H136.65C140.792 476.038 144.15 472.68 144.15 468.538C144.15 464.396 140.792 461.038 136.65 461.038Z" fill="black"/>
<path id="Vector_23" d="M487.948 461.038H463.086C458.944 461.038 455.586 464.396 455.586 468.538C455.586 472.68 458.944 476.038 463.086 476.038H487.948C492.09 476.038 495.448 472.68 495.448 468.538C495.448 464.396 492.09 461.038 487.948 461.038Z" fill="black"/>
<path id="Vector_24" d="M422.474 461.038H396.748C396.115 461.038 395.6 460.523 395.6 459.891C395.6 450.987 388.356 443.743 379.453 443.743H335.349C326.445 443.743 319.201 450.987 319.201 459.891C319.201 460.524 318.686 461.038 318.054 461.038H298.434C294.292 461.038 290.934 464.396 290.934 468.538C290.934 472.68 294.292 476.038 298.434 476.038H318.054C326.958 476.038 334.201 468.794 334.201 459.891C334.201 459.258 334.716 458.743 335.349 458.743H379.453C380.086 458.743 380.6 459.258 380.6 459.891C380.6 468.795 387.844 476.038 396.748 476.038H422.474C426.616 476.038 429.974 472.68 429.974 468.538C429.974 464.396 426.616 461.038 422.474 461.038Z" fill="black"/>
<path id="Vector_25" d="M204.507 188.168H164.234C160.092 188.168 156.734 191.526 156.734 195.668C156.734 199.81 160.092 203.168 164.234 203.168H204.507C208.649 203.168 212.007 199.81 212.007 195.668C212.007 191.526 208.649 188.168 204.507 188.168Z" fill="black"/>
<path id="Vector_26" d="M204.507 216.441H164.234C160.092 216.441 156.734 219.799 156.734 223.941C156.734 228.083 160.092 231.441 164.234 231.441H204.507C208.649 231.441 212.007 228.083 212.007 223.941C212.007 219.799 208.649 216.441 204.507 216.441Z" fill="black"/>
<path id="Vector_27" d="M296.965 203.168H337.238C341.38 203.168 344.738 199.81 344.738 195.668C344.738 191.526 341.38 188.168 337.238 188.168H296.965C292.823 188.168 289.465 191.526 289.465 195.668C289.465 199.81 292.823 203.168 296.965 203.168Z" fill="black"/>
<path id="Vector_28" d="M296.965 231.441H337.238C341.38 231.441 344.738 228.083 344.738 223.941C344.738 219.799 341.38 216.441 337.238 216.441H296.965C292.823 216.441 289.465 219.799 289.465 223.941C289.465 228.083 292.823 231.441 296.965 231.441Z" fill="black"/>
</g>
</g>
</g>
<defs>
<clipPath id="clip0">
<rect width="512" height="512" fill="white"/>
</clipPath>
</defs>
</svg>
