<svg viewBox="0 0 300 300" fill="none" xmlns="http://www.w3.org/2000/svg">
<g id="temperature-sensor 1" clip-path="url(#clip0)">
<g id="Page 1">
<g id="072   Temperature Gun">
<path id="botom-1" d="M111.864 155.085V190.678L73.3725 190.678C70.4617 190.698 67.8232 188.969 66.6792 186.292C65.5352 183.616 66.1092 180.514 68.1352 178.424C76.0544 170.251 82.2759 160.591 86.4403 150H106.779C109.587 150 111.864 152.277 111.864 155.085Z" fill="#E54C3C"/>
<path id="Shape" d="M152.543 185.594V292.373C152.543 295.182 150.266 297.458 147.458 297.458H92.085C87.2927 297.56 83.0288 294.433 81.6866 289.831C80.9103 286.767 81.597 283.517 83.5463 281.03C85.4956 278.542 88.4874 277.098 91.6477 277.119C94.3311 277.111 96.9006 276.033 98.7867 274.124C100.673 272.215 101.72 269.633 101.695 266.95V155.085C101.695 152.277 99.4186 150 96.6104 150H55.9324C53.1242 150 50.8477 147.724 50.8477 144.916V124.577L127.119 114.407L152.543 185.594Z" fill="#94A4A4"/>
<g id="Group">
<path id="Shap-6" d="M294.915 38.1358H279.661C276.853 38.1358 274.576 35.8593 274.576 33.0511C274.576 30.2428 276.853 27.9663 279.661 27.9663H294.915C297.723 27.9663 300 30.2428 300 33.0511C300 35.8593 297.723 38.1358 294.915 38.1358Z" fill="#2980B9"/>
<path id="Shape-5" d="M294.915 63.5596H279.661C276.853 63.5596 274.576 61.2831 274.576 58.4749C274.576 55.6667 276.853 53.3901 279.661 53.3901H294.915C297.723 53.3901 300 55.6667 300 58.4749C300 61.2831 297.723 63.5596 294.915 63.5596Z" fill="#2980B9"/>
<path id="Shape-4" d="M294.915 88.9835H279.661C276.853 88.9835 274.576 86.7069 274.576 83.8987C274.576 81.0905 276.853 78.814 279.661 78.814H294.915C297.723 78.814 300 81.0905 300 83.8987C300 86.7069 297.723 88.9835 294.915 88.9835Z" fill="#2980B9"/>
<path id="Shape-3" d="M294.915 114.407H279.661C276.853 114.407 274.576 112.13 274.576 109.322C274.576 106.514 276.853 104.237 279.661 104.237H294.915C297.723 104.237 300 106.514 300 109.322C300 112.13 297.723 114.407 294.915 114.407Z" fill="#2980B9"/>
<path id="Shape-2" d="M294.915 140.831H279.661C276.853 140.831 274.576 138.554 274.576 135.746C274.576 132.938 276.853 130.661 279.661 130.661H294.915C297.723 130.661 300 132.938 300 135.746C300 138.554 297.723 140.831 294.915 140.831Z" fill="#2980B9"/>
</g>
<path id="Shape_2" d="M37.2204 114.407L18.1526 114.407C15.7514 114.412 13.6737 112.737 13.1695 110.39L0.101712 49.3728C-0.221279 47.869 0.153728 46.2999 1.12174 45.1047C2.08975 43.9095 3.54673 43.2167 5.08476 43.2202H21.356L37.2204 114.407Z" fill="#464F5D"/>
<path id="Shape_3" d="M167.796 53.3898V180.508C167.796 183.317 165.519 185.593 162.711 185.593H132.203C129.395 185.593 127.118 183.317 127.118 180.508V124.576H43.5757C41.1945 124.574 39.1294 122.93 38.5926 120.61L37.2197 114.407L21.3553 43.2203L20.4909 39.2542C20.1642 37.7447 20.5363 36.1685 21.5035 34.9645C22.4706 33.7604 23.9296 33.0572 25.474 33.0508H147.457C158.69 33.0508 167.796 42.1569 167.796 53.3898Z" fill="#EBEFF0"/>
<path id="Shape_4" d="M188.136 63.5594V124.576C188.136 127.385 185.859 129.661 183.051 129.661H167.797V58.4746H183.051C185.859 58.4746 188.136 60.7511 188.136 63.5594Z" fill="#BCC2C6"/>
<path id="led" d="M66.1019 53.3901H55.9324C53.1242 53.3901 50.8477 55.6667 50.8477 58.4749V68.6444C50.8477 71.4526 53.1242 73.7291 55.9324 73.7291H66.1019C68.9101 73.7291 71.1866 71.4526 71.1866 68.6444V58.4749C71.1866 55.6667 68.9101 53.3901 66.1019 53.3901Z" fill="#FF5364"/>
<path id="Shape_5" d="M116.95 58.4747H91.5262C88.7179 58.4747 86.4414 56.1982 86.4414 53.3899C86.4414 50.5817 88.7179 48.3052 91.5262 48.3052H116.95C119.758 48.3052 122.035 50.5817 122.035 53.3899C122.035 56.1982 119.758 58.4747 116.95 58.4747Z" fill="#BCC2C6"/>
<path id="Shape_6" d="M106.78 78.8135H91.5261C88.7179 78.8135 86.4414 76.537 86.4414 73.7288C86.4414 70.9206 88.7179 68.644 91.5261 68.644H106.78C109.589 68.644 111.865 70.9206 111.865 73.7288C111.865 76.537 109.589 78.8135 106.78 78.8135Z" fill="#BCC2C6"/>
<path id="Shape_7" d="M294.916 195.763C294.919 208.078 289.958 219.875 281.155 228.487C272.352 237.099 260.449 241.799 248.136 241.526C223.264 240.692 203.5 220.344 203.391 195.458C203.459 182.55 209.003 170.278 218.645 161.695V33.051C218.645 16.2016 232.304 2.54248 249.153 2.54248C265.992 2.56768 279.637 16.212 279.662 33.051V161.695C289.379 170.351 294.93 182.749 294.916 195.763Z" fill="#9EC8D2"/>
<path id="Shape-1" d="M269.491 195.763C269.487 202.037 266.592 207.96 261.643 211.817C256.694 215.674 250.244 217.036 244.159 215.507C236.912 213.75 231.235 208.123 229.413 200.893C227.355 192.913 230.317 184.479 236.913 179.537C238.154 178.667 238.909 177.26 238.947 175.744V48.8747C238.842 43.4651 242.845 38.8528 248.216 38.1967C251.056 37.9529 253.87 38.9052 255.978 40.8241C258.086 42.7431 259.298 45.4546 259.321 48.3052V175.831C259.359 177.281 260.086 178.626 261.279 179.451C266.456 183.272 269.505 189.329 269.491 195.763Z" fill="#E54C3C"/>
</g>
</g>
</g>
<defs>
<clipPath id="clip0">
<rect width="300" height="300" fill="white"/>
</clipPath>
</defs>
</svg>
