<svg width="200" height="200" viewBox="0 0 200 200" fill="none" xmlns="http://www.w3.org/2000/svg">
<g id="sensor 1" clip-path="url(#clip0)">
<g id="Group">
<path id="Vector" d="M123.969 109.936C129.445 96.7233 123.174 81.5722 109.961 76.0953C96.7478 70.6185 81.5967 76.8899 76.1198 90.103C70.643 103.316 76.9144 118.467 90.1275 123.944C103.341 129.421 118.492 123.149 123.969 109.936Z" fill="#FF7335"/>
<g id="Group_2">
<path id="Vector_2" d="M128.79 140.813C127.093 140.813 125.408 140.083 124.243 138.671C122.172 136.162 122.528 132.449 125.037 130.378C134.142 122.863 139.364 111.791 139.364 99.9999C139.364 88.2089 134.142 77.1366 125.037 69.6222C122.528 67.5513 122.172 63.8382 124.243 61.3286C126.314 58.8193 130.027 58.4635 132.537 60.5348C144.364 70.2954 151.147 84.6801 151.147 99.9999C151.147 115.32 144.364 129.704 132.537 139.465C131.439 140.371 130.11 140.813 128.79 140.813Z" fill="#FF1E55"/>
</g>
<g id="Group_3">
<path id="Vector_3" d="M72.2767 141.241C71.0148 141.241 69.7435 140.837 68.6693 140.004C56.0755 130.232 48.8525 115.496 48.8525 99.573C48.8525 84.2532 55.6357 69.8684 67.4624 60.1079C69.9721 58.037 73.6855 58.3924 75.756 60.9017C77.827 63.4113 77.4715 67.1243 74.9623 69.1953C65.8569 76.7097 60.6349 87.782 60.6349 99.573C60.6349 111.828 66.1958 123.172 75.8919 130.695C78.4624 132.69 78.9294 136.39 76.9351 138.961C75.7745 140.457 74.035 141.241 72.2767 141.241Z" fill="#FF9966"/>
</g>
<g id="Group_4">
<path id="Vector_4" d="M147.2 157.312C145.599 157.312 144.005 156.664 142.842 155.388C140.651 152.982 140.826 149.256 143.232 147.065C156.578 134.912 164.233 117.597 164.233 99.5584C164.233 81.7092 157.085 65.1252 144.105 52.8609C141.74 50.6265 141.634 46.8978 143.868 44.5327C146.103 42.168 149.832 42.0619 152.197 44.2967C159.638 51.3276 165.495 59.6247 169.603 68.9576C173.858 78.6223 176.015 88.9181 176.015 99.5584C176.015 120.905 166.957 141.396 151.165 155.777C150.035 156.805 148.615 157.312 147.2 157.312Z" fill="#BF2A51"/>
</g>
<g id="Group_5">
<path id="Vector_5" d="M54.0815 158.829C52.7135 158.829 51.3393 158.355 50.2247 157.389C33.5495 142.93 23.9854 121.989 23.9854 99.9361C23.9854 77.9636 33.4914 57.0734 50.0653 42.6219C52.5176 40.4834 56.2392 40.7383 58.3773 43.1906C60.5154 45.6429 60.2609 49.3646 57.8086 51.5027C43.8013 63.7159 35.7677 81.3695 35.7677 99.9361C35.7677 118.571 43.8504 136.267 57.9434 148.487C60.4015 150.618 60.6666 154.339 58.5348 156.797C57.3703 158.14 55.7302 158.829 54.0815 158.829Z" fill="#FF7335"/>
</g>
<g id="Group_6">
<path id="Vector_6" d="M163.866 174.751C162.28 174.751 160.699 174.115 159.538 172.859C157.329 170.47 157.476 166.742 159.865 164.534C168.716 156.352 175.686 146.649 180.582 135.694C185.648 124.359 188.217 112.261 188.217 99.7374C188.217 87.3403 185.698 75.3549 180.731 64.1141C175.93 53.2519 169.087 43.6022 160.393 35.4331C158.022 33.2054 157.906 29.4767 160.134 27.1057C162.361 24.7339 166.09 24.618 168.461 26.8461C178.312 36.1015 186.066 47.0379 191.508 59.3513C197.143 72.1014 200 85.6892 200 99.737C200 113.928 197.086 127.644 191.339 140.502C185.789 152.919 177.891 163.916 167.863 173.185C166.73 174.233 165.296 174.751 163.866 174.751Z" fill="#FF1E55"/>
</g>
<g id="Group_7">
<path id="Vector_7" d="M37.2351 176.016C35.8357 176.016 34.4313 175.52 33.3068 174.513C12.1398 155.555 0 128.396 0 100C0 71.6038 12.1398 44.4451 33.3064 25.4872C35.7297 23.3165 39.4541 23.5215 41.6252 25.9455C43.7959 28.3692 43.5909 32.0936 41.1669 34.2643C22.493 50.9894 11.7824 74.9496 11.7824 100C11.7824 125.051 22.493 149.011 41.1672 165.736C43.5909 167.907 43.7959 171.631 41.6256 174.055C40.4615 175.354 38.8516 176.016 37.2351 176.016Z" fill="#FF9966"/>
</g>
<path id="Vector_8" d="M100.212 74.1079V125.882C114.391 125.767 125.892 114.201 125.892 99.9946C125.892 85.7882 114.392 74.2222 100.212 74.1079Z" fill="#FF1E55"/>
</g>
</g>
<defs>
<clipPath id="clip0">
<rect width="200" height="200" fill="white"/>
</clipPath>
</defs>
</svg>
