<svg viewBox="0 0 512 512" fill="none" xmlns="http://www.w3.org/2000/svg">
<g id="robotic-arm (2) 1" clip-path="url(#clip0)">
<path id="Vector" d="M314.881 48C310.188 35.4133 302.081 24.5333 291.628 16.2133C279.041 5.97333 262.828 0 245.335 0C204.161 0 170.668 33.4933 170.668 74.6667C170.668 115.84 204.161 149.333 245.335 149.333C265.601 149.333 283.948 141.227 297.388 128C306.348 119.253 313.175 108.373 316.801 96C318.935 89.1733 320.001 82.1333 320.001 74.6667C320.001 65.28 318.295 56.32 314.881 48ZM245.335 117.333C221.868 117.333 202.668 98.1333 202.668 74.6667C202.668 51.2 221.868 32 245.335 32C268.801 32 288.001 51.2 288.001 74.6667C288.001 98.1333 268.801 117.333 245.335 117.333Z" fill="black"/>
<path id="Vector_2" d="M293.332 192H197.332C188.5 192 181.332 184.832 181.332 176V112C181.332 103.168 188.5 96 197.332 96C206.164 96 213.332 103.168 213.332 112V128H277.332V112C277.332 103.168 284.5 96 293.332 96C302.164 96 309.332 103.168 309.332 112V176C309.332 184.832 302.164 192 293.332 192Z" fill="black"/>
<path id="Vector_3" d="M272.001 234.667H218.668C209.836 234.667 202.668 227.499 202.668 218.667V176C202.668 167.168 209.836 160 218.668 160H272.001C280.833 160 288.001 167.168 288.001 176V218.667C288.001 227.499 280.833 234.667 272.001 234.667ZM234.668 202.667H256.001V192H234.668V202.667Z" fill="black"/>
<path id="Vector_4" d="M511.998 16V133.333C511.998 142.08 504.745 149.333 495.998 149.333C487.252 149.333 479.998 142.08 479.998 133.333V128H297.385C306.345 119.253 313.172 108.373 316.798 96C318.932 89.1733 319.998 82.1333 319.998 74.6667C319.998 65.28 318.292 56.32 314.878 48C310.185 35.4133 302.078 24.5333 291.625 16.2133C292.265 16 292.692 16 293.332 16H479.998C479.998 7.25333 487.252 0 495.998 0C504.745 0 511.998 7.25333 511.998 16Z" fill="black"/>
<path id="Vector_5" d="M245.332 256C236.5 256 229.332 248.832 229.332 240V218.667C229.332 209.835 236.5 202.667 245.332 202.667C254.164 202.667 261.332 209.835 261.332 218.667V240C261.332 248.832 254.164 256 245.332 256Z" fill="black"/>
<path id="Vector_6" d="M472.171 393.514L375.552 363.392C373.995 362.901 372.395 362.667 370.773 362.667H99.4773C98.2613 362.667 97.024 362.795 95.8507 363.093L43.904 375.21C18.048 381.184 0 403.2 0 428.736V476.458C0 496.042 16.5333 512 36.864 512H78.6133C87.4453 512 94.6133 504.832 94.6133 496C94.6133 483.243 106.155 472.896 120.363 472.896C134.571 472.896 146.112 483.264 146.112 496C146.112 504.832 153.28 512 162.112 512H349.952C358.784 512 365.952 504.832 365.952 496C365.952 483.243 377.493 472.896 391.701 472.896C405.909 472.896 417.451 483.264 417.451 496C417.451 504.832 424.619 512 433.451 512H475.2C495.467 512 512 496.043 512 476.437V445.931C512 422.208 496.043 401.152 472.171 393.514Z" fill="black"/>
<path id="Vector_7" d="M371.647 390.635C365.994 390.635 360.532 387.648 357.61 382.336L329.962 332.032C322.388 318.251 306.324 309.333 289.002 309.333H153.834C142.122 309.333 132.095 316.075 129.471 325.717L115.071 378.389C112.746 386.923 103.914 391.958 95.423 389.611C86.8896 387.286 81.8763 378.475 84.2016 369.963L98.6016 317.312C105.002 293.781 127.722 277.333 153.834 277.333H289.002C318.25 277.333 344.703 292.395 357.994 316.629L385.642 366.912C389.908 374.656 387.071 384.384 379.327 388.651C376.895 389.995 374.25 390.635 371.647 390.635Z" fill="black"/>
<path id="Vector_8" d="M202.668 389.333C193.836 389.333 186.668 382.165 186.668 373.333V293.333C186.668 284.501 193.836 277.333 202.668 277.333C211.5 277.333 218.668 284.501 218.668 293.333V373.333C218.668 382.165 211.5 389.333 202.668 389.333Z" fill="black"/>
</g>
<defs>
<clipPath id="clip0">
<rect width="512" height="512" fill="white"/>
</clipPath>
</defs>
</svg>
