<svg width="512" height="512" viewBox="0 0 512 512" fill="none" xmlns="http://www.w3.org/2000/svg">
<g id="industrial-robot">
<g id="Group">
<g id="motor-6">
<path id="Vector" d="M508.063 317.152L506.395 318.81C500.409 324.795 493.682 329.988 486.368 334.263L472.718 342.226C468.937 344.441 464.126 343.823 461.025 340.722L461.005 340.691C457.327 337.024 457.224 331.11 460.758 327.309L478.137 308.58L448.57 279.014C442.08 272.524 431.552 272.524 425.062 279.014L395.485 308.58L412.607 325.558C416.398 329.318 416.408 335.448 412.638 339.228C410.783 341.083 408.311 342.061 405.808 342.061C404.283 342.061 402.748 341.701 401.337 340.959L389.624 334.829C380.754 330.183 372.636 324.229 365.558 317.152C363.199 314.782 362.015 311.692 362.015 308.58C362.015 305.49 363.199 302.379 365.558 300.02L411.145 254.442C415.261 250.328 417.572 244.747 417.572 238.928V202.544L436.806 194.189L456.05 202.544V238.929C456.05 244.747 458.361 250.327 462.475 254.441L508.053 300.02C512.792 304.748 512.792 312.423 508.063 317.152V317.152Z" fill="#DEECF1"/>
<path id="Vector_2" d="M508.063 317.152L506.394 318.81C500.409 324.795 493.682 329.988 486.368 334.263L472.718 342.226C468.937 344.441 464.126 343.823 461.025 340.722L461.005 340.691C460.397 340.094 459.892 339.424 459.48 338.724L467.124 334.263C474.438 329.988 481.165 324.795 487.151 318.81L488.819 317.152C493.548 312.423 493.548 304.748 488.819 300.02L443.233 254.442C439.117 250.328 436.806 244.747 436.806 238.928V202.544L446.428 198.361L456.049 202.544V238.929C456.049 244.747 458.361 250.327 462.475 254.441L508.053 300.02C512.792 304.748 512.792 312.423 508.063 317.152V317.152Z" fill="#A8D3D8"/>
<path id="Vector_3" d="M447.89 278.365C441.369 272.534 431.325 272.751 425.062 279.014L395.485 308.58L412.607 325.558C416.398 329.318 416.408 335.448 412.638 339.228C410.783 341.083 408.311 342.061 405.807 342.061C404.283 342.061 402.748 341.701 401.336 340.959L394.754 337.518C397.092 333.779 396.628 328.793 393.363 325.558L376.241 308.58L405.818 279.014C412.225 272.606 429.986 261.429 447.89 278.365Z" fill="#A8D3D8"/>
</g>
<path id="Vector_4" d="M150.705 110.129L183.363 51.9345L303.012 135.352L276.719 177.649L150.705 110.129Z" fill="#DEECF1"/>
<path id="Vector_5" d="M303.017 135.355L276.716 177.644L249.53 163.078L266.775 135.355L173.173 70.0935L183.361 51.9314L303.017 135.355Z" fill="#A8D3D8"/>
<path id="Vector_6" d="M175.473 362.313H84.6416L104.439 77.1163H155.676L175.473 362.313Z" fill="#DEECF1"/>
<path id="Vector_7" d="M175.47 362.315H150.704L130.904 77.1194H155.68L175.47 362.315Z" fill="#A8D3D8"/>
<g id="motor-2">
<path id="Vector_8" d="M190.619 427.92L130.057 434.565L69.4961 427.92V367.358C69.4961 333.912 96.6105 306.797 130.057 306.797C163.504 306.797 190.619 333.912 190.619 367.358V427.92Z" fill="#8379C1"/>
<path id="Vector_9" d="M190.614 367.363V427.917L178.736 434.564L165.55 427.917V367.363C165.55 350.632 158.771 335.499 147.81 324.538C139.661 316.389 129.215 310.558 117.522 308.096C121.571 307.241 125.764 306.798 130.06 306.798C146.78 306.798 161.923 313.577 172.874 324.538C183.835 335.499 190.614 350.632 190.614 367.363V367.363Z" fill="#6E61B6"/>
<path id="Vector_10" d="M130.057 378.641C139.075 378.641 146.385 371.331 146.385 362.313C146.385 353.295 139.075 345.984 130.057 345.984C121.039 345.984 113.729 353.295 113.729 362.313C113.729 371.331 121.039 378.641 130.057 378.641Z" fill="#DEECF1"/>
</g>
<path id="Vector_11" d="M286.866 183.114V129.32L401.344 141.044L412.066 157.413L401.344 171.388L286.866 183.114Z" fill="#DEECF1"/>
<path id="Vector_12" d="M401.347 141.042L412.066 157.413L401.347 171.391L375.933 173.998V138.436L401.347 141.042Z" fill="#A8D3D8"/>
<g id="motor-3">
<path id="Vector_13" d="M130.057 121.123C163.504 121.123 190.619 94.0083 190.619 60.5613C190.619 27.1142 163.504 7.62939e-06 130.057 7.62939e-06C96.6103 7.62939e-06 69.4961 27.1142 69.4961 60.5613C69.4961 94.0083 96.6103 121.123 130.057 121.123Z" fill="#7CA1B1"/>
<path id="Vector_14" d="M190.614 60.5644C190.614 94.004 163.499 121.118 130.06 121.118C125.764 121.118 121.571 120.675 117.522 119.82C144.956 114.041 165.55 89.7082 165.55 60.5644C165.55 31.4102 144.956 7.07735 117.522 1.29804C121.571 0.442985 125.764 7.62939e-06 130.06 7.62939e-06C163.499 7.62939e-06 190.614 27.1144 190.614 60.5644Z" fill="#678D98"/>
<path id="Vector_15" d="M130.058 90.4499C146.565 90.4499 159.946 77.0683 159.946 60.5613C159.946 44.0542 146.565 30.6726 130.058 30.6726C113.551 30.6726 100.169 44.0542 100.169 60.5613C100.169 77.0683 113.551 90.4499 130.058 90.4499Z" fill="#A8D3D8"/>
</g>
<g id="motor-4">
<path id="Vector_16" d="M286.866 202.133C312.225 202.133 332.783 181.575 332.783 156.217C332.783 130.858 312.225 110.3 286.866 110.3C261.508 110.3 240.95 130.858 240.95 156.217C240.95 181.575 261.508 202.133 286.866 202.133Z" fill="#7CA1B1"/>
<path id="Vector_17" d="M332.778 156.217C332.778 181.58 312.226 202.132 286.863 202.132C282.495 202.132 278.261 201.524 274.254 200.381C293.477 194.9 307.56 177.201 307.56 156.217C307.56 135.232 293.477 117.533 274.254 112.053C278.261 110.909 282.495 110.301 286.863 110.301C312.226 110.301 332.778 130.854 332.778 156.217Z" fill="#678D98"/>
<path id="Vector_18" d="M286.866 172.545C295.884 172.545 303.195 165.235 303.195 156.217C303.195 147.199 295.884 139.888 286.866 139.888C277.849 139.888 270.538 147.199 270.538 156.217C270.538 165.235 277.849 172.545 286.866 172.545Z" fill="#A8D3D8"/>
</g>
<g id="motor-5">
<path id="Vector_19" d="M460.818 202.542H412.804C406.474 202.542 401.343 197.411 401.343 191.081V141.044L424.428 130.356C432.283 126.719 441.34 126.719 449.194 130.356L458.51 134.669C466.905 138.556 472.278 146.966 472.278 156.217V191.08C472.279 197.411 467.149 202.542 460.818 202.542V202.542Z" fill="#8379C1"/>
<path id="Vector_20" d="M472.275 156.217V191.078C472.275 197.414 467.145 202.544 460.82 202.544H435.405C441.741 202.544 446.871 197.414 446.871 191.078V156.217C446.871 146.966 441.493 138.559 433.097 134.665L424.114 130.514L424.434 130.359C432.284 126.723 441.339 126.723 449.199 130.359L458.512 134.665C466.908 138.559 472.275 146.966 472.275 156.217Z" fill="#6E61B6"/>
</g>
<g id="motor-1">
<path id="Vector_21" d="M227.48 455.133L178.768 457.898L130.056 460.663L32.6318 455.133C32.6318 440.104 44.8158 427.92 59.8451 427.92H200.267C215.296 427.92 227.48 440.104 227.48 455.133Z" fill="#BBEC6C"/>
<path id="Vector_22" d="M227.484 455.134L213.69 458.603L202.759 455.134C202.759 440.104 190.572 427.917 175.542 427.917H200.266C215.297 427.917 227.484 440.104 227.484 455.134V455.134Z" fill="#A2E62E"/>
</g>
<path id="Vector_23" d="M245.592 512H14.5214C5.45891 512 -1.2589 503.588 0.746865 494.75L7.2401 466.132C8.69986 459.699 14.4184 455.133 21.0146 455.133H239.099C245.696 455.133 251.414 459.699 252.873 466.132L259.367 494.75C261.372 503.588 254.655 512 245.592 512Z" fill="#DEECF1"/>
<path id="Vector_24" d="M245.594 512H220.18C229.245 512 235.962 503.583 233.953 494.755L227.463 466.136C226 459.698 220.283 455.134 213.689 455.134H239.094C245.697 455.134 251.415 459.698 252.878 466.136L259.368 494.755C261.377 503.583 254.649 512 245.594 512V512Z" fill="#A8D3D8"/>
</g>
</g>
</svg>
