<svg width="1227" height="874" viewBox="0 0 1227 874" fill="none" xmlns="http://www.w3.org/2000/svg">
<g id="index-image" clip-path="url(#clip0)">
<path id="bolha" opacity="0.3" d="M1157.33 495.985C1116.24 550.282 1132.2 629.604 1158.31 693.13C1167.05 714.4 1176.94 736.903 1173.25 759.712C1168.74 787.604 1144.79 807.999 1119.64 818.808C1073.8 838.513 1018.95 833.817 976.827 806.582C940.427 783.046 914.359 744.772 877.337 722.307C815.382 684.713 736.523 698.909 669.248 724.806C621.652 743.127 569.617 766.954 522.323 747.807C489.044 734.334 466.042 701.542 453.508 666.783C447.457 650.001 443.065 631.836 431.509 618.534C424.639 610.626 415.674 605.013 406.489 600.28C322.624 557.061 216.702 580.205 135.244 532.269C80.2304 499.895 45.0107 438.826 29.4165 375.148C13.8223 311.47 15.6387 244.699 19.598 179.119C22.4116 132.514 27.46 82.7591 56.1104 46.7898C86.4187 8.7393 138.434 -5.40949 185.449 1.82273C232.464 9.05495 275.079 34.8316 312.57 65.1921C359.425 103.136 402.879 150.386 460.408 165.756C499.585 176.223 540.797 170.498 581.203 168.515C648.752 165.2 716.33 172.572 783.507 180.643C847.817 188.371 912.592 196.875 973.858 218.619C1017.21 234.007 1051.97 261.939 1092.91 281.453C1119.6 294.173 1148.7 297.685 1173.96 313.887C1205.09 333.844 1233.62 368.557 1225.65 409.176C1218.06 447.796 1179.13 467.166 1157.33 495.985Z" fill="#0077B6"/>
<path id="Vector" d="M801.92 166.528C801.92 166.528 735.871 146.197 731.507 204.027C727.143 261.858 748.963 357.108 731.507 387.725C714.051 418.341 651.764 462.575 684.544 466.538C717.324 470.502 733.689 476.171 723.87 496.582C714.051 516.993 662.775 536.27 673.685 551.011C684.595 565.752 690.05 583.895 679.14 602.038C668.23 620.181 630.046 631.52 636.592 643.994C643.138 656.467 667.139 663.271 655.138 676.878C643.138 690.485 608.348 721.437 621.925 721.269" stroke="#535461" stroke-width="3" stroke-miterlimit="10"/>
<path id="Vector_2" d="M1021.62 486.395C1021.62 486.395 979.374 477.613 968.108 465.903C956.842 454.194 906.146 433.703 900.513 448.339C894.88 462.976 824.468 512.741 872.348 521.523C920.228 530.305 985.007 533.232 999.089 527.378C1013.17 521.523 1021.62 486.395 1021.62 486.395Z" fill="#A8A8A8"/>
<path id="Vector_3" opacity="0.2" d="M872.349 516.085C920.229 524.868 985.007 527.795 999.09 521.94C1009.81 517.481 1017.27 496.059 1020.21 486.09C1021.1 486.287 1021.62 486.395 1021.62 486.395C1021.62 486.395 1013.17 521.523 999.09 527.378C985.007 533.233 920.229 530.305 872.349 521.523C858.528 518.988 854.576 513.035 856.065 505.501C857.246 510.416 862.062 514.199 872.349 516.085Z" fill="black"/>
<path id="Vector_4" d="M1051.63 147.182C1051.63 147.182 1062.25 163.736 1059.97 171.619C1057.7 179.502 1085 174.773 1085 174.773C1085 174.773 1085.76 144.029 1091.07 136.935C1096.38 129.84 1051.63 147.182 1051.63 147.182Z" fill="#CEA086"/>
<path id="Vector_5" d="M959.104 454.616C959.104 454.616 938.626 468.017 930.283 464.075C921.941 460.134 918.907 466.44 921.182 468.805C923.458 471.17 972.755 491.665 984.132 488.512C995.508 485.359 989.722 459.537 989.722 459.537L959.104 454.616Z" fill="#535461"/>
<path id="Vector_6" d="M1067.56 512.16C1067.56 512.16 1062.63 533.838 1045.56 533.444C1045.56 533.444 1019.78 531.079 1029.64 540.539C1039.5 549.998 1097.14 551.575 1097.14 551.575C1097.14 551.575 1097.14 519.255 1086.52 512.16C1075.9 505.066 1067.56 512.16 1067.56 512.16Z" fill="#535461"/>
<path id="ferramenta" d="M987.314 107.269L824.743 160.065L827.671 169.806L990.242 117.01L987.314 107.269Z" fill="#1B4965"/>
<g id="arm-right-boy">
<path id="Vector_7" d="M981.477 157.825C981.477 157.825 959.483 138.906 960.241 131.811C960.241 131.811 943.556 98.7029 937.488 115.257C931.421 131.811 948.865 149.153 948.865 149.153L970.101 178.32L981.477 157.825Z" fill="#CEA086"/>
<path id="Vector_8" d="M1081.97 207.092L1020.54 203.939C1020.54 203.939 972.755 188.962 959.103 172.408C959.103 172.408 959.861 143.241 975.03 141.664L1010.91 169.012C1017.18 173.792 1024.69 176.5 1032.47 176.782L1085.76 178.714C1085.76 178.714 1097.14 192.903 1081.97 207.092Z" fill="#0077B6"/>
</g>
<path id="Vector_9" d="M1036.46 359.232L1038.74 414.413C1038.74 414.413 1038.74 440.426 1047.08 452.25C1055.42 464.075 1065.28 523.196 1065.28 523.196H1094.1C1094.1 523.196 1085.76 443.579 1078.93 434.12C1078.93 434.12 1075.9 363.962 1086.52 348.196L1036.46 359.232Z" fill="#575988"/>
<path id="Vector_10" opacity="0.1" d="M1036.46 359.232L1038.74 414.413C1038.74 414.413 1038.74 440.426 1047.08 452.25C1055.42 464.075 1065.28 523.196 1065.28 523.196H1094.1C1094.1 523.196 1085.76 443.579 1078.93 434.12C1078.93 434.12 1075.9 363.962 1086.52 348.196L1036.46 359.232Z" fill="black"/>
<path id="Vector_11" d="M1096.38 309.57C1096.38 309.57 1113.82 352.926 1081.97 365.539C1050.11 378.151 992.473 376.575 992.473 376.575L989.439 468.016C989.439 468.016 953.793 472.746 953.034 460.922V360.809C953.034 360.809 953.793 349.773 977.304 340.313C1000.82 330.854 1032.67 326.124 1032.67 326.124L1034.19 305.629L1096.38 309.57Z" fill="#575988"/>
<path id="Vector_12" opacity="0.1" d="M1068.43 166.744C1074.49 166.048 1080.62 166.949 1086.25 169.363C1090.9 171.395 1095.37 174.59 1096.38 179.502C1097.58 185.32 1096.25 198.368 1094.72 209.406C1092.28 226.714 1091.97 244.274 1093.8 261.664C1094.58 268.905 1095.66 275.22 1097.14 278.038C1101.69 286.71 1106.24 327.701 1106.24 327.701C1106.24 327.701 1056.18 307.993 1031.16 319.818C1031.16 319.818 1027.74 239.018 1027.36 212.611C1027.07 192.163 1052.01 168.861 1060.35 168.072C1065.24 167.61 1063.57 167.268 1068.43 166.744Z" fill="black"/>
<path id="Vector_13" d="M1068.43 165.168C1074.49 164.472 1080.62 165.372 1086.25 167.786C1090.9 169.819 1095.37 173.013 1096.38 177.926C1097.58 183.744 1096.25 196.792 1094.72 207.83C1092.28 225.137 1091.97 242.698 1093.8 260.087C1094.39 265.646 1095.51 271.131 1097.14 276.462C1100.55 287.104 1106.24 326.124 1106.24 326.124C1106.24 326.124 1056.18 306.417 1031.16 318.241C1031.16 318.241 1027.74 237.442 1027.36 211.034C1027.07 190.586 1052.01 167.284 1060.35 166.496C1065.24 166.034 1063.57 165.692 1068.43 165.168Z" fill="#0077B6"/>
<path id="Vector_14" opacity="0.1" d="M1081.97 208.669L1028.12 205.516C1028.12 205.516 1024.69 178.076 1032.47 178.358L1085.76 180.291C1085.76 180.291 1097.14 194.48 1081.97 208.669Z" fill="black"/>
<path id="Vector_15" opacity="0.1" d="M1084.62 150.73C1085.52 143.254 1088.79 140.775 1091.07 137.723C1096.38 130.628 1051.63 147.971 1051.63 147.971C1053.94 151.665 1055.96 155.543 1057.68 159.569C1061.25 161.279 1065.14 162.163 1069.08 162.16C1075.67 162.16 1079.9 154.778 1084.62 150.73Z" fill="black"/>
<path id="Vector_16" d="M1069.08 161.371C1084.15 161.371 1096.38 148.666 1096.38 132.993C1096.38 117.32 1084.15 104.615 1069.08 104.615C1054 104.615 1041.77 117.32 1041.77 132.993C1041.77 148.666 1054 161.371 1069.08 161.371Z" fill="#CEA086"/>
<path id="Vector_17" opacity="0.1" d="M1052.72 117.623C1049.81 114.322 1048.41 109.919 1047.09 105.659L1044.07 95.8946C1048.18 98.4197 1052.56 92.7285 1057.28 91.9437C1060.66 91.3817 1063.85 93.4327 1066.96 94.9111C1080.46 101.329 1098.04 98.1439 1108.92 108.65C1110.4 109.986 1111.55 111.677 1112.27 113.577C1112.77 115.38 1112.98 117.259 1112.88 119.134C1112.96 124.109 1112.49 129.078 1111.46 133.937C1108.87 144.81 1101.97 153.933 1095.25 162.686C1093.97 164.349 1092.54 166.117 1090.54 166.58C1086.64 167.486 1083.62 163.102 1082.11 159.253C1080.11 154.156 1078.63 148.853 1077.71 143.433C1077.47 141.115 1076.86 138.854 1075.91 136.746C1073.56 132.416 1067.76 128.319 1064.24 124.964C1060.78 121.668 1055.95 121.295 1052.72 117.623Z" fill="black"/>
<path id="Vector_18" d="M1051.63 117.623C1048.72 114.322 1047.32 109.919 1046 105.659L1042.98 95.8946C1047.09 98.4197 1051.47 92.7285 1056.19 91.9437C1059.57 91.3818 1062.76 93.4327 1065.87 94.9111C1079.37 101.329 1096.95 98.144 1107.82 108.65C1109.31 109.986 1110.46 111.677 1111.18 113.577C1111.68 115.38 1111.89 117.259 1111.79 119.134C1111.87 124.109 1111.4 129.078 1110.37 133.937C1107.78 144.81 1100.88 153.933 1094.16 162.686C1092.88 164.349 1091.45 166.117 1089.45 166.58C1085.55 167.486 1082.53 163.102 1081.02 159.253C1079.02 154.156 1077.54 148.853 1076.62 143.433C1076.38 141.115 1075.77 138.854 1074.82 136.746C1072.47 132.416 1066.67 128.319 1063.15 124.964C1059.69 121.668 1054.86 121.295 1051.63 117.623Z" fill="#632652"/>
<path id="Vector_19" d="M1076.28 141.27C1077.54 141.27 1078.56 138.976 1078.56 136.146C1078.56 133.316 1077.54 131.022 1076.28 131.022C1075.02 131.022 1074.01 133.316 1074.01 136.146C1074.01 138.976 1075.02 141.27 1076.28 141.27Z" fill="#CEA086"/>
<path id="Vector_20" opacity="0.1" d="M1089.93 272.914C1089.93 272.914 1088.41 277.644 1080.83 276.856C1073.25 276.068 1051.25 274.491 1051.25 276.856" fill="black"/>
<path id="Vector_21" opacity="0.5" d="M1029.64 539.751C1028.59 538.915 1027.82 537.767 1027.43 536.462C1027.23 537.486 1027.84 538.816 1029.64 540.539C1039.5 549.998 1097.14 551.575 1097.14 551.575C1097.14 551.575 1097.14 551.296 1097.13 550.786C1096.76 550.776 1039.47 549.18 1029.64 539.751Z" fill="white"/>
<path id="Vector_22" opacity="0.5" d="M984.131 486.935C972.754 490.089 923.456 469.593 921.181 467.228C920.877 466.908 920.659 466.511 920.55 466.076C920.418 466.548 920.407 467.049 920.518 467.527C920.628 468.006 920.857 468.446 921.181 468.805C923.456 471.17 972.754 491.665 984.131 488.512C989.986 486.889 991.291 479.262 991.182 472.24C991.071 478.788 989.55 485.433 984.131 486.935Z" fill="white"/>
<path id="Vector_23" d="M380.17 273.577H380.17C395.999 273.577 411.179 280.112 422.372 291.746C433.564 303.379 439.852 319.157 439.852 335.609V362.07H320.487V335.609C320.487 319.157 326.775 303.379 337.968 291.746C349.161 280.112 364.341 273.577 380.17 273.577Z" fill="#0077B6"/>
<path id="Vector_24" d="M380.586 419.331C418.158 419.331 448.616 397.579 448.616 370.746C448.616 343.914 418.158 322.161 380.586 322.161C343.014 322.161 312.556 343.914 312.556 370.746C312.556 397.579 343.014 419.331 380.586 419.331Z" fill="#0077B6"/>
<path id="Vector_25" d="M380.049 415.805C417.621 415.805 448.079 394.053 448.079 367.22C448.079 340.388 417.621 318.635 380.049 318.635C342.478 318.635 312.02 340.388 312.02 367.22C312.02 394.053 342.478 415.805 380.049 415.805Z" fill="#0077B6"/>
<path id="Vector_26" d="M380.049 411.269C417.621 411.269 448.079 389.517 448.079 362.684C448.079 335.852 417.621 314.1 380.049 314.1C342.478 314.1 312.02 335.852 312.02 362.684C312.02 389.517 342.478 411.269 380.049 411.269Z" fill="#0077B6"/>
<path id="Vector_27" d="M336.973 417.812C336.973 417.812 351.163 495.027 336.973 515.849C322.783 536.671 380.378 544.913 380.378 544.913L440.061 522.356L448.408 466.831C448.408 466.831 412.098 445.575 419.61 402.63L336.973 417.812Z" fill="#F7C4A7"/>
<path id="Vector_28" d="M513.098 678.088C513.098 678.088 516.854 695.006 496.404 698.042C484.327 699.889 472.045 699.737 460.014 697.592L455.503 655.097H503.082L513.098 678.088Z" fill="#F7C4A7"/>
<path id="Vector_29" d="M151.451 658.196C151.451 658.196 142.42 696.335 162.87 699.805C183.321 703.276 258.446 703.276 258.446 703.276V658.161L224.437 665.711L192.503 633.869L151.451 658.196Z" fill="#F7C4A7"/>
<path id="Vector_30" opacity="0.1" d="M341.355 442.756L261.431 460.324C261.431 460.324 230.964 461.626 211.348 503.703C191.732 545.781 149.161 665.941 149.161 665.941C149.161 665.941 185.471 627.768 228.042 668.544L256.423 615.188L250.162 699.777H470.111V659.868C470.111 659.868 516.02 685.462 512.681 699.777C512.681 699.777 551.967 594.57 543.518 546.755C540.961 531.974 539.393 517.028 538.824 502.022V502.022C538.323 489.663 534.154 477.768 526.889 467.97C519.625 458.172 509.621 450.95 498.251 447.296C494.111 445.972 489.544 444.735 484.51 443.623C437.348 433.212 425.245 443.623 425.245 443.623C425.245 443.623 416.109 474.519 416.271 488.521C416.48 506.523 391.647 518.452 391.647 518.452C391.647 518.452 354.919 509.343 353.25 501.968C351.581 494.594 338.434 451.431 341.355 442.756Z" fill="black"/>
<path id="Vector_31" d="M341.355 441.021L261.431 458.589C261.431 458.589 230.964 459.891 211.348 501.968C191.732 544.046 149.161 664.206 149.161 664.206C149.161 664.206 185.471 626.033 228.042 666.809L256.423 613.453L250.162 698.042H470.111V658.133C470.111 658.133 516.02 683.727 512.681 698.042C512.681 698.042 551.967 592.835 543.518 545.02C540.961 530.24 539.393 515.293 538.824 500.287C538.323 487.928 534.154 476.033 526.889 466.235C519.625 456.437 509.621 449.215 498.251 445.561C494.111 444.237 489.544 443 484.51 441.888C437.348 431.477 425.245 441.888 425.245 441.888C425.245 441.888 416.109 472.784 416.271 486.786C416.48 504.788 391.647 516.717 391.647 516.717C391.647 516.717 354.919 507.608 353.25 500.233C351.581 492.859 338.434 449.697 341.355 441.021Z" fill="#1B4965"/>
<g id="Group">
<path id="Vector_32" d="M438.535 553.96H429.686C428.77 553.96 428.027 554.743 428.027 555.709V563.168C428.027 564.133 428.77 564.916 429.686 564.916H438.535C439.451 564.916 440.194 564.133 440.194 563.168V555.709C440.194 554.743 439.451 553.96 438.535 553.96Z" fill="#FF515E"/>
<path id="Vector_33" d="M456.232 553.96H447.383C446.467 553.96 445.724 554.743 445.724 555.709V563.168C445.724 564.133 446.467 564.916 447.383 564.916H456.232C457.148 564.916 457.891 564.133 457.891 563.168V555.709C457.891 554.743 457.148 553.96 456.232 553.96Z" fill="#C6507A"/>
<path id="Vector_34" d="M461.541 563.051V579.834C461.541 580.799 460.797 581.582 459.882 581.582H426.146C425.231 581.582 424.487 580.799 424.487 579.834V563.051C424.487 562.086 425.231 561.303 426.146 561.303H459.882C460.797 561.303 461.541 562.086 461.541 563.051Z" fill="#FF6888"/>
<path id="Vector_35" d="M461.541 563.051V579.834C461.541 580.799 460.797 581.582 459.882 581.582H442.959V561.303H459.882C460.797 561.303 461.541 562.086 461.541 563.051Z" fill="#FF515E"/>
<path id="Vector_36" d="M459.882 578.202H442.959C442.042 578.202 441.3 578.985 441.3 579.951V596.734C441.3 597.699 442.042 598.482 442.959 598.482H459.882C460.798 598.482 461.541 597.699 461.541 596.734V579.951C461.541 578.985 460.798 578.202 459.882 578.202Z" fill="#F4DE48"/>
<path id="Vector_37" d="M419.068 570.743H410.219C409.303 570.743 408.56 571.526 408.56 572.492V579.951C408.56 580.916 409.303 581.699 410.219 581.699H419.068C419.984 581.699 420.727 580.916 420.727 579.951V572.492C420.727 571.526 419.984 570.743 419.068 570.743Z" fill="#554FB2"/>
<path id="Vector_38" d="M444.618 579.951V596.734C444.618 597.699 443.875 598.482 442.959 598.482H406.569C405.653 598.482 404.91 597.699 404.91 596.734V579.951C404.91 578.986 405.653 578.202 406.569 578.202H442.959C443.875 578.202 444.618 578.986 444.618 579.951Z" fill="#736DD9"/>
<path id="Vector_39" d="M444.618 579.951V596.734C444.618 597.699 443.875 598.482 442.959 598.482H424.377V578.202H442.959C443.875 578.202 444.618 578.986 444.618 579.951Z" fill="#554FB2"/>
</g>
<g id="bloco-left-1" clip-path="url(#clip1)">
<g id="Group_2">
<path id="Vector_40" d="M335.625 551.617H326.25C325.279 551.617 324.492 552.404 324.492 553.375V560.875C324.492 561.846 325.279 562.633 326.25 562.633H335.625C336.596 562.633 337.383 561.846 337.383 560.875V553.375C337.383 552.404 336.596 551.617 335.625 551.617Z" fill="#FF515E"/>
<path id="Vector_41" d="M354.375 551.617H345C344.029 551.617 343.242 552.404 343.242 553.375V560.875C343.242 561.846 344.029 562.633 345 562.633H354.375C355.346 562.633 356.133 561.846 356.133 560.875V553.375C356.133 552.404 355.346 551.617 354.375 551.617Z" fill="#C6507A"/>
<path id="Vector_42" d="M360 560.758V577.633C360 578.603 359.213 579.391 358.242 579.391H322.5C321.53 579.391 320.742 578.603 320.742 577.633V560.758C320.742 559.788 321.53 559 322.5 559H358.242C359.213 559 360 559.788 360 560.758Z" fill="#FF6888"/>
<path id="Vector_43" d="M360 560.758V577.633C360 578.603 359.213 579.391 358.242 579.391H340.312V559H358.242C359.213 559 360 559.788 360 560.758Z" fill="#FF515E"/>
<path id="Vector_44" d="M358.242 575.992H340.312C339.342 575.992 338.555 576.779 338.555 577.75V594.625C338.555 595.596 339.342 596.383 340.312 596.383H358.242C359.213 596.383 360 595.596 360 594.625V577.75C360 576.779 359.213 575.992 358.242 575.992Z" fill="#F4DE48"/>
<path id="Vector_45" d="M315 568.492H305.625C304.654 568.492 303.867 569.279 303.867 570.25V577.75C303.867 578.721 304.654 579.508 305.625 579.508H315C315.971 579.508 316.758 578.721 316.758 577.75V570.25C316.758 569.279 315.971 568.492 315 568.492Z" fill="#554FB2"/>
<path id="Vector_46" d="M342.07 577.75V594.625C342.07 595.595 341.283 596.383 340.312 596.383H301.758C300.788 596.383 300 595.595 300 594.625V577.75C300 576.78 300.788 575.992 301.758 575.992H340.312C341.283 575.992 342.07 576.78 342.07 577.75Z" fill="#736DD9"/>
<path id="Vector_47" d="M342.07 577.75V594.625C342.07 595.595 341.283 596.383 340.313 596.383H320.625V575.992H340.313C341.283 575.992 342.07 576.78 342.07 577.75Z" fill="#554FB2"/>
</g>
</g>
<g id="bloco-right-2" clip-path="url(#clip2)">
<g id="Group_3">
<path id="Vector_48" d="M407.625 562.617H398.25C397.279 562.617 396.492 563.404 396.492 564.375V571.875C396.492 572.846 397.279 573.633 398.25 573.633H407.625C408.596 573.633 409.383 572.846 409.383 571.875V564.375C409.383 563.404 408.596 562.617 407.625 562.617Z" fill="#FF515E"/>
<path id="Vector_49" d="M426.375 562.617H417C416.029 562.617 415.242 563.404 415.242 564.375V571.875C415.242 572.846 416.029 573.633 417 573.633H426.375C427.346 573.633 428.133 572.846 428.133 571.875V564.375C428.133 563.404 427.346 562.617 426.375 562.617Z" fill="#C6507A"/>
<path id="Vector_50" d="M432 571.758V588.633C432 589.603 431.212 590.391 430.242 590.391H394.5C393.53 590.391 392.742 589.603 392.742 588.633V571.758C392.742 570.788 393.53 570 394.5 570H430.242C431.212 570 432 570.788 432 571.758Z" fill="#FF6888"/>
<path id="Vector_51" d="M432 571.758V588.633C432 589.603 431.213 590.391 430.242 590.391H412.312V570H430.242C431.213 570 432 570.788 432 571.758Z" fill="#FF515E"/>
<path id="Vector_52" d="M430.242 586.992H412.312C411.342 586.992 410.555 587.779 410.555 588.75V605.625C410.555 606.596 411.342 607.383 412.312 607.383H430.242C431.213 607.383 432 606.596 432 605.625V588.75C432 587.779 431.213 586.992 430.242 586.992Z" fill="#F4DE48"/>
<path id="Vector_53" d="M387 579.492H377.625C376.654 579.492 375.867 580.279 375.867 581.25V588.75C375.867 589.721 376.654 590.508 377.625 590.508H387C387.971 590.508 388.758 589.721 388.758 588.75V581.25C388.758 580.279 387.971 579.492 387 579.492Z" fill="#554FB2"/>
<path id="Vector_54" d="M414.07 588.75V605.625C414.07 606.595 413.283 607.383 412.312 607.383H373.758C372.788 607.383 372 606.595 372 605.625V588.75C372 587.78 372.788 586.992 373.758 586.992H412.312C413.283 586.992 414.07 587.78 414.07 588.75Z" fill="#736DD9"/>
<path id="Vector_55" d="M414.07 588.75V605.625C414.07 606.595 413.283 607.383 412.313 607.383H392.625V586.992H412.313C413.283 586.992 414.07 587.78 414.07 588.75Z" fill="#554FB2"/>
</g>
</g>
<g id="bloco-left-2" clip-path="url(#clip3)">
<g id="Group_4">
<path id="Vector_56" d="M297.845 558.447H288.47C287.499 558.447 286.712 559.234 286.712 560.205V567.705C286.712 568.675 287.499 569.463 288.47 569.463H297.845C298.816 569.463 299.603 568.675 299.603 567.705V560.205C299.603 559.234 298.816 558.447 297.845 558.447Z" fill="#FF515E"/>
<path id="Vector_57" d="M316.595 558.447H307.22C306.249 558.447 305.462 559.234 305.462 560.205V567.705C305.462 568.675 306.249 569.463 307.22 569.463H316.595C317.566 569.463 318.353 568.675 318.353 567.705V560.205C318.353 559.234 317.566 558.447 316.595 558.447Z" fill="#C6507A"/>
<path id="Vector_58" d="M322.22 567.588V584.463C322.22 585.433 321.432 586.22 320.462 586.22H284.72C283.75 586.22 282.962 585.433 282.962 584.463V567.588C282.962 566.617 283.75 565.83 284.72 565.83H320.462C321.432 565.83 322.22 566.617 322.22 567.588Z" fill="#FF6888"/>
<path id="Vector_59" d="M322.22 567.588V584.463C322.22 585.433 321.432 586.22 320.462 586.22H302.532V565.83H320.462C321.432 565.83 322.22 566.617 322.22 567.588Z" fill="#FF515E"/>
<path id="Vector_60" d="M320.462 582.822H302.532C301.561 582.822 300.774 583.609 300.774 584.58V601.455C300.774 602.425 301.561 603.213 302.532 603.213H320.462C321.433 603.213 322.22 602.425 322.22 601.455V584.58C322.22 583.609 321.433 582.822 320.462 582.822Z" fill="#F4DE48"/>
<path id="Vector_61" d="M277.22 575.322H267.845C266.874 575.322 266.087 576.109 266.087 577.08V584.58C266.087 585.55 266.874 586.338 267.845 586.338H277.22C278.191 586.338 278.978 585.55 278.978 584.58V577.08C278.978 576.109 278.191 575.322 277.22 575.322Z" fill="#554FB2"/>
<path id="Vector_62" d="M304.29 584.58V601.455C304.29 602.425 303.503 603.213 302.532 603.213H263.978C263.007 603.213 262.22 602.425 262.22 601.455V584.58C262.22 583.609 263.007 582.822 263.978 582.822H302.532C303.503 582.822 304.29 583.609 304.29 584.58Z" fill="#736DD9"/>
<path id="Vector_63" d="M304.29 584.58V601.455C304.29 602.425 303.503 603.213 302.532 603.213H282.845V582.822H302.532C303.503 582.822 304.29 583.609 304.29 584.58Z" fill="#554FB2"/>
</g>
</g>
<path id="Vector_64" opacity="0.1" d="M423.041 437.334C419.684 427.454 418.932 416.819 420.864 406.534L338.226 421.717C338.226 421.717 339.419 428.208 340.767 437.933C346.108 443.692 352.519 448.263 359.613 451.366C366.706 454.47 374.332 456.041 382.028 455.985C389.724 455.929 397.328 454.247 404.379 451.041C411.429 447.834 417.779 443.171 423.041 437.334Z" fill="black"/>
<path id="Vector_65" d="M437.14 393.087C437.14 408.609 431.254 423.507 420.758 434.549C410.261 445.592 396.001 451.89 381.067 452.078C366.134 452.267 351.73 446.33 340.98 435.555C330.229 424.781 323.997 410.036 323.634 394.518C323.622 394.041 323.618 393.564 323.618 393.087C323.616 382.04 326.597 371.215 332.222 361.843C337.848 352.471 345.891 344.928 355.437 340.073C357.14 339.21 358.889 338.432 360.683 337.739C370.026 334.17 380.104 333.198 389.92 334.919C389.926 334.923 389.933 334.925 389.94 334.924C402.513 337.149 413.997 343.714 422.538 353.558C431.08 363.402 436.18 375.951 437.014 389.178C437.098 390.471 437.14 391.774 437.14 393.087Z" fill="#F7C4A7"/>
<g id="Group_5" opacity="0.1">
<path id="Vector_66" opacity="0.1" d="M360.604 339.123C360.63 339.104 360.656 339.087 360.684 339.071C358.889 339.761 357.14 340.538 355.437 341.405C345.891 346.26 337.848 353.803 332.222 363.175C326.597 372.547 323.616 383.372 323.618 394.418C323.618 394.895 323.622 395.373 323.634 395.85C325.399 395.801 327.133 395.368 328.726 394.579C342.566 387.868 350.867 367.328 354.127 353.004C355.296 347.877 356.414 342.099 360.604 339.123Z" fill="black"/>
<path id="Vector_67" opacity="0.1" d="M404.052 340.78C399.56 338.635 394.816 337.113 389.942 336.256C393.94 337.211 397.511 339.542 400.075 342.871C401.331 344.648 402.373 346.578 403.177 348.619C395.623 345.186 387.442 343.5 379.199 343.678C370.956 343.855 362.849 345.892 355.438 349.647C359.003 357.763 370.05 362.192 377.425 365.155C385.501 368.395 393.671 371.358 401.937 374.043C399.503 371.987 397.07 369.934 394.637 367.884C400.129 368.79 405.623 369.698 411.118 370.608C411.297 367.198 410.908 363.782 409.968 360.509C413.105 363.154 417.312 364.041 420.739 366.287C427.162 370.495 429.833 378.616 433.334 385.617C434.145 387.544 435.412 389.227 437.016 390.51C436.339 379.904 432.919 369.685 427.117 360.931C421.315 352.178 413.346 345.216 404.052 340.78Z" fill="black"/>
</g>
<path id="Vector_68" d="M360.604 337.791C360.63 337.772 360.656 337.755 360.684 337.739C358.889 338.429 357.14 339.206 355.437 340.073C345.891 344.928 337.848 352.471 332.222 361.843C326.597 371.215 323.616 382.04 323.618 393.086C323.618 393.564 323.622 394.041 323.634 394.518C325.399 394.469 327.133 394.036 328.726 393.247C342.566 386.536 350.867 365.996 354.127 351.672C355.296 346.545 356.414 340.767 360.604 337.791Z" fill="#632652"/>
<path id="Vector_69" d="M404.051 339.448C399.559 337.302 394.815 335.781 389.941 334.924C393.939 335.879 397.51 338.21 400.074 341.539C401.33 343.316 402.372 345.246 403.176 347.287C395.622 343.854 387.441 342.168 379.198 342.346C370.955 342.523 362.848 344.56 355.438 348.315C359.002 356.431 370.049 360.86 377.424 363.823C385.5 367.063 393.67 370.026 401.936 372.711C399.502 370.655 397.069 368.602 394.636 366.551C400.128 367.458 405.622 368.366 411.117 369.276C411.296 365.866 410.907 362.45 409.967 359.177C413.104 361.822 417.311 362.708 420.738 364.955C427.161 369.163 429.832 377.283 433.333 384.285C434.144 386.212 435.41 387.895 437.015 389.178C436.338 378.572 432.918 368.353 427.116 359.599C421.314 350.846 413.345 343.884 404.051 339.448Z" fill="#632652"/>
<path id="Vector_70" opacity="0.1" d="M317.147 383.357C317.147 383.357 375.578 307.877 443.19 383.357L437.347 366.439C437.347 366.439 405.627 318.288 383.09 328.699C360.553 339.11 338.433 346.485 338.433 346.485L317.147 383.357Z" fill="black"/>
<path id="Vector_71" d="M317.147 382.025C317.147 382.025 375.578 306.545 443.19 382.025L437.347 365.107C437.347 365.107 405.627 316.956 383.09 327.367C360.553 337.778 338.433 345.152 338.433 345.152L317.147 382.025Z" fill="#0077B6"/>
<path id="Vector_72" opacity="0.1" d="M269.152 544.697C269.152 544.697 256.631 579.4 274.16 610.633C291.69 641.866 258.718 654.88 258.718 654.88" fill="black"/>
<path id="Vector_73" opacity="0.1" d="M471.989 513.463C471.989 513.463 493.691 542.094 479.501 567.687C465.311 593.281 466.145 654.879 466.145 654.879" fill="black"/>
<path id="Vector_74" d="M249.953 680.474H491.187C496.5 680.474 501.596 682.667 505.353 686.572C509.11 690.477 511.221 695.773 511.221 701.296H229.92C229.92 695.773 232.031 690.477 235.788 686.572C239.545 682.667 244.64 680.474 249.953 680.474H249.953Z" fill="#535461"/>
<path id="Vector_75" d="M286.241 537.322H454.899C466.183 537.322 477.006 541.981 484.985 550.275C492.964 558.569 497.447 569.817 497.447 581.546V685.245H243.692V581.546C243.692 569.817 248.175 558.569 256.154 550.275C264.134 541.981 274.956 537.322 286.241 537.322Z" fill="#535461"/>
<path id="Vector_76" d="M370.362 633.407C378.66 633.407 385.387 626.415 385.387 617.791C385.387 609.166 378.66 602.174 370.362 602.174C362.064 602.174 355.337 609.166 355.337 617.791C355.337 626.415 362.064 633.407 370.362 633.407Z" fill="white"/>
<path id="Vector_77" d="M454.364 344.167H448.596V378.138H454.364V344.167Z" fill="#8E8391"/>
<path id="Vector_78" d="M440.906 366.148C446.175 366.148 451.228 368.324 454.954 372.196C458.679 376.069 460.773 381.321 460.773 386.797V388.129C460.773 393.606 458.679 398.858 454.954 402.73C451.228 406.603 446.175 408.778 440.906 408.778V366.148Z" fill="black"/>
<path id="Vector_79" d="M441.547 364.15H441.547C439.07 364.15 437.061 366.237 437.061 368.812V406.114C437.061 408.689 439.07 410.777 441.547 410.777H441.547C444.025 410.777 446.033 408.689 446.033 406.114V368.812C446.033 366.237 444.025 364.15 441.547 364.15Z" fill="#544F56"/>
<path id="Vector_80" d="M305.387 378.804H311.155V344.833H305.387V378.804Z" fill="#766D78"/>
<path id="Vector_81" d="M318.845 409.445C313.576 409.445 308.522 407.269 304.797 403.397C301.071 399.524 298.978 394.272 298.978 388.795V387.463C298.978 381.987 301.071 376.735 304.797 372.862C308.522 368.99 313.576 366.814 318.845 366.814V409.445Z" fill="black"/>
<path id="Vector_82" d="M318.203 411.443H318.203C320.681 411.443 322.689 409.355 322.689 406.78V369.479C322.689 366.904 320.681 364.816 318.203 364.816H318.203C315.726 364.816 313.717 366.904 313.717 369.479V406.78C313.717 409.355 315.726 411.443 318.203 411.443Z" fill="#444145"/>
<path id="Vector_83" d="M447.913 307.856C440.103 290.978 423.095 270.573 386.429 268.944L386.432 268.898L385.992 268.919L385.964 268.918L385.964 268.921L372.974 269.564L372.976 269.63C336.552 271.372 319.623 291.698 311.838 308.522C306.661 319.919 303.914 332.344 303.786 344.947L308.27 344.833L312.755 344.726C312.951 333.493 315.441 322.431 320.059 312.273C329.948 291.165 348.14 279.938 374.131 278.902L374.131 278.894L385.62 278.233L385.619 278.236C411.611 279.272 429.803 290.499 439.692 311.607C444.31 321.765 446.799 332.827 446.996 344.06L451.48 344.167L455.965 344.281C455.837 331.678 453.09 319.253 447.913 307.856Z" fill="#444145"/>
<path id="Vector_84" d="M652.835 701.57H41.0374V872.297H652.835V701.57Z" fill="#D6D6E3"/>
<path id="Vector_85" opacity="0.1" d="M652.835 713.061H41.0374V735.223H652.835V713.061Z" fill="black"/>
<path id="Vector_86" d="M693.868 699.107H0V721.269H693.868V699.107Z" fill="#D6D6E3"/>
<path id="Vector_87" d="M475.125 643.994C475.125 643.994 501.309 693.887 566.768 680.28C632.227 666.673 600.589 806.146 600.589 806.146C600.589 806.146 589.878 872.681 597.415 872.298" stroke="#535461" stroke-width="3" stroke-miterlimit="10"/>
<g id="robo 1" clip-path="url(#clip4)">
<g id="Group_6">
<path id="Vector_88" d="M725.604 77.7588C719.602 83.767 719.57 93.4989 725.534 99.5457L823.08 198.469L844.917 176.61L747.51 77.8299C741.492 71.727 731.662 71.6952 725.604 77.7588Z" fill="#8E8391"/>
<path id="Vector_89" d="M726.117 77.2764C726.314 77.4551 726.504 77.6395 726.688 77.8302L834.517 187.019L844.916 176.609L747.51 77.8302C741.656 71.8932 732.203 71.7024 726.117 77.2764Z" fill="#766D78"/>
<g id="braco-1">
<path id="Vector_90" d="M748.106 98.9872L726.27 77.1286L652.853 150.621C646.823 156.657 646.823 166.443 652.853 172.479C658.883 178.515 668.659 178.515 674.689 172.479L748.106 98.9872Z" fill="#8E8391"/>
<path id="Vector_91" d="M653.358 172.959C656.302 175.657 660.032 177.003 663.768 177.003C667.724 177.003 671.674 175.496 674.69 172.477L748.11 98.9878L738.051 88.9184L653.869 172.477C653.702 172.643 653.53 172.804 653.358 172.959Z" fill="#766D78"/>
</g>
<g id="garra">
<path id="Vector_92" d="M617.306 234.891C619.747 232.86 615.523 236.327 648.37 209.442V173.763H678.476V209.442C712.339 236.836 710.208 235.035 710.97 235.902C712.461 237.601 713.304 239.8 713.304 242.092V277.388C713.304 280.167 712.069 282.809 709.934 284.589L688.764 302.234C687.011 303.689 684.889 304.401 682.78 304.401C680.097 304.401 677.433 303.252 675.58 301.028C672.273 297.049 672.816 291.14 676.784 287.83L694.585 272.996V246.482L681.887 235.902H645.358L632.654 246.482V272.996L650.462 287.83C654.43 291.14 654.973 297.049 651.666 301.028C649.813 303.252 647.148 304.401 644.466 304.401C642.357 304.401 640.229 303.689 638.482 302.234L617.311 284.589C615.171 282.809 613.936 280.167 613.936 277.388V242.092C613.936 239.313 615.171 236.671 617.306 234.891Z" fill="#8E8391"/>
<path id="Vector_93" d="M700.415 242.095V277.389C700.415 280.165 699.178 282.809 697.048 284.589L676.346 301.84C678.131 303.531 680.451 304.401 682.783 304.401C684.889 304.401 687.013 303.692 688.762 302.233L709.933 284.589C712.069 282.809 713.306 280.165 713.306 277.389V242.095C713.306 239.802 712.461 237.599 710.968 235.902C710.239 235.062 712.292 236.798 678.476 209.444V173.763H665.585V209.444L697.048 234.89C697.417 235.205 697.762 235.539 698.083 235.902C699.57 237.599 700.415 239.802 700.415 242.095Z" fill="#766D78"/>
</g>
<path id="Vector_94" d="M849.043 175.045H818.162V340.975H849.043V175.045Z" fill="#8E8391"/>
<path id="Vector_95" d="M849.046 175.043H828.225V340.976H849.046V175.043Z" fill="#766D78"/>
<g id="Group_7">
<path id="Vector_96" d="M833.6 211.075C820.396 211.075 809.692 200.36 809.692 187.142C809.692 173.924 820.396 163.209 833.6 163.209C846.804 163.209 857.509 173.924 857.509 187.142C857.509 200.36 846.804 211.075 833.6 211.075Z" fill="#655E67"/>
<path id="Vector_97" d="M784.364 351.088H882.839V326.216C882.839 316.165 874.7 308.018 864.659 308.018H802.544C792.503 308.018 784.364 316.165 784.364 326.216V351.088H784.364Z" fill="#655E67"/>
</g>
<path id="Vector_98" d="M823.191 208.694C826.338 210.218 829.871 211.076 833.601 211.076C846.808 211.076 857.51 200.357 857.51 187.143C857.51 173.924 846.808 163.211 833.601 163.211C829.871 163.211 826.338 164.068 823.191 165.593C831.18 169.464 836.689 177.657 836.689 187.143C836.689 196.624 831.181 204.823 823.191 208.694Z" fill="#544F56"/>
<path id="Vector_99" d="M833.602 193.418C837.059 193.418 839.872 190.602 839.872 187.142C839.872 183.681 837.059 180.866 833.602 180.866C830.145 180.866 827.333 183.681 827.333 187.142C827.333 190.602 830.145 193.418 833.602 193.418Z" fill="#444145"/>
<g id="vertice-1">
<path id="Vector_100" d="M736.188 118.753C721.258 118.753 709.156 106.638 709.156 91.6935C709.156 76.7491 721.258 64.6343 736.188 64.6343C751.117 64.6343 763.219 76.7491 763.219 91.6935C763.219 106.638 751.117 118.753 736.188 118.753Z" fill="#655E67"/>
<path id="Vector_101" d="M725.779 116.674C728.986 118.014 732.501 118.752 736.189 118.752C751.115 118.752 763.22 106.64 763.22 91.6935C763.221 76.7465 751.115 64.6343 736.189 64.6343C732.501 64.6343 728.986 65.3724 725.779 66.7123C735.541 70.7973 742.4 80.4443 742.4 91.6929C742.4 102.942 735.541 112.589 725.779 116.674Z" fill="#544F56"/>
<path id="Vector_102" d="M736.186 97.9693C739.644 97.9693 742.456 95.1543 742.456 91.6935C742.456 88.2328 739.643 85.4178 736.186 85.4178C732.729 85.4178 729.917 88.2328 729.917 91.6935C729.917 95.1543 732.729 97.9693 736.186 97.9693Z" fill="#444145"/>
</g>
<g id="vertice-2">
<path id="Vector_103" d="M663.617 186.81C650.413 186.81 639.709 176.095 639.709 162.878C639.709 149.66 650.413 138.945 663.617 138.945C676.821 138.945 687.525 149.66 687.525 162.878C687.525 176.095 676.821 186.81 663.617 186.81Z" fill="#655E67"/>
<path id="Vector_104" d="M653.203 184.429C656.351 185.953 659.884 186.811 663.62 186.811C676.82 186.811 687.528 176.098 687.528 162.878C687.528 149.658 676.82 138.945 663.62 138.945C659.883 138.945 656.35 139.803 653.203 141.327C661.193 145.198 666.707 153.392 666.707 162.878C666.707 172.364 661.193 180.557 653.203 184.429Z" fill="#544F56"/>
<path id="Vector_105" d="M663.618 169.153C667.075 169.153 669.887 166.338 669.887 162.878C669.887 159.417 667.075 156.602 663.618 156.602C660.161 156.602 657.348 159.417 657.348 162.878C657.348 166.338 660.161 169.153 663.618 169.153Z" fill="#444145"/>
</g>
<path id="Vector_106" d="M843.84 308.015C853.881 308.015 862.019 316.167 862.019 326.213V351.087H882.84V326.213C882.84 316.167 874.702 308.015 864.661 308.015H843.84Z" fill="#544F56"/>
<path id="Vector_107" d="M765.167 360.591H901.696C905.171 360.591 907.987 357.772 907.987 354.294C907.987 343.142 898.956 334.102 887.815 334.102H779.389C768.249 334.102 759.217 343.142 759.217 354.294V354.636C759.218 357.925 761.881 360.591 765.167 360.591Z" fill="#544F56"/>
<path id="Vector_108" d="M880.878 360.591H901.699C905.173 360.591 907.987 357.774 907.987 354.297C907.987 348.717 905.732 343.674 902.079 340.017C898.427 336.367 893.382 334.104 887.814 334.104H866.993C872.561 334.104 877.606 336.367 881.259 340.017C884.911 343.673 887.166 348.717 887.166 354.297C887.166 357.774 884.352 360.591 880.878 360.591Z" fill="#444145"/>
</g>
</g>
</g>
<defs>
<clipPath id="clip0">
<rect width="1227" height="874" fill="white"/>
</clipPath>
<clipPath id="clip1">
<rect width="60" height="60" fill="white" transform="translate(300 544)"/>
</clipPath>
<clipPath id="clip2">
<rect width="60" height="60" fill="white" transform="translate(372 555)"/>
</clipPath>
<clipPath id="clip3">
<rect width="60" height="60" fill="white" transform="translate(262.22 550.83)"/>
</clipPath>
<clipPath id="clip4">
<rect width="295.656" height="295.957" fill="white" transform="matrix(-1 0 0 1 908.788 64.6343)"/>
</clipPath>
</defs>
</svg>
