<svg viewBox="0 0 496 496" fill="none" xmlns="http://www.w3.org/2000/svg">
<g id="cirurgia 1">
<path id="Vector" d="M188.018 220C185.97 220 183.922 219.216 182.362 217.656L158.354 193.648C155.226 190.52 155.226 185.464 158.354 182.336C161.482 179.208 166.538 179.208 169.666 182.336L193.674 206.344C196.802 209.472 196.802 214.528 193.674 217.656C192.114 219.216 190.066 220 188.018 220Z" fill="#CCD1D9"/>
<path id="Vector_2" d="M339.998 220C337.95 220 335.902 219.216 334.342 217.656C331.214 214.528 331.214 209.472 334.342 206.344L358.35 182.336C361.478 179.208 366.534 179.208 369.662 182.336C372.79 185.464 372.79 190.52 369.662 193.648L345.654 217.656C344.094 219.216 342.046 220 339.998 220Z" fill="#AAB2BD"/>
<path id="Vector_3" d="M456 120L376 200L364 188L352 176L408 120L432 96L456 120Z" fill="#CCD1D9"/>
<path id="Vector_4" d="M432 96L408 120L304 88V32L432 96Z" fill="#AAB2BD"/>
<path id="Vector_5" d="M176 176L164 188L152 200L72 120L96 96L120 120L176 176Z" fill="#E6E9ED"/>
<path id="Vector_6" d="M224 32V88L120 120L96 96L224 32Z" fill="#CCD1D9"/>
<path id="Vector_7" d="M224 8V32V88V122.24V248H304V122.24V88V32V8H224Z" fill="#E6E9ED"/>
<g id="Group">
<path id="Vector_8" d="M264 8V32V88V122.24V248H304V122.24V88V32V8H264Z" fill="#CCD1D9"/>
<path id="Vector_9" d="M208 424H224H304H320C328.88 424 336 431.12 336 440V448H192V440C192 431.12 199.12 424 208 424Z" fill="#CCD1D9"/>
</g>
<g id="Group_2">
<path id="Vector_10" d="M352 448V488H176V448H192H336H352Z" fill="#656D78"/>
<path id="Vector_11" d="M56 336H32V488H56V336Z" fill="#656D78"/>
</g>
<path id="Vector_12" d="M304 336H224V424H304V336Z" fill="#E6E9ED"/>
<path id="Vector_13" d="M304 336H264V424H304V336Z" fill="#CCD1D9"/>
<path id="Vector_14" d="M464 336H440V488H464V336Z" fill="#434A54"/>
<path id="Vector_15" d="M496 312V336H464H440H304H224H56H32H0V312H48H400H424H496Z" fill="#CCD1D9"/>
<path id="Vector_16" d="M496 312H464V336H496V312Z" fill="#AAB2BD"/>
<path id="Vector_17" d="M283.84 112.24C286.64 115.04 288 118.64 288 122.24C288 125.84 286.64 129.432 283.92 132.152L264 152L244.08 132.16C241.36 129.44 240 125.76 240 122.24C240 118.56 241.36 115.04 244.08 112.24C249.6 106.72 258.48 106.72 264 112.24C269.52 106.72 278.4 106.72 283.84 112.24Z" fill="#ED5565"/>
<path id="Vector_18" d="M424 248C441.68 248 456 262.32 456 280C456 297.68 441.68 312 424 312H400C382.32 312 368 297.68 368 280C368 277.2 368.32 274.56 369.04 272C372.56 258.16 385.12 248 400 248H424Z" fill="#EAC6BB"/>
<path id="Vector_19" d="M208 248H224H304H320C333.28 248 344 258.72 344 272H369.04C368.32 274.56 368 277.2 368 280C368 297.68 382.32 312 400 312H48V264C48 255.2 55.2 248 64 248C72.8 248 80 255.2 80 264V280H184V272C184 258.72 194.72 248 208 248Z" fill="#D3B1A9"/>
<path id="Vector_20" d="M320 424H304H264V448H336V440C336 431.12 328.88 424 320 424Z" fill="#AAB2BD"/>
<path id="Vector_21" d="M352 448H264V488H352V448Z" fill="#434A54"/>
<path id="Vector_22" d="M283.92 132.16C286.64 129.44 288 125.84 288 122.24C288 118.64 286.64 115.04 283.84 112.24C278.392 106.72 269.52 106.72 264 112.24V152L283.92 132.16Z" fill="#DA4453"/>
</g>
</svg>
