<svg width="178" height="178" viewBox="0 0 178 178" fill="none" xmlns="http://www.w3.org/2000/svg">
<g id="claw-machine">
<path id="Vector" d="M72.8442 22.7461C72.3256 22.7458 71.812 22.8505 71.3328 23.0541C70.8536 23.2577 70.4181 23.5564 70.0514 23.9329C69.6847 24.3095 69.3938 24.7565 69.1955 25.2486C68.9971 25.7406 68.8952 26.2679 68.8955 26.8005V41.2803C68.8955 42.3556 69.3115 43.3868 70.0521 44.1472C70.7926 44.9075 71.797 45.3347 72.8442 45.3347C73.8915 45.3347 74.8959 44.9075 75.6364 44.1472C76.377 43.3868 76.793 42.3556 76.793 41.2803V26.8005C76.7933 26.2679 76.6914 25.7406 76.493 25.2486C76.2947 24.7565 76.0038 24.3095 75.6371 23.9329C75.2704 23.5564 74.8349 23.2577 74.3557 23.0541C73.8765 22.8505 73.3629 22.7458 72.8442 22.7461Z" fill="#9EE5FE"/>
<path id="Vector_2" d="M64.7598 10.1965H80.9316V26.8009H64.7598V10.1965Z" fill="#074B82"/>
<path id="Vector_3" d="M139.77 6.14209H3.94874C2.90147 6.14209 1.89709 6.56924 1.15656 7.32958C0.416028 8.08992 0 9.12116 0 10.1964C0 11.2717 0.416028 12.303 1.15656 13.0633C1.89709 13.8236 2.90147 14.2508 3.94874 14.2508H139.77C140.817 14.2508 141.821 13.8236 142.562 13.0633C143.302 12.303 143.718 11.2717 143.718 10.1964C143.718 9.12116 143.302 8.08992 142.562 7.32958C141.821 6.56924 140.817 6.14209 139.77 6.14209Z" fill="#0E68AC"/>
<g id="Group">
<path id="Vector_4" d="M157.897 136.72H24.0507C18.7192 136.72 13.6061 138.894 9.83612 142.765C6.06618 146.636 3.94824 151.886 3.94824 157.36C3.94824 162.834 6.06618 168.084 9.83612 171.955C13.6061 175.825 18.7192 178 24.0507 178H157.897C163.229 178 168.342 175.825 172.112 171.955C175.882 168.084 178 162.834 178 157.36C178 151.886 175.882 146.636 172.112 142.765C168.342 138.894 163.229 136.72 157.897 136.72Z" fill="#0E68AC"/>
<path id="Vector_5" d="M156.706 152.458H25.2422C23.9705 152.458 22.7509 152.977 21.8517 153.9C20.9524 154.823 20.4473 156.075 20.4473 157.381C20.4473 158.687 20.9524 159.939 21.8517 160.862C22.7509 161.786 23.9705 162.304 25.2422 162.304H156.706C157.978 162.304 159.197 161.786 160.096 160.862C160.996 159.939 161.501 158.687 161.501 157.381C161.501 156.075 160.996 154.823 160.096 153.9C159.197 152.977 157.978 152.458 156.706 152.458Z" fill="#9EE5FE"/>
<g id="Group_2">
<path id="Vector_6" d="M132.926 169.702C139.572 169.702 144.96 164.171 144.96 157.347C144.96 150.523 139.572 144.992 132.926 144.992C126.28 144.992 120.893 150.523 120.893 157.347C120.893 164.171 126.28 169.702 132.926 169.702Z" fill="#074B82"/>
<path id="Vector_7" d="M90.9739 169.702C97.6199 169.702 103.007 164.171 103.007 157.347C103.007 150.523 97.6199 144.992 90.9739 144.992C84.328 144.992 78.9404 150.523 78.9404 157.347C78.9404 164.171 84.328 169.702 90.9739 169.702Z" fill="#074B82"/>
<path id="Vector_8" d="M49.0208 169.702C55.6667 169.702 61.0543 164.171 61.0543 157.347C61.0543 150.523 55.6667 144.992 49.0208 144.992C42.3749 144.992 36.9873 150.523 36.9873 157.347C36.9873 164.171 42.3749 169.702 49.0208 169.702Z" fill="#074B82"/>
</g>
</g>
<path id="Vector_9" d="M139.769 0H157.897V136.708H139.769V0Z" fill="#1681FA"/>
<g id="Group_3">
<path id="Vector_10" d="M50.0886 118.533C48.6142 118.535 47.1984 117.94 46.1489 116.876L31.6311 102.199C30.7265 101.286 30.1497 100.085 29.9944 98.7916C29.8391 97.4986 30.1146 96.1896 30.7759 95.0777L38.7365 81.6937C39.5145 80.3873 40.766 79.4518 42.2158 79.093C43.6655 78.7341 45.1948 78.9812 46.4671 79.78C47.7393 80.5788 48.6505 81.8638 49 83.3523C49.3495 84.8408 49.1088 86.411 48.3309 87.7173L42.6898 97.1929L54.0283 108.647C54.8237 109.45 55.3682 110.478 55.5928 111.6C55.8173 112.722 55.7116 113.887 55.2892 114.947C54.8667 116.007 54.1466 116.914 53.2205 117.553C52.2943 118.191 51.2041 118.532 50.0886 118.533Z" fill="#E10F5A"/>
<path id="Vector_11" d="M95.5999 118.533C97.0751 118.535 98.4915 117.94 99.5419 116.876L114.062 102.199C114.966 101.286 115.543 100.085 115.698 98.7916C115.853 97.4986 115.578 96.1897 114.917 95.0777L106.954 81.6937C106.176 80.3873 104.925 79.4518 103.475 79.093C102.025 78.7341 100.496 78.9812 99.2237 79.78C97.9514 80.5788 97.0403 81.8638 96.6908 83.3523C96.3413 84.8408 96.582 86.411 97.3599 87.7173L103.001 97.1929L91.6512 108.647C90.8553 109.451 90.3105 110.48 90.0863 111.602C89.862 112.725 89.9685 113.891 90.3921 114.951C90.8156 116.012 91.5372 116.919 92.4647 117.557C93.3921 118.194 94.4836 118.534 95.5999 118.533Z" fill="#E10F5A"/>
</g>
<path id="Vector_12" d="M115.229 86.012H30.4619L39.8283 57.7427H105.86L115.229 86.012Z" fill="#FD6533"/>
<path id="Vector_13" d="M72.8448 71.2085C80.0877 71.2085 85.9591 65.18 85.9591 57.7434C85.9591 50.3068 80.0877 44.2783 72.8448 44.2783C65.602 44.2783 59.7305 50.3068 59.7305 57.7434C59.7305 65.18 65.602 71.2085 72.8448 71.2085Z" fill="#FEC12D"/>
</g>
</svg>
