<svg width="200" height="200" viewBox="0 0 200 200" fill="none" xmlns="http://www.w3.org/2000/svg">
<g id="coding 1">
<path id="Vector" d="M126.741 149.652H73.2588L71.0928 173.168H128.907L126.741 149.652Z" fill="#4E5660"/>
<path id="Vector_2" d="M138.356 189.05H61.6435C58.3025 189.05 55.9002 185.839 56.8435 182.634L57.5412 180.264C58.7795 176.057 62.6412 173.168 67.0267 173.168H132.973C137.359 173.168 141.22 176.057 142.459 180.264L143.156 182.634C144.099 185.839 141.697 189.05 138.356 189.05Z" fill="#C6C6C6"/>
<path id="Vector_3" d="M92.3369 173.168H67.0267C62.6412 173.168 58.7795 176.057 57.5412 180.264L56.8435 182.634C55.9002 185.839 58.3025 189.05 61.6435 189.05H95.8084C92.5353 184.653 91.5427 180.682 92.3369 173.168Z" fill="#9AA3B1"/>
<path id="Vector_4" d="M176.146 149.652H23.8543C10.6801 149.652 0 138.972 0 125.798V34.804C0 21.6298 10.6801 10.9497 23.8543 10.9497H176.146C189.32 10.9497 200 21.6298 200 34.804V125.798C200 138.972 189.32 149.652 176.146 149.652Z" fill="#4E5660"/>
<path id="Vector_5" d="M23.8543 10.9497C10.6801 10.9497 0 21.6294 0 34.804V125.798C0 138.972 10.6801 149.652 23.8543 149.652H73.259C48.2324 131.113 42.6965 70.1978 50.9449 10.9497H23.8543Z" fill="#383C43"/>
<path id="Vector_6" d="M16.3154 122.789V37.812C16.3154 31.987 21.0373 27.2651 26.8623 27.2651H173.137C178.962 27.2651 183.684 31.987 183.684 37.812V122.789C183.684 128.614 178.962 133.336 173.137 133.336H26.8623C21.0373 133.336 16.3154 128.614 16.3154 122.789Z" fill="#F7EF87"/>
<path id="Vector_7" d="M49.0279 27.2651H26.8623C21.0373 27.2651 16.3154 31.987 16.3154 37.812V122.789C16.3154 128.614 21.0373 133.336 26.8623 133.336H60.3025C48.1322 109.388 45.0369 68.9151 49.0279 27.2651Z" fill="#EFD176"/>
<path id="Vector_8" d="M173.137 27.2651H100V133.336H173.137C178.963 133.336 183.684 128.614 183.684 122.789V37.812C183.684 31.987 178.962 27.2651 173.137 27.2651Z" fill="#383C43"/>
<path id="Vector_9" d="M0 119.123V125.798C0 138.972 10.6801 149.652 23.8543 149.652H176.146C189.32 149.652 200 138.972 200 125.798V119.123H0Z" fill="#C6C6C6"/>
<path id="Vector_10" d="M99.9998 140.177C103.197 140.177 105.79 137.585 105.79 134.388C105.79 131.19 103.197 128.598 99.9998 128.598C96.8022 128.598 94.21 131.19 94.21 134.388C94.21 137.585 96.8022 140.177 99.9998 140.177Z" fill="#4E5660"/>
<g id="Group">
<path id="Vector_11" d="M130.235 70.3602C129.485 70.3602 128.735 70.0742 128.163 69.5023L117.273 58.6121C116.724 58.0625 116.415 57.3176 116.415 56.5402C116.415 55.7633 116.724 55.0184 117.273 54.4684L128.163 43.5785C129.307 42.4344 131.162 42.4352 132.306 43.5785C133.451 44.723 133.451 46.5777 132.306 47.7219L123.488 56.5398L132.306 65.3582C133.451 66.5027 133.451 68.3574 132.306 69.5016C131.734 70.0742 130.984 70.3602 130.235 70.3602Z" fill="white"/>
<path id="Vector_12" d="M153.448 70.3601C152.699 70.3601 151.949 70.0742 151.377 69.5023C150.233 68.3578 150.233 66.5031 151.377 65.3589L160.195 56.5406L151.377 47.7226C150.233 46.5781 150.233 44.7234 151.377 43.5792C152.521 42.4355 154.376 42.4355 155.52 43.5792L166.409 54.4691C166.959 55.0187 167.268 55.7636 167.268 56.541C167.268 57.3179 166.959 58.0628 166.409 58.6128L155.52 69.5031C154.947 70.0742 154.198 70.3601 153.448 70.3601Z" fill="white"/>
<path id="Vector_13" d="M135.725 76.2749C135.392 76.2749 135.054 76.2179 134.723 76.0975C133.203 75.544 132.419 73.8628 132.972 72.3425L145.205 38.7343C145.758 37.2136 147.439 36.43 148.96 36.9835C150.48 37.537 151.264 39.2183 150.711 40.7386L138.479 74.3468C138.045 75.5358 136.922 76.2749 135.725 76.2749Z" fill="white"/>
</g>
<path id="Vector_14" d="M157.893 108.266H139.648C138.03 108.266 136.719 106.955 136.719 105.336C136.719 103.718 138.03 102.407 139.648 102.407H157.893C159.511 102.407 160.823 103.718 160.823 105.336C160.823 106.955 159.511 108.266 157.893 108.266Z" fill="#8EE2CF"/>
<path id="Vector_15" d="M130.729 108.266H122.36C120.742 108.266 119.431 106.955 119.431 105.336C119.431 103.718 120.742 102.407 122.36 102.407H130.729C132.347 102.407 133.659 103.718 133.659 105.336C133.659 106.955 132.347 108.266 130.729 108.266Z" fill="#E8899E"/>
<path id="Vector_16" d="M161.324 99.2236H150.887C149.269 99.2236 147.957 97.9123 147.957 96.2939C147.957 94.6756 149.269 93.3643 150.887 93.3643H161.324C162.942 93.3643 164.254 94.6756 164.254 96.2939C164.254 97.9119 162.942 99.2236 161.324 99.2236Z" fill="#E8899E"/>
<path id="Vector_17" d="M141.967 99.2236H122.36C120.742 99.2236 119.431 97.9123 119.431 96.2939C119.431 94.6756 120.742 93.3643 122.36 93.3643H141.967C143.585 93.3643 144.897 94.6756 144.897 96.2939C144.897 97.9119 143.585 99.2236 141.967 99.2236Z" fill="white"/>
<path id="Vector_18" d="M151.388 90.1807H140.274C138.656 90.1807 137.345 88.8693 137.345 87.251C137.345 85.6326 138.656 84.3213 140.274 84.3213H151.388C153.006 84.3213 154.318 85.6326 154.318 87.251C154.318 88.8693 153.006 90.1807 151.388 90.1807Z" fill="#8EE2CF"/>
<path id="Vector_19" d="M131.356 90.1807H122.36C120.742 90.1807 119.431 88.8693 119.431 87.251C119.431 85.6326 120.742 84.3213 122.36 84.3213H131.356C132.974 84.3213 134.285 85.6326 134.285 87.251C134.285 88.8693 132.974 90.1807 131.356 90.1807Z" fill="#A3DEFE"/>
<path id="Vector_20" d="M83.6398 86.2428C83.6398 86.9494 83.2902 87.656 82.5906 88.06L62.0543 99.9166C59.643 101.309 56.6727 101.309 54.2613 99.9166L33.725 88.06C33.0258 87.656 32.6758 86.9494 32.6758 86.2428V58.0244H83.6398V86.2428Z" fill="#8EAFE2"/>
<path id="Vector_21" d="M32.6758 58.0244V86.2428C32.6758 86.9494 33.0258 87.6561 33.725 88.06L49.8898 97.3928C48.0859 85.3057 47.2816 71.9689 47.3949 58.0248H32.6758V58.0244Z" fill="#6A96D7"/>
<path id="Vector_22" d="M58.1582 100.96C59.5035 100.96 60.8492 100.612 62.0547 99.9162L82.591 88.0596C83.2906 87.6557 83.6402 86.949 83.6402 86.2424V58.0244H58.1582V100.96Z" fill="#7ACEFA"/>
<path id="Vector_23" d="M33.7249 56.2074L54.2612 44.3508C56.6726 42.9586 59.6429 42.9586 62.0542 44.3508L82.5905 56.2074C83.9894 57.0152 83.9894 59.034 82.5905 59.8418L62.0542 71.6984C59.6429 73.0906 56.6726 73.0906 54.2612 71.6984L33.7249 59.8418C32.3261 59.034 32.3261 57.0148 33.7249 56.2074Z" fill="#A3DEFE"/>
<path id="Vector_24" d="M47.6229 48.1831L33.7249 56.2073C32.3261 57.0151 32.3261 59.0343 33.7249 59.8417L47.4694 67.7772C47.3179 61.3901 47.3718 54.837 47.6229 48.1831Z" fill="#7ACEFA"/>
<path id="Vector_25" d="M0 125.798C0 138.972 10.6801 149.652 23.8543 149.652H73.259C65.0176 143.547 58.891 132.845 54.673 119.123H0L0 125.798Z" fill="#9AA3B1"/>
</g>
</svg>
