<svg viewBox="0 0 277 239" fill="none" xmlns="http://www.w3.org/2000/svg">
<g id="circuit 1">
<g id="Group">
<path id="Vector" d="M204.504 111.49H246.907C247.788 113.409 249.417 115.002 251.514 115.997C253.611 116.991 256.043 117.323 258.393 116.936C260.743 116.549 262.863 115.467 264.388 113.876C265.913 112.286 266.747 110.286 266.747 108.222C266.747 106.158 265.913 104.158 264.388 102.568C262.863 100.977 260.743 99.8954 258.393 99.5084C256.043 99.1214 253.611 99.4535 251.514 100.448C249.417 101.442 247.788 103.035 246.907 104.954H204.504V88.9153H231.836C232.841 88.9148 233.804 88.5704 234.514 87.9577C235.224 87.3451 235.623 86.5142 235.624 85.6478V64.1191H246.907C247.788 66.0381 249.417 67.6319 251.514 68.626C253.611 69.6201 256.043 69.9522 258.393 69.5652C260.743 69.1782 262.863 68.0962 264.388 66.5057C265.913 64.9152 266.747 62.9156 266.747 60.8515C266.747 58.7874 265.913 56.7878 264.388 55.1973C262.863 53.6068 260.743 52.5248 258.393 52.1378C256.043 51.7508 253.611 52.0829 251.514 53.077C249.417 54.0711 247.788 55.6649 246.907 57.5839H231.836C230.832 57.5844 229.869 57.9288 229.159 58.5415C228.449 59.1542 228.05 59.985 228.049 60.8515V82.3802H204.504V65.8182C204.504 64.9518 204.105 64.1209 203.395 63.5082C202.684 62.8956 201.721 62.5511 200.717 62.5506H181.522V42.2356H206.474C207.478 42.2352 208.441 41.8907 209.151 41.278C209.861 40.6654 210.26 39.8345 210.261 38.9681V25.965C212.484 25.2047 214.33 23.7994 215.481 21.9912C216.632 20.183 217.017 18.0849 216.568 16.0584C216.12 14.0319 214.866 12.2037 213.024 10.8888C211.181 9.57385 208.865 8.85443 206.474 8.85443C204.083 8.85443 201.766 9.57385 199.924 10.8888C198.081 12.2037 196.827 14.0319 196.379 16.0584C195.93 18.0849 196.315 20.183 197.466 21.9912C198.618 23.7994 200.464 25.2047 202.687 25.965V35.7005H177.735C176.731 35.701 175.768 36.0454 175.058 36.6581C174.348 37.2708 173.948 38.1016 173.948 38.9681V62.5506H155.359V25.9668C157.581 25.2066 159.427 23.8013 160.579 21.9931C161.73 20.1848 162.115 18.0868 161.666 16.0603C161.218 14.0337 159.964 12.2056 158.121 10.8907C156.279 9.57571 153.963 8.8563 151.571 8.8563C149.18 8.8563 146.864 9.57571 145.021 10.8907C143.179 12.2056 141.925 14.0337 141.477 16.0603C141.028 18.0868 141.413 20.1848 142.564 21.9931C143.715 23.8013 145.561 25.2066 147.784 25.9668V62.5506H129.217V25.965C131.441 25.2047 133.288 23.799 134.44 21.99C135.592 20.181 135.977 18.0819 135.529 16.0544C135.08 14.0269 133.826 12.1978 131.983 10.8821C130.139 9.56649 127.822 8.84668 125.43 8.84668C123.037 8.84668 120.72 9.56649 118.876 10.8821C117.033 12.1978 115.779 14.0269 115.33 16.0544C114.882 18.0819 115.267 20.181 116.419 21.99C117.571 23.799 119.418 25.2047 121.642 25.965V62.5506H103.053V38.9681C103.053 38.1016 102.653 37.2708 101.943 36.6581C101.233 36.0454 100.27 35.701 99.266 35.7005H74.3144V25.965C76.5385 25.2047 78.3857 23.799 79.5379 21.99C80.69 20.181 81.0749 18.0819 80.6264 16.0544C80.1778 14.0269 78.9239 12.1978 77.0805 10.8821C75.237 9.56649 72.9196 8.84668 70.5273 8.84668C68.1349 8.84668 65.8175 9.56649 63.9741 10.8821C62.1307 12.1978 60.8767 14.0269 60.4282 16.0544C59.9796 18.0819 60.3645 20.181 61.5167 21.99C62.6688 23.799 64.516 25.2047 66.7402 25.965V38.9681C66.7407 39.8345 67.1399 40.6654 67.85 41.278C68.5601 41.8907 69.523 42.2352 70.5273 42.2356H95.4789V62.5506H76.2837C75.2794 62.5511 74.3165 62.8956 73.6064 63.5082C72.8963 64.1209 72.4971 64.9518 72.4966 65.8182V82.3802H48.9516V60.8515C48.951 59.985 48.5518 59.1542 47.8417 58.5415C47.1316 57.9288 46.1687 57.5844 45.1645 57.5839H30.0961C29.2149 55.6654 27.586 54.0721 25.4898 53.0784C23.3936 52.0847 20.9614 51.7527 18.6121 52.1397C16.2628 52.5267 14.1434 53.6085 12.619 55.1987C11.0946 56.7888 10.2606 58.7879 10.2606 60.8515C10.2606 62.9151 11.0946 64.9142 12.619 66.5044C14.1434 68.0945 16.2628 69.1763 18.6121 69.5633C20.9614 69.9503 23.3936 69.6183 25.4898 68.6246C27.586 67.6309 29.2149 66.0376 30.0961 64.1191H41.3774V85.6478C41.3779 86.5142 41.7771 87.3451 42.4872 87.9577C43.1973 88.5704 44.1602 88.9148 45.1645 88.9153H72.4966V104.954H30.0961C29.215 103.037 27.5863 101.444 25.4905 100.45C23.3948 99.4569 20.9631 99.1252 18.6144 99.5122C16.2657 99.8992 14.1469 100.981 12.6229 102.571C11.0989 104.16 10.2651 106.159 10.2651 108.222C10.2651 110.285 11.0989 112.284 12.6229 113.874C14.1469 115.463 16.2657 116.545 18.6144 116.932C20.9631 117.319 23.3948 116.987 25.4905 115.994C27.5863 115 29.215 113.408 30.0961 111.49H72.4966V127.51H30.0939C29.2127 125.591 27.5835 123.997 25.4869 123.003C23.3903 122.009 20.9575 121.677 18.6076 122.064C16.2577 122.451 14.1378 123.533 12.613 125.123C11.0882 126.714 10.2539 128.714 10.2539 130.778C10.2539 132.842 11.0882 134.841 12.613 136.432C14.1378 138.022 16.2577 139.104 18.6076 139.491C20.9575 139.878 23.3903 139.546 25.4869 138.552C27.5835 137.558 29.2127 135.964 30.0939 134.045H72.4966V150.084H45.1645C44.1602 150.085 43.1973 150.429 42.4872 151.042C41.7771 151.655 41.3779 152.486 41.3774 153.352V174.881H30.0939C29.2127 172.962 27.5835 171.368 25.4869 170.374C23.3903 169.38 20.9575 169.048 18.6076 169.435C16.2577 169.822 14.1378 170.904 12.613 172.494C11.0882 174.085 10.2539 176.084 10.2539 178.148C10.2539 180.212 11.0882 182.212 12.613 183.802C14.1378 185.393 16.2577 186.475 18.6076 186.862C20.9575 187.249 23.3903 186.917 25.4869 185.923C27.5835 184.929 29.2127 183.335 30.0939 181.416H45.1645C46.1687 181.415 47.1316 181.071 47.8417 180.458C48.5518 179.846 48.951 179.015 48.9516 178.148V156.62H72.4966V173.182C72.4971 174.048 72.8963 174.879 73.6064 175.492C74.3165 176.104 75.2794 176.449 76.2837 176.449H95.4789V196.764H70.5273C69.523 196.765 68.5601 197.109 67.85 197.722C67.1399 198.334 66.7407 199.165 66.7402 200.032V213.035C64.5173 213.795 62.6712 215.2 61.5199 217.009C60.3685 218.817 59.984 220.915 60.4326 222.941C60.8811 224.968 62.1346 226.796 63.9772 228.111C65.8198 229.426 68.1361 230.145 70.5273 230.145C72.9184 230.145 75.2348 229.426 77.0774 228.111C78.92 226.796 80.1734 224.968 80.622 222.941C81.0705 220.915 80.686 218.817 79.5347 217.009C78.3834 215.2 76.5373 213.795 74.3144 213.035V203.299H99.266C100.27 203.299 101.233 202.954 101.943 202.342C102.653 201.729 103.053 200.898 103.053 200.032V176.449H121.642V213.033C119.42 213.793 117.573 215.198 116.422 217.007C115.271 218.815 114.886 220.913 115.335 222.939C115.783 224.966 117.037 226.794 118.879 228.109C120.722 229.424 123.038 230.143 125.43 230.143C127.821 230.143 130.137 229.424 131.98 228.109C133.822 226.794 135.076 224.966 135.524 222.939C135.973 220.913 135.588 218.815 134.437 217.007C133.286 215.198 131.44 213.793 129.217 213.033V176.449H147.784V213.035C145.56 213.795 143.713 215.201 142.561 217.01C141.409 218.819 141.024 220.918 141.472 222.945C141.921 224.973 143.175 226.802 145.018 228.118C146.862 229.433 149.179 230.153 151.571 230.153C153.964 230.153 156.281 229.433 158.125 228.118C159.968 226.802 161.222 224.973 161.671 222.945C162.119 220.918 161.734 218.819 160.582 217.01C159.43 215.201 157.583 213.795 155.359 213.035V176.449H173.948V200.032C173.948 200.898 174.348 201.729 175.058 202.342C175.768 202.954 176.731 203.299 177.735 203.299H202.687V213.035C200.463 213.795 198.616 215.201 197.465 217.009C196.313 218.818 195.928 220.916 196.377 222.943C196.825 224.97 198.079 226.799 199.922 228.114C201.765 229.43 204.082 230.149 206.474 230.149C208.865 230.149 211.182 229.43 213.025 228.114C214.868 226.799 216.122 224.97 216.571 222.943C217.019 220.916 216.634 218.818 215.483 217.009C214.331 215.201 212.484 213.795 210.261 213.035V200.032C210.26 199.165 209.861 198.334 209.151 197.722C208.441 197.109 207.478 196.765 206.474 196.764H181.522V176.449H200.717C201.721 176.449 202.684 176.104 203.395 175.492C204.105 174.879 204.504 174.048 204.504 173.182V156.62H228.049V178.148C228.05 179.015 228.449 179.846 229.159 180.458C229.869 181.071 230.832 181.415 231.836 181.416H246.907C247.788 183.334 249.417 184.927 251.513 185.92C253.608 186.913 256.04 187.245 258.389 186.858C260.737 186.471 262.856 185.39 264.38 183.8C265.904 182.21 266.738 180.211 266.738 178.148C266.738 176.085 265.904 174.087 264.38 172.497C262.856 170.907 260.737 169.825 258.389 169.438C256.04 169.051 253.608 169.383 251.513 170.376C249.417 171.37 247.788 172.963 246.907 174.881H235.624V153.352C235.623 152.486 235.224 151.655 234.514 151.042C233.804 150.429 232.841 150.085 231.836 150.084H204.504V134.045H246.905C247.786 135.963 249.415 137.556 251.51 138.549C253.606 139.543 256.038 139.875 258.387 139.488C260.735 139.101 262.854 138.019 264.378 136.429C265.902 134.839 266.736 132.841 266.736 130.778C266.736 128.715 265.902 126.716 264.378 125.126C262.854 123.536 260.735 122.455 258.387 122.068C256.038 121.681 253.606 122.013 251.51 123.006C249.415 123.999 247.786 125.592 246.905 127.51H204.504V111.49ZM256.442 105.888C256.977 105.888 257.5 106.025 257.945 106.281C258.39 106.538 258.736 106.902 258.941 107.329C259.146 107.755 259.199 108.225 259.095 108.677C258.991 109.13 258.733 109.546 258.355 109.872C257.976 110.199 257.494 110.421 256.97 110.511C256.445 110.601 255.901 110.555 255.407 110.378C254.912 110.202 254.49 109.903 254.193 109.519C253.895 109.135 253.737 108.684 253.737 108.222C253.737 107.603 254.022 107.009 254.529 106.57C255.036 106.132 255.724 105.885 256.442 105.884V105.888ZM256.442 58.5194C256.977 58.5194 257.5 58.6563 257.945 58.9127C258.39 59.1692 258.736 59.5337 258.941 59.9602C259.146 60.3867 259.199 60.856 259.095 61.3087C258.991 61.7615 258.733 62.1773 258.355 62.5037C257.976 62.8302 257.494 63.0525 256.97 63.1425C256.445 63.2326 255.901 63.1863 255.407 63.0097C254.912 62.833 254.49 62.5339 254.193 62.1501C253.895 61.7662 253.737 61.315 253.737 60.8534C253.737 60.234 254.022 59.64 254.529 59.2017C255.036 58.7634 255.724 58.5166 256.442 58.5157V58.5194ZM206.476 15.4042C207.011 15.4042 207.534 15.541 207.979 15.7975C208.424 16.054 208.77 16.4185 208.975 16.845C209.18 17.2714 209.233 17.7407 209.129 18.1935C209.025 18.6462 208.767 19.0621 208.389 19.3885C208.01 19.7149 207.528 19.9372 207.004 20.0273C206.479 20.1173 205.935 20.0711 205.441 19.8945C204.946 19.7178 204.524 19.4187 204.227 19.0348C203.929 18.651 203.771 18.1998 203.771 17.7381C203.772 17.1194 204.057 16.5264 204.564 16.0889C205.071 15.6514 205.759 15.4051 206.476 15.4042ZM151.576 15.4042C152.111 15.4042 152.634 15.541 153.079 15.7975C153.523 16.054 153.87 16.4185 154.075 16.845C154.28 17.2714 154.333 17.7407 154.229 18.1935C154.124 18.6462 153.867 19.0621 153.489 19.3885C153.11 19.7149 152.628 19.9372 152.103 20.0273C151.579 20.1173 151.035 20.0711 150.541 19.8945C150.046 19.7178 149.624 19.4187 149.327 19.0348C149.029 18.651 148.871 18.1998 148.871 17.7381C148.872 17.1194 149.157 16.5264 149.664 16.0889C150.171 15.6514 150.859 15.4051 151.576 15.4042ZM125.425 15.4042C125.96 15.4042 126.483 15.541 126.928 15.7975C127.373 16.054 127.72 16.4185 127.924 16.845C128.129 17.2714 128.183 17.7407 128.078 18.1935C127.974 18.6462 127.716 19.0621 127.338 19.3885C126.96 19.7149 126.478 19.9372 125.953 20.0273C125.428 20.1173 124.884 20.0711 124.39 19.8945C123.896 19.7178 123.473 19.4187 123.176 19.0348C122.879 18.651 122.72 18.1998 122.72 17.7381C122.721 17.1193 123.006 16.5259 123.513 16.0883C124.02 15.6507 124.708 15.4047 125.425 15.4042ZM70.5251 15.4042C71.0601 15.4042 71.5831 15.541 72.028 15.7975C72.4728 16.054 72.8195 16.4185 73.0243 16.845C73.229 17.2714 73.2826 17.7407 73.1782 18.1935C73.0738 18.6462 72.8162 19.0621 72.4379 19.3885C72.0596 19.7149 71.5776 19.9372 71.0528 20.0273C70.5281 20.1173 69.9842 20.0711 69.4899 19.8945C68.9956 19.7178 68.5732 19.4187 68.2759 19.0348C67.9787 18.651 67.82 18.1998 67.82 17.7381C67.8206 17.1193 68.1058 16.5259 68.613 16.0883C69.1201 15.6507 69.8079 15.4047 70.5251 15.4042ZM20.5591 63.1836C20.0241 63.1836 19.5011 63.0467 19.0562 62.7903C18.6114 62.5338 18.2647 62.1693 18.0599 61.7428C17.8552 61.3163 17.8016 60.8471 17.906 60.3943C18.0104 59.9416 18.268 59.5257 18.6463 59.1993C19.0246 58.8728 19.5066 58.6506 20.0313 58.5605C20.5561 58.4704 21.1 58.5167 21.5943 58.6933C22.0886 58.87 22.511 59.1691 22.8083 59.5529C23.1055 59.9368 23.2642 60.388 23.2642 60.8496C23.2636 61.4685 22.9784 62.0619 22.4712 62.4995C21.964 62.9371 21.2763 63.1831 20.5591 63.1836ZM20.5591 110.552C20.0241 110.552 19.5011 110.415 19.0562 110.159C18.6114 109.902 18.2647 109.538 18.0599 109.112C17.8552 108.685 17.8016 108.216 17.906 107.763C18.0104 107.31 18.268 106.894 18.6463 106.568C19.0246 106.242 19.5066 106.019 20.0313 105.929C20.5561 105.839 21.1 105.885 21.5943 106.062C22.0886 106.239 22.511 106.538 22.8083 106.922C23.1055 107.305 23.2642 107.757 23.2642 108.218C23.2636 108.837 22.9784 109.431 22.4712 109.868C21.964 110.306 21.2763 110.552 20.5591 110.552ZM20.5591 133.115C20.0241 133.115 19.5011 132.979 19.0562 132.722C18.6114 132.466 18.2647 132.101 18.0599 131.675C17.8552 131.248 17.8016 130.779 17.906 130.326C18.0104 129.873 18.268 129.457 18.6463 129.131C19.0246 128.805 19.5066 128.582 20.0313 128.492C20.5561 128.402 21.1 128.448 21.5943 128.625C22.0886 128.802 22.511 129.101 22.8083 129.485C23.1055 129.869 23.2642 130.32 23.2642 130.781C23.263 131.4 22.9776 131.993 22.4706 132.431C21.9635 132.868 21.2762 133.114 20.5591 133.115ZM20.5591 180.484C20.0241 180.484 19.5011 180.347 19.0562 180.091C18.6114 179.834 18.2647 179.47 18.0599 179.043C17.8552 178.617 17.8016 178.148 17.906 177.695C18.0104 177.242 18.268 176.826 18.6463 176.5C19.0246 176.173 19.5066 175.951 20.0313 175.861C20.5561 175.771 21.1 175.817 21.5943 175.994C22.0886 176.17 22.511 176.47 22.8083 176.853C23.1055 177.237 23.2642 177.688 23.2642 178.15C23.263 178.769 22.9776 179.362 22.4706 179.799C21.9635 180.237 21.2762 180.483 20.5591 180.484ZM70.5251 223.596C69.9901 223.596 69.4671 223.459 69.0223 223.202C68.5774 222.946 68.2307 222.581 68.0259 222.155C67.8212 221.728 67.7676 221.259 67.872 220.806C67.9764 220.354 68.234 219.938 68.6123 219.611C68.9906 219.285 69.4726 219.063 69.9974 218.972C70.5221 218.882 71.066 218.929 71.5603 219.105C72.0546 219.282 72.4771 219.581 72.7743 219.965C73.0715 220.349 73.2302 220.8 73.2302 221.262C73.229 221.88 72.9437 222.473 72.4366 222.911C71.9296 223.348 71.2422 223.595 70.5251 223.596ZM125.425 223.596C124.89 223.596 124.367 223.459 123.922 223.202C123.477 222.946 123.131 222.581 122.926 222.155C122.721 221.728 122.668 221.259 122.772 220.806C122.876 220.354 123.134 219.938 123.512 219.611C123.891 219.285 124.373 219.063 124.897 218.972C125.422 218.882 125.966 218.929 126.46 219.105C126.955 219.282 127.377 219.581 127.674 219.965C127.972 220.349 128.13 220.8 128.13 221.262C128.129 221.88 127.844 222.473 127.337 222.911C126.83 223.348 126.142 223.595 125.425 223.596ZM151.576 223.596C151.041 223.596 150.518 223.459 150.073 223.202C149.628 222.946 149.281 222.581 149.077 222.155C148.872 221.728 148.818 221.259 148.923 220.806C149.027 220.354 149.285 219.938 149.663 219.611C150.041 219.285 150.523 219.063 151.048 218.972C151.573 218.882 152.117 218.929 152.611 219.105C153.105 219.282 153.528 219.581 153.825 219.965C154.122 220.349 154.281 220.8 154.281 221.262C154.28 221.88 153.995 222.474 153.488 222.911C152.981 223.349 152.293 223.595 151.576 223.596ZM206.476 223.596C205.941 223.596 205.418 223.459 204.973 223.202C204.528 222.946 204.181 222.581 203.977 222.155C203.772 221.728 203.718 221.259 203.823 220.806C203.927 220.354 204.185 219.938 204.563 219.611C204.941 219.285 205.423 219.063 205.948 218.972C206.473 218.882 207.017 218.929 207.511 219.105C208.005 219.282 208.428 219.581 208.725 219.965C209.022 220.349 209.181 220.8 209.181 221.262C209.18 221.88 208.895 222.474 208.388 222.911C207.881 223.349 207.193 223.595 206.476 223.596ZM256.442 175.816C256.977 175.816 257.5 175.953 257.945 176.209C258.39 176.466 258.736 176.83 258.941 177.257C259.146 177.683 259.199 178.153 259.095 178.605C258.991 179.058 258.733 179.474 258.355 179.8C257.976 180.127 257.494 180.349 256.97 180.439C256.445 180.529 255.901 180.483 255.407 180.306C254.912 180.13 254.49 179.831 254.193 179.447C253.895 179.063 253.737 178.612 253.737 178.15C253.737 177.531 254.023 176.938 254.53 176.5C255.037 176.063 255.725 175.817 256.442 175.816ZM256.442 128.447C256.977 128.447 257.5 128.584 257.945 128.841C258.39 129.097 258.736 129.462 258.941 129.888C259.146 130.315 259.199 130.784 259.095 131.237C258.991 131.69 258.733 132.105 258.355 132.432C257.976 132.758 257.494 132.98 256.97 133.071C256.445 133.161 255.901 133.114 255.407 132.938C254.912 132.761 254.49 132.462 254.193 132.078C253.895 131.694 253.737 131.243 253.737 130.781C253.737 130.163 254.023 129.569 254.53 129.132C255.037 128.694 255.725 128.448 256.442 128.447ZM196.93 169.914H80.0708V69.0858H196.93V169.914Z" fill="black"/>
<path id="Vector_2" d="M181.24 79.3555H95.7598C94.7555 79.356 93.7926 79.7004 93.0825 80.3131C92.3724 80.9257 91.9732 81.7566 91.9727 82.623V156.377C91.9732 157.243 92.3724 158.074 93.0825 158.687C93.7926 159.3 94.7555 159.644 95.7598 159.645H181.24C182.244 159.644 183.207 159.3 183.917 158.687C184.628 158.074 185.027 157.243 185.027 156.377V82.623C185.027 81.7566 184.628 80.9257 183.917 80.3131C183.207 79.7004 182.244 79.356 181.24 79.3555ZM177.453 153.109H99.5469V85.8906H177.453V153.109Z" fill="black"/>
<path id="Vector_3" d="M168.256 124.323C169.26 124.322 170.223 123.978 170.933 123.365C171.643 122.752 172.042 121.922 172.043 121.055V102.617C172.043 101.75 171.644 100.919 170.934 100.306C170.224 99.6934 169.26 99.3491 168.256 99.3491C167.251 99.3491 166.288 99.6934 165.578 100.306C164.868 100.919 164.469 101.75 164.469 102.617V121.055C164.469 121.922 164.869 122.752 165.579 123.365C166.289 123.978 167.252 124.322 168.256 124.323Z" fill="black"/>
</g>
</g>
</svg>
