<svg width="150" height="150" viewBox="0 0 150 150" fill="none" xmlns="http://www.w3.org/2000/svg">
<g id="c-icon" clip-path="url(#clip0)">
<path id="Vector" d="M150 75C150 88.304 146.535 100.803 140.458 111.637C137.676 116.596 134.345 121.209 130.549 125.391C120.208 136.784 106.414 144.979 90.8177 148.328H90.8147C85.7142 149.425 80.4275 150 75 150C69.5725 150 64.2765 149.425 59.1765 148.325H59.1735C43.5797 144.976 29.7888 136.778 19.4481 125.391C15.6521 121.209 12.3246 116.596 9.54199 111.633C3.4623 100.8 0 88.3072 0 75C0 33.5786 33.5786 0 75 0C116.421 0 150 33.5786 150 75Z" fill="#5C5560"/>
<path id="Vector_2" d="M140.511 53.2593V110.376C140.511 110.798 140.496 111.221 140.459 111.637C137.676 116.596 134.345 121.209 130.55 125.391L90.8181 148.329H90.8152C85.7149 149.425 80.4282 150 75.0007 150C69.5732 150 64.2772 149.425 59.1772 148.326H59.1742L26.6761 129.567L19.4485 125.391C15.6525 121.21 12.325 116.596 9.54238 111.634C9.50576 111.218 9.49023 110.798 9.49023 110.376V53.2593C9.49023 47.5289 12.5485 42.2329 17.5105 39.3644L66.9769 10.8061C71.9453 7.93767 78.0555 7.93767 83.0207 10.8061L122.59 33.6521L132.49 39.3644C137.45 42.2329 140.511 47.5289 140.511 53.2593Z" fill="#7F8B9A"/>
<path id="Vector_3" d="M140.511 53.2588V110.375C140.511 110.798 140.495 111.22 140.458 111.636C137.676 116.595 134.345 121.209 130.549 125.39L90.8178 148.328C85.7178 149.424 80.4279 150 75.0004 150C69.5729 150 64.2769 149.424 59.1769 148.325L26.6758 129.566L122.59 33.6519L132.49 39.3642C137.449 42.2323 140.511 47.5283 140.511 53.2588Z" fill="#A8B9CC"/>
<path id="Vector_4" d="M108.975 73.1395C108.975 56.4392 94.5666 43.9956 75.5737 43.9956C56.5809 43.9956 38.7344 56.4392 38.7344 82.6361C38.7344 108.833 56.0896 120.621 74.7552 120.621C93.4208 120.621 108.975 112.107 108.975 92.6234H88.8361C88.8361 92.6234 88.1814 102.939 76.5564 102.939C64.9314 102.939 61.0021 91.9687 61.0021 82.9634C61.0021 73.9581 64.4403 62.1693 75.9016 62.1693C87.3628 62.1693 88.5089 73.1393 88.5089 73.1393H108.975V73.1395Z" fill="#F2F2F2"/>
</g>
<defs>
<clipPath id="clip0">
<rect width="150" height="150" fill="white"/>
</clipPath>
</defs>
</svg>
