<svg width="151" height="150" viewBox="0 0 151 150" fill="none" xmlns="http://www.w3.org/2000/svg">
<g id="matlab-icon">
<circle id="Ellipse 4" cx="76" cy="75" r="75" fill="#135D5E"/>
<g id="icons8-matlab 1">
<path id="Vector" d="M65.625 84.375L43.75 65.625C43.75 65.625 46.875 60.9375 51.5625 56.25C56.25 51.5625 60.1125 50.4625 65.625 46.875C76.5969 39.7375 85.9375 9.375 100 9.375L65.625 84.375Z" fill="url(#paint0_linear)"/>
<path id="Vector_2" d="M34.375 103.331L3.125 81.25L43.75 65.625L66.4906 82.7031L43.75 100.206L34.375 103.331Z" fill="url(#paint1_linear)"/>
<path id="Vector_3" d="M100 9.375C115.625 9.375 140.625 93.75 146.875 115.625C146.875 115.625 124.947 94.9062 112.5 96.875C100.053 98.8438 95.4062 117.338 82.1094 130.488C73.4375 139.062 65.625 140.625 65.625 140.625C65.625 140.625 64.9813 115.238 50 106.25C42.1875 101.562 34.375 103.125 34.375 103.125C34.375 103.125 53.2781 94.0594 63.9813 77.5813C74.6844 61.1031 89.0625 9.375 100 9.375Z" fill="url(#paint2_linear)"/>
</g>
</g>
<defs>
<linearGradient id="paint0_linear" x1="70.7656" y1="34.0031" x2="83.6156" y2="74.5438" gradientUnits="userSpaceOnUse">
<stop stop-color="#4ADDDF"/>
<stop offset="0.699" stop-color="#3F5352"/>
<stop offset="0.863" stop-color="#442729"/>
</linearGradient>
<linearGradient id="paint1_linear" x1="3.125" y1="84.4781" x2="118.047" y2="84.4781" gradientUnits="userSpaceOnUse">
<stop stop-color="#4ADDDF"/>
<stop offset="0.792" stop-color="#3F5352"/>
<stop offset="1" stop-color="#442729"/>
</linearGradient>
<linearGradient id="paint2_linear" x1="34.375" y1="75" x2="146.875" y2="75" gradientUnits="userSpaceOnUse">
<stop offset="0.206" stop-color="#53140F"/>
<stop offset="0.3" stop-color="#84360F"/>
<stop offset="0.413" stop-color="#B85B10"/>
<stop offset="0.511" stop-color="#DF7610"/>
<stop offset="0.59" stop-color="#F68710"/>
<stop offset="0.639" stop-color="#FF8D10"/>
<stop offset="0.729" stop-color="#FD8A10"/>
<stop offset="0.8" stop-color="#F58010"/>
<stop offset="0.865" stop-color="#E86F10"/>
<stop offset="0.925" stop-color="#D65811"/>
<stop offset="0.982" stop-color="#C03A11"/>
<stop offset="1" stop-color="#B72F11"/>
</linearGradient>
</defs>
</svg>
