<svg width="50" height="50" viewBox="0 0 50 50" fill="none" xmlns="http://www.w3.org/2000/svg">
<g clip-path="url(#clip0)">
<path d="M31.8965 18.1151C31.2498 18.1151 30.7256 18.6393 30.7256 19.286V41.4172C30.7256 42.0635 31.2498 42.5881 31.8965 42.5881C32.5433 42.5881 33.0675 42.0635 33.0675 41.4172V19.286C33.0675 18.6393 32.5433 18.1151 31.8965 18.1151Z" fill="#FFFCFC"/>
<path d="M18.0801 18.1151C17.4334 18.1151 16.9092 18.6393 16.9092 19.286V41.4172C16.9092 42.0635 17.4334 42.5881 18.0801 42.5881C18.7269 42.5881 19.2511 42.0635 19.2511 41.4172V19.286C19.2511 18.6393 18.7269 18.1151 18.0801 18.1151Z" fill="#FFFCFC"/>
<path d="M8.0093 14.8853V43.7352C8.0093 45.4404 8.63457 47.0418 9.72686 48.1908C10.8141 49.343 12.3272 49.9971 13.9107 49.9998H36.0656C37.6496 49.9971 39.1627 49.343 40.2495 48.1908C41.3418 47.0418 41.967 45.4404 41.967 43.7352V14.8853C44.1383 14.309 45.5453 12.2113 45.2549 9.98332C44.964 7.75576 43.0662 6.08944 40.8194 6.08898H34.8242V4.62528C34.8311 3.39441 34.3444 2.21247 33.473 1.34295C32.6017 0.473877 31.4179 -0.0100578 30.187 5.08087e-06H19.7893C18.5584 -0.0100578 17.3747 0.473877 16.5033 1.34295C15.632 2.21247 15.1453 3.39441 15.1521 4.62528V6.08898H9.15693C6.91016 6.08944 5.01238 7.75576 4.72147 9.98332C4.43102 12.2113 5.838 14.309 8.0093 14.8853ZM36.0656 47.6579H13.9107C11.9087 47.6579 10.3512 45.9381 10.3512 43.7352V14.9882H39.6251V43.7352C39.6251 45.9381 38.0677 47.6579 36.0656 47.6579ZM17.4941 4.62528C17.4863 4.01556 17.726 3.42871 18.1587 2.99829C18.5909 2.56788 19.1791 2.3314 19.7893 2.34192H30.187C30.7972 2.3314 31.3854 2.56788 31.8177 2.99829C32.2504 3.42825 32.4901 4.01556 32.4823 4.62528V6.08898H17.4941V4.62528ZM9.15693 8.43089H40.8194C41.9835 8.43089 42.9271 9.37452 42.9271 10.5386C42.9271 11.7027 41.9835 12.6463 40.8194 12.6463H9.15693C7.99283 12.6463 7.04921 11.7027 7.04921 10.5386C7.04921 9.37452 7.99283 8.43089 9.15693 8.43089Z" fill="#FFFCFC"/>
<path d="M24.9883 18.1151C24.3416 18.1151 23.8174 18.6393 23.8174 19.286V41.4172C23.8174 42.0635 24.3416 42.5881 24.9883 42.5881C25.6351 42.5881 26.1593 42.0635 26.1593 41.4172V19.286C26.1593 18.6393 25.6351 18.1151 24.9883 18.1151Z" fill="#FFFCFC"/>
</g>
<defs>
<clipPath id="clip0">
<rect width="50" height="50" fill="white"/>
</clipPath>
</defs>
</svg>
