<svg width="150" height="150" viewBox="0 0 150 150" fill="none" xmlns="http://www.w3.org/2000/svg">
<g id="javascript 1">
<path id="Vector" d="M150 75C150 84.7714 148.133 94.1051 144.732 102.667C142.913 107.247 140.657 111.606 138.012 115.69C134.718 120.784 130.821 125.452 126.425 129.591C123.851 132.018 121.108 134.262 118.212 136.307C105.998 144.934 91.0928 150 75 150C58.9072 150 44.0021 144.934 31.7877 136.307C28.1631 133.748 24.7775 130.88 21.6703 127.733C8.27139 114.187 0 95.5562 0 75C0 54.4438 8.27139 35.8134 21.6703 22.2674C24.9612 18.9369 28.5642 15.9152 32.4305 13.246C44.5225 4.8917 59.1888 0 75 0C90.8112 0 105.478 4.8917 117.57 13.246C120.524 15.2818 123.322 17.5286 125.945 19.9623C130.54 24.2112 134.599 29.0326 138.012 34.3102C140.657 38.3938 142.913 42.7529 144.732 47.3326C148.133 55.8949 150 65.2286 150 75Z" fill="#E4BA42"/>
<g id="Group">
<path id="Vector_2" d="M114.564 68.2528C112.476 62.1989 103.917 62.1989 102.247 67.209C100.577 72.219 106.214 75.1414 114.981 78.0644C123.749 80.987 129.177 88.7111 128.133 95.5997C127.089 102.488 124.167 111.465 106.84 111.465C96.011 111.465 89.9929 104.697 87.002 99.6207L96.8196 93.7209C96.8196 93.7209 100.16 100.819 106.422 100.819C112.685 100.819 115.19 98.7313 115.19 93.9298C115.19 88.0848 94.9405 85.9974 91.8093 75.977C88.678 65.9565 92.8531 51.7613 107.466 52.8049C116.599 53.4573 121.736 57.9421 124.305 61.214L114.564 68.2528Z" fill="#F2F2F2"/>
<path id="Vector_3" d="M69.0575 53.8491C69.0575 53.8491 69.0575 89.1287 69.0575 93.9302C69.0575 98.7313 64.8824 101.237 60.7073 100.402C56.5322 99.5666 54.6534 94.5565 54.6534 94.5565L45.0508 101.028C45.0508 101.028 47.1382 110.631 60.2898 111.466C73.4415 112.301 80.9565 104.368 80.9565 97.6878C80.9565 91.0075 80.9565 53.8491 80.9565 53.8491H69.0575Z" fill="#F2F2F2"/>
<path id="Vector_4" d="M21.6699 13.2461V127.733C24.7771 130.88 28.1627 133.748 31.7873 136.307H118.212C121.108 134.262 123.851 132.019 126.425 129.591H28.3862V19.9624H138.012V115.69C140.657 111.606 142.913 107.247 144.731 102.667V13.2461H21.6699Z" fill="#F2F2F2"/>
</g>
<path id="Vector_5" d="M25.7388 111.257C32.3104 111.257 37.6377 105.93 37.6377 99.3584C37.6377 92.7868 32.3104 87.4595 25.7388 87.4595C19.1672 87.4595 13.8398 92.7868 13.8398 99.3584C13.8398 105.93 19.1672 111.257 25.7388 111.257Z" fill="#3F4A43"/>
</g>
</svg>
