<svg width="150" height="150" viewBox="0 0 150 150" fill="none" xmlns="http://www.w3.org/2000/svg">
<g id="c++-icon">
<path id="Vector" d="M150 75C150 88.2612 146.559 100.717 140.52 111.526C140.52 111.529 140.52 111.529 140.52 111.529C139.378 113.571 138.144 115.555 136.825 117.471C134.853 120.336 132.686 123.058 130.344 125.614C120.092 136.821 106.482 144.903 91.1054 148.264C85.9163 149.403 80.5286 150 75 150C69.4714 150 64.0808 149.403 58.8917 148.264C43.5182 144.9 29.908 136.821 19.6591 125.617C17.3877 123.137 15.2815 120.505 13.362 117.737C11.9692 115.738 10.6743 113.666 9.48047 111.529C9.48047 111.526 9.48047 111.526 9.48047 111.526C3.44092 100.717 0 88.2612 0 75C0 33.5786 33.5786 0 75 0C116.421 0 150 33.5786 150 75Z" fill="#2D3A3E"/>
<path id="Vector_2" d="M140.556 53.2925V110.445C140.556 110.807 140.544 111.168 140.519 111.529C137.675 116.62 134.253 121.343 130.344 125.614L91.1052 148.264C85.9161 149.403 80.5284 150 74.9998 150C69.4712 150 64.0806 149.403 58.8915 148.264L26.6444 129.652L19.6586 125.617C15.7463 121.347 12.3238 116.62 9.47998 111.529C9.45537 111.168 9.44336 110.807 9.44336 110.445V53.2925C9.44336 47.5559 12.5075 42.2567 17.4698 39.3853L66.9727 10.8088C71.9412 7.93743 78.0575 7.93743 83.0257 10.8088L122.623 33.67L132.529 39.3853C137.491 42.257 140.556 47.5559 140.556 53.2925Z" fill="#004284"/>
<path id="Vector_3" d="M138.526 45.4864L13.3615 117.737C11.9688 115.738 10.6738 113.666 9.47998 111.529C9.47998 111.526 9.47998 111.526 9.47998 111.526C9.45537 111.168 9.44336 110.807 9.44336 110.446V53.2925C9.44336 47.5559 12.5046 42.2567 17.4698 39.3853L66.9728 10.8088C71.938 7.93743 78.0543 7.93743 83.0228 10.8088L122.623 33.67L132.529 39.3853C135.085 40.8639 137.136 42.9914 138.526 45.4864Z" fill="#6399D4"/>
<path id="Vector_4" d="M140.556 53.2931V110.446C140.556 110.807 140.543 111.168 140.519 111.526C140.519 111.529 140.519 111.529 140.519 111.529C139.377 113.571 138.144 115.555 136.824 117.471L75.3242 81.97L138.526 45.4863C139.836 47.838 140.556 50.5137 140.556 53.2931Z" fill="#00579E"/>
<g id="Group">
<path id="Vector_5" d="M94.2372 92.8852C90.486 99.6413 83.2808 104.213 75.0041 104.213C62.8614 104.213 53.018 94.369 53.018 82.2264C53.018 70.0837 62.8614 60.2402 75.0041 60.2402C83.1205 60.2402 90.2065 64.6374 94.0175 71.1782L113.457 59.9561C105.771 46.7051 91.4253 37.7959 75.0041 37.7959C50.4668 37.7959 30.5742 57.6841 30.5742 82.2258C30.5742 106.763 50.4671 126.656 75.0041 126.656C91.5853 126.656 106.046 117.573 113.677 104.106L94.2372 92.8852Z" fill="#F2F2F2"/>
<path id="Vector_6" d="M118.623 79.0301H113.572V73.979H108.674V79.0301H103.623V83.9279H108.674V88.979H113.572V83.9279H118.623V79.0301Z" fill="#F2F2F2"/>
<path id="Vector_7" d="M136.992 79.0301H131.941V73.979H127.043V79.0301H121.992V83.9279H127.043V88.979H131.941V83.9279H136.992V79.0301Z" fill="#F2F2F2"/>
</g>
</g>
</svg>
