<svg width="150" height="150" viewBox="0 0 150 150" fill="none" xmlns="http://www.w3.org/2000/svg">
<g id="r-icon">
<circle id="Ellipse 3" cx="75" cy="75" r="75" fill="#13465A"/>
<path id="Vector" d="M75 11.5625C39.965 11.5625 11.5625 37.0272 11.5625 68.4375C11.5625 99.8478 39.965 125.312 75 125.312C110.035 125.312 138.438 99.8478 138.438 68.4375C138.438 37.0272 110.035 11.5625 75 11.5625ZM80.4688 112.188C53.2869 112.188 31.25 94.0684 31.25 71.7188C31.25 49.3691 53.2869 31.25 80.4688 31.25C107.651 31.25 129.688 49.3691 129.688 71.7188C129.688 94.0684 107.651 112.188 80.4688 112.188Z" fill="#9E919D"/>
<path id="Vector_2" d="M79.375 125.164V112.166C69.6734 111.991 60.6631 109.519 53.125 105.369V121.839C59.9434 124.085 67.3109 125.313 75 125.313C76.4722 125.313 77.9269 125.251 79.375 125.164Z" fill="#68607C"/>
<path id="Vector_3" d="M109.063 104.647C101.899 108.861 93.3083 111.532 83.9961 112.074L91.1077 123.458C99.7352 121.432 107.639 117.812 114.422 112.98C111.867 108.957 109.925 105.929 109.063 104.647Z" fill="#68607C"/>
<path id="Vector_4" d="M125.312 138.438H105.625L86.3313 107.55C84.7125 104.991 81.9125 103.438 78.8937 103.438H75V136.25C75 137.453 74.0156 138.438 72.8125 138.438H59.6875C58.4844 138.438 57.5 137.453 57.5 136.25V48.75C57.5 47.5469 58.4844 46.5625 59.6875 46.5625H96.875C110.175 46.5625 120.938 57.325 120.938 70.625V75C120.938 81.65 118.247 87.6656 113.894 92.0187C109.541 96.3719 103.525 99.0625 96.875 99.0625C100.047 101.184 102.847 103.766 105.188 106.719C106.062 107.812 125.312 138.438 125.312 138.438ZM103.438 75C103.438 71.9813 102.213 69.2469 100.244 67.2562C98.2531 65.2875 95.5187 64.0625 92.5 64.0625H75V85.9375H92.5C98.5375 85.9375 103.438 81.0375 103.438 75Z" fill="#4E9BB9"/>
</g>
</svg>
