<svg width="100" height="97" viewBox="0 0 100 97" fill="none" xmlns="http://www.w3.org/2000/svg">
<path d="M39.4554 67.5252C39.0777 67.5252 38.6972 67.4 38.3867 67.1452L27.7035 58.3799C27.3349 58.0772 27.123 57.6351 27.123 57.1682C27.123 56.7021 27.3359 56.26 27.7035 55.9573L38.3867 47.192C39.0804 46.6221 40.1224 46.7028 40.7139 47.3713C41.3044 48.0406 41.2215 49.0446 40.5268 49.6137L31.3204 57.1682L40.5268 64.7227C41.2215 65.2926 41.3044 66.2966 40.7139 66.965C40.3868 67.3352 39.9225 67.5252 39.4554 67.5252Z" fill="black"/>
<path d="M60.5453 67.5252C60.0782 67.5252 59.6139 67.3352 59.2878 66.965C58.6963 66.2966 58.7801 65.2926 59.4739 64.7227L68.6803 57.1682L59.4739 49.6137C58.7801 49.0446 58.6963 48.0406 59.2878 47.3713C59.8783 46.7028 60.9212 46.6221 61.614 47.192L72.2972 55.9573C72.6657 56.26 72.8776 56.7021 72.8776 57.1682C72.8776 57.6351 72.6657 58.0772 72.2972 58.3799L61.614 67.1452C61.3035 67.4 60.923 67.5252 60.5453 67.5252Z" fill="black"/>
<path d="M46.218 74.0997C46.1047 74.0997 45.9904 74.0881 45.8753 74.065C44.9835 73.884 44.4123 73.0397 44.6002 72.1804L51.2583 41.7201C51.4463 40.8608 52.3215 40.3104 53.2142 40.4915C54.106 40.6726 54.6772 41.5159 54.4893 42.3761L47.8312 72.8364C47.6672 73.5857 46.9817 74.0997 46.218 74.0997Z" fill="black"/>
<path d="M88.9151 90.6947H11.0849C4.9731 90.6947 0 85.9037 0 80.0137V16.3624C0 10.4733 4.9731 5.6814 11.0849 5.6814H88.9151C95.0269 5.6814 100 10.4733 100 16.3624V80.0137C100 85.9037 95.0269 90.6947 88.9151 90.6947ZM11.0849 8.86298C6.79356 8.86298 3.30189 12.2274 3.30189 16.3624V80.0137C3.30189 84.1487 6.79356 87.5131 11.0849 87.5131H88.9151C93.2064 87.5131 96.6981 84.1487 96.6981 80.0137V16.3624C96.6981 12.2274 93.2064 8.86298 88.9151 8.86298H11.0849Z" fill="black"/>
<path d="M98.3491 31.1545H1.65094C0.738871 31.1545 0 30.4425 0 29.5637C0 28.6857 0.738871 27.9729 1.65094 27.9729H98.3491C99.2611 27.9729 100 28.6857 100 29.5637C100 30.4425 99.2611 31.1545 98.3491 31.1545Z" fill="black"/>
<path d="M28.208 23.5423C25.3281 23.5423 22.9834 21.283 22.9834 18.508C22.9834 15.7321 25.3281 13.4738 28.208 13.4738C31.0889 13.4738 33.4326 15.7321 33.4326 18.508C33.4326 21.283 31.0889 23.5423 28.208 23.5423ZM28.208 16.6553C27.1485 16.6553 26.2853 17.4862 26.2853 18.508C26.2853 19.5298 27.1485 20.3607 28.208 20.3607C29.2684 20.3607 30.1307 19.5298 30.1307 18.508C30.1307 17.4862 29.2684 16.6553 28.208 16.6553Z" fill="black"/>
<path d="M12.1553 23.4934C9.27441 23.4934 6.93066 21.2351 6.93066 18.4592C6.93066 15.6833 9.27441 13.4249 12.1553 13.4249C15.0361 13.4249 17.3799 15.6833 17.3799 18.4592C17.3799 21.2351 15.0361 23.4934 12.1553 23.4934ZM12.1553 16.6065C11.0958 16.6065 10.2326 17.4383 10.2326 18.4592C10.2326 19.4809 11.0958 20.3119 12.1553 20.3119C13.2157 20.3119 14.078 19.4809 14.078 18.4592C14.078 17.4383 13.2157 16.6065 12.1553 16.6065Z" fill="black"/>
<path d="M44.2608 23.5902C41.3809 23.5902 39.0371 21.3318 39.0371 18.556C39.0371 15.7809 41.3809 13.5226 44.2608 13.5226C47.1417 13.5226 49.4854 15.7809 49.4854 18.556C49.4854 21.3318 47.1417 23.5902 44.2608 23.5902ZM44.2608 16.7033C43.2013 16.7033 42.339 17.5342 42.339 18.556C42.339 19.5777 43.2013 20.4086 44.2608 20.4086C45.3212 20.4086 46.1835 19.5777 46.1835 18.556C46.1835 17.5342 45.3212 16.7033 44.2608 16.7033Z" fill="black"/>
</svg>
