<svg width="496" height="496" viewBox="0 0 496 496" fill="none" xmlns="http://www.w3.org/2000/svg">
<g clip-path="url(#clip0)">
<path d="M11 452.043C11 476.309 32.0078 496 57.4219 496H329.93C352.703 496 371.664 480.168 375.355 459.41C397.238 456 414 437.855 414 416.012V218H436.148C437.691 218.031 439.207 217.609 440.512 216.793L481.027 190.477C483.297 189.008 484.664 186.488 484.664 183.785C484.664 181.086 483.297 178.566 481.027 177.098L440.512 150.516C439.234 149.605 437.719 149.078 436.148 149H414V105.359C413.801 102.676 412.516 100.191 410.445 98.4727L318.219 4.51562C317.703 3.77734 317.07 3.1289 316.34 2.60156L316.09 2.36718C314.582 0.843747 312.523 -0.011722 310.383 -3.23667e-06H95.3984C72.625 -3.23667e-06 53.5 15.8359 49.8086 36.5898C27.9258 40 11 58.1445 11 79.9883V452.043ZM147 202V165H428V202H147ZM444 195.426V172.199L461.848 183.812L444 195.426ZM320 28.8164L386.34 97H330.691C327.914 97.0625 325.223 96.0195 323.219 94.0977C321.211 92.1758 320.055 89.5313 320 86.7539V28.8164ZM95.3984 16H304V86.7539C304.121 101.375 316.07 113.125 330.691 113H398V149H139.398C134.816 149.18 131.152 152.867 131 157.449V158.473L107.191 158H107.121C102.656 158.117 99.1055 161.781 99.1211 166.246L99.3711 201.066C99.4062 205.461 102.98 209.004 107.371 209H131V210.176C131 214.594 134.984 218 139.398 218H156.301L156.191 230C156.121 234.574 157.836 238.996 160.969 242.328C163.664 245.203 167.395 246.883 171.332 247H268.469C272.887 247 276.469 243.418 276.469 239C276.469 234.582 272.887 231 268.469 231H172.223C172.207 230 172.195 230.5 172.195 230.379L172.309 218H398V416.012C398 431.453 384.5 444 367.91 444H95.3984C78.8086 444 65 431.453 65 416.012V45.2266C65 44.8203 65.2617 44.4062 65.2617 43.9844C65.2852 43.6406 65.2852 43.2969 65.2617 42.9492C65.8477 27.9844 79.1836 16 95.3984 16V16ZM131 193H115.316L114.977 174.285L131 174.473V193ZM27 79.9883C27 67.1602 37 56.3281 49 53.0234V416.012C49 440.273 69.9883 460 95.3984 460H358.766C355.066 472 343.547 480 329.93 480H57.4219C40.832 480 27 467.484 27 452.043V79.9883Z" fill="white"/>
<path d="M107.461 284H238.992C243.41 284 246.992 280.418 246.992 276C246.992 271.582 243.41 268 238.992 268H107.461C103.039 268 99.4609 271.582 99.4609 276C99.4609 280.418 103.039 284 107.461 284Z" fill="white"/>
<path d="M107.461 323H336.371C340.793 323 344.371 319.418 344.371 315C344.371 310.582 340.793 307 336.371 307H107.461C103.039 307 99.4609 310.582 99.4609 315C99.4609 319.418 103.039 323 107.461 323V323Z" fill="white"/>
<path d="M107.461 362H336.371C340.793 362 344.371 358.418 344.371 354C344.371 349.582 340.793 346 336.371 346H107.461C103.039 346 99.4609 349.582 99.4609 354C99.4609 358.418 103.039 362 107.461 362V362Z" fill="white"/>
<path d="M107.461 401H336.371C340.793 401 344.371 397.418 344.371 393C344.371 388.582 340.793 385 336.371 385H107.461C103.039 385 99.4609 388.582 99.4609 393C99.4609 397.418 103.039 401 107.461 401V401Z" fill="white"/>
</g>
<defs>
<clipPath id="clip0">
<rect width="496" height="496" fill="white"/>
</clipPath>
</defs>
</svg>
