<svg width="150" height="155" viewBox="0 0 150 155" fill="none" xmlns="http://www.w3.org/2000/svg">
<g id="java-icon">
<circle id="Ellipse 2" cx="75" cy="80" r="75" fill="#465777"/>
<path id="Vector" d="M69.2574 27.7939C62.3264 32.6686 54.471 38.1937 50.2619 47.3347C42.9511 63.2825 65.2215 80.6782 66.1733 81.4109C66.3945 81.5811 66.6594 81.6661 66.9233 81.6661C67.2037 81.6661 67.4844 81.5703 67.7123 81.3792C68.1544 81.0095 68.2798 80.3814 68.0144 79.8699C67.9338 79.7146 59.9398 64.1872 60.2369 53.0479C60.3421 49.1681 65.7717 44.7668 71.5198 40.1071C76.7844 35.8391 82.7522 31.0019 86.2438 25.3432C93.9091 12.8873 85.3895 0.639365 85.3025 0.516904C84.9641 0.0417065 84.3395 -0.130267 83.8054 0.103816C83.2719 0.339364 82.9763 0.916222 83.0982 1.48663C83.1155 1.56779 84.7722 9.66723 80.1621 18.0119C78.263 21.4602 74.09 24.3951 69.2574 27.7939Z" fill="#DB380E"/>
<path id="Vector_2" d="M98.4584 33.2864C98.9474 32.9182 99.091 32.2464 98.7953 31.7102C98.4992 31.1741 97.8546 30.9377 97.2822 31.1551C96.1047 31.6027 68.4492 42.263 68.4492 55.1434C68.4492 64.0225 72.242 68.7129 75.0115 72.1383C76.0978 73.4819 77.0356 74.642 77.3447 75.6326C78.2148 78.487 76.1535 83.6462 75.2866 85.3935C75.0367 85.8956 75.1591 86.5044 75.5842 86.8712C75.8139 87.0695 76.1007 87.1703 76.3878 87.1703C76.6322 87.1703 76.8777 87.0977 77.0898 86.95C77.5653 86.6195 88.711 78.7392 86.7121 69.245C85.9674 65.6362 84.194 62.9994 82.6293 60.6727C80.2052 57.0677 78.4544 54.4637 81.1105 49.6544C84.2224 44.0446 98.3158 33.3931 98.4584 33.2864Z" fill="#DB380E"/>
<path id="Vector_3" d="M26.471 87.3741C25.997 88.7936 26.2208 90.2016 27.1176 91.4473C30.1155 95.6095 40.7348 97.9011 57.0204 97.9011C57.0213 97.9011 57.0219 97.9011 57.0225 97.9011C59.2291 97.9011 61.5588 97.8578 63.945 97.7722C89.9827 96.8403 99.6402 88.7285 100.039 88.3837C100.473 88.0078 100.589 87.3821 100.319 86.8758C100.049 86.3698 99.4668 86.1155 98.9104 86.2688C89.7402 88.7725 72.617 89.6614 60.74 89.6614C47.45 89.6614 40.6818 88.7039 39.0247 87.997C39.8749 86.8295 45.1191 84.7447 51.6175 83.4665C52.2386 83.3446 52.6654 82.771 52.6039 82.1411C52.5424 81.5112 52.0133 81.0308 51.3802 81.0308C47.571 81.0308 28.4679 81.3366 26.471 87.3741Z" fill="#73A1FB"/>
<path id="Vector_4" d="M113.597 79.0195C108.227 79.0195 103.134 81.7113 102.92 81.8253C102.423 82.0913 102.171 82.6609 102.307 83.2081C102.444 83.7545 102.935 84.1386 103.499 84.1392C103.613 84.1392 114.954 84.2321 115.982 90.7123C116.892 96.3027 105.25 105.361 100.688 108.38C100.195 108.706 100.004 109.335 100.233 109.88C100.428 110.344 100.879 110.634 101.366 110.634C101.451 110.634 101.537 110.625 101.623 110.607C102.705 110.376 128.109 104.777 125.423 89.9869C123.784 80.9224 118.087 79.0195 113.597 79.0195Z" fill="#73A1FB"/>
<path id="Vector_5" d="M96.1753 106.57C96.2637 106.096 96.0666 105.614 95.6722 105.337L89.5811 101.071C89.284 100.863 88.9087 100.797 88.5601 100.89C88.4965 100.906 82.1268 102.58 72.8789 103.607C69.2086 104.019 65.0976 104.236 60.9896 104.236C51.744 104.236 45.6989 103.15 44.8185 102.353C44.7019 102.129 44.7388 102.027 44.7596 101.971C44.9196 101.526 45.7768 100.998 46.3294 100.789C46.9396 100.563 47.2686 99.8999 47.0788 99.2777C46.8895 98.6545 46.2476 98.288 45.6142 98.4401C39.504 99.9146 36.5163 101.977 36.7337 104.568C37.1199 109.164 47.764 111.523 56.7626 112.146C58.0567 112.235 59.4562 112.279 60.9213 112.279C60.9222 112.279 60.9228 112.279 60.9237 112.279C75.8868 112.279 95.0693 107.585 95.2609 107.537C95.7294 107.423 96.0865 107.044 96.1753 106.57Z" fill="#73A1FB"/>
<path id="Vector_6" d="M50.2543 116.432C50.7157 116.132 50.9202 115.562 50.7565 115.037C50.5933 114.511 50.102 114.166 49.55 114.173C48.7312 114.195 41.5376 114.52 41.034 119.1C40.8816 120.468 41.2736 121.719 42.1997 122.816C44.7825 125.877 51.7546 127.697 63.5106 128.378C64.9013 128.462 66.314 128.504 67.71 128.504C82.6559 128.504 92.7218 123.824 93.1433 123.625C93.552 123.431 93.8216 123.03 93.8456 122.578C93.8696 122.127 93.6443 121.699 93.2588 121.463L85.561 116.764C85.2938 116.601 84.9742 116.547 84.6695 116.61C84.6208 116.62 79.7332 117.634 72.3571 118.635C70.9614 118.825 69.2136 118.921 67.1628 118.921C59.7946 118.921 51.599 117.718 50.0273 116.929C50.0044 116.782 50.0334 116.595 50.2543 116.432Z" fill="#73A1FB"/>
<path id="Vector_7" d="M60.7441 142.632C94.9788 142.603 113.353 136.515 116.893 132.684C118.146 131.329 118.281 130.046 118.175 129.207C117.912 127.145 116.033 125.882 115.82 125.745C115.306 125.415 114.616 125.501 114.215 125.963C113.816 126.426 113.806 127.101 114.208 127.563C114.423 127.841 114.548 128.306 113.917 128.938C112.502 130.259 98.2299 134.271 74.4668 135.476C71.2116 135.645 67.7973 135.732 64.3195 135.732C43.0431 135.732 27.4721 132.818 25.428 131.12C26.2158 129.988 31.7236 128.179 37.581 127.156C38.2411 127.041 38.6869 126.419 38.5847 125.757C38.4825 125.095 37.8722 124.639 37.2051 124.726C37.0399 124.748 36.4791 124.782 35.8299 124.822C26.1654 125.412 14.9971 126.727 14.4144 131.706C14.2374 133.224 14.6883 134.601 15.755 135.8C18.3651 138.733 25.8672 142.632 60.7429 142.632C60.7435 142.632 60.7435 142.632 60.7441 142.632Z" fill="#73A1FB"/>
<path id="Vector_8" d="M123.616 133.764C123.132 133.54 122.561 133.653 122.2 134.043C122.15 134.097 117.002 139.479 101.526 142.64C95.6017 143.827 84.4806 144.429 68.4719 144.429C52.4332 144.429 37.1715 143.798 37.0195 143.791C36.382 143.76 35.8368 144.224 35.75 144.851C35.663 145.478 36.0673 146.069 36.6829 146.216C36.8416 146.253 52.8358 150 74.7042 150C85.1928 150 95.3993 149.149 105.041 147.468C123.018 144.316 124.276 135.402 124.321 135.024C124.384 134.496 124.1 133.988 123.616 133.764Z" fill="#73A1FB"/>
</g>
</svg>
