<svg width="935" height="691" viewBox="0 0 935 691" fill="none" xmlns="http://www.w3.org/2000/svg">
<g id="index-image" clip-path="url(#clip0)">
<path id="eletric-wire" d="M674.9 85.4723C674.9 85.4723 619.725 68.444 616.08 116.879C612.434 165.314 630.662 245.089 616.08 270.73C601.498 296.372 549.464 333.42 576.848 336.739C604.232 340.059 617.902 344.807 609.7 361.902C601.498 378.997 558.663 395.141 567.777 407.488C576.891 419.834 581.447 435.029 572.334 450.224C563.22 465.419 531.322 474.916 536.79 485.363C542.258 495.81 562.309 501.508 552.283 512.905C542.258 524.301 513.196 550.224 524.538 550.084" stroke="#535461" stroke-width="3" stroke-miterlimit="10"/>
<path id="Vector" d="M858.432 353.37C858.432 353.37 823.14 346.014 813.729 336.207C804.318 326.401 761.968 309.238 757.262 321.497C752.557 333.756 693.737 375.435 733.734 382.79C773.732 390.145 827.846 392.597 839.61 387.694C851.374 382.79 858.432 353.37 858.432 353.37Z" fill="#A8A8A8"/>
<path id="Vector_2" opacity="0.2" d="M733.735 378.236C773.732 385.592 827.846 388.043 839.61 383.14C848.569 379.406 854.794 361.464 857.256 353.114C858.001 353.279 858.433 353.369 858.433 353.369C858.433 353.369 851.374 382.791 839.61 387.694C827.846 392.598 773.732 390.146 733.735 382.791C722.189 380.667 718.887 375.681 720.131 369.371C721.118 373.488 725.141 376.656 733.735 378.236Z" fill="black"/>
<path id="Vector_3" d="M883.502 69.2694C883.502 69.2694 892.372 83.1339 890.471 89.7361C888.571 96.3382 911.379 92.377 911.379 92.377C911.379 92.377 912.013 66.6286 916.448 60.6866C920.883 54.7447 883.502 69.2694 883.502 69.2694Z" fill="#CEA086"/>
<path id="Vector_4" d="M806.207 326.754C806.207 326.754 789.101 337.977 782.132 334.676C775.162 331.375 772.628 336.657 774.529 338.637C776.43 340.618 817.612 357.784 827.115 355.143C836.618 352.502 831.785 330.875 831.785 330.875L806.207 326.754Z" fill="#535461"/>
<path id="Vector_5" d="M896.808 374.949C896.808 374.949 892.689 393.105 878.434 392.775C878.434 392.775 856.892 390.794 865.129 398.717C873.365 406.639 921.517 407.96 921.517 407.96C921.517 407.96 921.517 380.891 912.647 374.949C903.777 369.007 896.808 374.949 896.808 374.949Z" fill="#535461"/>
<path id="tool" d="M829.773 35.8408L693.966 80.0587L696.412 88.2171L832.219 43.9992L829.773 35.8408Z" fill="#1B4965"/>
<path id="Vector_6" d="M870.831 246.867L872.732 293.082C872.732 293.082 872.732 314.869 879.701 324.773C886.67 334.676 894.906 384.192 894.906 384.192H918.982C918.982 384.192 912.013 317.51 906.311 309.588C906.311 309.588 903.776 250.829 912.646 237.624L870.831 246.867Z" fill="#575988"/>
<path id="Vector_7" opacity="0.1" d="M870.831 246.867L872.732 293.082C872.732 293.082 872.732 314.869 879.701 324.773C886.67 334.676 894.906 384.192 894.906 384.192H918.982C918.982 384.192 912.013 317.51 906.311 309.588C906.311 309.588 903.776 250.829 912.646 237.624L870.831 246.867Z" fill="black"/>
<path id="Vector_8" d="M920.882 205.274C920.882 205.274 935.454 241.586 908.844 252.149C882.234 262.712 834.083 261.392 834.083 261.392L831.548 337.977C831.548 337.977 801.771 341.938 801.137 332.035V248.188C801.137 248.188 801.771 238.945 821.411 231.022C841.052 223.1 867.662 219.138 867.662 219.138L868.929 201.973L920.882 205.274Z" fill="#575988"/>
<path id="Vector_9" opacity="0.1" d="M897.536 85.6531C902.596 85.0702 907.715 85.8245 912.422 87.8463C916.305 89.5486 920.038 92.224 920.884 96.3384C921.886 101.211 920.776 112.139 919.501 121.384C917.461 135.879 917.201 150.587 918.728 165.151C919.382 171.216 920.283 176.505 921.518 178.865C925.319 186.128 929.121 220.459 929.121 220.459C929.121 220.459 887.305 203.953 866.397 213.857C866.397 213.857 863.546 146.185 863.229 124.067C862.984 106.942 883.82 87.4255 890.79 86.7653C894.874 86.3784 893.477 86.092 897.536 85.6531Z" fill="black"/>
<path id="Vector_10" d="M897.536 84.3326C902.596 83.7497 907.715 84.504 912.422 86.5258C916.305 88.2281 920.038 90.9035 920.884 95.0179C921.886 99.8907 920.776 110.819 919.501 120.063C917.461 134.559 917.201 149.266 918.728 163.83C919.222 168.487 920.156 173.08 921.518 177.545C924.369 186.458 929.121 219.138 929.121 219.138C929.121 219.138 887.305 202.633 866.397 212.536C866.397 212.536 863.546 144.864 863.229 122.747C862.984 105.621 883.82 86.105 890.79 85.4448C894.874 85.0579 893.477 84.7715 897.536 84.3326Z" fill="#0077B6"/>
<g id="boy-arm">
<path id="Vector_11" d="M824.897 78.1825C824.897 78.1825 806.524 62.3374 807.157 56.3955C807.157 56.3955 793.219 28.6665 788.15 42.531C783.082 56.3955 797.654 70.9202 797.654 70.9202L815.394 95.3481L824.897 78.1825Z" fill="#CEA086"/>
<path id="Vector_12" d="M908.845 119.446L857.526 116.805C857.526 116.805 817.611 104.261 806.207 90.3964C806.207 90.3964 806.84 65.9684 819.511 64.648L849.484 87.5521C854.724 91.5561 860.999 93.8237 867.492 94.0598L912.013 95.6781C912.013 95.6781 921.516 107.562 908.845 119.446Z" fill="#0077B6"/>
<path id="Vector_13" opacity="0.1" d="M908.846 120.766L863.863 118.125C863.863 118.125 861 95.1441 867.494 95.3801L912.014 96.9984C912.014 96.9984 921.518 108.882 908.846 120.766Z" fill="black"/>
</g>
<path id="Vector_14" opacity="0.1" d="M911.063 72.2404C911.816 65.9797 914.54 63.9031 916.448 61.3468C920.883 55.4049 883.502 69.9297 883.502 69.9297C885.429 73.024 887.119 76.2721 888.555 79.6438C891.54 81.0761 894.788 81.8164 898.074 81.8136C903.586 81.8136 907.12 75.6311 911.063 72.2404Z" fill="black"/>
<path id="Vector_15" d="M898.074 81.1532C910.671 81.1532 920.883 70.512 920.883 57.3855C920.883 44.2589 910.671 33.6177 898.074 33.6177C885.477 33.6177 875.266 44.2589 875.266 57.3855C875.266 70.512 885.477 81.1532 898.074 81.1532Z" fill="#CEA086"/>
<path id="Vector_16" opacity="0.1" d="M884.408 44.5126C881.979 41.7483 880.812 38.0603 879.71 34.4924L877.184 26.3145C880.619 28.4293 884.281 23.6627 888.22 23.0055C891.041 22.5348 893.706 24.2526 896.304 25.4908C907.581 30.8658 922.273 28.1984 931.355 36.9978C932.596 38.1168 933.557 39.5327 934.156 41.1241C934.579 42.6339 934.751 44.2079 934.665 45.778C934.738 49.945 934.339 54.1064 933.478 58.1762C931.321 67.2825 925.555 74.9235 919.939 82.254C918.873 83.6468 917.676 85.1274 916.007 85.5158C912.746 86.2745 910.224 82.6023 908.962 79.3793C907.291 75.1102 906.059 70.6687 905.286 66.1291C905.09 64.1875 904.581 62.2943 903.781 60.5291C901.818 56.9024 896.978 53.4706 894.036 50.6613C891.144 47.9001 887.111 47.5878 884.408 44.5126Z" fill="black"/>
<path id="Vector_17" d="M883.497 44.5126C881.068 41.7483 879.901 38.0603 878.799 34.4924L876.273 26.3145C879.707 28.4293 883.37 23.6628 887.309 23.0055C890.13 22.5348 892.795 24.2526 895.393 25.4908C906.67 30.8658 921.362 28.1984 930.444 36.9978C931.684 38.1168 932.646 39.5327 933.245 41.1241C933.668 42.6339 933.84 44.2079 933.754 45.778C933.827 49.945 933.428 54.1064 932.567 58.1762C930.41 67.2825 924.644 74.9235 919.028 82.254C917.962 83.6468 916.764 85.1274 915.095 85.5158C911.835 86.2745 909.313 82.6023 908.051 79.3793C906.38 75.1102 905.148 70.6687 904.375 66.1291C904.179 64.1875 903.67 62.2943 902.87 60.5291C900.907 56.9024 896.067 53.4706 893.125 50.6613C890.233 47.9001 886.2 47.5877 883.497 44.5126Z" fill="#632652"/>
<path id="Vector_18" d="M904.094 64.3179C905.143 64.3179 905.994 62.3965 905.994 60.0265C905.994 57.6564 905.143 55.735 904.094 55.735C903.044 55.735 902.193 57.6564 902.193 60.0265C902.193 62.3965 903.044 64.3179 904.094 64.3179Z" fill="#CEA086"/>
<path id="Vector_19" opacity="0.1" d="M915.496 174.574C915.496 174.574 914.229 178.535 907.893 177.875C901.558 177.215 883.185 175.894 883.185 177.875" fill="black"/>
<path id="Vector_20" opacity="0.5" d="M865.128 398.057C864.258 397.357 863.614 396.395 863.285 395.302C863.119 396.16 863.628 397.273 865.128 398.717C873.365 406.639 921.516 407.96 921.516 407.96C921.516 407.96 921.516 407.726 921.509 407.299C921.205 407.291 873.339 405.954 865.128 398.057Z" fill="white"/>
<path id="Vector_21" opacity="0.5" d="M827.114 353.822C817.611 356.463 776.429 339.298 774.528 337.317C774.274 337.049 774.092 336.716 774.001 336.352C773.891 336.748 773.881 337.167 773.974 337.567C774.066 337.968 774.257 338.337 774.528 338.637C776.429 340.618 817.611 357.784 827.114 355.143C832.006 353.783 833.096 347.396 833.005 341.515C832.912 346.999 831.641 352.564 827.114 353.822Z" fill="white"/>
<path id="Vector_22" d="M401.906 485.363C401.906 485.363 423.779 527.15 478.461 515.754C533.144 504.357 506.714 621.171 506.714 621.171C506.714 621.171 497.767 676.895 504.063 676.574" stroke="#535461" stroke-width="3" stroke-miterlimit="10"/>
<g id="elo-1">
<path id="Vector_23" d="M611.148 11.1252C606.134 16.1572 606.108 24.308 611.089 29.3724L692.577 112.223L710.818 93.916L629.448 11.1848C624.421 6.07339 616.208 6.04676 611.148 11.1252Z" fill="#8E8391"/>
<path id="Vector_24" d="M611.577 10.7212C611.741 10.8708 611.9 11.0253 612.054 11.185L702.131 102.633L710.817 93.9153L629.447 11.185C624.557 6.21257 616.661 6.05281 611.577 10.7212Z" fill="#766D78"/>
</g>
<g id="elo-2">
<path id="Vector_25" d="M629.946 28.9046L611.705 10.5974L550.374 72.1492C545.337 77.2044 545.337 85.4011 550.374 90.4564C555.411 95.5116 563.579 95.5116 568.616 90.4564L629.946 28.9046Z" fill="#8E8391"/>
<path id="Vector_26" d="M550.796 90.8582C553.255 93.1176 556.372 94.2447 559.492 94.2447C562.797 94.2447 566.097 92.983 568.616 90.4544L629.949 28.9051L621.546 20.4717L551.223 90.4544C551.084 90.5939 550.94 90.7284 550.796 90.8582Z" fill="#766D78"/>
</g>
<g id="claw">
<path id="Vector_27" d="M520.679 142.728C522.719 141.027 519.189 143.93 546.629 121.414V91.5315H571.779V121.414C600.067 144.357 598.287 142.848 598.924 143.575C600.169 144.998 600.873 146.839 600.873 148.759V178.32C600.873 180.648 599.841 182.861 598.058 184.351L580.373 199.129C578.909 200.348 577.136 200.944 575.375 200.944C573.133 200.944 570.908 199.982 569.36 198.119C566.597 194.787 567.05 189.839 570.365 187.066L585.236 174.642V152.436L574.629 143.575H544.113L533.501 152.436V174.642L548.377 187.066C551.692 189.839 552.145 194.787 549.383 198.119C547.835 199.982 545.609 200.944 543.368 200.944C541.606 200.944 539.828 200.348 538.369 199.129L520.684 184.351C518.896 182.861 517.864 180.648 517.864 178.32V148.759C517.864 146.431 518.896 144.219 520.679 142.728Z" fill="#8E8391"/>
<path id="Vector_28" d="M590.106 148.761V178.322C590.106 180.646 589.072 182.86 587.293 184.351L570 198.8C571.491 200.216 573.429 200.944 575.377 200.944C577.136 200.944 578.91 200.351 580.371 199.129L598.057 184.351C599.841 182.86 600.875 180.646 600.875 178.322V148.761C600.875 146.841 600.169 144.996 598.922 143.575C598.313 142.872 600.028 144.325 571.779 121.416V91.5315H561.01V121.416L587.293 142.727C587.602 142.991 587.89 143.27 588.158 143.575C589.4 144.996 590.106 146.841 590.106 148.761Z" fill="#766D78"/>
</g>
<path id="Vector_29" d="M714.266 92.6049H688.468V231.576H714.266V92.6049Z" fill="#8E8391"/>
<path id="Vector_30" d="M714.268 92.6038H696.875V231.577H714.268V92.6038Z" fill="#766D78"/>
<path id="Vector_31" d="M660.234 240.046H742.498V219.215C742.498 210.797 735.698 203.974 727.311 203.974H675.422C667.034 203.974 660.235 210.797 660.235 219.215V240.046H660.234Z" fill="#655E67"/>
<g id="vertice-1">
<path id="Vector_32" d="M701.365 122.781C690.335 122.781 681.393 113.807 681.393 102.737C681.393 91.6665 690.335 82.6924 701.365 82.6924C712.396 82.6924 721.337 91.6665 721.337 102.737C721.337 113.807 712.396 122.781 701.365 122.781Z" fill="#655E67"/>
<path id="Vector_33" d="M692.67 120.787C695.299 122.064 698.25 122.782 701.366 122.782C712.398 122.782 721.338 113.805 721.338 102.738C721.338 91.6661 712.398 82.6938 701.366 82.6938C698.25 82.6938 695.299 83.4117 692.67 84.6889C699.343 87.9306 703.945 94.793 703.945 102.738C703.945 110.678 699.344 117.545 692.67 120.787Z" fill="#544F56"/>
<path id="Vector_34" d="M701.367 107.993C704.255 107.993 706.604 105.635 706.604 102.737C706.604 99.8381 704.255 97.4804 701.367 97.4804C698.479 97.4804 696.129 99.8381 696.129 102.737C696.129 105.635 698.479 107.993 701.367 107.993Z" fill="#444145"/>
</g>
<g id="vertice-2">
<path id="Vector_35" d="M619.989 45.4588C607.518 45.4588 597.408 35.3123 597.408 22.7959C597.408 10.2796 607.518 0.133057 619.989 0.133057C632.461 0.133057 642.571 10.2796 642.571 22.7959C642.571 35.3123 632.461 45.4588 619.989 45.4588Z" fill="#655E67"/>
<path id="Vector_36" d="M611.294 43.7179C613.973 44.8401 616.91 45.4583 619.991 45.4583C632.459 45.4583 642.572 35.314 642.572 22.7959C642.572 10.2774 632.459 0.133057 619.991 0.133057C616.91 0.133057 613.973 0.751285 611.294 1.87349C619.449 5.2948 625.179 13.3744 625.179 22.7955C625.179 32.217 619.449 40.2961 611.294 43.7179Z" fill="#544F56"/>
<path id="Vector_37" d="M619.988 28.0521C622.876 28.0521 625.226 25.6944 625.226 22.796C625.226 19.8975 622.876 17.5398 619.988 17.5398C617.1 17.5398 614.751 19.8975 614.751 22.796C614.751 25.6944 617.1 28.0521 619.988 28.0521Z" fill="#444145"/>
</g>
<g id="vertice-3">
<path id="Vector_38" d="M559.366 102.459C548.336 102.459 539.394 93.4847 539.394 82.4146C539.394 71.3444 548.336 62.3703 559.366 62.3703C570.396 62.3703 579.338 71.3444 579.338 82.4146C579.338 93.4847 570.396 102.459 559.366 102.459Z" fill="#655E67"/>
<path id="Vector_39" d="M550.667 100.464C553.296 101.741 556.247 102.459 559.368 102.459C570.395 102.459 579.34 93.487 579.34 82.415C579.34 71.343 570.395 62.3707 559.368 62.3707C556.247 62.3707 553.295 63.0887 550.667 64.3658C557.341 67.6075 561.947 74.47 561.947 82.415C561.947 90.36 557.341 97.222 550.667 100.464Z" fill="#544F56"/>
<path id="Vector_40" d="M559.367 87.6708C562.255 87.6708 564.604 85.3131 564.604 82.4146C564.604 79.5162 562.255 77.1585 559.367 77.1585C556.479 77.1585 554.129 79.5162 554.129 82.4146C554.129 85.3126 556.479 87.6708 559.367 87.6708Z" fill="#444145"/>
</g>
<path id="Vector_41" d="M709.919 203.972C718.307 203.972 725.105 210.799 725.105 219.213V240.045H742.499V219.213C742.499 210.799 735.7 203.972 727.312 203.972H709.919Z" fill="#544F56"/>
<path id="Vector_42" d="M644.198 248.005H758.25C761.153 248.005 763.505 245.644 763.505 242.731C763.505 233.391 755.961 225.82 746.655 225.82H656.078C646.772 225.82 639.228 233.391 639.228 242.731V243.018C639.228 245.773 641.453 248.005 644.198 248.005Z" fill="#544F56"/>
<path id="Vector_43" d="M740.86 248.006H758.253C761.155 248.006 763.505 245.646 763.505 242.734C763.505 238.061 761.622 233.837 758.571 230.774C755.519 227.717 751.305 225.821 746.654 225.821H729.261C733.912 225.821 738.126 227.717 741.178 230.774C744.229 233.836 746.112 238.061 746.112 242.734C746.112 245.646 743.762 248.006 740.86 248.006Z" fill="#444145"/>
<g id="blocks-1">
<path id="Vector_44" opacity="0.2" d="M546.522 208.916H509.929V227.511H546.522V208.916Z" fill="#6DA5C2"/>
<path id="Vector_45" opacity="0.2" d="M572.559 230.266H535.966V248.86H572.559V230.266Z" fill="#6DA5C2"/>
<path id="Vector_46" opacity="0.2" d="M502.188 210.294H465.595V228.888H502.188V210.294Z" fill="#6DA5C2"/>
<path id="Vector_47" opacity="0.2" d="M619.708 251.615H583.115V270.21H619.708V251.615Z" fill="#6DA5C2"/>
<path id="Vector_48" opacity="0.2" d="M575.374 252.992H538.781V271.587H575.374V252.992Z" fill="#6DA5C2"/>
<path id="Vector_49" opacity="0.2" d="M528.226 231.643H491.633V250.238H528.226V231.643Z" fill="#6DA5C2"/>
</g>
<g id="blocks-6">
<path id="Vector_50" opacity="0.2" d="M573.966 343.9H537.374V362.494H573.966V343.9Z" fill="#6DA5C2"/>
<path id="Vector_51" opacity="0.2" d="M576.781 366.626H540.188V385.221H576.781V366.626Z" fill="#6DA5C2"/>
<path id="Vector_52" opacity="0.2" d="M617.597 394.863H581.004V413.457H617.597V394.863Z" fill="#6DA5C2"/>
<path id="Vector_53" opacity="0.2" d="M573.263 396.24H536.67V414.835H573.263V396.24Z" fill="#6DA5C2"/>
</g>
<path id="Vector_54" d="M92.0098 339.079C92.0098 339.079 143.585 389.553 114.472 464.421C85.3597 539.288 164.372 663.893 164.372 663.893C164.372 663.893 163.528 663.769 161.958 663.501C56.0361 645.202 3.40569 526.644 62.3343 438.595C84.2056 405.82 102.178 367.412 92.0098 339.079Z" fill="#6DA5C2"/>
<path id="Vector_55" d="M92.0102 339.079C92.0102 339.079 121.123 400.951 92.0102 451.418C62.8977 501.885 87.0209 643.563 164.38 663.893" stroke="#535461" stroke-width="2" stroke-miterlimit="10"/>
<path id="Vector_56" d="M0.148438 543.221C0.148438 543.221 58.9997 534.047 64.3619 585.665C69.7242 637.282 177.532 644.438 177.532 644.438C177.532 644.438 176.829 644.906 175.513 645.753C86.5006 702.914 1.41511 682.178 14.2437 606.25C19.0079 578.02 18.6138 549.667 0.148438 543.221Z" fill="#6DA5C2"/>
<path id="Vector_57" opacity="0.2" d="M0.148438 543.221C0.148438 543.221 58.9997 534.047 64.3619 585.665C69.7242 637.282 177.532 644.438 177.532 644.438C177.532 644.438 176.829 644.906 175.513 645.753C86.5006 702.914 1.41511 682.178 14.2437 606.25C19.0079 578.02 18.6138 549.667 0.148438 543.221Z" fill="#F5F5F5"/>
<path id="Vector_58" d="M0.148438 543.221C0.148438 543.221 45.8262 553.034 42.0754 593.681C38.3247 634.328 109.913 683.08 177.532 644.438" stroke="#535461" stroke-width="2" stroke-miterlimit="10"/>
<g id="blocks-4">
<path id="Vector_59" opacity="0.2" d="M37.0363 344.588H0.443359V363.183H37.0363V344.588Z" fill="#6DA5C2"/>
<path id="Vector_60" opacity="0.2" d="M63.0734 365.938H26.4805V384.532H63.0734V365.938Z" fill="#6DA5C2"/>
<path id="Vector_61" opacity="0.2" d="M65.8883 388.665H29.2954V407.259H65.8883V388.665Z" fill="#6DA5C2"/>
</g>
<g id="blocks-2">
<path id="Vector_62" opacity="0.2" d="M260.816 149H224.223V167.595H260.816V149Z" fill="#6DA5C2"/>
<path id="Vector_63" opacity="0.2" d="M286.853 170.349H250.26V188.944H286.853V170.349Z" fill="#6DA5C2"/>
</g>
<g id="blocks-3">
<path id="Vector_64" opacity="0.2" d="M153.148 296.38H116.555V314.975H153.148V296.38Z" fill="#6DA5C2"/>
<path id="Vector_65" opacity="0.2" d="M179.186 317.729H142.593V336.324H179.186V317.729Z" fill="#6DA5C2"/>
<path id="Vector_66" opacity="0.2" d="M247.593 306H211V324.595H247.593V306Z" fill="#6DA5C2"/>
<path id="Vector_67" opacity="0.2" d="M182.001 340.456H145.408V359.051H182.001V340.456Z" fill="#6DA5C2"/>
</g>
<g id="blocks-5">
<path id="Vector_68" opacity="0.2" d="M549.337 492H512.744V510.595H549.337V492Z" fill="#6DA5C2"/>
<path id="Vector_69" opacity="0.2" d="M598.596 491.968H562.003V510.563H598.596V491.968Z" fill="#6DA5C2"/>
</g>
<path id="Vector_70" d="M507.128 418.354C504.759 405.449 503.306 392.4 502.779 379.298C502.311 368.509 498.445 358.125 491.71 349.571C484.974 341.016 475.7 334.71 465.159 331.517C461.317 330.36 457.087 329.279 452.415 328.308C411.459 319.795 399.017 327.226 397.603 328.204C396.405 326.073 395.363 323.862 394.485 321.586C394.415 321.352 394.352 321.118 394.281 320.897C402.387 312.438 407.326 301.54 408.292 289.982C415.125 283.205 419.115 275.024 419.115 266.215C419.115 258.64 416.16 251.532 410.987 245.382V233.413C410.987 219.61 405.384 206.372 395.411 196.612C385.438 186.852 371.912 181.368 357.808 181.368H353.494C346.511 181.368 339.595 182.715 333.143 185.33C326.691 187.946 320.829 191.779 315.891 196.612C310.953 201.445 307.035 207.182 304.363 213.496C301.69 219.811 300.315 226.578 300.315 233.413V246.312C295.621 252.242 292.961 259.012 292.961 266.201C292.961 274.824 296.789 282.84 303.362 289.534C304.26 301.516 309.425 312.81 317.957 321.448C318.245 323.404 318.541 325.505 318.83 327.722L245.573 342.867C245.573 342.867 217.326 344.003 199.129 380.745C183.738 411.867 153.113 491.824 144.042 515.625C142.403 519.936 141.474 522.408 141.474 522.408C141.474 522.408 141.776 522.112 142.346 521.603L141.474 523.924C141.474 523.924 141.917 523.483 142.761 522.76C141.481 532.718 141.298 549.818 154.626 551.946C165.801 553.73 194.597 554.467 216.348 554.763H217.854C232.273 554.949 243.244 554.949 243.244 554.949V554.763H477.185V552.415C477.188 550.285 476.75 548.176 475.897 546.216L476.221 545.831C477.473 547.449 478.306 549.339 478.649 551.34C478.622 551.535 478.584 551.728 478.536 551.919L478.677 551.568C478.732 552.193 478.685 552.823 478.536 553.434C478.536 553.434 508.55 477.754 508.226 432.562C508.312 427.803 507.944 423.046 507.128 418.354ZM320.047 337.949C319.659 335.79 319.41 333.61 319.301 331.421C319.301 331.421 319.301 331.379 319.301 331.359C319.561 333.487 319.815 335.69 320.047 337.949ZM229.114 500.508V518.545L217.573 520.962L229.114 500.508Z" fill="url(#paint0_linear)"/>
<path id="Vector_71" d="M354.465 188.648C368.569 188.648 382.096 194.131 392.069 203.891C402.042 213.652 407.645 226.889 407.645 240.692V262.896H301.286V240.692C301.286 226.889 306.889 213.652 316.862 203.891C326.835 194.131 340.361 188.648 354.465 188.648Z" fill="#E14B5A"/>
<path id="Vector_72" d="M354.838 310.939C388.316 310.939 415.456 292.688 415.456 270.175C415.456 247.662 388.316 229.412 354.838 229.412C321.36 229.412 294.221 247.662 294.221 270.175C294.221 292.688 321.36 310.939 354.838 310.939Z" fill="#E14B5A"/>
<path id="Vector_73" d="M315.98 309.665C315.98 309.665 328.647 374.45 315.98 391.922C303.313 409.394 354.684 416.309 354.684 416.309L407.856 397.383L415.294 350.793C415.294 350.793 382.924 332.956 389.63 296.924L315.98 309.665Z" fill="#F7C4A7"/>
<path id="Vector_74" d="M472.921 528.049C472.921 528.049 476.271 542.243 458.045 544.791C447.283 546.34 436.339 546.212 425.618 544.412L421.6 508.759H463.998L472.921 528.049Z" fill="#F7C4A7"/>
<path id="Vector_75" d="M151.087 509.881C151.087 509.881 143.036 541.898 161.262 544.791C179.488 547.683 246.411 547.704 246.411 547.704V509.826L216.109 516.162L187.665 489.468L151.087 509.881Z" fill="#F7C4A7"/>
<path id="Vector_76" opacity="0.1" d="M319.892 330.594L248.67 345.332C248.67 345.332 221.521 346.427 204.041 381.729C186.561 417.032 148.624 517.856 148.624 517.856C148.624 517.856 180.994 485.825 218.917 520.039L244.208 475.274L238.628 546.251H434.597V512.76C434.597 512.76 475.504 534.233 472.534 546.244C472.534 546.244 507.543 457.968 499.979 417.851C497.701 405.45 496.305 392.908 495.799 380.318C495.352 369.948 491.637 359.968 485.163 351.747C478.689 343.526 469.774 337.467 459.642 334.403C455.955 333.294 451.901 332.254 447.397 331.324C405.372 322.592 394.619 331.324 394.619 331.324C394.619 331.324 386.477 357.246 386.625 368.996C386.808 384.099 364.683 394.112 364.683 394.112C364.683 394.112 331.954 386.468 330.469 380.283C328.984 374.099 317.275 337.874 319.892 330.594Z" fill="black"/>
<path id="Vector_77" d="M319.892 329.141L248.67 343.879C248.67 343.879 221.521 344.974 204.04 380.276C186.56 415.579 148.616 516.417 148.616 516.417C148.616 516.417 180.987 484.386 218.91 518.6L244.201 473.835L238.621 544.791H434.597V511.307C434.597 511.307 475.503 532.78 472.534 544.791C472.534 544.791 507.543 456.514 499.978 416.398C497.701 403.996 496.304 391.455 495.798 378.864C495.352 368.495 491.636 358.514 485.163 350.294C478.689 342.073 469.774 336.014 459.642 332.949C455.954 331.841 451.901 330.801 447.397 329.871C405.372 321.138 394.619 329.871 394.619 329.871C394.619 329.871 386.477 355.793 386.625 367.542C386.808 382.645 364.683 392.659 364.683 392.659C364.683 392.659 331.954 385.014 330.469 378.83C328.984 372.646 317.274 336.42 319.892 329.141Z" fill="#0077B6"/>
<path id="Vector_78" opacity="0.1" d="M392.67 326.049C389.678 317.759 389.007 308.838 390.727 300.209L317.077 312.943C317.077 312.943 318.14 318.39 319.343 326.551C324.102 331.384 329.815 335.219 336.136 337.823C342.456 340.427 349.252 341.745 356.11 341.698C362.967 341.651 369.743 340.24 376.026 337.549C382.309 334.859 387.966 330.946 392.656 326.049H392.67Z" fill="black"/>
<path id="Vector_79" d="M405.231 288.921C405.173 301.909 399.902 314.355 390.555 323.574C381.207 332.793 368.531 338.048 355.261 338.205C341.991 338.363 329.189 333.41 319.616 324.414C310.043 315.419 304.466 303.102 304.087 290.12C304.087 289.72 304.087 289.321 304.087 288.921C304.085 279.653 306.741 270.57 311.753 262.706C316.766 254.842 323.933 248.513 332.439 244.439C333.955 243.713 335.512 243.061 337.112 242.483C345.433 239.49 354.407 238.673 363.149 240.114C374.353 241.981 384.587 247.489 392.198 255.749C399.809 264.009 404.354 274.538 405.097 285.636C405.187 286.724 405.231 287.819 405.231 288.921Z" fill="#F7C4A7"/>
<g id="Group" opacity="0.1">
<path id="Vector_80" opacity="0.1" d="M337.035 243.647L337.105 243.605C335.505 244.184 333.948 244.836 332.432 245.561C323.926 249.635 316.759 255.965 311.746 263.829C306.734 271.692 304.078 280.775 304.08 290.044C304.08 290.443 304.08 290.843 304.08 291.242C305.653 291.201 307.199 290.837 308.619 290.175C320.948 284.541 328.323 267.31 331.25 255.293C332.306 250.988 333.298 246.14 337.035 243.647Z" fill="black"/>
<path id="Vector_81" opacity="0.1" d="M375.746 245.031C371.742 243.231 367.514 241.955 363.17 241.236C366.733 242.039 369.914 243.995 372.199 246.787C373.319 248.278 374.247 249.897 374.965 251.608C368.233 248.728 360.943 247.313 353.598 247.462C346.253 247.61 339.029 249.319 332.425 252.469C335.599 259.28 345.444 262.992 352.017 265.478C359.213 268.196 366.485 270.683 373.832 272.937L367.329 267.772L382.016 270.058C382.174 267.198 381.826 264.332 380.988 261.587C383.803 263.805 387.533 264.549 390.587 266.408C396.308 269.941 398.694 276.738 401.811 282.627C402.634 284.183 403.606 285.774 405.09 286.759C404.49 277.863 401.447 269.29 396.282 261.945C391.117 254.601 384.022 248.757 375.746 245.031Z" fill="black"/>
</g>
<path id="Vector_82" d="M337.035 242.524L337.105 242.483C335.505 243.061 333.948 243.713 332.432 244.439C323.926 248.513 316.759 254.842 311.746 262.706C306.734 270.57 304.078 279.653 304.08 288.921C304.08 289.321 304.08 289.72 304.08 290.12C305.653 290.078 307.199 289.714 308.619 289.052C320.948 283.419 328.323 266.188 331.25 254.17C332.306 249.893 333.298 245.024 337.035 242.524Z" fill="#632652"/>
<path id="Vector_83" d="M375.746 243.915C371.742 242.116 367.514 240.84 363.17 240.121C366.733 240.923 369.914 242.879 372.199 245.672C373.319 247.162 374.247 248.781 374.965 250.492C368.233 247.612 360.943 246.197 353.598 246.346C346.253 246.495 339.029 248.203 332.425 251.353C335.599 258.164 345.444 261.876 352.017 264.363C359.213 267.081 366.485 269.567 373.832 271.821L367.329 266.656L382.016 268.942C382.174 266.082 381.826 263.216 380.988 260.472C383.803 262.689 387.533 263.433 390.587 265.292C396.308 268.825 398.694 275.623 401.811 281.511C402.634 283.068 403.606 284.658 405.09 285.643C404.49 276.747 401.447 268.174 396.282 260.83C391.117 253.485 384.022 247.642 375.746 243.915Z" fill="#632652"/>
<path id="Vector_84" opacity="0.1" d="M298.31 280.76C298.31 280.76 350.384 217.401 410.629 280.76L405.421 266.566C405.421 266.566 377.153 226.168 357.076 234.887C337 243.606 317.282 249.811 317.282 249.811L298.31 280.76Z" fill="black"/>
<path id="Vector_85" d="M298.31 279.638C298.31 279.638 350.384 216.278 410.629 279.638L405.421 265.444C405.421 265.444 377.153 225.045 357.076 233.764C337 242.483 317.282 248.688 317.282 248.688L298.31 279.638Z" fill="#E14B5A"/>
<path id="Vector_86" opacity="0.1" d="M255.538 416.13C255.538 416.13 244.384 445.247 260 471.452C275.615 497.657 246.242 508.579 246.242 508.579" fill="black"/>
<path id="Vector_87" opacity="0.1" d="M436.286 389.925C436.286 389.925 455.624 413.946 442.978 435.42C430.333 456.893 431.079 508.579 431.079 508.579" fill="black"/>
<path id="Vector_88" d="M238.431 530.053H453.393C458.128 530.053 462.669 531.894 466.017 535.17C469.365 538.447 471.246 542.891 471.246 547.525H220.585C220.585 542.892 222.465 538.449 225.812 535.173C229.158 531.896 233.697 530.055 238.431 530.053Z" fill="#535461"/>
<path id="Vector_89" d="M260.302 409.938H431.529C435.133 409.938 438.702 410.633 442.031 411.983C445.361 413.333 448.387 415.311 450.935 417.805C453.483 420.299 455.505 423.26 456.884 426.519C458.263 429.777 458.973 433.27 458.973 436.797V534.054H232.857V436.797C232.857 429.674 235.749 422.842 240.896 417.805C246.043 412.768 253.023 409.938 260.302 409.938Z" fill="#535461"/>
<path id="Vector_90" d="M345.726 490.563C353.122 490.563 359.117 484.696 359.117 477.457C359.117 470.219 353.122 464.352 345.726 464.352C338.33 464.352 332.334 470.219 332.334 477.457C332.334 484.696 338.33 490.563 345.726 490.563Z" fill="white"/>
<path id="Vector_91" opacity="0.1" d="M301.286 251.064C301.286 251.064 352.46 201.01 407.652 250.148" stroke="black" stroke-miterlimit="10"/>
<path id="Vector_92" d="M420.579 247.875H415.442V276.38H420.579V247.875Z" fill="#6A5C99"/>
<path id="Vector_93" d="M408.588 266.319C413.284 266.319 417.787 268.144 421.107 271.394C424.428 274.643 426.293 279.05 426.293 283.646V284.762C426.293 289.357 424.428 293.765 421.107 297.014C417.787 300.264 413.284 302.089 408.588 302.089V266.319Z" fill="#FFD037"/>
<path id="Vector_94" d="M413.155 268.557C413.155 266.396 411.365 264.645 409.158 264.645C406.95 264.645 405.161 266.396 405.161 268.557V299.858C405.161 302.018 406.95 303.77 409.158 303.77C411.365 303.77 413.155 302.018 413.155 299.858V268.557Z" fill="#6A5C99"/>
<path id="Vector_95" d="M287.831 276.938H292.968V248.433H287.831V276.938Z" fill="#6A5C99"/>
<path id="Vector_96" d="M299.822 302.647C295.127 302.647 290.623 300.821 287.303 297.572C283.982 294.322 282.117 289.915 282.117 285.32V284.204C282.117 281.928 282.575 279.675 283.465 277.573C284.354 275.471 285.659 273.561 287.303 271.951C288.947 270.342 290.899 269.066 293.047 268.195C295.195 267.325 297.497 266.876 299.822 266.876V302.647Z" fill="#FFD037"/>
<path id="Vector_97" d="M295.255 300.409C295.255 302.569 297.045 304.321 299.252 304.321C301.46 304.321 303.25 302.569 303.25 300.409V269.108C303.25 266.947 301.46 265.196 299.252 265.196C297.045 265.196 295.255 266.947 295.255 269.108V300.409Z" fill="#6A5C99"/>
<path id="Vector_98" d="M414.837 217.408C407.877 203.248 392.719 186.127 360.046 184.757V184.716H359.652L348.076 185.253V185.308C315.621 186.768 300.533 203.827 293.595 217.938C288.974 227.504 286.52 237.935 286.403 248.516L290.4 248.419L294.397 248.33C294.569 238.91 296.783 229.633 300.892 221.113C309.703 203.4 325.916 193.985 349.075 193.111L359.314 192.553C382.487 193.421 398.708 202.849 407.511 220.555C411.627 229.078 413.846 238.36 414.021 247.786L418.018 247.875L422.015 247.972C421.9 237.397 419.451 226.971 414.837 217.408Z" fill="#FFD037"/>
<path id="Vector_99" d="M597.442 547.752H52.2715V691H597.442V547.752Z" fill="#D6D6E3"/>
<path id="Vector_100" opacity="0.1" d="M597.442 557.394H52.2715V575.989H597.442V557.394Z" fill="black"/>
<path id="Vector_101" d="M634 545.686H15.6997V564.281H634V545.686Z" fill="#D6D6E3"/>
</g>
<defs>
<linearGradient id="paint0_linear" x1="324.853" y1="554.983" x2="324.853" y2="181.368" gradientUnits="userSpaceOnUse">
<stop stop-color="#808080" stop-opacity="0.25"/>
<stop offset="0.54" stop-color="#808080" stop-opacity="0.12"/>
<stop offset="1" stop-color="#808080" stop-opacity="0.1"/>
</linearGradient>
<clipPath id="clip0">
<rect width="935" height="691" fill="white"/>
</clipPath>
</defs>
</svg>
