<svg viewBox="0 0 512 512" fill="none" xmlns="http://www.w3.org/2000/svg">
<g id="manufacturing 1">
<path id="Vector" d="M296 136V176H216V136L248 114.66L256 109.33L264 114.66L296 136Z" fill="#56679C"/>
<path id="Vector_2" d="M264 114.66V176H248V114.66L256 109.33L264 114.66Z" fill="#445496"/>
<path id="Vector_3" d="M264 104L328 49.143L392 104H408V80L352 32H304L248 80V104H264Z" fill="#56679C"/>
<path id="Vector_4" d="M401 111L456 144L480 248H376V136L401 111Z" fill="#56679C"/>
<path id="Vector_5" d="M178.297 253.654L189.609 242.342L227.153 279.886L215.841 291.198L178.297 253.654Z" fill="#F5A431"/>
<path id="Vector_6" d="M284.738 279.912L322.282 242.368L333.594 253.68L296.05 291.224L284.738 279.912Z" fill="#F5A431"/>
<path id="Vector_7" d="M16 464H280V488H16V464Z" fill="#CAD8ED"/>
<path id="Vector_8" d="M320 488L344 424H480V488H320Z" fill="#56679C"/>
<path id="Vector_9" d="M376 248H480V424H376V248Z" fill="#445496"/>
<g id="Group">
<path id="Vector_10" d="M256 128C264.837 128 272 120.837 272 112C272 103.163 264.837 96 256 96C247.163 96 240 103.163 240 112C240 120.837 247.163 128 256 128Z" fill="#8796C4"/>
<path id="Vector_11" d="M400 128C408.837 128 416 120.837 416 112C416 103.163 408.837 96 400 96C391.163 96 384 103.163 384 112C384 120.837 391.163 128 400 128Z" fill="#8796C4"/>
<path id="Vector_12" d="M328 56C336.837 56 344 48.8366 344 40C344 31.1634 336.837 24 328 24C319.163 24 312 31.1634 312 40C312 48.8366 319.163 56 328 56Z" fill="#8796C4"/>
</g>
<path id="Vector_13" d="M416 384H432V400H416V384Z" fill="#51A37E"/>
<path id="Vector_14" d="M440 384H456V400H440V384Z" fill="#51A37E"/>
<path id="Vector_15" d="M16 344H276C281.304 344 286.391 346.107 290.142 349.858C293.893 353.609 296 358.696 296 364C296 366.626 295.483 369.227 294.478 371.654C293.473 374.08 291.999 376.285 290.142 378.142C288.285 379.999 286.08 381.473 283.654 382.478C281.227 383.483 278.626 384 276 384H16V344Z" fill="#CAD8ED"/>
<path id="Vector_16" d="M216 384L232 408H256L272 384H216Z" fill="#A6BCE3"/>
<path id="Vector_17" d="M232 408H256V464H232V408Z" fill="#91ABD9"/>
<path id="Vector_18" d="M208 272H304V344H208V272Z" fill="#F7C04A"/>
<path id="Vector_19" d="M64 272H160V344H64V272Z" fill="#F7C04A"/>
<path id="Vector_20" d="M96 272V304L112 296L128 304V272H96Z" fill="#F7DFA1"/>
<path id="Vector_21" d="M240 160H272V192H240V160Z" fill="#CAD8ED"/>
<path id="Vector_22" d="M240 192H272L280 200V240H232V200L240 192Z" fill="#B36F42"/>
<path id="Vector_23" d="M152 384L168 408H192L208 384H152Z" fill="#A6BCE3"/>
<path id="Vector_24" d="M168 408H192V464H168V408Z" fill="#91ABD9"/>
<path id="Vector_25" d="M88 384L104 408H128L144 384H88Z" fill="#A6BCE3"/>
<path id="Vector_26" d="M104 408H128V464H104V408Z" fill="#91ABD9"/>
<path id="Vector_27" d="M24 384L40 408H64L80 384H24Z" fill="#A6BCE3"/>
<path id="Vector_28" d="M40 408H64V464H40V408Z" fill="#91ABD9"/>
</g>
</svg>
