<svg viewBox="0 0 512 512" fill="none" xmlns="http://www.w3.org/2000/svg">
<g id="industrial-robot 1">
<path id="Vector" d="M106 270C97.709 270 91 263.291 91 255V225C91 216.709 97.709 210 106 210C114.291 210 121 216.709 121 225V255C121 263.291 114.291 270 106 270Z" fill="#555A66"/>
<path id="Vector_2" d="M357.101 198.6L350.502 208.799L256.001 197.999L138.402 184.499L100.301 90.3L256.001 70.8L331.001 61.2C329.201 86.401 327.401 111.9 327.401 111.9L357.101 198.6Z" fill="#707789"/>
<path id="Vector_3" d="M357.1 198.6L350.501 208.799L256 197.999V70.8L331 61.2C329.2 86.401 327.4 111.9 327.4 111.9L357.1 198.6Z" fill="#555A66"/>
<g id="Group">
<path id="Vector_4" d="M135 392H75C66.709 392 60 385.291 60 377V317C60 308.709 66.709 302 75 302H135C143.291 302 150 308.709 150 317V377C150 385.291 143.291 392 135 392Z" fill="#FEA832"/>
<path id="Vector_5" d="M286 302H226C217.599 302 211 308.599 211 317V377C211 385.399 217.599 392 226 392H286C294.401 392 301 385.399 301 377V317C301 308.599 294.401 302 286 302Z" fill="#FEA832"/>
</g>
<g id="Group_2">
<path id="Vector_6" d="M437 392H377C368.709 392 362 385.291 362 377V317C362 308.709 368.709 302 377 302H437C445.291 302 452 308.709 452 317V377C452 385.291 445.291 392 437 392Z" fill="#FF873C"/>
<path id="Vector_7" d="M301 317V377C301 385.399 294.401 392 286 392H256V302H286C294.401 302 301 308.599 301 317Z" fill="#FF873C"/>
</g>
<path id="Vector_8" d="M437 362H75C33.6 362 0 395.6 0 437C0 478.4 33.6 512 75 512H437C478.4 512 512 478.4 512 437C512 395.6 478.4 362 437 362Z" fill="#555A66"/>
<path id="Vector_9" d="M512 437C512 478.4 478.4 512 437 512H256V362H437C478.4 362 512 395.6 512 437Z" fill="#3C3A41"/>
<path id="Vector_10" d="M437 392H75V482H437V392Z" fill="#707789"/>
<path id="Vector_11" d="M437 392H256V482H437V392Z" fill="#555A66"/>
<path id="Vector_12" d="M361 210C358.437 210 355.902 209.839 353.412 209.531C323.529 205.752 301 180.161 301 150V15C301 6.709 307.709 0 316 0H406C414.291 0 421 6.709 421 15V150C421 183.091 394.091 210 361 210Z" fill="#FF873C"/>
<path id="Vector_13" d="M106 240C81.186 240 61 219.814 61 195V135C61 112.368 77.904 93.1791 100.331 90.3521C127.841 86.9241 150.985 108.296 151 135V195C151 219.814 130.814 240 106 240Z" fill="#FEA832"/>
<path id="Vector_14" d="M75 392C50.186 392 30 412.186 30 437C30 461.814 50.186 482 75 482C99.814 482 120 461.814 120 437C120 412.186 99.814 392 75 392Z" fill="#CDD2E1"/>
<path id="Vector_15" d="M437 392C412.186 392 392 412.186 392 437C392 461.814 412.186 482 437 482C461.814 482 482 461.814 482 437C482 412.186 461.814 392 437 392Z" fill="#BEC3D2"/>
<g id="Group_3">
<path id="Vector_16" d="M196 452C204.284 452 211 445.284 211 437C211 428.716 204.284 422 196 422C187.716 422 181 428.716 181 437C181 445.284 187.716 452 196 452Z" fill="#555A66"/>
<path id="Vector_17" d="M75 452C83.2843 452 90 445.284 90 437C90 428.716 83.2843 422 75 422C66.7157 422 60 428.716 60 437C60 445.284 66.7157 452 75 452Z" fill="#555A66"/>
<path id="Vector_18" d="M271 437C271 445.399 264.401 452 256 452C247.599 452 241 445.399 241 437C241 428.599 247.599 422 256 422C264.401 422 271 428.599 271 437Z" fill="#555A66"/>
</g>
<g id="Group_4">
<path id="Vector_19" d="M316 422C324.284 422 332 428.716 332 437C332 445.284 324.284 452 316 452C307.716 452 301 445.284 301 437C301 428.716 307.716 422 316 422Z" fill="#3C3A41"/>
<path id="Vector_20" d="M437 452C445.284 452 452 445.284 452 437C452 428.716 445.284 422 437 422C428.716 422 422 428.716 422 437C422 445.284 428.716 452 437 452Z" fill="#3C3A41"/>
<path id="Vector_21" d="M271 437C271 445.399 264.401 452 256 452V422C264.401 422 271 428.599 271 437Z" fill="#3C3A41"/>
</g>
</g>
</svg>
