<svg width="401" height="395" viewBox="0 0 401 395" fill="none" xmlns="http://www.w3.org/2000/svg">
<g id="prisma">
<path id="Vector 3" d="M299.5 99.5L187 115.61L222 224.856L93 300.875L72 293.323V338.129L305 392.5L299.5 99.5Z" fill="#D1CFC3"/>
<path id="Vector 8" d="M364 8.5L302 50L355.5 66V151L399 115L364 8.5Z" fill="#F08015"/>
<path id="Vector 7" d="M95 299L57 186.5L184.5 118L221 224L95 299Z" fill="#F08015"/>
<path id="Vector 6" d="M5 273.5L55.5 189L93.5 300L5 273.5Z" fill="#FFA511"/>
<path id="Vector 5" d="M354.5 66L300.5 101L305.5 390.5L354.5 357.5V66Z" fill="#878784"/>
<path id="Vector 4" d="M128 1L72.5 40L299.5 99L352.5 66L128 1Z" fill="#878784"/>
<path id="Vector 2" d="M70.5 177.5V42.5L299 100L185.5 116L70.5 177.5Z" fill="#D1CFC3"/>
<path id="Vector 1" d="M354 66L300 100.5M354 66L300 50.7938M354 66V152.5M300 100.5L70.5 40.5M300 100.5L304.5 392M70.5 40.5L128.5 2.5L300 50.7938M70.5 40.5V177.986M304.5 392L354 359V152.5M304.5 392L70.5 336V293.5L96 300.5M96 300.5L4 274.5L56.5 185.5M96 300.5L56.5 185.5M96 300.5L221.5 225L186 116L70.5 177.986M56.5 185.5L70.5 177.986M300 50.7938L365 8.5L398.5 116L354 152.5" stroke="black" stroke-width="4"/>
</g>
</svg>
