<svg width="400" height="400" viewBox="0 0 400 400" fill="none" xmlns="http://www.w3.org/2000/svg">
<g id="robot 1" clip-path="url(#clip0)">
<g id="Group">
<g id="Group_2">
<g id="Group_3">
<path id="Vector" d="M128.839 280.776C133.792 267.269 140.18 256.642 146.258 248.616L173.333 252.669L168.489 263.328C161.433 272.275 153.214 286.415 149.172 306.783L135.614 321.529L128.839 280.776Z" fill="#365E7D"/>
</g>
</g>
<path id="Vector_2" d="M253.333 26.6665C260.697 26.6665 266.667 32.636 266.667 40.0001C266.667 47.3642 260.697 53.3337 253.333 53.3337H233.803V26.6665H253.333Z" fill="#F4D844"/>
<path id="Vector_3" d="M253.333 26.6665H234.816C242.18 26.6665 248.15 32.636 248.15 40.0001C248.15 47.3642 242.18 53.3337 234.816 53.3337H253.333C260.697 53.3337 266.666 47.3642 266.666 40.0001C266.666 32.636 260.696 26.6665 253.333 26.6665Z" fill="#EDBD2D"/>
<path id="Vector_4" d="M146.666 53.3337C139.302 53.3337 133.332 47.3642 133.332 40.0001C133.332 32.636 139.302 26.6665 146.666 26.6665H164.05V53.3329H146.666V53.3337Z" fill="#F4D844"/>
<path id="Vector_5" d="M240 83.0312H160V25C160 11.193 171.193 0 185 0H215C228.807 0 240 11.193 240 25V83.0312Z" fill="#B9E4EF"/>
<g id="Group_4">
<path id="Vector_6" d="M186.666 52.7029C183.332 52.7029 180.63 50.0006 180.63 46.667V39.9998C180.63 36.6654 183.332 33.9639 186.666 33.9639C189.999 33.9639 192.702 36.6662 192.702 39.9998V46.6662C192.702 50.0006 189.999 52.7029 186.666 52.7029Z" fill="#2B4D66"/>
</g>
<g id="Group_5">
<path id="Vector_7" d="M213.333 52.7029C209.998 52.7029 207.297 50.0006 207.297 46.667V39.9998C207.297 36.6654 209.999 33.9639 213.333 33.9639C216.667 33.9639 219.369 36.6662 219.369 39.9998V46.6662C219.37 50.0006 216.667 52.7029 213.333 52.7029Z" fill="#2B4D66"/>
</g>
<path id="Vector_8" d="M214.245 0H195.735C209.959 0 221.49 11.5305 221.49 25.7547V83.0312H239.999V25.7547C239.999 11.5305 228.469 0 214.245 0V0Z" fill="#93D8E4"/>
<g id="Group_6">
<path id="Vector_9" d="M65.6883 160.609C71.7305 144.847 82.218 133.501 97.0484 126.738C105.302 122.974 113.557 121.248 119.999 120.478L129.577 112.274L123.53 93.3999C109.809 94.2124 85.6617 98.2694 65.5414 115.405C52.2656 126.711 42.982 141.651 37.793 160L47.8867 169.416L65.6883 160.609Z" fill="#365E7D"/>
</g>
<g id="Group_7">
<path id="Vector_10" d="M362.08 160C356.891 141.651 347.607 126.711 334.331 115.404C314.211 98.2697 290.063 94.2127 276.342 93.3994L262.45 113.334L279.873 120.478C286.315 121.249 294.569 122.974 302.823 126.738C317.653 133.501 328.141 144.848 334.183 160.61L346.88 175.2L362.08 160Z" fill="#365E7D"/>
</g>
<path id="Vector_11" d="M200 211.804L153.333 200L146.666 160L200 137.224L253.333 160L246.666 200L200 211.804Z" fill="#365E7D"/>
<path id="Vector_12" d="M200 137.224L190.744 141.176L234.822 160L228.155 200L190.744 209.463L200 211.804L246.666 200L253.333 160L200 137.224Z" fill="#2B4D66"/>
<path id="Vector_13" d="M267.5 160H132.5C125.596 160 120 154.404 120 147.5V105C120 91.193 131.193 80 145 80H255C268.807 80 280 91.193 280 105V147.5C280 154.404 274.404 160 267.5 160Z" fill="#8EC6F6"/>
<path id="Vector_14" d="M218.592 266.667H181.407C176.142 266.667 170.996 265.108 166.615 262.188L145.207 247.916C137.788 242.97 133.333 234.644 133.333 225.727V213.332C133.333 205.968 139.303 199.999 146.667 199.999H253.333C260.697 199.999 266.667 205.968 266.667 213.332V225.727C266.667 234.644 262.21 242.97 254.792 247.916L233.385 262.188C229.003 265.109 223.856 266.667 218.592 266.667Z" fill="#8EC6F6"/>
<g id="Group_8">
<g id="Group_9">
<path id="Vector_15" d="M250.828 306.783C246.787 286.415 238.567 272.275 231.511 263.328L235.23 248.616H253.741C259.819 256.642 266.207 267.269 271.161 280.776L267.605 298.39L250.828 306.783Z" fill="#365E7D"/>
</g>
</g>
<g id="Group_10">
<path id="Vector_16" d="M386.665 240C386.665 250.142 382.136 259.227 374.989 265.341L331.674 265.34C324.528 259.227 319.998 250.142 319.998 240.001L353.332 220.121L386.665 240Z" fill="#F4D844"/>
<path id="Vector_17" d="M353.333 220.12L344.077 225.64L368.155 239.999C368.155 250.141 363.626 259.226 356.479 265.339L374.99 265.34C382.137 259.226 386.667 250.141 386.667 239.999L353.333 220.12Z" fill="#EDBD2D"/>
<path id="Vector_18" d="M387.083 240H319.583C316.131 240 313.333 237.202 313.333 233.75V185C313.333 171.193 324.526 160 338.333 160H368.333C382.14 160 393.333 171.193 393.333 185V233.75C393.333 237.202 390.535 240 387.083 240Z" fill="#8EC6F6"/>
<path id="Vector_19" d="M367.579 160H349.135C363.359 160 374.889 171.53 374.889 185.755V233.562C374.889 237.118 372.007 240 368.45 240H386.894C390.45 240 393.332 237.117 393.332 233.562V185.755C393.333 171.53 381.802 160 367.579 160Z" fill="#6A91CB"/>
<path id="Vector_20" d="M313.333 193.964H393.333V206.037H313.333V193.964Z" fill="#6A91CB"/>
<g id="Group_11">
<g id="Group_12">
<path id="Vector_21" d="M392.776 306.666H379.314C376.242 306.666 373.469 304.648 372.702 301.674C370.479 293.054 362.638 286.666 353.333 286.666C344.028 286.666 336.187 293.054 333.963 301.674C333.196 304.648 330.423 306.666 327.352 306.666H313.89C309.805 306.666 306.627 303.018 307.298 298.989C310.969 276.896 330.216 259.999 353.333 259.999C376.45 259.999 395.696 276.896 399.368 298.989C400.037 303.019 396.859 306.666 392.776 306.666Z" fill="#F9F6F6"/>
</g>
</g>
<path id="Vector_22" d="M399.368 298.99C395.696 276.897 376.451 260 353.333 260C350.163 260 347.071 260.328 344.077 260.934C362.92 264.741 377.688 279.926 380.857 298.99C381.381 302.146 379.54 305.06 376.757 306.178C377.557 306.492 378.421 306.667 379.313 306.667H392.775C396.859 306.666 400.037 303.019 399.368 298.99Z" fill="#ECDAEC"/>
</g>
<path id="Vector_23" d="M254.245 80H235.734C249.959 80 261.489 91.5305 261.489 105.755V147.123C261.489 154.234 255.723 160 248.612 160H267.123C274.234 160 280 154.234 280 147.123V105.755C280 91.5305 268.47 80 254.245 80Z" fill="#6A91CB"/>
<path id="Vector_24" d="M253.333 200H234.822C242.186 200 248.155 205.97 248.155 213.334V225.729C248.155 234.645 243.699 242.971 236.28 247.917L214.873 262.189C210.493 265.109 205.346 266.668 200.081 266.668H218.592C223.857 266.668 229.004 265.109 233.384 262.189L254.791 247.917C262.21 242.971 266.665 234.645 266.665 225.729V213.334C266.665 205.97 260.696 200 253.333 200Z" fill="#6A91CB"/>
<g id="Group_13">
<path id="Vector_25" d="M79.9992 240C79.9992 250.142 75.4695 259.227 68.3227 265.341L25.0078 265.34C17.8617 259.227 13.332 250.142 13.332 240.001L46.6656 220.121L79.9992 240Z" fill="#F4D844"/>
<path id="Vector_26" d="M46.6656 220.12L37.4102 225.64L61.4883 239.999C61.4883 250.141 56.9586 259.226 49.8125 265.339L68.3234 265.34C75.4703 259.226 80 250.141 80 239.999L46.6656 220.12Z" fill="#EDBD2D"/>
<path id="Vector_27" d="M80.416 240H12.916C9.46445 240 6.66602 237.202 6.66602 233.75V185C6.66602 171.193 17.859 160 31.666 160H61.666C75.473 160 86.666 171.193 86.666 185V233.75C86.666 237.202 83.8684 240 80.416 240Z" fill="#8EC6F6"/>
<path id="Vector_28" d="M60.9107 160H42.4678C56.6912 160 68.2225 171.53 68.2225 185.755V233.562C68.2225 237.118 65.3396 240 61.7834 240H80.2271C83.7834 240 86.6654 237.117 86.6654 233.562V185.755C86.6654 171.53 75.135 160 60.9107 160Z" fill="#6A91CB"/>
<path id="Vector_29" d="M6.66602 193.964H86.666V206.037H6.66602V193.964Z" fill="#6A91CB"/>
<g id="Group_14">
<g id="Group_15">
<path id="Vector_30" d="M86.1089 306.666H72.6472C69.5753 306.666 66.8027 304.648 66.0355 301.674C63.8121 293.054 55.9714 286.666 46.666 286.666C37.3605 286.666 29.5199 293.054 27.2964 301.674C26.5293 304.648 23.7566 306.666 20.6847 306.666H7.22379C3.13942 306.666 -0.0387076 303.018 0.631605 298.989C4.30348 276.896 23.5488 259.999 46.6668 259.999C69.7847 259.999 89.03 276.896 92.7019 298.989C93.3714 303.019 90.1933 306.666 86.1089 306.666Z" fill="#F9F6F6"/>
</g>
</g>
<path id="Vector_31" d="M92.7018 298.99C89.0299 276.897 69.7846 260 46.6666 260C43.4971 260 40.4049 260.328 37.4111 260.934C56.2541 264.741 71.0221 279.926 74.1908 298.99C74.7158 302.146 72.8744 305.06 70.0908 306.178C70.8908 306.492 71.7549 306.667 72.6471 306.667H86.1088C90.1932 306.666 93.3713 303.019 92.7018 298.99Z" fill="#ECDAEC"/>
</g>
<path id="Vector_32" d="M239.364 200H227.112L221.955 220.631H178.047L172.889 200H160.637C160.637 200.484 160.688 200.974 160.811 201.464L167.477 228.131C168.149 230.819 170.563 232.703 173.333 232.703H226.666C229.436 232.703 231.851 230.818 232.523 228.131L239.189 201.464C239.312 200.974 239.364 200.484 239.364 200Z" fill="#6A91CB"/>
<path id="Vector_33" d="M233.778 104.351L224.351 113.779C224.232 113.898 224.074 113.963 223.904 113.963H176.094C175.926 113.963 175.767 113.898 175.648 113.78L166.219 104.351C163.82 101.952 160.63 100.63 157.238 100.63H120.511C120.176 102.287 119.999 104 119.999 105.755V112.703H157.237C157.403 112.703 157.566 112.771 157.683 112.887L167.112 122.316C169.511 124.714 172.701 126.036 176.094 126.036H223.904C227.297 126.036 230.487 124.715 232.887 122.316L242.312 112.889C242.43 112.771 242.594 112.704 242.759 112.704H280V105.755C280 104.001 279.822 102.287 279.488 100.631H242.761C239.369 100.63 236.179 101.951 233.778 104.351Z" fill="#6A91CB"/>
<g id="Group_16">
<path id="Vector_34" d="M280 314.017V293.333C280 285.969 274.031 279.999 266.667 279.999C259.303 279.999 253.333 285.969 253.333 293.333V314.017H280Z" fill="#F4D844"/>
<path id="Vector_35" d="M266.666 280C263.065 280 259.804 281.434 257.404 283.755C259.911 286.179 261.475 289.571 261.475 293.334V314.018H280V293.334C280 285.97 274.03 280 266.666 280Z" fill="#EDBD2D"/>
<path id="Vector_36" d="M249.631 373.333H306.666C314.03 373.333 320 379.303 320 386.667V393.334C320 397.016 317.015 400 313.333 400H266.667L249.631 373.333Z" fill="#F4D844"/>
<path id="Vector_37" d="M306.666 373.333H288.155C295.519 373.333 301.489 379.303 301.489 386.667V393.334C301.489 397.016 298.504 400.001 294.822 400.001H313.333C317.015 400.001 320 397.016 320 393.334V386.667C320 379.303 314.03 373.333 306.666 373.333Z" fill="#EDBD2D"/>
<path id="Vector_38" d="M293.333 373.334V320C293.333 312.636 287.364 306.667 280 306.667H253.333C238.606 306.667 226.667 318.606 226.667 333.333V386.667C226.667 394.031 232.637 400 240.001 400H266.667C266.666 385.273 278.605 373.334 293.333 373.334Z" fill="#8EC6F6"/>
<path id="Vector_39" d="M280 306.667H261.475C268.839 306.667 274.809 312.636 274.809 320V373.334C260.082 373.334 248.143 385.273 248.143 400H266.666C266.666 385.273 278.605 373.334 293.332 373.334V320C293.333 312.636 287.364 306.667 280 306.667Z" fill="#6A91CB"/>
</g>
<g id="Group_17">
<path id="Vector_40" d="M120.004 314.017V293.333C120.004 285.969 125.973 279.999 133.338 279.999C140.702 279.999 146.671 285.969 146.671 293.333V314.017H120.004Z" fill="#F4D844"/>
<path id="Vector_41" d="M150.373 373.333H93.3375C85.9734 373.333 80.0039 379.303 80.0039 386.667V393.334C80.0039 397.016 82.9883 400 86.6703 400H133.337L150.373 373.333Z" fill="#F4D844"/>
<path id="Vector_42" d="M106.67 373.334V320C106.67 312.636 112.639 306.667 120.004 306.667H146.67C161.397 306.667 173.336 318.606 173.336 333.333V386.667C173.336 394.031 167.367 400 160.003 400H133.336C133.337 385.273 121.398 373.334 106.67 373.334Z" fill="#8EC6F6"/>
<path id="Vector_43" d="M146.67 306.667H128.154C142.882 306.667 154.821 318.606 154.821 333.333V386.667C154.821 394.031 148.851 400 141.487 400H160.003C167.367 400 173.336 394.031 173.336 386.667V333.333C173.337 318.606 161.398 306.667 146.67 306.667Z" fill="#6A91CB"/>
</g>
</g>
</g>
<defs>
<clipPath id="clip0">
<rect width="400" height="400" fill="white"/>
</clipPath>
</defs>
</svg>
