<svg width="512" height="512" viewBox="0 0 512 512" fill="none" xmlns="http://www.w3.org/2000/svg">
<g id="robot-arm 1">
<path id="Vector" d="M112 400H160V456H112V400Z" fill="#666666"/>
<path id="Vector_2" d="M112 415L119.544 422.544C124.318 427.318 130.793 430 137.544 430C142.156 430.001 146.681 428.749 150.636 426.378C154.591 424.006 157.828 420.605 160 416.537V400H112V415Z" fill="#565655"/>
<path id="Vector_3" d="M112 456L96 472V488H176V472L160 456H112Z" fill="#3F484F"/>
<path id="Vector_4" d="M159.621 456C139.727 465.391 118.174 470.76 96.2 471.8L96 472H176L160 456H159.621Z" fill="#2A3135"/>
<path id="Vector_5" d="M248 392H312V456H248V392Z" fill="#666666"/>
<path id="Vector_6" d="M312 392H248V409.17C250.817 415.656 255.468 421.177 261.381 425.056C267.293 428.934 274.211 431 281.282 431C286.047 431 290.765 430.061 295.166 428.238C299.568 426.415 303.568 423.742 306.937 420.373L312 415.311V392Z" fill="#565655"/>
<path id="Vector_7" d="M248 456L232 472V488H328V472L312 456H248Z" fill="#3F484F"/>
<path id="Vector_8" d="M308.819 456C284.593 466.583 258.437 472.031 232 472H328L312 456H308.819Z" fill="#2A3135"/>
<path id="Vector_9" d="M152 80L136 96H88L136 136L184 96V64L136 24L88 64H136L152 80Z" fill="#D1CFC3"/>
<path id="Vector_10" d="M169.143 80L141.714 107.428H101.714L88 96H136L152 80L136 64H88L101.714 52.571H141.714L169.143 80Z" fill="#B7B2A5"/>
<path id="Vector_11" d="M280 208L296 224H344L296 264L248 224V192L296 152L344 192H296L280 208Z" fill="#D1CFC3"/>
<path id="Vector_12" d="M262.855 208L290.284 235.428H330.284L343.998 224H295.998L279.998 208L295.998 192H343.998L330.284 180.571H290.284L262.855 208Z" fill="#B7B2A5"/>
<path id="Vector_13" d="M216 64H320V96H216V64Z" fill="#FFA511"/>
<path id="Vector_14" d="M294.871 82C294.865 86.9595 296.278 91.8172 298.943 96H319.998V64H302.07C297.442 68.8493 294.864 75.2969 294.871 82Z" fill="#F08015"/>
<path id="Vector_15" d="M303.957 96.0332L335.952 64.0379L471.932 200.017L439.936 232.013L303.957 96.0332Z" fill="#FFA511"/>
<path id="Vector_16" d="M304 96L315.555 107.555C320.052 108.513 324.722 108.267 329.093 106.843C333.465 105.418 337.383 102.866 340.452 99.4424C343.522 96.0192 345.633 91.8468 346.574 87.3464C347.515 82.8461 347.252 78.1771 345.811 73.811L336 64L304 96Z" fill="#F08015"/>
<path id="Vector_17" d="M480 240L305.941 414.059C302.789 417.211 299.048 419.711 294.93 421.416C290.812 423.122 286.398 424 281.941 424C272.939 424 264.306 420.424 257.941 414.059C251.576 407.694 248 399.061 248 390.059C248 385.602 248.878 381.188 250.584 377.07C252.289 372.952 254.789 369.211 257.941 366.059L432 192L480 240Z" fill="#FFA511"/>
<path id="Vector_18" d="M403.852 220.147C403.971 226.604 405.473 232.961 408.258 238.788C411.043 244.615 415.044 249.778 419.993 253.927C424.943 258.076 430.724 261.116 436.948 262.841C443.171 264.566 449.693 264.936 456.072 263.927L479.999 240L431.999 192L403.852 220.147Z" fill="#F08015"/>
<path id="Vector_19" d="M439.999 232L471.999 200L446.237 174.238C438.145 174.733 430.336 177.397 423.628 181.95C416.92 186.503 411.561 192.777 408.113 200.114L439.999 232Z" fill="#F08015"/>
<path id="Vector_20" d="M152 192H224V224H152V192Z" fill="#FFA511"/>
<path id="Vector_21" d="M152 224H173.9C177.044 219.087 178.443 213.258 177.871 207.453C177.299 201.648 174.79 196.205 170.747 192H152V224Z" fill="#F08015"/>
<path id="Vector_22" d="M31.9727 295.978L135.957 191.994L167.952 223.989L63.9679 327.973L31.9727 295.978Z" fill="#FFA511"/>
<path id="Vector_23" d="M127.994 200.007C126.203 204.302 125.598 208.999 126.242 213.607C126.886 218.216 128.756 222.567 131.656 226.206C134.555 229.845 138.379 232.639 142.727 234.296C147.076 235.953 151.789 236.413 156.375 235.626L168.001 224L136.001 192L127.994 200.007Z" fill="#F08015"/>
<path id="Vector_24" d="M32 328L121.373 417.373C123.474 419.474 125.969 421.141 128.714 422.278C131.459 423.415 134.402 424 137.373 424C143.374 424 149.129 421.616 153.372 417.372C157.616 413.129 160 407.374 160 401.373C160 398.402 159.415 395.459 158.278 392.714C157.141 389.969 155.474 387.474 153.373 385.373L64 296L32 328Z" fill="#FFA511"/>
<path id="Vector_25" d="M64 296L32 328L53.739 349.739C54.813 349.839 55.9 349.896 57 349.896C64.8685 349.894 72.5057 347.234 78.6721 342.346C84.8384 337.458 89.1722 330.63 90.97 322.97L64 296Z" fill="#F08015"/>
<path id="Vector_26" d="M64 328L89.558 302.442C86.3412 294.105 80.0488 287.319 71.9775 283.483C63.9061 279.647 54.6709 279.054 46.175 281.825L32 296L64 328Z" fill="#F08015"/>
<g id="Group">
<path id="Vector_27" d="M56 344C73.6731 344 88 329.673 88 312C88 294.327 73.6731 280 56 280C38.3269 280 24 294.327 24 312C24 329.673 38.3269 344 56 344Z" fill="#878784"/>
<path id="Vector_28" d="M152 232C165.255 232 176 221.255 176 208C176 194.745 165.255 184 152 184C138.745 184 128 194.745 128 208C128 221.255 138.745 232 152 232Z" fill="#878784"/>
<path id="Vector_29" d="M248 184C248 175.163 240.837 168 232 168C223.163 168 216 175.163 216 184V232C216 240.837 223.163 248 232 248C240.837 248 248 240.837 248 232V184Z" fill="#878784"/>
<path id="Vector_30" d="M448 256C470.091 256 488 238.091 488 216C488 193.909 470.091 176 448 176C425.909 176 408 193.909 408 216C408 238.091 425.909 256 448 256Z" fill="#878784"/>
<path id="Vector_31" d="M216 56C216 47.1634 208.837 40 200 40C191.163 40 184 47.1634 184 56V104C184 112.837 191.163 120 200 120C208.837 120 216 112.837 216 104V56Z" fill="#878784"/>
<path id="Vector_32" d="M320 104C333.255 104 344 93.2548 344 80C344 66.7452 333.255 56 320 56C306.745 56 296 66.7452 296 80C296 93.2548 306.745 104 320 104Z" fill="#878784"/>
</g>
<path id="Vector_33" d="M184 80C184 71.1634 176.837 64 168 64C159.163 64 152 71.1634 152 80C152 88.8366 159.163 96 168 96C176.837 96 184 88.8366 184 80Z" fill="#666666"/>
<path id="Vector_34" d="M280 208C280 199.163 272.837 192 264 192C255.163 192 248 199.163 248 208C248 216.837 255.163 224 264 224C272.837 224 280 216.837 280 208Z" fill="#666666"/>
<path id="Vector_35" d="M152 400C152 391.163 144.837 384 136 384C127.163 384 120 391.163 120 400C120 408.837 127.163 416 136 416C144.837 416 152 408.837 152 400Z" fill="#EDEDEB"/>
<path id="Vector_36" d="M304 392C304 378.745 293.255 368 280 368C266.745 368 256 378.745 256 392C256 405.255 266.745 416 280 416C293.255 416 304 405.255 304 392Z" fill="#EDEDEB"/>
<path id="Vector_37" d="M129.425 414.575C128.486 412.51 128.001 410.268 128 408C127.997 405.326 128.664 402.694 129.942 400.345C131.219 397.996 133.066 396.005 135.312 394.555C137.558 393.104 140.133 392.241 142.799 392.043C145.466 391.846 148.14 392.321 150.575 393.425C149.072 390.089 146.471 387.369 143.206 385.719C139.94 384.069 136.208 383.588 132.631 384.357C129.054 385.127 125.849 387.099 123.55 389.946C121.251 392.792 119.998 396.341 120 400C120.001 403.079 120.891 406.092 122.563 408.677C124.235 411.263 126.618 413.311 129.425 414.575Z" fill="#CECECC"/>
<path id="Vector_38" d="M267.506 412.494C265.207 408.733 263.993 404.408 264 400C264 395.738 265.134 391.553 267.287 387.875C269.439 384.197 272.533 381.158 276.248 379.071C279.964 376.984 284.169 375.925 288.43 376.001C292.691 376.077 296.855 377.287 300.494 379.506C297.77 375.036 293.659 371.579 288.787 369.662C283.916 367.745 278.552 367.474 273.512 368.889C268.472 370.305 264.033 373.329 260.871 377.501C257.71 381.673 255.999 386.765 256 392C255.998 396.116 257.056 400.163 259.071 403.753C261.086 407.342 263.991 410.352 267.506 412.494Z" fill="#CECECC"/>
<path id="Vector_39" d="M74.2665 285.732C78.5539 291.893 80.5386 299.365 79.8736 306.842C79.2086 314.318 75.9361 321.323 70.6286 326.63C65.3211 331.938 58.3165 335.21 50.8401 335.875C43.3637 336.54 35.8914 334.555 29.7305 330.268C32.4016 334.115 35.8846 337.329 39.9336 339.682C43.9826 342.036 48.4989 343.472 53.1637 343.89C57.8284 344.307 62.5279 343.695 66.9305 342.098C71.333 340.5 75.3312 337.956 78.6429 334.644C81.9545 331.333 84.4989 327.334 86.0964 322.932C87.6939 318.529 88.3055 313.83 87.8881 309.165C87.4707 304.5 86.0345 299.984 83.6809 295.935C81.3272 291.886 78.1134 288.403 74.2665 285.732Z" fill="#70706F"/>
<path id="Vector_40" d="M64 320H48V342.992C53.2487 344.336 58.7513 344.336 64 342.992V320Z" fill="#FFDC13"/>
<path id="Vector_41" d="M64 331.708C59.1389 334.526 53.6186 336.006 48 336V342.987C53.2482 344.334 58.7518 344.334 64 342.987V331.708Z" fill="#E5AF17"/>
<path id="Vector_42" d="M48 304H64V281.008C58.7513 279.664 53.2487 279.664 48 281.008V304Z" fill="#FFDC13"/>
<path id="Vector_43" d="M164.496 187.506C167.3 192.101 168.477 197.505 167.839 202.85C167.201 208.195 164.785 213.171 160.979 216.977C157.173 220.783 152.197 223.2 146.852 223.838C141.507 224.475 136.103 223.298 131.508 220.494C133.4 223.595 135.971 226.225 139.027 228.188C142.083 230.151 145.545 231.394 149.151 231.825C152.758 232.255 156.415 231.861 159.848 230.673C163.28 229.484 166.398 227.532 168.966 224.964C171.534 222.396 173.486 219.278 174.674 215.846C175.863 212.414 176.257 208.756 175.826 205.15C175.396 201.543 174.152 198.081 172.19 195.025C170.227 191.969 167.596 189.398 164.496 187.506Z" fill="#70706F"/>
<path id="Vector_44" d="M173.66 218.346L163.314 208L152 219.314L162.346 229.66C167.296 227.288 171.288 223.296 173.66 218.346Z" fill="#FFDC13"/>
<path id="Vector_45" d="M154.348 221.66L162.348 229.66C167.298 227.288 171.29 223.296 173.662 218.346L165.662 210.346C163.29 215.296 159.298 219.288 154.348 221.66Z" fill="#E5AF17"/>
<path id="Vector_46" d="M130.34 197.654L140.686 208L152 196.686L141.654 186.34C136.704 188.712 132.712 192.704 130.34 197.654Z" fill="#FFDC13"/>
<path id="Vector_47" d="M472 184C477.777 191.703 480.582 201.231 479.899 210.836C479.217 220.44 475.093 229.476 468.284 236.284C461.476 243.093 452.44 247.217 442.836 247.899C433.231 248.582 423.703 245.777 416 240C419.439 244.585 423.822 248.377 428.854 251.12C433.886 253.863 439.448 255.493 445.164 255.899C450.881 256.306 456.618 255.479 461.987 253.475C467.356 251.471 472.232 248.337 476.284 244.284C480.337 240.232 483.471 235.356 485.475 229.987C487.479 224.618 488.306 218.881 487.899 213.164C487.493 207.448 485.863 201.886 483.12 196.854C480.377 191.822 476.585 187.439 472 184Z" fill="#70706F"/>
<path id="Vector_48" d="M456 232H440V255.2C445.28 256.269 450.72 256.269 456 255.2V232Z" fill="#FFDC13"/>
<path id="Vector_49" d="M456 244.662C450.955 246.868 445.507 248.005 440 248V255.183C445.278 256.267 450.72 256.272 456 255.198V244.662Z" fill="#E5AF17"/>
<path id="Vector_50" d="M440 200H456V176.8C450.72 175.731 445.28 175.731 440 176.8V200Z" fill="#FFDC13"/>
<path id="Vector_51" d="M270.576 193.425C271.514 195.49 272 197.732 272.001 200C272.004 202.674 271.337 205.306 270.059 207.655C268.782 210.004 266.935 211.995 264.689 213.445C262.442 214.896 259.868 215.759 257.201 215.956C254.535 216.154 251.861 215.679 249.426 214.575C250.928 217.911 253.529 220.631 256.795 222.281C260.061 223.931 263.793 224.412 267.37 223.642C270.947 222.873 274.152 220.901 276.451 218.054C278.749 215.207 280.002 211.659 280.001 208C280 204.921 279.11 201.908 277.438 199.322C275.766 196.737 273.383 194.689 270.576 193.425Z" fill="#565655"/>
<path id="Vector_52" d="M174.576 65.425C175.514 67.4902 176 69.7319 176.001 72C176.004 74.674 175.337 77.306 174.059 79.655C172.782 82.004 170.935 83.9949 168.689 85.4452C166.442 86.8956 163.868 87.759 161.201 87.9564C158.535 88.1538 155.861 87.6788 153.426 86.575C154.928 89.911 157.529 92.6309 160.795 94.281C164.061 95.9311 167.793 96.4116 171.37 95.6424C174.947 94.8732 178.152 92.9007 180.451 90.0541C182.749 87.2075 184.002 83.6588 184.001 80C184 76.9211 183.11 73.9079 181.438 71.3224C179.766 68.737 177.383 66.6892 174.576 65.425Z" fill="#565655"/>
<path id="Vector_53" d="M332.496 59.5061C335.3 64.1012 336.477 69.5055 335.839 74.8505C335.201 80.1955 332.785 85.1709 328.979 88.9772C325.173 92.7835 320.197 95.1997 314.852 95.8375C309.507 96.4754 304.103 95.2978 299.508 92.4941C301.4 95.5947 303.971 98.2254 307.027 100.188C310.083 102.151 313.545 103.394 317.151 103.825C320.758 104.255 324.415 103.861 327.848 102.673C331.28 101.484 334.398 99.5325 336.966 96.9642C339.534 94.3958 341.486 91.2781 342.674 87.8458C343.863 84.4135 344.257 80.7563 343.826 77.1497C343.396 73.5432 342.152 70.0813 340.19 67.0251C338.227 63.9688 335.596 61.3979 332.496 59.5061Z" fill="#70706F"/>
<path id="Vector_54" d="M330.346 58.3401L320 68.6861L331.314 80.0001L341.66 69.6541C339.288 64.7039 335.296 60.7122 330.346 58.3401Z" fill="#FFDC13"/>
<path id="Vector_55" d="M341.654 69.6591C339.644 65.4613 336.462 61.9351 332.492 59.5061C334.792 63.2674 336.005 67.5917 335.998 72.0001C335.998 73.1991 335.909 74.3964 335.731 75.5821L341.654 69.6591Z" fill="#E5AF17"/>
<path id="Vector_56" d="M309.654 101.66L320 91.314L308.686 80L298.34 90.346C300.712 95.2962 304.704 99.2878 309.654 101.66Z" fill="#FFDC13"/>
<path id="Vector_57" d="M315.584 95.7329C314.398 95.9106 313.201 95.9998 312.002 95.9999C307.593 96.0067 303.269 94.7932 299.508 92.4939C301.937 96.4639 305.463 99.646 309.661 101.656L315.584 95.7329Z" fill="#E5AF17"/>
<path id="Vector_58" d="M206.576 41.425C207.514 43.49 208 45.7318 208.001 48V96C208.004 98.674 207.337 101.306 206.059 103.655C204.782 106.004 202.935 107.995 200.689 109.445C198.442 110.896 195.868 111.759 193.201 111.956C190.535 112.154 187.861 111.679 185.426 110.575C186.928 113.911 189.529 116.631 192.795 118.281C196.061 119.931 199.793 120.412 203.37 119.642C206.947 118.873 210.152 116.901 212.451 114.054C214.749 111.207 216.002 107.659 216.001 104V56C216 52.9211 215.11 49.9079 213.438 47.3224C211.766 44.737 209.383 42.6892 206.576 41.425Z" fill="#70706F"/>
<path id="Vector_59" d="M238.576 169.425C239.514 171.49 240 173.732 240.001 176V224C240.004 226.674 239.337 229.306 238.059 231.655C236.782 234.004 234.935 235.995 232.689 237.445C230.442 238.896 227.868 239.759 225.201 239.956C222.535 240.154 219.861 239.679 217.426 238.575C218.928 241.911 221.529 244.631 224.795 246.281C228.061 247.931 231.793 248.412 235.37 247.642C238.947 246.873 242.152 244.901 244.451 242.054C246.749 239.207 248.002 235.659 248.001 232V184C248 180.921 247.11 177.908 245.438 175.322C243.766 172.737 241.383 170.689 238.576 169.425Z" fill="#70706F"/>
</g>
</svg>
