<svg width="580" height="413" viewBox="0 0 580 413" fill="none" xmlns="http://www.w3.org/2000/svg">
<g id="rotate">
<g id="Vector 14">
<path d="M160 293V237L324.5 98L423.5 36L577.5 124V184.5L371 318.5C367.5 321.5 342 341 273 345.5C216.005 349.217 173.5 311.333 160 293Z" fill="#878784"/>
<path d="M160 237V293C173.5 311.333 216.005 349.217 273 345.5C342 341 367.5 321.5 371 318.5L577.5 184.5V124M160 237C203.6 278.2 316 279.5 336 266.5C441.051 205.773 472.449 184.727 577.5 124M160 237L324.5 98L423.5 36L577.5 124" stroke="black" stroke-width="4"/>
</g>
<g id="Vector 10">
<path d="M6 104.5L160 13.5L338 104.5C351.351 114.802 368.986 134.746 369.749 156C369.835 158.403 369.706 160.823 369.33 163.248L365.5 229.5C362.333 236.667 349.8 248.8 315 260C280.2 271.2 226 267.5 200 255.5L3 162L6 104.5Z" fill="#D1CFC3"/>
<path d="M6 104.5L160 13.5L338 104.5C351.351 114.802 368.986 134.746 369.749 156M6 104.5L180 191.5C219.333 204.667 307.9 224.6 349.5 193C364.86 181.332 370.195 168.442 369.749 156M6 104.5L3 162L200 255.5C226 267.5 280.2 271.2 315 260C349.8 248.8 362.333 236.667 365.5 229.5L369.749 156" stroke="black" stroke-width="4"/>
</g>
<path id="Vector 15" d="M268 163C215.6 167.8 190.167 142.333 184 129V160C195.833 168.333 229.2 185.4 268 187C306.8 188.6 333.167 169.667 341.5 160V129C338.833 138.333 320.4 158.2 268 163Z" fill="#F08015" stroke="black"/>
<path id="Vector 13" d="M105.5 128.5L124.5 136.5M124.5 136.5L119 122M124.5 136.5C112.333 126.834 96.7 102.8 131.5 84.0002C166.3 65.2002 188 68.1669 194.5 72.0002M194.5 72.0002L181 76M194.5 72.0002L187 63" stroke="black" stroke-width="4"/>
<path id="Vector 12" d="M185 125V159.038C197.874 172.22 240.885 190.604 277 187C313.115 183.396 332.637 171.553 342 162.542V125" stroke="black" stroke-width="4"/>
<path id="Ellipse 5" d="M342 124.5C342 134.826 333.839 144.678 319.506 152.067C305.276 159.403 285.478 164 263.5 164C241.522 164 221.724 159.403 207.494 152.067C193.161 144.678 185 134.826 185 124.5C185 114.174 193.161 104.322 207.494 96.9327C221.724 89.5967 241.522 85 263.5 85C285.478 85 305.276 89.5967 319.506 96.9327C333.839 104.322 342 114.174 342 124.5Z" fill="#FFA511" stroke="black" stroke-width="4"/>
<path id="Vector 9" d="M265 1L274 412.5" stroke="black" stroke-width="4"/>
</g>
</svg>
