<svg width="308" height="308" viewBox="0 0 308 308" fill="none" xmlns="http://www.w3.org/2000/svg">
<g id="sensors" filter="url(#filter0_dd)">
<g id="temperature-sensor 1" clip-path="url(#clip0)">
<g id="Page 1">
<g id="072   Temperature Gun">
<path id="Shape" d="M115.864 155.085V190.678L77.3725 190.678C74.4617 190.698 71.8232 188.969 70.6792 186.292C69.5352 183.616 70.1092 180.514 72.1352 178.424C80.0544 170.251 86.2759 160.591 90.4403 150H110.779C113.587 150 115.864 152.277 115.864 155.085Z" fill="#E54C3C"/>
<path id="Shape_2" d="M156.543 185.594V292.373C156.543 295.182 154.266 297.458 151.458 297.458H96.085C91.2927 297.56 87.0288 294.433 85.6866 289.831C84.9103 286.767 85.597 283.517 87.5463 281.03C89.4956 278.542 92.4874 277.098 95.6477 277.119C98.3311 277.111 100.901 276.033 102.787 274.124C104.673 272.215 105.72 269.633 105.695 266.95V155.085C105.695 152.277 103.419 150 100.61 150H59.9324C57.1242 150 54.8477 147.724 54.8477 144.916V124.577L131.119 114.407L156.543 185.594Z" fill="#94A4A4"/>
<g id="Group">
<path id="Shape_3" d="M298.915 38.1358H283.661C280.853 38.1358 278.576 35.8593 278.576 33.0511C278.576 30.2428 280.853 27.9663 283.661 27.9663H298.915C301.723 27.9663 304 30.2428 304 33.0511C304 35.8593 301.723 38.1358 298.915 38.1358Z" fill="#2980B9"/>
<path id="Shape_4" d="M298.915 63.5596H283.661C280.853 63.5596 278.576 61.2831 278.576 58.4749C278.576 55.6667 280.853 53.3901 283.661 53.3901H298.915C301.723 53.3901 304 55.6667 304 58.4749C304 61.2831 301.723 63.5596 298.915 63.5596Z" fill="#2980B9"/>
<path id="Shape_5" d="M298.915 88.9835H283.661C280.853 88.9835 278.576 86.7069 278.576 83.8987C278.576 81.0905 280.853 78.814 283.661 78.814H298.915C301.723 78.814 304 81.0905 304 83.8987C304 86.7069 301.723 88.9835 298.915 88.9835Z" fill="#2980B9"/>
<path id="Shape_6" d="M298.915 114.407H283.661C280.853 114.407 278.576 112.13 278.576 109.322C278.576 106.514 280.853 104.237 283.661 104.237H298.915C301.723 104.237 304 106.514 304 109.322C304 112.13 301.723 114.407 298.915 114.407Z" fill="#2980B9"/>
<path id="Shape_7" d="M298.915 139.831H283.661C280.853 139.831 278.576 137.554 278.576 134.746C278.576 131.938 280.853 129.661 283.661 129.661H298.915C301.723 129.661 304 131.938 304 134.746C304 137.554 301.723 139.831 298.915 139.831Z" fill="#2980B9"/>
</g>
<path id="Shape_8" d="M41.2204 114.407L22.1526 114.407C19.7514 114.412 17.6737 112.737 17.1695 110.39L4.10171 49.3728C3.77872 47.869 4.15373 46.2999 5.12174 45.1047C6.08975 43.9095 7.54673 43.2167 9.08476 43.2202H25.356L41.2204 114.407Z" fill="#464F5D"/>
<path id="Shape_9" d="M171.796 53.3898V180.508C171.796 183.317 169.519 185.593 166.711 185.593H136.203C133.395 185.593 131.118 183.317 131.118 180.508V124.576H47.5757C45.1945 124.574 43.1294 122.93 42.5926 120.61L41.2197 114.407L25.3553 43.2203L24.4909 39.2542C24.1642 37.7447 24.5363 36.1685 25.5035 34.9645C26.4706 33.7604 27.9296 33.0572 29.474 33.0508H151.457C162.69 33.0508 171.796 42.1569 171.796 53.3898Z" fill="#EBEFF0"/>
<path id="Shape_10" d="M192.136 63.5594V124.576C192.136 127.385 189.859 129.661 187.051 129.661H171.797V58.4746H187.051C189.859 58.4746 192.136 60.7511 192.136 63.5594Z" fill="#BCC2C6"/>
<path id="Rectangle path" d="M70.1019 53.3901H59.9324C57.1242 53.3901 54.8477 55.6667 54.8477 58.4749V68.6444C54.8477 71.4526 57.1242 73.7291 59.9324 73.7291H70.1019C72.9101 73.7291 75.1866 71.4526 75.1866 68.6444V58.4749C75.1866 55.6667 72.9101 53.3901 70.1019 53.3901Z" fill="#FF5364"/>
<path id="Shape_11" d="M120.95 58.4747H95.5262C92.7179 58.4747 90.4414 56.1982 90.4414 53.3899C90.4414 50.5817 92.7179 48.3052 95.5262 48.3052H120.95C123.758 48.3052 126.035 50.5817 126.035 53.3899C126.035 56.1982 123.758 58.4747 120.95 58.4747Z" fill="#BCC2C6"/>
<path id="Shape_12" d="M110.78 78.8135H95.5261C92.7179 78.8135 90.4414 76.537 90.4414 73.7288C90.4414 70.9206 92.7179 68.644 95.5261 68.644H110.78C113.589 68.644 115.865 70.9206 115.865 73.7288C115.865 76.537 113.589 78.8135 110.78 78.8135Z" fill="#BCC2C6"/>
<path id="Shape_13" d="M298.916 195.763C298.919 208.078 293.958 219.875 285.155 228.487C276.352 237.099 264.449 241.799 252.136 241.526C227.264 240.692 207.5 220.344 207.391 195.458C207.459 182.55 213.003 170.278 222.645 161.695V33.051C222.645 16.2016 236.304 2.54248 253.153 2.54248C269.992 2.56768 283.637 16.212 283.662 33.051V161.695C293.379 170.351 298.93 182.749 298.916 195.763Z" fill="#9EC8D2"/>
<path id="Shape_14" d="M273.491 195.763C273.487 202.037 270.592 207.96 265.643 211.817C260.694 215.674 254.244 217.036 248.159 215.507C240.912 213.75 235.235 208.123 233.413 200.893C231.355 192.913 234.317 184.479 240.913 179.537C242.154 178.667 242.909 177.26 242.947 175.744V48.8747C242.842 43.4651 246.845 38.8528 252.216 38.1967C255.056 37.9529 257.87 38.9052 259.978 40.8241C262.086 42.7431 263.298 45.4546 263.321 48.3052V175.831C263.359 177.281 264.086 178.626 265.279 179.451C270.456 183.272 273.505 189.329 273.491 195.763Z" fill="#E54C3C"/>
</g>
</g>
</g>
</g>
<defs>
<filter id="filter0_dd" x="0" y="0" width="308" height="308" filterUnits="userSpaceOnUse" color-interpolation-filters="sRGB">
<feFlood flood-opacity="0" result="BackgroundImageFix"/>
<feColorMatrix in="SourceAlpha" type="matrix" values="0 0 0 0 0 0 0 0 0 0 0 0 0 0 0 0 0 0 127 0"/>
<feOffset dy="4"/>
<feGaussianBlur stdDeviation="2"/>
<feColorMatrix type="matrix" values="0 0 0 0 0 0 0 0 0 0 0 0 0 0 0 0 0 0 0.25 0"/>
<feBlend mode="normal" in2="BackgroundImageFix" result="effect1_dropShadow"/>
<feColorMatrix in="SourceAlpha" type="matrix" values="0 0 0 0 0 0 0 0 0 0 0 0 0 0 0 0 0 0 127 0"/>
<feOffset dy="4"/>
<feGaussianBlur stdDeviation="2"/>
<feColorMatrix type="matrix" values="0 0 0 0 0 0 0 0 0 0 0 0 0 0 0 0 0 0 0.25 0"/>
<feBlend mode="normal" in2="effect1_dropShadow" result="effect2_dropShadow"/>
<feBlend mode="normal" in="SourceGraphic" in2="effect2_dropShadow" result="shape"/>
</filter>
<clipPath id="clip0">
<rect width="300" height="300" fill="white" transform="translate(4)"/>
</clipPath>
</defs>
</svg>
