<svg viewBox="0 0 296 239" fill="none" xmlns="http://www.w3.org/2000/svg">
<g id="caixas-de-som 1" clip-path="url(#clip0)">
<g id="Group">
<g id="Group_2">
<g id="Group_3">
<path id="Vector" d="M9.86731 47.7998H88.8005C91.5252 47.7998 93.7336 49.5834 93.7336 51.783V191.2H4.93359V51.783C4.93359 49.5834 7.14261 47.7998 9.86731 47.7998Z" fill="#6A1B9A"/>
<path id="Vector_2" d="M291.066 191.2H202.266V51.783C202.266 49.583 204.474 47.7998 207.199 47.7998H286.132C288.857 47.7998 291.065 49.5834 291.065 51.783V191.2H291.066Z" fill="#6A1B9A"/>
</g>
<g id="Group_4">
<path id="Vector_3" d="M9.43719 47.7998H74.43C76.9171 47.7998 78.9336 49.428 78.9336 51.4362V191.2H4.93359V51.4362C4.93359 49.428 6.95009 47.7998 9.43719 47.7998Z" fill="#9D27B0"/>
<path id="Vector_4" d="M276.266 191.2H202.266V51.4362C202.266 49.428 204.282 47.7998 206.769 47.7998H271.762C274.249 47.7998 276.266 49.428 276.266 51.4362V191.2Z" fill="#9D27B0"/>
</g>
<path id="Vector_5" d="M207.201 139.417H88.8008V191.2H207.201V139.417Z" fill="#4527A0"/>
<path id="Vector_6" d="M187.468 139.417H93.7344V191.2H187.468V139.417Z" fill="#673AB7"/>
<path id="Vector_7" d="M207.201 99.583H88.8008V147.383H207.201V99.583Z" fill="#37474F"/>
<path id="Vector_8" d="M187.468 99.583H93.7344V147.383H187.468V99.583Z" fill="#607D8B"/>
<path id="Vector_9" d="M78.9344 151.367C78.9217 164.562 65.6768 175.257 49.3344 175.267C46.8386 175.261 44.3532 175.006 41.9344 174.51C28.8676 171.794 19.7344 162.281 19.7344 151.387C19.7344 140.492 28.8676 130.979 41.9344 128.264C44.3463 127.734 46.8351 127.466 49.3344 127.467C65.6768 127.477 78.9217 138.171 78.9344 151.367Z" fill="#00838F"/>
<path id="Vector_10" d="M49.3332 155.35C48.0209 155.36 46.7589 154.944 45.831 154.194C44.9031 153.445 44.3874 152.426 44.4001 151.367C44.3816 150.843 44.5175 150.324 44.795 149.851C45.0447 149.369 45.3951 148.925 45.8304 148.538C47.8082 147.064 50.8572 147.064 52.8355 148.538C53.2709 148.925 53.6212 149.369 53.8715 149.851C54.1247 150.331 54.2589 150.846 54.2664 151.367C54.2467 152.421 53.7357 153.431 52.8355 154.195C52.5939 154.375 52.3291 154.536 52.0452 154.671C51.7937 154.83 51.5099 154.952 51.2069 155.031C50.9121 155.151 50.5947 155.233 50.2675 155.271C49.9594 155.316 49.6472 155.342 49.3332 155.35Z" fill="#7F8C8D"/>
<path id="Vector_11" d="M78.9317 79.6666C78.9329 83.8925 76.8545 87.9461 73.1534 90.9346C69.4522 93.923 64.4323 95.6011 59.198 95.6002C56.656 95.6161 54.1371 95.209 51.798 94.4052C44.3465 91.9858 39.4648 86.1518 39.4648 79.667C39.4648 73.1823 44.3465 67.3483 51.798 64.9288C54.1371 64.125 56.656 63.718 59.198 63.7338C64.4323 63.7324 69.4522 65.411 73.1534 68.3995C76.8545 71.3879 78.9334 75.4402 78.9317 79.6666Z" fill="#00838F"/>
<path id="Vector_12" d="M59.1995 83.65C57.205 83.6435 55.4093 82.6716 54.6444 81.1844C53.8796 79.6967 54.2941 77.984 55.6966 76.8385C56.8645 75.9101 58.5254 75.5072 60.1337 75.763C60.461 75.7999 60.7784 75.8797 61.0732 76.0001C61.3761 76.08 61.66 76.2018 61.9115 76.36C62.1953 76.4968 62.4601 76.6569 62.7018 76.8385C64.6096 78.4093 64.6096 80.9239 62.7018 82.4947C62.4601 82.6753 62.1953 82.8355 61.9115 82.9713C61.66 83.1295 61.3761 83.2514 61.0732 83.3312C60.7784 83.4512 60.461 83.5324 60.1337 83.5707C59.8256 83.6159 59.5134 83.6425 59.1995 83.65Z" fill="#7F8C8D"/>
<g id="Group_5">
<path id="Vector_13" d="M29.6012 115.517C35.0505 115.517 39.4681 111.95 39.4681 107.55C39.4681 103.15 35.0505 99.583 29.6012 99.583C24.1519 99.583 19.7344 103.15 19.7344 107.55C19.7344 111.95 24.1519 115.517 29.6012 115.517Z" fill="#00838F"/>
<path id="Vector_14" d="M276.266 151.367C276.254 164.562 263.009 175.257 246.666 175.267C244.171 175.261 241.685 175.006 239.266 174.51C226.2 171.794 217.066 162.281 217.066 151.387C217.066 140.492 226.2 130.979 239.266 128.264C241.678 127.734 244.167 127.466 246.666 127.467C263.008 127.477 276.253 138.171 276.266 151.367Z" fill="#00838F"/>
</g>
<path id="Vector_15" d="M246.668 155.35C245.355 155.36 244.093 154.944 243.165 154.194C242.238 153.445 241.722 152.426 241.735 151.367C241.742 150.846 241.876 150.331 242.129 149.851C242.38 149.369 242.73 148.925 243.165 148.538C245.143 147.064 248.192 147.064 250.171 148.538C250.617 148.918 250.968 149.364 251.207 149.851C251.46 150.331 251.594 150.846 251.601 151.367C251.594 151.634 251.56 151.9 251.5 152.162C251.449 152.412 251.349 152.654 251.207 152.88C250.968 153.367 250.616 153.813 250.171 154.195C249.224 154.921 247.973 155.333 246.668 155.35Z" fill="#7F8C8D"/>
<path id="Vector_16" d="M256.533 79.6666C256.534 83.8925 254.456 87.9461 250.755 90.9346C247.054 93.923 242.034 95.6011 236.8 95.6002C234.258 95.6161 231.739 95.209 229.4 94.4052C221.948 91.9858 217.066 86.1518 217.066 79.667C217.066 73.1823 221.948 67.3483 229.4 64.9288C231.739 64.125 234.258 63.718 236.8 63.7338C242.033 63.7324 247.054 65.411 250.755 68.3995C254.456 71.3879 256.535 75.4402 256.533 79.6666Z" fill="#00838F"/>
<path id="Vector_17" d="M236.8 83.6499C236.155 83.6434 235.519 83.5351 234.926 83.3311C234.322 83.1383 233.769 82.8545 233.297 82.4946C232.862 82.1072 232.511 81.6623 232.261 81.1796C231.984 80.7077 231.848 80.1891 231.866 79.6667C231.853 79.3988 231.885 79.1304 231.963 78.8694C232.018 78.6197 232.119 78.3779 232.262 78.1515C232.369 77.898 232.518 77.6572 232.705 77.4359C232.902 77.2357 233.1 77.0373 233.298 76.8389C235.262 75.3363 238.338 75.3363 240.303 76.8389C241.203 77.6026 241.714 78.6127 241.734 79.6667C241.726 80.1872 241.591 80.7012 241.339 81.1801C241.088 81.6628 240.738 82.1076 240.303 82.4951C239.356 83.2209 238.105 83.6336 236.8 83.6499Z" fill="#7F8C8D"/>
<path id="Vector_18" d="M266.402 115.517C271.851 115.517 276.269 111.95 276.269 107.55C276.269 103.15 271.851 99.583 266.402 99.583C260.953 99.583 256.535 103.15 256.535 107.55C256.535 111.95 260.953 115.517 266.402 115.517Z" fill="#00838F"/>
<g id="Group_6">
<path id="Vector_19" d="M64.1344 151.367C64.1032 162.257 54.9855 171.762 41.9344 174.51C28.8676 171.794 19.7344 162.281 19.7344 151.387C19.7344 140.492 28.8676 130.979 41.9344 128.264C54.9884 130.982 64.1165 140.482 64.1344 151.367Z" fill="#00BCD4"/>
<path id="Vector_20" d="M64.135 79.6669C64.1489 86.1554 59.262 91.9945 51.8019 94.4051C44.3504 91.9857 39.4688 86.1516 39.4688 79.6669C39.4688 73.1821 44.3504 67.3481 51.8019 64.9287C59.2626 67.3388 64.1489 73.1784 64.135 79.6669Z" fill="#00BCD4"/>
<path id="Vector_21" d="M261.466 151.367C261.435 162.257 252.318 171.762 239.266 174.51C226.2 171.794 217.066 162.281 217.066 151.387C217.066 140.492 226.2 130.979 239.266 128.264C252.32 130.982 261.448 140.482 261.466 151.367Z" fill="#00BCD4"/>
<path id="Vector_22" d="M241.733 79.6669C241.747 86.1554 236.86 91.9945 229.4 94.4051C221.948 91.9857 217.066 86.1516 217.066 79.6669C217.066 73.1821 221.948 67.3481 229.4 64.9287C236.86 67.3388 241.747 73.1784 241.733 79.6669Z" fill="#00BCD4"/>
</g>
<path id="Vector_23" d="M187.467 115.517H157.867V131.45H187.467V115.517Z" fill="#F44335"/>
<path id="Vector_24" d="M157.868 115.517H108.535V131.45H157.868V115.517Z" fill="#90BAE1"/>
<g id="Group_7">
<path id="Vector_25" d="M118.402 179.25C123.851 179.25 128.269 175.683 128.269 171.283C128.269 166.883 123.851 163.316 118.402 163.316C112.953 163.316 108.535 166.883 108.535 171.283C108.535 175.683 112.953 179.25 118.402 179.25Z" fill="#00BCD4"/>
<path id="Vector_26" d="M177.601 179.25C183.051 179.25 187.468 175.683 187.468 171.283C187.468 166.883 183.051 163.316 177.601 163.316C172.152 163.316 167.734 166.883 167.734 171.283C167.734 175.683 172.152 179.25 177.601 179.25Z" fill="#00BCD4"/>
<path id="Vector_27" d="M152.937 167.3H143.07C140.345 167.3 138.137 165.516 138.137 163.317C138.137 161.117 140.346 159.333 143.07 159.333H152.937C155.661 159.333 157.87 161.117 157.87 163.317C157.87 165.516 155.661 167.3 152.937 167.3Z" fill="#00BCD4"/>
<path id="Vector_28" d="M152.937 179.25H143.07C140.345 179.25 138.137 177.466 138.137 175.267C138.137 173.067 140.346 171.284 143.07 171.284H152.937C155.661 171.284 157.87 173.067 157.87 175.267C157.87 177.467 155.661 179.25 152.937 179.25Z" fill="#00BCD4"/>
</g>
</g>
<g id="Group_8">
<path id="Vector_29" d="M49.3339 123.483C30.2616 123.483 14.8008 135.967 14.8008 151.367C14.8008 166.766 30.2622 179.25 49.3339 179.25C68.4057 179.25 83.8671 166.766 83.8671 151.367C83.8451 135.975 68.397 123.502 49.3339 123.483ZM49.3339 171.283C39.3572 171.283 30.3628 166.431 26.5448 158.988C22.7269 151.546 24.837 142.98 31.8919 137.283C38.9468 131.587 49.5559 129.883 58.7736 132.966C67.9912 136.049 74.0008 143.312 74.0008 151.367C73.9846 162.361 62.9505 171.271 49.3339 171.283Z" fill="black"/>
<path id="Vector_30" d="M52.8361 148.539C50.8583 147.065 47.8093 147.065 45.831 148.539C45.3956 148.926 45.0453 149.37 44.795 149.852C44.5169 150.325 44.3816 150.844 44.4001 151.367C44.3874 152.427 44.9031 153.446 45.831 154.195C46.7589 154.944 48.0209 155.36 49.3332 155.35C49.6466 155.343 49.9594 155.316 50.2681 155.27C50.5953 155.232 50.9127 155.151 51.2075 155.031C51.5105 154.952 51.7943 154.83 52.0458 154.671C52.3291 154.536 52.5944 154.376 52.8361 154.195C53.7362 153.431 54.2467 152.421 54.267 151.367C54.2594 150.846 54.1253 150.331 53.8721 149.851C53.6218 149.37 53.2714 148.926 52.8361 148.539Z" fill="black"/>
<path id="Vector_31" d="M59.1981 59.75C45.5752 59.75 34.5312 68.6672 34.5312 79.6668C34.5312 90.6664 45.5752 99.5836 59.1981 99.5836C72.821 99.5836 83.865 90.6664 83.865 79.6668C83.8488 68.6724 72.8147 59.7631 59.1981 59.75ZM59.1981 91.6168C51.0246 91.6168 44.3981 86.2664 44.3981 79.6668C44.3981 73.0673 51.0246 67.7168 59.1981 67.7168C67.3716 67.7168 73.9981 73.0673 73.9981 79.6668C73.9894 86.2636 67.3682 91.6094 59.1981 91.6168Z" fill="black"/>
<path id="Vector_32" d="M61.9125 76.36C61.661 76.2018 61.3771 76.08 61.0742 76.0001C60.7793 75.8797 60.462 75.7994 60.1347 75.763C58.5264 75.5072 56.8654 75.9101 55.6976 76.8385C54.2749 77.978 53.847 79.6995 54.6154 81.1942C55.3837 82.6889 57.1961 83.6593 59.1999 83.65C59.5133 83.6425 59.826 83.6159 60.1347 83.5702C60.462 83.5319 60.7793 83.4512 61.0742 83.3307C61.3771 83.2509 61.661 83.1291 61.9125 82.9708C62.1958 82.835 62.4611 82.6753 62.7028 82.4942C64.6106 80.9235 64.6106 78.4088 62.7028 76.838C62.4605 76.6574 62.1958 76.4968 61.9125 76.36Z" fill="black"/>
<path id="Vector_33" d="M29.6008 119.5C37.7743 119.5 44.4008 114.15 44.4008 107.55C44.4008 100.951 37.7743 95.6001 29.6008 95.6001C21.4273 95.6001 14.8008 100.951 14.8008 107.55C14.8095 114.147 21.4307 119.493 29.6008 119.5ZM29.6008 103.567C32.3255 103.567 34.5339 105.35 34.5339 107.55C34.5339 109.75 32.3249 111.533 29.6008 111.533C26.8767 111.533 24.6676 109.75 24.6676 107.55C24.67 105.351 26.8772 103.569 29.6008 103.567Z" fill="black"/>
<path id="Vector_34" d="M286.133 43.8169H207.2C201.753 43.822 197.34 47.3855 197.333 51.7837V95.6001H98.6669V51.7832C98.6605 47.3855 94.2471 43.8215 88.8 43.8164H9.86686C4.41977 43.8215 0.00635986 47.3855 4.8179e-07 51.7832V191.2C-0.000577643 192.256 0.519157 193.27 1.44473 194.017C2.37031 194.765 3.62484 195.184 4.93372 195.184H291.067C292.375 195.184 293.63 194.765 294.556 194.017C295.481 193.27 296.001 192.257 296.001 191.2V51.7832C295.994 47.3855 291.58 43.8215 286.133 43.8169ZM197.333 103.567V143.4H98.6669V103.567H197.333ZM9.86686 51.7832H88.8V187.216H9.86686V51.7832ZM98.6669 151.367H197.334V187.217H98.6669V151.367ZM286.133 187.217H207.2V51.7832H286.133V187.217Z" fill="black"/>
<path id="Vector_35" d="M246.666 179.25C265.738 179.25 281.199 166.766 281.199 151.367C281.199 135.968 265.738 123.484 246.666 123.484C227.594 123.484 212.133 135.968 212.133 151.367C212.155 166.759 227.603 179.233 246.666 179.25ZM246.666 131.45C260.289 131.45 271.333 140.367 271.333 151.367C271.333 162.367 260.289 171.284 246.666 171.284C233.043 171.284 221.999 162.367 221.999 151.367C222.015 140.373 233.049 131.463 246.666 131.45Z" fill="black"/>
<path id="Vector_36" d="M246.668 155.35C247.974 155.334 249.224 154.922 250.171 154.195C250.617 153.814 250.968 153.368 251.207 152.88C251.35 152.654 251.449 152.412 251.501 152.162C251.56 151.899 251.595 151.633 251.602 151.367C251.594 150.846 251.46 150.331 251.207 149.851C250.968 149.364 250.617 148.919 250.171 148.538C248.193 147.064 245.144 147.064 243.165 148.538C242.73 148.925 242.38 149.369 242.129 149.851C241.876 150.331 241.742 150.846 241.735 151.367C241.722 152.426 242.238 153.445 243.165 154.194C244.094 154.944 245.356 155.36 246.668 155.35Z" fill="black"/>
<path id="Vector_37" d="M236.8 99.5832C250.423 99.5832 261.467 90.666 261.467 79.6664C261.467 68.6668 250.423 59.75 236.8 59.75C223.177 59.75 212.133 68.6672 212.133 79.6668C212.149 90.6608 223.183 99.5706 236.8 99.5832ZM236.8 67.7168C244.973 67.7168 251.6 73.0673 251.6 79.6668C251.6 86.2669 244.973 91.6168 236.8 91.6168C228.626 91.6168 222 86.2664 222 79.6668C222.008 73.0701 228.63 67.7238 236.8 67.7168Z" fill="black"/>
<path id="Vector_38" d="M233.297 82.495C233.769 82.8549 234.322 83.1387 234.926 83.3315C235.519 83.5355 236.155 83.6438 236.8 83.6504C238.106 83.634 239.356 83.2218 240.303 82.495C240.738 82.1076 241.088 81.6627 241.339 81.1801C241.591 80.7011 241.726 80.1872 241.734 79.6667C241.715 78.6122 241.203 77.6025 240.303 76.8384C238.338 75.3358 235.262 75.3358 233.298 76.8384C233.1 77.0368 232.903 77.2352 232.705 77.4354C232.518 77.6567 232.369 77.8976 232.262 78.151C232.119 78.3774 232.019 78.6192 231.963 78.869C231.885 79.1299 231.853 79.3983 231.866 79.6667C231.848 80.1891 231.984 80.7077 232.261 81.1801C232.511 81.6627 232.862 82.1076 233.297 82.495Z" fill="black"/>
<path id="Vector_39" d="M251.602 107.55C251.602 114.15 258.228 119.5 266.402 119.5C274.575 119.5 281.202 114.15 281.202 107.55C281.202 100.951 274.575 95.6001 266.402 95.6001C258.231 95.6071 251.61 100.953 251.602 107.55ZM266.402 103.567C269.126 103.567 271.335 105.35 271.335 107.55C271.335 109.75 269.126 111.533 266.402 111.533C263.677 111.533 261.468 109.75 261.468 107.55C261.471 105.351 263.678 103.569 266.402 103.567Z" fill="black"/>
<path id="Vector_40" d="M108.535 135.433H187.468C188.777 135.434 190.032 135.014 190.957 134.267C191.882 133.52 192.402 132.506 192.402 131.45V115.516C192.403 114.46 191.883 113.447 190.957 112.699C190.032 111.952 188.777 111.533 187.468 111.533H108.535C107.227 111.532 105.972 111.952 105.046 112.699C104.121 113.446 103.602 114.46 103.602 115.516V131.45C103.601 132.506 104.121 133.52 105.046 134.267C105.972 135.014 107.227 135.434 108.535 135.433ZM182.535 127.467H162.802V119.5H182.535V127.467ZM113.469 119.5H152.936V127.467H113.469V119.5Z" fill="black"/>
<path id="Vector_41" d="M118.402 159.333C110.227 159.333 103.602 164.684 103.602 171.283C103.602 177.883 110.228 183.233 118.402 183.233C126.575 183.233 133.202 177.883 133.202 171.283C133.193 164.687 126.572 159.341 118.402 159.333ZM118.402 175.267C115.677 175.267 113.468 173.484 113.468 171.284C113.468 169.084 115.677 167.301 118.402 167.301C121.126 167.301 123.335 169.084 123.335 171.284C123.332 173.483 121.125 175.265 118.402 175.267Z" fill="black"/>
<path id="Vector_42" d="M177.601 159.333C169.427 159.333 162.801 164.684 162.801 171.283C162.801 177.883 169.427 183.233 177.601 183.233C185.774 183.233 192.401 177.883 192.401 171.283C192.392 164.687 185.771 159.341 177.601 159.333ZM177.601 175.267C174.876 175.267 172.668 173.484 172.668 171.284C172.668 169.084 174.876 167.301 177.601 167.301C180.325 167.301 182.534 169.084 182.534 171.284C182.532 173.483 180.324 175.265 177.601 175.267Z" fill="black"/>
<path id="Vector_43" d="M152.933 159.333H143.066C140.341 159.333 138.133 161.117 138.133 163.317C138.133 165.517 140.342 167.3 143.066 167.3H152.933C155.658 167.3 157.866 165.516 157.866 163.317C157.867 161.117 155.658 159.333 152.933 159.333Z" fill="black"/>
<path id="Vector_44" d="M152.933 171.283H143.066C140.341 171.283 138.133 173.067 138.133 175.266C138.133 177.466 140.342 179.25 143.066 179.25H152.933C155.658 179.25 157.866 177.466 157.866 175.266C157.867 173.067 155.658 171.283 152.933 171.283Z" fill="black"/>
</g>
</g>
</g>
<defs>
<clipPath id="clip0">
<rect width="296" height="239" fill="white"/>
</clipPath>
</defs>
</svg>
